M48
; DRILL file {KiCad 8.0.8} date 2025-03-17T17:43:36-0400
; FORMAT={-:-/ absolute / metric / decimal}
; #@! TF.CreationDate,2025-03-17T17:43:36-04:00
; #@! TF.GenerationSoftware,Kicad,Pcbnew,8.0.8
; #@! TF.FileFunction,Plated,1,4,PTH
FMAT,2
METRIC
; #@! TA.AperFunction,Plated,PTH,ViaDrill
T1C0.400
; #@! TA.AperFunction,Plated,PTH,ComponentDrill
T2C0.400
; #@! TA.AperFunction,Plated,PTH,ViaDrill
T3C0.600
; #@! TA.AperFunction,Plated,PTH,ComponentDrill
T4C0.800
; #@! TA.AperFunction,Plated,PTH,ComponentDrill
T5C0.900
; #@! TA.AperFunction,Plated,PTH,ViaDrill
T6C1.000
; #@! TA.AperFunction,Plated,PTH,ComponentDrill
T7C1.000
; #@! TA.AperFunction,Plated,PTH,ViaDrill
T8C2.000
; #@! TA.AperFunction,Plated,PTH,ComponentDrill
T9C2.200
%
G90
G05
T1
X151.525Y-107.35
X151.525Y-108.55
X151.55Y-104.9
X151.75Y-123.6
X151.8Y-117.325
X151.8Y-118.525
X151.825Y-138.5
X151.85Y-127.65
X152.95Y-123.6
X153.0Y-117.325
X153.0Y-118.525
X153.05Y-127.65
X154.05Y-122.765
X154.2Y-107.625
X154.2Y-108.475
X154.2Y-116.125
X154.2Y-117.325
X154.2Y-118.525
X154.2Y-119.725
X154.2Y-123.55
X154.225Y-124.975
X154.225Y-126.375
X154.225Y-127.65
X154.375Y-105.3
X154.9Y-108.025
X155.35Y-101.6
X155.4Y-138.475
X155.425Y-124.975
X155.425Y-126.375
X155.425Y-127.65
X155.425Y-128.975
X156.3Y-105.85
X156.425Y-108.025
X157.05Y-102.025
X157.475Y-113.575
X157.55Y-124.55
X157.7Y-110.075
X157.725Y-105.925
X157.775Y-108.05
X157.8Y-121.037
X158.15Y-112.627
X158.325Y-103.725
X158.45Y-104.8
X159.075Y-106.95
X159.525Y-113.65
X159.575Y-112.65
X160.05Y-103.0
X160.65Y-108.025
X161.825Y-111.0
X161.825Y-114.1
X161.85Y-108.025
X162.063Y-136.752
X162.075Y-103.725
X162.1Y-104.825
X163.025Y-111.0
X163.025Y-114.1
X163.025Y-137.35
X163.05Y-108.025
X163.575Y-125.55
X164.25Y-108.025
X164.3Y-128.75
X164.325Y-110.987
X164.775Y-122.7
X165.3Y-128.75
X165.85Y-122.4
X166.3Y-127.75
X166.3Y-128.75
X166.3Y-129.75
X166.3Y-130.75
X166.3Y-131.675
X166.35Y-110.6
X166.375Y-135.65
X166.4Y-136.65
X166.4Y-137.65
X166.87Y-104.945
X167.3Y-127.75
X167.3Y-128.75
X167.3Y-129.75
X167.3Y-130.75
X167.3Y-131.675
X167.375Y-135.65
X167.4Y-136.65
X167.4Y-137.65
X168.3Y-127.75
X168.3Y-128.75
X168.3Y-129.75
X168.3Y-130.75
X168.3Y-131.675
X168.375Y-110.625
X168.375Y-135.65
X168.4Y-136.65
X168.4Y-137.65
X168.725Y-111.892
X168.75Y-126.125
X169.45Y-120.975
X170.425Y-111.025
X170.45Y-103.375
X171.525Y-135.3
X171.525Y-136.7
X171.825Y-131.775
X171.975Y-137.675
X172.525Y-106.75
X173.775Y-109.8
X174.45Y-130.125
X175.15Y-120.425
X175.15Y-121.425
X175.15Y-122.425
X175.15Y-123.425
X175.275Y-115.25
X175.275Y-116.45
X175.275Y-117.7
X175.275Y-118.9
X175.525Y-108.85
X176.15Y-136.575
X176.475Y-117.7
X176.475Y-118.9
X176.5Y-115.25
X176.5Y-116.45
X176.625Y-124.65
X176.65Y-120.425
X176.65Y-121.425
X176.65Y-122.425
X176.65Y-123.425
X177.675Y-115.3
X177.675Y-116.5
X177.675Y-117.7
X177.675Y-118.9
X178.025Y-124.65
X178.05Y-120.425
X178.05Y-121.425
X178.05Y-122.425
X178.05Y-123.425
X178.762Y-128.072
X178.762Y-129.272
X178.762Y-130.472
X178.762Y-131.672
X178.762Y-132.872
X178.875Y-115.3
X178.875Y-116.5
X178.875Y-117.7
X178.875Y-118.9
X179.35Y-123.025
X179.35Y-124.025
X179.35Y-125.025
X179.35Y-126.025
X179.962Y-135.272
X180.525Y-108.85
X181.162Y-135.272
X181.2Y-130.75
X182.362Y-135.272
X183.125Y-120.3
X183.125Y-121.475
X183.2Y-122.975
X183.2Y-123.975
X183.2Y-124.975
X183.2Y-125.975
X183.562Y-128.072
X183.562Y-129.272
X183.562Y-130.472
X183.562Y-131.672
X183.562Y-132.872
X183.562Y-134.072
X183.562Y-135.272
X183.675Y-115.3
X183.675Y-116.5
X183.675Y-117.7
X184.762Y-128.072
X184.762Y-129.272
X184.762Y-130.472
X184.762Y-131.672
X184.762Y-132.872
X184.762Y-134.072
X184.762Y-135.272
X184.875Y-116.5
X184.875Y-117.7
X184.875Y-118.9
X185.025Y-109.875
X186.7Y-108.45
X187.057Y-113.975
X187.275Y-106.4
X187.937Y-112.663
X188.432Y-106.018
X188.5Y-110.35
X188.5Y-111.75
X189.9Y-112.025
X190.45Y-113.35
X191.95Y-116.6
X192.5Y-112.392
X192.9Y-110.775
X193.217Y-114.243
X194.75Y-106.375
X195.044Y-112.883
X195.3Y-123.05
X195.35Y-121.025
X196.1Y-114.4
X197.171Y-111.397
X197.275Y-114.575
X198.375Y-114.625
X198.375Y-124.2
X198.403Y-106.35
X198.625Y-118.975
X198.825Y-125.9
X198.85Y-127.65
X199.525Y-110.025
X199.675Y-125.125
X199.725Y-126.7
X200.6Y-107.05
X201.8Y-116.15
X202.45Y-117.325
X202.5Y-118.475
X202.55Y-121.05
X202.65Y-107.175
X202.8Y-125.0
X203.366Y-125.941
X203.9Y-121.05
X204.425Y-125.95
X204.475Y-118.825
X204.625Y-107.2
X205.1Y-113.475
X205.2Y-124.85
X205.4Y-114.525
X205.887Y-121.688
X206.05Y-119.35
X206.1Y-113.5
X206.6Y-128.85
X206.9Y-121.0
X207.8Y-121.675
X207.95Y-118.6
X208.0Y-108.05
X208.425Y-127.175
X208.85Y-121.9
X208.875Y-116.25
X209.175Y-114.15
X209.425Y-115.175
X209.9Y-116.15
X209.925Y-108.025
X210.05Y-118.875
X210.1Y-113.325
X211.375Y-125.725
X213.65Y-122.725
X213.925Y-113.125
X213.925Y-113.975
X213.925Y-117.65
X215.825Y-115.1
X216.875Y-121.475
X217.75Y-115.15
X219.45Y-118.15
X219.9Y-121.95
X219.9Y-131.025
X220.475Y-133.85
X221.45Y-131.025
X221.975Y-133.75
X222.4Y-117.05
X222.8Y-126.05
T2
X175.275Y-125.95
X177.725Y-137.475
X192.375Y-107.475
X192.375Y-108.975
X193.7Y-107.475
X193.875Y-108.95
X195.975Y-117.475
X196.925Y-116.975
X198.0Y-116.475
X209.4Y-128.125
X210.825Y-128.0
T3
X151.525Y-111.35
X151.55Y-110.05
X154.7Y-109.875
X154.75Y-111.375
T4
X152.425Y-120.2
X152.425Y-122.2
X152.438Y-113.725
X152.438Y-115.725
X174.425Y-102.525
X174.425Y-104.525
X179.955Y-102.525
X179.955Y-104.525
X185.485Y-102.525
X185.485Y-104.525
X191.015Y-102.525
X191.015Y-104.525
X196.545Y-102.525
X196.545Y-104.525
X202.075Y-102.525
X202.075Y-104.525
X227.525Y-107.0
X227.525Y-109.0
X227.525Y-111.0
X227.525Y-113.0
X227.525Y-115.0
X227.525Y-117.0
X227.55Y-122.95
X227.55Y-124.95
X227.55Y-126.95
X227.55Y-128.95
X227.55Y-130.95
X227.55Y-132.95
T6
X155.325Y-103.0
X162.425Y-112.525
X167.375Y-133.675
X176.095Y-113.177
X178.65Y-113.175
X190.95Y-133.8
X190.952Y-136.355
T7
X153.1Y-129.325
X153.1Y-131.825
X153.1Y-134.325
X153.1Y-136.825
X173.125Y-113.165
X173.125Y-115.705
X173.125Y-118.245
X173.125Y-120.785
X173.125Y-123.325
X181.25Y-113.175
X181.25Y-115.715
X181.25Y-118.255
X181.25Y-120.795
X181.25Y-123.335
X197.57Y-133.787
X197.57Y-136.327
X200.11Y-133.787
X200.11Y-136.327
X202.65Y-133.787
X202.65Y-136.327
X205.19Y-133.787
X205.19Y-136.327
X206.375Y-102.335
X206.375Y-104.875
X207.73Y-133.787
X207.73Y-136.327
X208.915Y-102.335
X208.915Y-104.875
X211.455Y-102.335
X211.455Y-104.875
X213.995Y-102.335
X213.995Y-104.875
X215.25Y-129.5
X215.25Y-132.04
X217.595Y-102.425
X220.135Y-102.425
X222.675Y-102.425
T8
X170.545Y-116.767
T9
X152.475Y-102.45
X227.3Y-102.65
X227.325Y-137.325
T5
G00X158.625Y-101.754
M15
G01X158.625Y-102.154
M16
G05
G00X166.525Y-101.754
M15
G01X166.525Y-102.154
M16
G05
M30
