%TF.GenerationSoftware,KiCad,Pcbnew,8.0.8*%
%TF.CreationDate,2025-03-15T04:19:01-04:00*%
%TF.ProjectId,tuner time,74756e65-7220-4746-996d-652e6b696361,rev?*%
%TF.SameCoordinates,Original*%
%TF.FileFunction,Drillmap*%
%TF.FilePolarity,Positive*%
%FSLAX45Y45*%
G04 Gerber Fmt 4.5, Leading zero omitted, Abs format (unit mm)*
G04 Created by KiCad (PCBNEW 8.0.8) date 2025-03-15 04:19:01*
%MOMM*%
%LPD*%
G01*
G04 APERTURE LIST*
%ADD10C,0.050000*%
%ADD11C,0.200000*%
%ADD12C,0.100000*%
%ADD13C,0.220000*%
G04 APERTURE END LIST*
D10*
X15000000Y-10000000D02*
X23000000Y-10000000D01*
X23000000Y-14000000D01*
X15000000Y-14000000D01*
X15000000Y-10000000D01*
D11*
D12*
X15132500Y-10715000D02*
X15172500Y-10755000D01*
X15172500Y-10715000D02*
X15132500Y-10755000D01*
X15132500Y-10835000D02*
X15172500Y-10875000D01*
X15172500Y-10835000D02*
X15132500Y-10875000D01*
X15155000Y-12340000D02*
X15195000Y-12380000D01*
X15195000Y-12340000D02*
X15155000Y-12380000D01*
X15160000Y-11712500D02*
X15200000Y-11752500D01*
X15200000Y-11712500D02*
X15160000Y-11752500D01*
X15160000Y-11832500D02*
X15200000Y-11872500D01*
X15200000Y-11832500D02*
X15160000Y-11872500D01*
X15162500Y-13830000D02*
X15202500Y-13870000D01*
X15202500Y-13830000D02*
X15162500Y-13870000D01*
X15165000Y-12745000D02*
X15205000Y-12785000D01*
X15205000Y-12745000D02*
X15165000Y-12785000D01*
X15275000Y-12340000D02*
X15315000Y-12380000D01*
X15315000Y-12340000D02*
X15275000Y-12380000D01*
X15280000Y-11712500D02*
X15320000Y-11752500D01*
X15320000Y-11712500D02*
X15280000Y-11752500D01*
X15280000Y-11832500D02*
X15320000Y-11872500D01*
X15320000Y-11832500D02*
X15280000Y-11872500D01*
X15285000Y-12745000D02*
X15325000Y-12785000D01*
X15325000Y-12745000D02*
X15285000Y-12785000D01*
X15400000Y-11592500D02*
X15440000Y-11632500D01*
X15440000Y-11592500D02*
X15400000Y-11632500D01*
X15400000Y-11712500D02*
X15440000Y-11752500D01*
X15440000Y-11712500D02*
X15400000Y-11752500D01*
X15400000Y-11832500D02*
X15440000Y-11872500D01*
X15440000Y-11832500D02*
X15400000Y-11872500D01*
X15400000Y-11952500D02*
X15440000Y-11992500D01*
X15440000Y-11952500D02*
X15400000Y-11992500D01*
X15400000Y-12335000D02*
X15440000Y-12375000D01*
X15440000Y-12335000D02*
X15400000Y-12375000D01*
X15402500Y-12477500D02*
X15442500Y-12517500D01*
X15442500Y-12477500D02*
X15402500Y-12517500D01*
X15402500Y-12617500D02*
X15442500Y-12657500D01*
X15442500Y-12617500D02*
X15402500Y-12657500D01*
X15402500Y-12745000D02*
X15442500Y-12785000D01*
X15442500Y-12745000D02*
X15402500Y-12785000D01*
X15405000Y-12219000D02*
X15445000Y-12259000D01*
X15445000Y-12219000D02*
X15405000Y-12259000D01*
X15465000Y-10745000D02*
X15505000Y-10785000D01*
X15505000Y-10745000D02*
X15465000Y-10785000D01*
X15520000Y-13827500D02*
X15560000Y-13867500D01*
X15560000Y-13827500D02*
X15520000Y-13867500D01*
X15522500Y-12477500D02*
X15562500Y-12517500D01*
X15562500Y-12477500D02*
X15522500Y-12517500D01*
X15522500Y-12617500D02*
X15562500Y-12657500D01*
X15562500Y-12617500D02*
X15522500Y-12657500D01*
X15522500Y-12745000D02*
X15562500Y-12785000D01*
X15562500Y-12745000D02*
X15522500Y-12785000D01*
X15522500Y-12877500D02*
X15562500Y-12917500D01*
X15562500Y-12877500D02*
X15522500Y-12917500D01*
X15610000Y-10565000D02*
X15650000Y-10605000D01*
X15650000Y-10565000D02*
X15610000Y-10605000D01*
X15622497Y-10782498D02*
X15662497Y-10822498D01*
X15662497Y-10782498D02*
X15622497Y-10822498D01*
X15702500Y-11385000D02*
X15742500Y-11425000D01*
X15742500Y-11385000D02*
X15702500Y-11425000D01*
X15735000Y-12435000D02*
X15775000Y-12475000D01*
X15775000Y-12435000D02*
X15735000Y-12475000D01*
X15750000Y-10987500D02*
X15790000Y-11027500D01*
X15790000Y-10987500D02*
X15750000Y-11027500D01*
X15752500Y-10572500D02*
X15792500Y-10612500D01*
X15792500Y-10572500D02*
X15752500Y-10612500D01*
X15760000Y-12083750D02*
X15800000Y-12123750D01*
X15800000Y-12083750D02*
X15760000Y-12123750D01*
X15805000Y-10680000D02*
X15845000Y-10720000D01*
X15845000Y-10680000D02*
X15805000Y-10720000D01*
X15815000Y-11385000D02*
X15855000Y-11425000D01*
X15855000Y-11385000D02*
X15815000Y-11425000D01*
X15927500Y-10745000D02*
X15967500Y-10785000D01*
X15967500Y-10745000D02*
X15927500Y-10785000D01*
X15932500Y-11345000D02*
X15972500Y-11385000D01*
X15972500Y-11345000D02*
X15932500Y-11385000D01*
X15937500Y-11245000D02*
X15977500Y-11285000D01*
X15977500Y-11245000D02*
X15937500Y-11285000D01*
X16065000Y-10745000D02*
X16105000Y-10785000D01*
X16105000Y-10745000D02*
X16065000Y-10785000D01*
X16065000Y-10865000D02*
X16105000Y-10905000D01*
X16105000Y-10865000D02*
X16065000Y-10905000D01*
X16162500Y-11080000D02*
X16202500Y-11120000D01*
X16202500Y-11080000D02*
X16162500Y-11120000D01*
X16162500Y-11390000D02*
X16202500Y-11430000D01*
X16202500Y-11390000D02*
X16162500Y-11430000D01*
X16185000Y-10745000D02*
X16225000Y-10785000D01*
X16225000Y-10745000D02*
X16185000Y-10785000D01*
X16186331Y-13655244D02*
X16226331Y-13695244D01*
X16226331Y-13655244D02*
X16186331Y-13695244D01*
X16282500Y-11080000D02*
X16322500Y-11120000D01*
X16322500Y-11080000D02*
X16282500Y-11120000D01*
X16282500Y-11390000D02*
X16322500Y-11430000D01*
X16322500Y-11390000D02*
X16282500Y-11430000D01*
X16282500Y-13715000D02*
X16322500Y-13755000D01*
X16322500Y-13715000D02*
X16282500Y-13755000D01*
X16305000Y-10745000D02*
X16345000Y-10785000D01*
X16345000Y-10745000D02*
X16305000Y-10785000D01*
X16337500Y-12535000D02*
X16377500Y-12575000D01*
X16377500Y-12535000D02*
X16337500Y-12575000D01*
X16410000Y-12855000D02*
X16450000Y-12895000D01*
X16450000Y-12855000D02*
X16410000Y-12895000D01*
X16412500Y-11078750D02*
X16452500Y-11118750D01*
X16452500Y-11078750D02*
X16412500Y-11118750D01*
X16425000Y-10745000D02*
X16465000Y-10785000D01*
X16465000Y-10745000D02*
X16425000Y-10785000D01*
X16457500Y-12250000D02*
X16497500Y-12290000D01*
X16497500Y-12250000D02*
X16457500Y-12290000D01*
X16510000Y-12855000D02*
X16550000Y-12895000D01*
X16550000Y-12855000D02*
X16510000Y-12895000D01*
X16610000Y-12755000D02*
X16650000Y-12795000D01*
X16650000Y-12755000D02*
X16610000Y-12795000D01*
X16610000Y-12855000D02*
X16650000Y-12895000D01*
X16650000Y-12855000D02*
X16610000Y-12895000D01*
X16610000Y-12955000D02*
X16650000Y-12995000D01*
X16650000Y-12955000D02*
X16610000Y-12995000D01*
X16610000Y-13055000D02*
X16650000Y-13095000D01*
X16650000Y-13055000D02*
X16610000Y-13095000D01*
X16610000Y-13147500D02*
X16650000Y-13187500D01*
X16650000Y-13147500D02*
X16610000Y-13187500D01*
X16615000Y-11040000D02*
X16655000Y-11080000D01*
X16655000Y-11040000D02*
X16615000Y-11080000D01*
X16617500Y-13545000D02*
X16657500Y-13585000D01*
X16657500Y-13545000D02*
X16617500Y-13585000D01*
X16620000Y-13645000D02*
X16660000Y-13685000D01*
X16660000Y-13645000D02*
X16620000Y-13685000D01*
X16620000Y-13745000D02*
X16660000Y-13785000D01*
X16660000Y-13745000D02*
X16620000Y-13785000D01*
X16710000Y-12755000D02*
X16750000Y-12795000D01*
X16750000Y-12755000D02*
X16710000Y-12795000D01*
X16710000Y-12855000D02*
X16750000Y-12895000D01*
X16750000Y-12855000D02*
X16710000Y-12895000D01*
X16710000Y-12955000D02*
X16750000Y-12995000D01*
X16750000Y-12955000D02*
X16710000Y-12995000D01*
X16710000Y-13055000D02*
X16750000Y-13095000D01*
X16750000Y-13055000D02*
X16710000Y-13095000D01*
X16710000Y-13147500D02*
X16750000Y-13187500D01*
X16750000Y-13147500D02*
X16710000Y-13187500D01*
X16717500Y-13545000D02*
X16757500Y-13585000D01*
X16757500Y-13545000D02*
X16717500Y-13585000D01*
X16720000Y-13645000D02*
X16760000Y-13685000D01*
X16760000Y-13645000D02*
X16720000Y-13685000D01*
X16720000Y-13745000D02*
X16760000Y-13785000D01*
X16760000Y-13745000D02*
X16720000Y-13785000D01*
X16732500Y-12085000D02*
X16772500Y-12125000D01*
X16772500Y-12085000D02*
X16732500Y-12125000D01*
X16810000Y-12755000D02*
X16850000Y-12795000D01*
X16850000Y-12755000D02*
X16810000Y-12795000D01*
X16810000Y-12855000D02*
X16850000Y-12895000D01*
X16850000Y-12855000D02*
X16810000Y-12895000D01*
X16810000Y-12955000D02*
X16850000Y-12995000D01*
X16850000Y-12955000D02*
X16810000Y-12995000D01*
X16810000Y-13055000D02*
X16850000Y-13095000D01*
X16850000Y-13055000D02*
X16810000Y-13095000D01*
X16810000Y-13147500D02*
X16850000Y-13187500D01*
X16850000Y-13147500D02*
X16810000Y-13187500D01*
X16817500Y-11042500D02*
X16857500Y-11082500D01*
X16857500Y-11042500D02*
X16817500Y-11082500D01*
X16817500Y-13545000D02*
X16857500Y-13585000D01*
X16857500Y-13545000D02*
X16817500Y-13585000D01*
X16820000Y-10321569D02*
X16860000Y-10361569D01*
X16860000Y-10321569D02*
X16820000Y-10361569D01*
X16820000Y-13645000D02*
X16860000Y-13685000D01*
X16860000Y-13645000D02*
X16820000Y-13685000D01*
X16820000Y-13745000D02*
X16860000Y-13785000D01*
X16860000Y-13745000D02*
X16820000Y-13785000D01*
X16852500Y-11169250D02*
X16892500Y-11209250D01*
X16892500Y-11169250D02*
X16852500Y-11209250D01*
X16855000Y-12592500D02*
X16895000Y-12632500D01*
X16895000Y-12592500D02*
X16855000Y-12632500D01*
X16945000Y-11510000D02*
X16985000Y-11550000D01*
X16985000Y-11510000D02*
X16945000Y-11550000D01*
X16945000Y-11630000D02*
X16985000Y-11670000D01*
X16985000Y-11630000D02*
X16945000Y-11670000D01*
X17022500Y-11082500D02*
X17062500Y-11122500D01*
X17062500Y-11082500D02*
X17022500Y-11122500D01*
X17025000Y-10317500D02*
X17065000Y-10357500D01*
X17065000Y-10317500D02*
X17025000Y-10357500D01*
X17067500Y-11510000D02*
X17107500Y-11550000D01*
X17107500Y-11510000D02*
X17067500Y-11550000D01*
X17067500Y-11630000D02*
X17107500Y-11670000D01*
X17107500Y-11630000D02*
X17067500Y-11670000D01*
X17132500Y-13510000D02*
X17172500Y-13550000D01*
X17172500Y-13510000D02*
X17132500Y-13550000D01*
X17132500Y-13650000D02*
X17172500Y-13690000D01*
X17172500Y-13650000D02*
X17132500Y-13690000D01*
X17162500Y-13157500D02*
X17202500Y-13197500D01*
X17202500Y-13157500D02*
X17162500Y-13197500D01*
X17177500Y-13747500D02*
X17217500Y-13787500D01*
X17217500Y-13747500D02*
X17177500Y-13787500D01*
X17232500Y-10655000D02*
X17272500Y-10695000D01*
X17272500Y-10655000D02*
X17232500Y-10695000D01*
X17357500Y-10960000D02*
X17397500Y-11000000D01*
X17397500Y-10960000D02*
X17357500Y-11000000D01*
X17425000Y-12992500D02*
X17465000Y-13032500D01*
X17465000Y-12992500D02*
X17425000Y-13032500D01*
X17507500Y-11505000D02*
X17547500Y-11545000D01*
X17547500Y-11505000D02*
X17507500Y-11545000D01*
X17507500Y-11625000D02*
X17547500Y-11665000D01*
X17547500Y-11625000D02*
X17507500Y-11665000D01*
X17507500Y-11750000D02*
X17547500Y-11790000D01*
X17547500Y-11750000D02*
X17507500Y-11790000D01*
X17507500Y-11870000D02*
X17547500Y-11910000D01*
X17547500Y-11870000D02*
X17507500Y-11910000D01*
X17532500Y-10865000D02*
X17572500Y-10905000D01*
X17572500Y-10865000D02*
X17532500Y-10905000D01*
X17532500Y-12062500D02*
X17572500Y-12102500D01*
X17572500Y-12062500D02*
X17532500Y-12102500D01*
X17532500Y-12162500D02*
X17572500Y-12202500D01*
X17572500Y-12162500D02*
X17532500Y-12202500D01*
X17532500Y-12262500D02*
X17572500Y-12302500D01*
X17572500Y-12262500D02*
X17532500Y-12302500D01*
X17532500Y-12362500D02*
X17572500Y-12402500D01*
X17572500Y-12362500D02*
X17532500Y-12402500D01*
X17595000Y-13637500D02*
X17635000Y-13677500D01*
X17635000Y-13637500D02*
X17595000Y-13677500D01*
X17627500Y-11750000D02*
X17667500Y-11790000D01*
X17667500Y-11750000D02*
X17627500Y-11790000D01*
X17627500Y-11870000D02*
X17667500Y-11910000D01*
X17667500Y-11870000D02*
X17627500Y-11910000D01*
X17630000Y-11505000D02*
X17670000Y-11545000D01*
X17670000Y-11505000D02*
X17630000Y-11545000D01*
X17630000Y-11625000D02*
X17670000Y-11665000D01*
X17670000Y-11625000D02*
X17630000Y-11665000D01*
X17682500Y-12062500D02*
X17722500Y-12102500D01*
X17722500Y-12062500D02*
X17682500Y-12102500D01*
X17682500Y-12162500D02*
X17722500Y-12202500D01*
X17722500Y-12162500D02*
X17682500Y-12202500D01*
X17682500Y-12262500D02*
X17722500Y-12302500D01*
X17722500Y-12262500D02*
X17682500Y-12302500D01*
X17682500Y-12362500D02*
X17722500Y-12402500D01*
X17722500Y-12362500D02*
X17682500Y-12402500D01*
X17747500Y-11510000D02*
X17787500Y-11550000D01*
X17787500Y-11510000D02*
X17747500Y-11550000D01*
X17747500Y-11630000D02*
X17787500Y-11670000D01*
X17787500Y-11630000D02*
X17747500Y-11670000D01*
X17747500Y-11750000D02*
X17787500Y-11790000D01*
X17787500Y-11750000D02*
X17747500Y-11790000D01*
X17747500Y-11870000D02*
X17787500Y-11910000D01*
X17787500Y-11870000D02*
X17747500Y-11910000D01*
X17822500Y-12062500D02*
X17862500Y-12102500D01*
X17862500Y-12062500D02*
X17822500Y-12102500D01*
X17822500Y-12162500D02*
X17862500Y-12202500D01*
X17862500Y-12162500D02*
X17822500Y-12202500D01*
X17822500Y-12262500D02*
X17862500Y-12302500D01*
X17862500Y-12262500D02*
X17822500Y-12302500D01*
X17822500Y-12362500D02*
X17862500Y-12402500D01*
X17862500Y-12362500D02*
X17822500Y-12402500D01*
X17856180Y-12787190D02*
X17896180Y-12827190D01*
X17896180Y-12787190D02*
X17856180Y-12827190D01*
X17856180Y-12907190D02*
X17896180Y-12947190D01*
X17896180Y-12907190D02*
X17856180Y-12947190D01*
X17856180Y-13027190D02*
X17896180Y-13067190D01*
X17896180Y-13027190D02*
X17856180Y-13067190D01*
X17856180Y-13147190D02*
X17896180Y-13187190D01*
X17896180Y-13147190D02*
X17856180Y-13187190D01*
X17856180Y-13267190D02*
X17896180Y-13307190D01*
X17896180Y-13267190D02*
X17856180Y-13307190D01*
X17867500Y-11510000D02*
X17907500Y-11550000D01*
X17907500Y-11510000D02*
X17867500Y-11550000D01*
X17867500Y-11630000D02*
X17907500Y-11670000D01*
X17907500Y-11630000D02*
X17867500Y-11670000D01*
X17867500Y-11750000D02*
X17907500Y-11790000D01*
X17907500Y-11750000D02*
X17867500Y-11790000D01*
X17867500Y-11870000D02*
X17907500Y-11910000D01*
X17907500Y-11870000D02*
X17867500Y-11910000D01*
X17976180Y-13507190D02*
X18016180Y-13547190D01*
X18016180Y-13507190D02*
X17976180Y-13547190D01*
X18032500Y-10865000D02*
X18072500Y-10905000D01*
X18072500Y-10865000D02*
X18032500Y-10905000D01*
X18096180Y-13507190D02*
X18136180Y-13547190D01*
X18136180Y-13507190D02*
X18096180Y-13547190D01*
X18100000Y-13055000D02*
X18140000Y-13095000D01*
X18140000Y-13055000D02*
X18100000Y-13095000D01*
X18216180Y-13507190D02*
X18256180Y-13547190D01*
X18256180Y-13507190D02*
X18216180Y-13547190D01*
X18300000Y-12277500D02*
X18340000Y-12317500D01*
X18340000Y-12277500D02*
X18300000Y-12317500D01*
X18300000Y-12377500D02*
X18340000Y-12417500D01*
X18340000Y-12377500D02*
X18300000Y-12417500D01*
X18300000Y-12477500D02*
X18340000Y-12517500D01*
X18340000Y-12477500D02*
X18300000Y-12517500D01*
X18300000Y-12577500D02*
X18340000Y-12617500D01*
X18340000Y-12577500D02*
X18300000Y-12617500D01*
X18302500Y-11985000D02*
X18342500Y-12025000D01*
X18342500Y-11985000D02*
X18302500Y-12025000D01*
X18305000Y-12132500D02*
X18345000Y-12172500D01*
X18345000Y-12132500D02*
X18305000Y-12172500D01*
X18336180Y-12787190D02*
X18376180Y-12827190D01*
X18376180Y-12787190D02*
X18336180Y-12827190D01*
X18336180Y-12907190D02*
X18376180Y-12947190D01*
X18376180Y-12907190D02*
X18336180Y-12947190D01*
X18336180Y-13027190D02*
X18376180Y-13067190D01*
X18376180Y-13027190D02*
X18336180Y-13067190D01*
X18336180Y-13147190D02*
X18376180Y-13187190D01*
X18376180Y-13147190D02*
X18336180Y-13187190D01*
X18336180Y-13267190D02*
X18376180Y-13307190D01*
X18376180Y-13267190D02*
X18336180Y-13307190D01*
X18336180Y-13387190D02*
X18376180Y-13427190D01*
X18376180Y-13387190D02*
X18336180Y-13427190D01*
X18336180Y-13507190D02*
X18376180Y-13547190D01*
X18376180Y-13507190D02*
X18336180Y-13547190D01*
X18347500Y-11510000D02*
X18387500Y-11550000D01*
X18387500Y-11510000D02*
X18347500Y-11550000D01*
X18347500Y-11630000D02*
X18387500Y-11670000D01*
X18387500Y-11630000D02*
X18347500Y-11670000D01*
X18347500Y-11750000D02*
X18387500Y-11790000D01*
X18387500Y-11750000D02*
X18347500Y-11790000D01*
X18456180Y-12787190D02*
X18496180Y-12827190D01*
X18496180Y-12787190D02*
X18456180Y-12827190D01*
X18456180Y-12907190D02*
X18496180Y-12947190D01*
X18496180Y-12907190D02*
X18456180Y-12947190D01*
X18456180Y-13027190D02*
X18496180Y-13067190D01*
X18496180Y-13027190D02*
X18456180Y-13067190D01*
X18456180Y-13147190D02*
X18496180Y-13187190D01*
X18496180Y-13147190D02*
X18456180Y-13187190D01*
X18456180Y-13267190D02*
X18496180Y-13307190D01*
X18496180Y-13267190D02*
X18456180Y-13307190D01*
X18456180Y-13387190D02*
X18496180Y-13427190D01*
X18496180Y-13387190D02*
X18456180Y-13427190D01*
X18456180Y-13507190D02*
X18496180Y-13547190D01*
X18496180Y-13507190D02*
X18456180Y-13547190D01*
X18467500Y-11630000D02*
X18507500Y-11670000D01*
X18507500Y-11630000D02*
X18467500Y-11670000D01*
X18467500Y-11750000D02*
X18507500Y-11790000D01*
X18507500Y-11750000D02*
X18467500Y-11790000D01*
X18467500Y-11870000D02*
X18507500Y-11910000D01*
X18507500Y-11870000D02*
X18467500Y-11910000D01*
X18482500Y-10967500D02*
X18522500Y-11007500D01*
X18522500Y-10967500D02*
X18482500Y-11007500D01*
X18650000Y-10825000D02*
X18690000Y-10865000D01*
X18690000Y-10825000D02*
X18650000Y-10865000D01*
X18685736Y-11377500D02*
X18725736Y-11417500D01*
X18725736Y-11377500D02*
X18685736Y-11417500D01*
X18707500Y-10620000D02*
X18747500Y-10660000D01*
X18747500Y-10620000D02*
X18707500Y-10660000D01*
X18773677Y-11246323D02*
X18813677Y-11286323D01*
X18813677Y-11246323D02*
X18773677Y-11286323D01*
X18823248Y-10581753D02*
X18863248Y-10621753D01*
X18863248Y-10581753D02*
X18823248Y-10621753D01*
X18830000Y-11015000D02*
X18870000Y-11055000D01*
X18870000Y-11015000D02*
X18830000Y-11055000D01*
X18830000Y-11155000D02*
X18870000Y-11195000D01*
X18870000Y-11155000D02*
X18830000Y-11195000D01*
X18970000Y-11182500D02*
X19010000Y-11222500D01*
X19010000Y-11182500D02*
X18970000Y-11222500D01*
X19025000Y-11315000D02*
X19065000Y-11355000D01*
X19065000Y-11315000D02*
X19025000Y-11355000D01*
X19175000Y-11640000D02*
X19215000Y-11680000D01*
X19215000Y-11640000D02*
X19175000Y-11680000D01*
X19230000Y-11219180D02*
X19270000Y-11259180D01*
X19270000Y-11219180D02*
X19230000Y-11259180D01*
X19270000Y-11057500D02*
X19310000Y-11097500D01*
X19310000Y-11057500D02*
X19270000Y-11097500D01*
X19301724Y-11404343D02*
X19341724Y-11444343D01*
X19341724Y-11404343D02*
X19301724Y-11444343D01*
X19455000Y-10617500D02*
X19495000Y-10657500D01*
X19495000Y-10617500D02*
X19455000Y-10657500D01*
X19484370Y-11268337D02*
X19524370Y-11308337D01*
X19524370Y-11268337D02*
X19484370Y-11308337D01*
X19510000Y-12285000D02*
X19550000Y-12325000D01*
X19550000Y-12285000D02*
X19510000Y-12325000D01*
X19515000Y-12082500D02*
X19555000Y-12122500D01*
X19555000Y-12082500D02*
X19515000Y-12122500D01*
X19590000Y-11420000D02*
X19630000Y-11460000D01*
X19630000Y-11420000D02*
X19590000Y-11460000D01*
X19697099Y-11119654D02*
X19737099Y-11159654D01*
X19737099Y-11119654D02*
X19697099Y-11159654D01*
X19707500Y-11437500D02*
X19747500Y-11477500D01*
X19747500Y-11437500D02*
X19707500Y-11477500D01*
X19817500Y-11442500D02*
X19857500Y-11482500D01*
X19857500Y-11442500D02*
X19817500Y-11482500D01*
X19817500Y-12400000D02*
X19857500Y-12440000D01*
X19857500Y-12400000D02*
X19817500Y-12440000D01*
X19820255Y-10615000D02*
X19860255Y-10655000D01*
X19860255Y-10615000D02*
X19820255Y-10655000D01*
X19842500Y-11877500D02*
X19882500Y-11917500D01*
X19882500Y-11877500D02*
X19842500Y-11917500D01*
X19862500Y-12570000D02*
X19902500Y-12610000D01*
X19902500Y-12570000D02*
X19862500Y-12610000D01*
X19865000Y-12745000D02*
X19905000Y-12785000D01*
X19905000Y-12745000D02*
X19865000Y-12785000D01*
X19932500Y-10982500D02*
X19972500Y-11022500D01*
X19972500Y-10982500D02*
X19932500Y-11022500D01*
X19947500Y-12492500D02*
X19987500Y-12532500D01*
X19987500Y-12492500D02*
X19947500Y-12532500D01*
X19952500Y-12650000D02*
X19992500Y-12690000D01*
X19992500Y-12650000D02*
X19952500Y-12690000D01*
X20040000Y-10685000D02*
X20080000Y-10725000D01*
X20080000Y-10685000D02*
X20040000Y-10725000D01*
X20160000Y-11595000D02*
X20200000Y-11635000D01*
X20200000Y-11595000D02*
X20160000Y-11635000D01*
X20225000Y-11712500D02*
X20265000Y-11752500D01*
X20265000Y-11712500D02*
X20225000Y-11752500D01*
X20230000Y-11827500D02*
X20270000Y-11867500D01*
X20270000Y-11827500D02*
X20230000Y-11867500D01*
X20235000Y-12085000D02*
X20275000Y-12125000D01*
X20275000Y-12085000D02*
X20235000Y-12125000D01*
X20245000Y-10697500D02*
X20285000Y-10737500D01*
X20285000Y-10697500D02*
X20245000Y-10737500D01*
X20260000Y-12480000D02*
X20300000Y-12520000D01*
X20300000Y-12480000D02*
X20260000Y-12520000D01*
X20316613Y-12574113D02*
X20356613Y-12614113D01*
X20356613Y-12574113D02*
X20316613Y-12614113D01*
X20370000Y-12085000D02*
X20410000Y-12125000D01*
X20410000Y-12085000D02*
X20370000Y-12125000D01*
X20422500Y-12575000D02*
X20462500Y-12615000D01*
X20462500Y-12575000D02*
X20422500Y-12615000D01*
X20427500Y-11862500D02*
X20467500Y-11902500D01*
X20467500Y-11862500D02*
X20427500Y-11902500D01*
X20442500Y-10700000D02*
X20482500Y-10740000D01*
X20482500Y-10700000D02*
X20442500Y-10740000D01*
X20490000Y-11327500D02*
X20530000Y-11367500D01*
X20530000Y-11327500D02*
X20490000Y-11367500D01*
X20500000Y-12465000D02*
X20540000Y-12505000D01*
X20540000Y-12465000D02*
X20500000Y-12505000D01*
X20520000Y-11432500D02*
X20560000Y-11472500D01*
X20560000Y-11432500D02*
X20520000Y-11472500D01*
X20568750Y-12148750D02*
X20608750Y-12188750D01*
X20608750Y-12148750D02*
X20568750Y-12188750D01*
X20585000Y-11915000D02*
X20625000Y-11955000D01*
X20625000Y-11915000D02*
X20585000Y-11955000D01*
X20590000Y-11330000D02*
X20630000Y-11370000D01*
X20630000Y-11330000D02*
X20590000Y-11370000D01*
X20640000Y-12865000D02*
X20680000Y-12905000D01*
X20680000Y-12865000D02*
X20640000Y-12905000D01*
X20670000Y-12080000D02*
X20710000Y-12120000D01*
X20710000Y-12080000D02*
X20670000Y-12120000D01*
X20760000Y-12147500D02*
X20800000Y-12187500D01*
X20800000Y-12147500D02*
X20760000Y-12187500D01*
X20775000Y-11840000D02*
X20815000Y-11880000D01*
X20815000Y-11840000D02*
X20775000Y-11880000D01*
X20780000Y-10785000D02*
X20820000Y-10825000D01*
X20820000Y-10785000D02*
X20780000Y-10825000D01*
X20822500Y-12697500D02*
X20862500Y-12737500D01*
X20862500Y-12697500D02*
X20822500Y-12737500D01*
X20865000Y-12170000D02*
X20905000Y-12210000D01*
X20905000Y-12170000D02*
X20865000Y-12210000D01*
X20867500Y-11605000D02*
X20907500Y-11645000D01*
X20907500Y-11605000D02*
X20867500Y-11645000D01*
X20897500Y-11395000D02*
X20937500Y-11435000D01*
X20937500Y-11395000D02*
X20897500Y-11435000D01*
X20922500Y-11497500D02*
X20962500Y-11537500D01*
X20962500Y-11497500D02*
X20922500Y-11537500D01*
X20970000Y-11595000D02*
X21010000Y-11635000D01*
X21010000Y-11595000D02*
X20970000Y-11635000D01*
X20972500Y-10782500D02*
X21012500Y-10822500D01*
X21012500Y-10782500D02*
X20972500Y-10822500D01*
X20985000Y-11867500D02*
X21025000Y-11907500D01*
X21025000Y-11867500D02*
X20985000Y-11907500D01*
X20990000Y-11312500D02*
X21030000Y-11352500D01*
X21030000Y-11312500D02*
X20990000Y-11352500D01*
X21117500Y-12552500D02*
X21157500Y-12592500D01*
X21157500Y-12552500D02*
X21117500Y-12592500D01*
X21345000Y-12252500D02*
X21385000Y-12292500D01*
X21385000Y-12252500D02*
X21345000Y-12292500D01*
X21372500Y-11292500D02*
X21412500Y-11332500D01*
X21412500Y-11292500D02*
X21372500Y-11332500D01*
X21372500Y-11377500D02*
X21412500Y-11417500D01*
X21412500Y-11377500D02*
X21372500Y-11417500D01*
X21372500Y-11745000D02*
X21412500Y-11785000D01*
X21412500Y-11745000D02*
X21372500Y-11785000D01*
X21562500Y-11490000D02*
X21602500Y-11530000D01*
X21602500Y-11490000D02*
X21562500Y-11530000D01*
X21667500Y-12127500D02*
X21707500Y-12167500D01*
X21707500Y-12127500D02*
X21667500Y-12167500D01*
X21755000Y-11495000D02*
X21795000Y-11535000D01*
X21795000Y-11495000D02*
X21755000Y-11535000D01*
X21925000Y-11795000D02*
X21965000Y-11835000D01*
X21965000Y-11795000D02*
X21925000Y-11835000D01*
X21970000Y-12175000D02*
X22010000Y-12215000D01*
X22010000Y-12175000D02*
X21970000Y-12215000D01*
X21970000Y-13082500D02*
X22010000Y-13122500D01*
X22010000Y-13082500D02*
X21970000Y-13122500D01*
X22027500Y-13365000D02*
X22067500Y-13405000D01*
X22067500Y-13365000D02*
X22027500Y-13405000D01*
X22125000Y-13082500D02*
X22165000Y-13122500D01*
X22165000Y-13082500D02*
X22125000Y-13122500D01*
X22177500Y-13355000D02*
X22217500Y-13395000D01*
X22217500Y-13355000D02*
X22177500Y-13395000D01*
X22220000Y-11685000D02*
X22260000Y-11725000D01*
X22260000Y-11685000D02*
X22220000Y-11725000D01*
X22260000Y-12585000D02*
X22300000Y-12625000D01*
X22300000Y-12585000D02*
X22260000Y-12625000D01*
X17547500Y-12595000D02*
G75*
G02*
X17507500Y-12595000I-20000J0D01*
G01*
X17507500Y-12595000D02*
G75*
G02*
X17547500Y-12595000I20000J0D01*
G01*
X17792500Y-13747500D02*
G75*
G02*
X17752500Y-13747500I-20000J0D01*
G01*
X17752500Y-13747500D02*
G75*
G02*
X17792500Y-13747500I20000J0D01*
G01*
X19257500Y-10747500D02*
G75*
G02*
X19217500Y-10747500I-20000J0D01*
G01*
X19217500Y-10747500D02*
G75*
G02*
X19257500Y-10747500I20000J0D01*
G01*
X19257500Y-10897500D02*
G75*
G02*
X19217500Y-10897500I-20000J0D01*
G01*
X19217500Y-10897500D02*
G75*
G02*
X19257500Y-10897500I20000J0D01*
G01*
X19390000Y-10747500D02*
G75*
G02*
X19350000Y-10747500I-20000J0D01*
G01*
X19350000Y-10747500D02*
G75*
G02*
X19390000Y-10747500I20000J0D01*
G01*
X19407500Y-10895000D02*
G75*
G02*
X19367500Y-10895000I-20000J0D01*
G01*
X19367500Y-10895000D02*
G75*
G02*
X19407500Y-10895000I20000J0D01*
G01*
X19617500Y-11747500D02*
G75*
G02*
X19577500Y-11747500I-20000J0D01*
G01*
X19577500Y-11747500D02*
G75*
G02*
X19617500Y-11747500I20000J0D01*
G01*
X19712500Y-11697500D02*
G75*
G02*
X19672500Y-11697500I-20000J0D01*
G01*
X19672500Y-11697500D02*
G75*
G02*
X19712500Y-11697500I20000J0D01*
G01*
X19820000Y-11647500D02*
G75*
G02*
X19780000Y-11647500I-20000J0D01*
G01*
X19780000Y-11647500D02*
G75*
G02*
X19820000Y-11647500I20000J0D01*
G01*
X20960000Y-12812500D02*
G75*
G02*
X20920000Y-12812500I-20000J0D01*
G01*
X20920000Y-12812500D02*
G75*
G02*
X20960000Y-12812500I20000J0D01*
G01*
X21102500Y-12800000D02*
G75*
G02*
X21062500Y-12800000I-20000J0D01*
G01*
X21062500Y-12800000D02*
G75*
G02*
X21102500Y-12800000I20000J0D01*
G01*
X15152500Y-11105000D02*
X15152500Y-11165000D01*
X15122500Y-11135000D02*
X15182500Y-11135000D01*
X15155000Y-10975000D02*
X15155000Y-11035000D01*
X15125000Y-11005000D02*
X15185000Y-11005000D01*
X15470000Y-10957500D02*
X15470000Y-11017500D01*
X15440000Y-10987500D02*
X15500000Y-10987500D01*
X15475000Y-11107500D02*
X15475000Y-11167500D01*
X15445000Y-11137500D02*
X15505000Y-11137500D01*
X15270784Y-12048284D02*
X15270784Y-11991715D01*
X15214215Y-11991715D01*
X15214215Y-12048284D01*
X15270784Y-12048284D01*
X15270784Y-12248284D02*
X15270784Y-12191715D01*
X15214215Y-12191715D01*
X15214215Y-12248284D01*
X15270784Y-12248284D01*
X15272034Y-11400784D02*
X15272034Y-11344215D01*
X15215465Y-11344215D01*
X15215465Y-11400784D01*
X15272034Y-11400784D01*
X15272034Y-11600784D02*
X15272034Y-11544215D01*
X15215465Y-11544215D01*
X15215465Y-11600784D01*
X15272034Y-11600784D01*
X17470785Y-10280785D02*
X17470785Y-10224216D01*
X17414216Y-10224216D01*
X17414216Y-10280785D01*
X17470785Y-10280785D01*
X17470785Y-10480785D02*
X17470785Y-10424216D01*
X17414216Y-10424216D01*
X17414216Y-10480785D01*
X17470785Y-10480785D01*
X18023785Y-10280785D02*
X18023785Y-10224216D01*
X17967216Y-10224216D01*
X17967216Y-10280785D01*
X18023785Y-10280785D01*
X18023785Y-10480785D02*
X18023785Y-10424216D01*
X17967216Y-10424216D01*
X17967216Y-10480785D01*
X18023785Y-10480785D01*
X18576785Y-10280785D02*
X18576785Y-10224216D01*
X18520216Y-10224216D01*
X18520216Y-10280785D01*
X18576785Y-10280785D01*
X18576785Y-10480785D02*
X18576785Y-10424216D01*
X18520216Y-10424216D01*
X18520216Y-10480785D01*
X18576785Y-10480785D01*
X19129785Y-10280785D02*
X19129785Y-10224216D01*
X19073216Y-10224216D01*
X19073216Y-10280785D01*
X19129785Y-10280785D01*
X19129785Y-10480785D02*
X19129785Y-10424216D01*
X19073216Y-10424216D01*
X19073216Y-10480785D01*
X19129785Y-10480785D01*
X19682785Y-10280785D02*
X19682785Y-10224216D01*
X19626216Y-10224216D01*
X19626216Y-10280785D01*
X19682785Y-10280785D01*
X19682785Y-10480785D02*
X19682785Y-10424216D01*
X19626216Y-10424216D01*
X19626216Y-10480785D01*
X19682785Y-10480785D01*
X20235785Y-10280785D02*
X20235785Y-10224216D01*
X20179216Y-10224216D01*
X20179216Y-10280785D01*
X20235785Y-10280785D01*
X20235785Y-10480785D02*
X20235785Y-10424216D01*
X20179216Y-10424216D01*
X20179216Y-10480785D01*
X20235785Y-10480785D01*
X22780784Y-10728285D02*
X22780784Y-10671716D01*
X22724215Y-10671716D01*
X22724215Y-10728285D01*
X22780784Y-10728285D01*
X22780784Y-10928285D02*
X22780784Y-10871716D01*
X22724215Y-10871716D01*
X22724215Y-10928285D01*
X22780784Y-10928285D01*
X22780784Y-11128285D02*
X22780784Y-11071716D01*
X22724215Y-11071716D01*
X22724215Y-11128285D01*
X22780784Y-11128285D01*
X22780784Y-11328284D02*
X22780784Y-11271715D01*
X22724215Y-11271715D01*
X22724215Y-11328284D01*
X22780784Y-11328284D01*
X22780784Y-11528284D02*
X22780784Y-11471715D01*
X22724215Y-11471715D01*
X22724215Y-11528284D01*
X22780784Y-11528284D01*
X22780784Y-11728284D02*
X22780784Y-11671715D01*
X22724215Y-11671715D01*
X22724215Y-11728284D01*
X22780784Y-11728284D01*
X22783284Y-12323284D02*
X22783284Y-12266715D01*
X22726715Y-12266715D01*
X22726715Y-12323284D01*
X22783284Y-12323284D01*
X22783284Y-12523284D02*
X22783284Y-12466715D01*
X22726715Y-12466715D01*
X22726715Y-12523284D01*
X22783284Y-12523284D01*
X22783284Y-12723284D02*
X22783284Y-12666715D01*
X22726715Y-12666715D01*
X22726715Y-12723284D01*
X22783284Y-12723284D01*
X22783284Y-12923284D02*
X22783284Y-12866715D01*
X22726715Y-12866715D01*
X22726715Y-12923284D01*
X22783284Y-12923284D01*
X22783284Y-13123284D02*
X22783284Y-13066715D01*
X22726715Y-13066715D01*
X22726715Y-13123284D01*
X22783284Y-13123284D01*
X22783284Y-13323284D02*
X22783284Y-13266715D01*
X22726715Y-13266715D01*
X22726715Y-13323284D01*
X22783284Y-13323284D01*
X15862500Y-10240430D02*
X15907500Y-10195430D01*
X15862500Y-10150430D01*
X15817500Y-10195430D01*
X15862500Y-10240430D01*
X15817500Y-10175430D02*
X15817500Y-10215430D01*
X15907500Y-10215430D02*
G75*
G02*
X15817500Y-10215430I-45000J0D01*
G01*
X15907500Y-10215430D02*
X15907500Y-10175430D01*
X15907500Y-10175430D02*
G75*
G03*
X15817500Y-10175430I-45000J0D01*
G01*
X16652500Y-10240430D02*
X16697500Y-10195430D01*
X16652500Y-10150430D01*
X16607500Y-10195430D01*
X16652500Y-10240430D01*
X16607500Y-10175430D02*
X16607500Y-10215430D01*
X16697500Y-10215430D02*
G75*
G02*
X16607500Y-10215430I-45000J0D01*
G01*
X16697500Y-10215430D02*
X16697500Y-10175430D01*
X16697500Y-10175430D02*
G75*
G03*
X16607500Y-10175430I-45000J0D01*
G01*
X16192500Y-11202500D02*
X16292500Y-11302500D01*
X16292500Y-11202500D02*
X16192500Y-11302500D01*
X16292500Y-11252500D02*
G75*
G02*
X16192500Y-11252500I-50000J0D01*
G01*
X16192500Y-11252500D02*
G75*
G02*
X16292500Y-11252500I50000J0D01*
G01*
X16687500Y-13317500D02*
X16787500Y-13417500D01*
X16787500Y-13317500D02*
X16687500Y-13417500D01*
X16787500Y-13367500D02*
G75*
G02*
X16687500Y-13367500I-50000J0D01*
G01*
X16687500Y-13367500D02*
G75*
G02*
X16787500Y-13367500I50000J0D01*
G01*
X15260000Y-12882500D02*
X15360000Y-12982500D01*
X15360000Y-12882500D02*
X15260000Y-12982500D01*
X15310000Y-12882500D02*
X15310000Y-12982500D01*
X15260000Y-12932500D02*
X15360000Y-12932500D01*
X15260000Y-13132500D02*
X15360000Y-13232500D01*
X15360000Y-13132500D02*
X15260000Y-13232500D01*
X15310000Y-13132500D02*
X15310000Y-13232500D01*
X15260000Y-13182500D02*
X15360000Y-13182500D01*
X15260000Y-13382500D02*
X15360000Y-13482500D01*
X15360000Y-13382500D02*
X15260000Y-13482500D01*
X15310000Y-13382500D02*
X15310000Y-13482500D01*
X15260000Y-13432500D02*
X15360000Y-13432500D01*
X15260000Y-13632500D02*
X15360000Y-13732500D01*
X15360000Y-13632500D02*
X15260000Y-13732500D01*
X15310000Y-13632500D02*
X15310000Y-13732500D01*
X15260000Y-13682500D02*
X15360000Y-13682500D01*
X17262500Y-11266500D02*
X17362500Y-11366500D01*
X17362500Y-11266500D02*
X17262500Y-11366500D01*
X17312500Y-11266500D02*
X17312500Y-11366500D01*
X17262500Y-11316500D02*
X17362500Y-11316500D01*
X17262500Y-11520500D02*
X17362500Y-11620500D01*
X17362500Y-11520500D02*
X17262500Y-11620500D01*
X17312500Y-11520500D02*
X17312500Y-11620500D01*
X17262500Y-11570500D02*
X17362500Y-11570500D01*
X17262500Y-11774500D02*
X17362500Y-11874500D01*
X17362500Y-11774500D02*
X17262500Y-11874500D01*
X17312500Y-11774500D02*
X17312500Y-11874500D01*
X17262500Y-11824500D02*
X17362500Y-11824500D01*
X17262500Y-12028500D02*
X17362500Y-12128500D01*
X17362500Y-12028500D02*
X17262500Y-12128500D01*
X17312500Y-12028500D02*
X17312500Y-12128500D01*
X17262500Y-12078500D02*
X17362500Y-12078500D01*
X17262500Y-12282500D02*
X17362500Y-12382500D01*
X17362500Y-12282500D02*
X17262500Y-12382500D01*
X17312500Y-12282500D02*
X17312500Y-12382500D01*
X17262500Y-12332500D02*
X17362500Y-12332500D01*
X18075000Y-11267500D02*
X18175000Y-11367500D01*
X18175000Y-11267500D02*
X18075000Y-11367500D01*
X18125000Y-11267500D02*
X18125000Y-11367500D01*
X18075000Y-11317500D02*
X18175000Y-11317500D01*
X18075000Y-11521500D02*
X18175000Y-11621500D01*
X18175000Y-11521500D02*
X18075000Y-11621500D01*
X18125000Y-11521500D02*
X18125000Y-11621500D01*
X18075000Y-11571500D02*
X18175000Y-11571500D01*
X18075000Y-11775500D02*
X18175000Y-11875500D01*
X18175000Y-11775500D02*
X18075000Y-11875500D01*
X18125000Y-11775500D02*
X18125000Y-11875500D01*
X18075000Y-11825500D02*
X18175000Y-11825500D01*
X18075000Y-12029500D02*
X18175000Y-12129500D01*
X18175000Y-12029500D02*
X18075000Y-12129500D01*
X18125000Y-12029500D02*
X18125000Y-12129500D01*
X18075000Y-12079500D02*
X18175000Y-12079500D01*
X18075000Y-12283500D02*
X18175000Y-12383500D01*
X18175000Y-12283500D02*
X18075000Y-12383500D01*
X18125000Y-12283500D02*
X18125000Y-12383500D01*
X18075000Y-12333500D02*
X18175000Y-12333500D01*
X19707000Y-13328750D02*
X19807000Y-13428750D01*
X19807000Y-13328750D02*
X19707000Y-13428750D01*
X19757000Y-13328750D02*
X19757000Y-13428750D01*
X19707000Y-13378750D02*
X19807000Y-13378750D01*
X19707000Y-13582750D02*
X19807000Y-13682750D01*
X19807000Y-13582750D02*
X19707000Y-13682750D01*
X19757000Y-13582750D02*
X19757000Y-13682750D01*
X19707000Y-13632750D02*
X19807000Y-13632750D01*
X19961000Y-13328750D02*
X20061000Y-13428750D01*
X20061000Y-13328750D02*
X19961000Y-13428750D01*
X20011000Y-13328750D02*
X20011000Y-13428750D01*
X19961000Y-13378750D02*
X20061000Y-13378750D01*
X19961000Y-13582750D02*
X20061000Y-13682750D01*
X20061000Y-13582750D02*
X19961000Y-13682750D01*
X20011000Y-13582750D02*
X20011000Y-13682750D01*
X19961000Y-13632750D02*
X20061000Y-13632750D01*
X20215000Y-13328750D02*
X20315000Y-13428750D01*
X20315000Y-13328750D02*
X20215000Y-13428750D01*
X20265000Y-13328750D02*
X20265000Y-13428750D01*
X20215000Y-13378750D02*
X20315000Y-13378750D01*
X20215000Y-13582750D02*
X20315000Y-13682750D01*
X20315000Y-13582750D02*
X20215000Y-13682750D01*
X20265000Y-13582750D02*
X20265000Y-13682750D01*
X20215000Y-13632750D02*
X20315000Y-13632750D01*
X20469000Y-13328750D02*
X20569000Y-13428750D01*
X20569000Y-13328750D02*
X20469000Y-13428750D01*
X20519000Y-13328750D02*
X20519000Y-13428750D01*
X20469000Y-13378750D02*
X20569000Y-13378750D01*
X20469000Y-13582750D02*
X20569000Y-13682750D01*
X20569000Y-13582750D02*
X20469000Y-13682750D01*
X20519000Y-13582750D02*
X20519000Y-13682750D01*
X20469000Y-13632750D02*
X20569000Y-13632750D01*
X20587500Y-10183500D02*
X20687500Y-10283500D01*
X20687500Y-10183500D02*
X20587500Y-10283500D01*
X20637500Y-10183500D02*
X20637500Y-10283500D01*
X20587500Y-10233500D02*
X20687500Y-10233500D01*
X20587500Y-10437500D02*
X20687500Y-10537500D01*
X20687500Y-10437500D02*
X20587500Y-10537500D01*
X20637500Y-10437500D02*
X20637500Y-10537500D01*
X20587500Y-10487500D02*
X20687500Y-10487500D01*
X20723000Y-13328750D02*
X20823000Y-13428750D01*
X20823000Y-13328750D02*
X20723000Y-13428750D01*
X20773000Y-13328750D02*
X20773000Y-13428750D01*
X20723000Y-13378750D02*
X20823000Y-13378750D01*
X20723000Y-13582750D02*
X20823000Y-13682750D01*
X20823000Y-13582750D02*
X20723000Y-13682750D01*
X20773000Y-13582750D02*
X20773000Y-13682750D01*
X20723000Y-13632750D02*
X20823000Y-13632750D01*
X20841500Y-10183500D02*
X20941500Y-10283500D01*
X20941500Y-10183500D02*
X20841500Y-10283500D01*
X20891500Y-10183500D02*
X20891500Y-10283500D01*
X20841500Y-10233500D02*
X20941500Y-10233500D01*
X20841500Y-10437500D02*
X20941500Y-10537500D01*
X20941500Y-10437500D02*
X20841500Y-10537500D01*
X20891500Y-10437500D02*
X20891500Y-10537500D01*
X20841500Y-10487500D02*
X20941500Y-10487500D01*
X21095500Y-10183500D02*
X21195500Y-10283500D01*
X21195500Y-10183500D02*
X21095500Y-10283500D01*
X21145500Y-10183500D02*
X21145500Y-10283500D01*
X21095500Y-10233500D02*
X21195500Y-10233500D01*
X21095500Y-10437500D02*
X21195500Y-10537500D01*
X21195500Y-10437500D02*
X21095500Y-10537500D01*
X21145500Y-10437500D02*
X21145500Y-10537500D01*
X21095500Y-10487500D02*
X21195500Y-10487500D01*
X21349500Y-10183500D02*
X21449500Y-10283500D01*
X21449500Y-10183500D02*
X21349500Y-10283500D01*
X21399500Y-10183500D02*
X21399500Y-10283500D01*
X21349500Y-10233500D02*
X21449500Y-10233500D01*
X21349500Y-10437500D02*
X21449500Y-10537500D01*
X21449500Y-10437500D02*
X21349500Y-10537500D01*
X21399500Y-10437500D02*
X21399500Y-10537500D01*
X21349500Y-10487500D02*
X21449500Y-10487500D01*
X21475000Y-12900000D02*
X21575000Y-13000000D01*
X21575000Y-12900000D02*
X21475000Y-13000000D01*
X21525000Y-12900000D02*
X21525000Y-13000000D01*
X21475000Y-12950000D02*
X21575000Y-12950000D01*
X21475000Y-13154000D02*
X21575000Y-13254000D01*
X21575000Y-13154000D02*
X21475000Y-13254000D01*
X21525000Y-13154000D02*
X21525000Y-13254000D01*
X21475000Y-13204000D02*
X21575000Y-13204000D01*
X21709500Y-10192500D02*
X21809500Y-10292500D01*
X21809500Y-10192500D02*
X21709500Y-10292500D01*
X21759500Y-10192500D02*
X21759500Y-10292500D01*
X21709500Y-10242500D02*
X21809500Y-10242500D01*
X21963500Y-10192500D02*
X22063500Y-10292500D01*
X22063500Y-10192500D02*
X21963500Y-10292500D01*
X22013500Y-10192500D02*
X22013500Y-10292500D01*
X21963500Y-10242500D02*
X22063500Y-10242500D01*
X22217500Y-10192500D02*
X22317500Y-10292500D01*
X22317500Y-10192500D02*
X22217500Y-10292500D01*
X22267500Y-10192500D02*
X22267500Y-10292500D01*
X22217500Y-10242500D02*
X22317500Y-10242500D01*
D13*
X15137500Y-10135000D02*
X15357500Y-10355000D01*
X15357500Y-10135000D02*
X15137500Y-10355000D01*
X15325282Y-10322783D02*
X15325282Y-10167218D01*
X15169717Y-10167218D01*
X15169717Y-10322783D01*
X15325282Y-10322783D01*
X22620000Y-10155000D02*
X22840000Y-10375000D01*
X22840000Y-10155000D02*
X22620000Y-10375000D01*
X22807782Y-10342783D02*
X22807782Y-10187218D01*
X22652217Y-10187218D01*
X22652217Y-10342783D01*
X22807782Y-10342783D01*
X22622500Y-13622500D02*
X22842500Y-13842500D01*
X22842500Y-13622500D02*
X22622500Y-13842500D01*
X22810282Y-13810282D02*
X22810282Y-13654717D01*
X22654717Y-13654717D01*
X22654717Y-13810282D01*
X22810282Y-13810282D01*
D11*
X15258277Y-14313984D02*
X15258277Y-14113984D01*
X15258277Y-14113984D02*
X15305896Y-14113984D01*
X15305896Y-14113984D02*
X15334467Y-14123508D01*
X15334467Y-14123508D02*
X15353515Y-14142555D01*
X15353515Y-14142555D02*
X15363039Y-14161603D01*
X15363039Y-14161603D02*
X15372562Y-14199698D01*
X15372562Y-14199698D02*
X15372562Y-14228269D01*
X15372562Y-14228269D02*
X15363039Y-14266365D01*
X15363039Y-14266365D02*
X15353515Y-14285412D01*
X15353515Y-14285412D02*
X15334467Y-14304460D01*
X15334467Y-14304460D02*
X15305896Y-14313984D01*
X15305896Y-14313984D02*
X15258277Y-14313984D01*
X15458277Y-14313984D02*
X15458277Y-14180650D01*
X15458277Y-14218746D02*
X15467801Y-14199698D01*
X15467801Y-14199698D02*
X15477324Y-14190174D01*
X15477324Y-14190174D02*
X15496372Y-14180650D01*
X15496372Y-14180650D02*
X15515420Y-14180650D01*
X15582086Y-14313984D02*
X15582086Y-14180650D01*
X15582086Y-14113984D02*
X15572562Y-14123508D01*
X15572562Y-14123508D02*
X15582086Y-14133031D01*
X15582086Y-14133031D02*
X15591610Y-14123508D01*
X15591610Y-14123508D02*
X15582086Y-14113984D01*
X15582086Y-14113984D02*
X15582086Y-14133031D01*
X15705896Y-14313984D02*
X15686848Y-14304460D01*
X15686848Y-14304460D02*
X15677324Y-14285412D01*
X15677324Y-14285412D02*
X15677324Y-14113984D01*
X15810658Y-14313984D02*
X15791610Y-14304460D01*
X15791610Y-14304460D02*
X15782086Y-14285412D01*
X15782086Y-14285412D02*
X15782086Y-14113984D01*
X16039229Y-14313984D02*
X16039229Y-14113984D01*
X16039229Y-14113984D02*
X16105896Y-14256841D01*
X16105896Y-14256841D02*
X16172562Y-14113984D01*
X16172562Y-14113984D02*
X16172562Y-14313984D01*
X16353515Y-14313984D02*
X16353515Y-14209222D01*
X16353515Y-14209222D02*
X16343991Y-14190174D01*
X16343991Y-14190174D02*
X16324943Y-14180650D01*
X16324943Y-14180650D02*
X16286848Y-14180650D01*
X16286848Y-14180650D02*
X16267801Y-14190174D01*
X16353515Y-14304460D02*
X16334467Y-14313984D01*
X16334467Y-14313984D02*
X16286848Y-14313984D01*
X16286848Y-14313984D02*
X16267801Y-14304460D01*
X16267801Y-14304460D02*
X16258277Y-14285412D01*
X16258277Y-14285412D02*
X16258277Y-14266365D01*
X16258277Y-14266365D02*
X16267801Y-14247317D01*
X16267801Y-14247317D02*
X16286848Y-14237793D01*
X16286848Y-14237793D02*
X16334467Y-14237793D01*
X16334467Y-14237793D02*
X16353515Y-14228269D01*
X16448753Y-14180650D02*
X16448753Y-14380650D01*
X16448753Y-14190174D02*
X16467801Y-14180650D01*
X16467801Y-14180650D02*
X16505896Y-14180650D01*
X16505896Y-14180650D02*
X16524943Y-14190174D01*
X16524943Y-14190174D02*
X16534467Y-14199698D01*
X16534467Y-14199698D02*
X16543991Y-14218746D01*
X16543991Y-14218746D02*
X16543991Y-14275888D01*
X16543991Y-14275888D02*
X16534467Y-14294936D01*
X16534467Y-14294936D02*
X16524943Y-14304460D01*
X16524943Y-14304460D02*
X16505896Y-14313984D01*
X16505896Y-14313984D02*
X16467801Y-14313984D01*
X16467801Y-14313984D02*
X16448753Y-14304460D01*
X16629705Y-14294936D02*
X16639229Y-14304460D01*
X16639229Y-14304460D02*
X16629705Y-14313984D01*
X16629705Y-14313984D02*
X16620182Y-14304460D01*
X16620182Y-14304460D02*
X16629705Y-14294936D01*
X16629705Y-14294936D02*
X16629705Y-14313984D01*
X16629705Y-14190174D02*
X16639229Y-14199698D01*
X16639229Y-14199698D02*
X16629705Y-14209222D01*
X16629705Y-14209222D02*
X16620182Y-14199698D01*
X16620182Y-14199698D02*
X16629705Y-14190174D01*
X16629705Y-14190174D02*
X16629705Y-14209222D01*
D12*
X14957500Y-14622500D02*
X14997500Y-14662500D01*
X14997500Y-14622500D02*
X14957500Y-14662500D01*
D11*
X15296372Y-14533984D02*
X15315420Y-14533984D01*
X15315420Y-14533984D02*
X15334467Y-14543508D01*
X15334467Y-14543508D02*
X15343991Y-14553031D01*
X15343991Y-14553031D02*
X15353515Y-14572079D01*
X15353515Y-14572079D02*
X15363039Y-14610174D01*
X15363039Y-14610174D02*
X15363039Y-14657793D01*
X15363039Y-14657793D02*
X15353515Y-14695888D01*
X15353515Y-14695888D02*
X15343991Y-14714936D01*
X15343991Y-14714936D02*
X15334467Y-14724460D01*
X15334467Y-14724460D02*
X15315420Y-14733984D01*
X15315420Y-14733984D02*
X15296372Y-14733984D01*
X15296372Y-14733984D02*
X15277324Y-14724460D01*
X15277324Y-14724460D02*
X15267801Y-14714936D01*
X15267801Y-14714936D02*
X15258277Y-14695888D01*
X15258277Y-14695888D02*
X15248753Y-14657793D01*
X15248753Y-14657793D02*
X15248753Y-14610174D01*
X15248753Y-14610174D02*
X15258277Y-14572079D01*
X15258277Y-14572079D02*
X15267801Y-14553031D01*
X15267801Y-14553031D02*
X15277324Y-14543508D01*
X15277324Y-14543508D02*
X15296372Y-14533984D01*
X15448753Y-14714936D02*
X15458277Y-14724460D01*
X15458277Y-14724460D02*
X15448753Y-14733984D01*
X15448753Y-14733984D02*
X15439229Y-14724460D01*
X15439229Y-14724460D02*
X15448753Y-14714936D01*
X15448753Y-14714936D02*
X15448753Y-14733984D01*
X15629705Y-14600650D02*
X15629705Y-14733984D01*
X15582086Y-14524460D02*
X15534467Y-14667317D01*
X15534467Y-14667317D02*
X15658277Y-14667317D01*
X15772562Y-14533984D02*
X15791610Y-14533984D01*
X15791610Y-14533984D02*
X15810658Y-14543508D01*
X15810658Y-14543508D02*
X15820182Y-14553031D01*
X15820182Y-14553031D02*
X15829705Y-14572079D01*
X15829705Y-14572079D02*
X15839229Y-14610174D01*
X15839229Y-14610174D02*
X15839229Y-14657793D01*
X15839229Y-14657793D02*
X15829705Y-14695888D01*
X15829705Y-14695888D02*
X15820182Y-14714936D01*
X15820182Y-14714936D02*
X15810658Y-14724460D01*
X15810658Y-14724460D02*
X15791610Y-14733984D01*
X15791610Y-14733984D02*
X15772562Y-14733984D01*
X15772562Y-14733984D02*
X15753515Y-14724460D01*
X15753515Y-14724460D02*
X15743991Y-14714936D01*
X15743991Y-14714936D02*
X15734467Y-14695888D01*
X15734467Y-14695888D02*
X15724943Y-14657793D01*
X15724943Y-14657793D02*
X15724943Y-14610174D01*
X15724943Y-14610174D02*
X15734467Y-14572079D01*
X15734467Y-14572079D02*
X15743991Y-14553031D01*
X15743991Y-14553031D02*
X15753515Y-14543508D01*
X15753515Y-14543508D02*
X15772562Y-14533984D01*
X15963039Y-14533984D02*
X15982086Y-14533984D01*
X15982086Y-14533984D02*
X16001134Y-14543508D01*
X16001134Y-14543508D02*
X16010658Y-14553031D01*
X16010658Y-14553031D02*
X16020182Y-14572079D01*
X16020182Y-14572079D02*
X16029705Y-14610174D01*
X16029705Y-14610174D02*
X16029705Y-14657793D01*
X16029705Y-14657793D02*
X16020182Y-14695888D01*
X16020182Y-14695888D02*
X16010658Y-14714936D01*
X16010658Y-14714936D02*
X16001134Y-14724460D01*
X16001134Y-14724460D02*
X15982086Y-14733984D01*
X15982086Y-14733984D02*
X15963039Y-14733984D01*
X15963039Y-14733984D02*
X15943991Y-14724460D01*
X15943991Y-14724460D02*
X15934467Y-14714936D01*
X15934467Y-14714936D02*
X15924943Y-14695888D01*
X15924943Y-14695888D02*
X15915420Y-14657793D01*
X15915420Y-14657793D02*
X15915420Y-14610174D01*
X15915420Y-14610174D02*
X15924943Y-14572079D01*
X15924943Y-14572079D02*
X15934467Y-14553031D01*
X15934467Y-14553031D02*
X15943991Y-14543508D01*
X15943991Y-14543508D02*
X15963039Y-14533984D01*
X16115420Y-14733984D02*
X16115420Y-14600650D01*
X16115420Y-14619698D02*
X16124943Y-14610174D01*
X16124943Y-14610174D02*
X16143991Y-14600650D01*
X16143991Y-14600650D02*
X16172563Y-14600650D01*
X16172563Y-14600650D02*
X16191610Y-14610174D01*
X16191610Y-14610174D02*
X16201134Y-14629222D01*
X16201134Y-14629222D02*
X16201134Y-14733984D01*
X16201134Y-14629222D02*
X16210658Y-14610174D01*
X16210658Y-14610174D02*
X16229705Y-14600650D01*
X16229705Y-14600650D02*
X16258277Y-14600650D01*
X16258277Y-14600650D02*
X16277324Y-14610174D01*
X16277324Y-14610174D02*
X16286848Y-14629222D01*
X16286848Y-14629222D02*
X16286848Y-14733984D01*
X16382086Y-14733984D02*
X16382086Y-14600650D01*
X16382086Y-14619698D02*
X16391610Y-14610174D01*
X16391610Y-14610174D02*
X16410658Y-14600650D01*
X16410658Y-14600650D02*
X16439229Y-14600650D01*
X16439229Y-14600650D02*
X16458277Y-14610174D01*
X16458277Y-14610174D02*
X16467801Y-14629222D01*
X16467801Y-14629222D02*
X16467801Y-14733984D01*
X16467801Y-14629222D02*
X16477324Y-14610174D01*
X16477324Y-14610174D02*
X16496372Y-14600650D01*
X16496372Y-14600650D02*
X16524943Y-14600650D01*
X16524943Y-14600650D02*
X16543991Y-14610174D01*
X16543991Y-14610174D02*
X16553515Y-14629222D01*
X16553515Y-14629222D02*
X16553515Y-14733984D01*
X16943991Y-14524460D02*
X16772563Y-14781603D01*
X17201134Y-14533984D02*
X17220182Y-14533984D01*
X17220182Y-14533984D02*
X17239229Y-14543508D01*
X17239229Y-14543508D02*
X17248753Y-14553031D01*
X17248753Y-14553031D02*
X17258277Y-14572079D01*
X17258277Y-14572079D02*
X17267801Y-14610174D01*
X17267801Y-14610174D02*
X17267801Y-14657793D01*
X17267801Y-14657793D02*
X17258277Y-14695888D01*
X17258277Y-14695888D02*
X17248753Y-14714936D01*
X17248753Y-14714936D02*
X17239229Y-14724460D01*
X17239229Y-14724460D02*
X17220182Y-14733984D01*
X17220182Y-14733984D02*
X17201134Y-14733984D01*
X17201134Y-14733984D02*
X17182087Y-14724460D01*
X17182087Y-14724460D02*
X17172563Y-14714936D01*
X17172563Y-14714936D02*
X17163039Y-14695888D01*
X17163039Y-14695888D02*
X17153515Y-14657793D01*
X17153515Y-14657793D02*
X17153515Y-14610174D01*
X17153515Y-14610174D02*
X17163039Y-14572079D01*
X17163039Y-14572079D02*
X17172563Y-14553031D01*
X17172563Y-14553031D02*
X17182087Y-14543508D01*
X17182087Y-14543508D02*
X17201134Y-14533984D01*
X17353515Y-14714936D02*
X17363039Y-14724460D01*
X17363039Y-14724460D02*
X17353515Y-14733984D01*
X17353515Y-14733984D02*
X17343991Y-14724460D01*
X17343991Y-14724460D02*
X17353515Y-14714936D01*
X17353515Y-14714936D02*
X17353515Y-14733984D01*
X17486848Y-14533984D02*
X17505896Y-14533984D01*
X17505896Y-14533984D02*
X17524944Y-14543508D01*
X17524944Y-14543508D02*
X17534468Y-14553031D01*
X17534468Y-14553031D02*
X17543991Y-14572079D01*
X17543991Y-14572079D02*
X17553515Y-14610174D01*
X17553515Y-14610174D02*
X17553515Y-14657793D01*
X17553515Y-14657793D02*
X17543991Y-14695888D01*
X17543991Y-14695888D02*
X17534468Y-14714936D01*
X17534468Y-14714936D02*
X17524944Y-14724460D01*
X17524944Y-14724460D02*
X17505896Y-14733984D01*
X17505896Y-14733984D02*
X17486848Y-14733984D01*
X17486848Y-14733984D02*
X17467801Y-14724460D01*
X17467801Y-14724460D02*
X17458277Y-14714936D01*
X17458277Y-14714936D02*
X17448753Y-14695888D01*
X17448753Y-14695888D02*
X17439229Y-14657793D01*
X17439229Y-14657793D02*
X17439229Y-14610174D01*
X17439229Y-14610174D02*
X17448753Y-14572079D01*
X17448753Y-14572079D02*
X17458277Y-14553031D01*
X17458277Y-14553031D02*
X17467801Y-14543508D01*
X17467801Y-14543508D02*
X17486848Y-14533984D01*
X17743991Y-14733984D02*
X17629706Y-14733984D01*
X17686848Y-14733984D02*
X17686848Y-14533984D01*
X17686848Y-14533984D02*
X17667801Y-14562555D01*
X17667801Y-14562555D02*
X17648753Y-14581603D01*
X17648753Y-14581603D02*
X17629706Y-14591127D01*
X17924944Y-14533984D02*
X17829706Y-14533984D01*
X17829706Y-14533984D02*
X17820182Y-14629222D01*
X17820182Y-14629222D02*
X17829706Y-14619698D01*
X17829706Y-14619698D02*
X17848753Y-14610174D01*
X17848753Y-14610174D02*
X17896372Y-14610174D01*
X17896372Y-14610174D02*
X17915420Y-14619698D01*
X17915420Y-14619698D02*
X17924944Y-14629222D01*
X17924944Y-14629222D02*
X17934468Y-14648269D01*
X17934468Y-14648269D02*
X17934468Y-14695888D01*
X17934468Y-14695888D02*
X17924944Y-14714936D01*
X17924944Y-14714936D02*
X17915420Y-14724460D01*
X17915420Y-14724460D02*
X17896372Y-14733984D01*
X17896372Y-14733984D02*
X17848753Y-14733984D01*
X17848753Y-14733984D02*
X17829706Y-14724460D01*
X17829706Y-14724460D02*
X17820182Y-14714936D01*
X18001134Y-14533984D02*
X18134468Y-14533984D01*
X18134468Y-14533984D02*
X18048753Y-14733984D01*
X18201134Y-14533984D02*
X18201134Y-14572079D01*
X18277325Y-14533984D02*
X18277325Y-14572079D01*
X18572563Y-14810174D02*
X18563039Y-14800650D01*
X18563039Y-14800650D02*
X18543991Y-14772079D01*
X18543991Y-14772079D02*
X18534468Y-14753031D01*
X18534468Y-14753031D02*
X18524944Y-14724460D01*
X18524944Y-14724460D02*
X18515420Y-14676841D01*
X18515420Y-14676841D02*
X18515420Y-14638746D01*
X18515420Y-14638746D02*
X18524944Y-14591127D01*
X18524944Y-14591127D02*
X18534468Y-14562555D01*
X18534468Y-14562555D02*
X18543991Y-14543508D01*
X18543991Y-14543508D02*
X18563039Y-14514936D01*
X18563039Y-14514936D02*
X18572563Y-14505412D01*
X18639230Y-14553031D02*
X18648753Y-14543508D01*
X18648753Y-14543508D02*
X18667801Y-14533984D01*
X18667801Y-14533984D02*
X18715420Y-14533984D01*
X18715420Y-14533984D02*
X18734468Y-14543508D01*
X18734468Y-14543508D02*
X18743991Y-14553031D01*
X18743991Y-14553031D02*
X18753515Y-14572079D01*
X18753515Y-14572079D02*
X18753515Y-14591127D01*
X18753515Y-14591127D02*
X18743991Y-14619698D01*
X18743991Y-14619698D02*
X18629706Y-14733984D01*
X18629706Y-14733984D02*
X18753515Y-14733984D01*
X18924944Y-14600650D02*
X18924944Y-14733984D01*
X18877325Y-14524460D02*
X18829706Y-14667317D01*
X18829706Y-14667317D02*
X18953515Y-14667317D01*
X19134468Y-14733984D02*
X19020182Y-14733984D01*
X19077325Y-14733984D02*
X19077325Y-14533984D01*
X19077325Y-14533984D02*
X19058277Y-14562555D01*
X19058277Y-14562555D02*
X19039230Y-14581603D01*
X19039230Y-14581603D02*
X19020182Y-14591127D01*
X19372563Y-14733984D02*
X19372563Y-14533984D01*
X19458277Y-14733984D02*
X19458277Y-14629222D01*
X19458277Y-14629222D02*
X19448753Y-14610174D01*
X19448753Y-14610174D02*
X19429706Y-14600650D01*
X19429706Y-14600650D02*
X19401134Y-14600650D01*
X19401134Y-14600650D02*
X19382087Y-14610174D01*
X19382087Y-14610174D02*
X19372563Y-14619698D01*
X19582087Y-14733984D02*
X19563039Y-14724460D01*
X19563039Y-14724460D02*
X19553515Y-14714936D01*
X19553515Y-14714936D02*
X19543992Y-14695888D01*
X19543992Y-14695888D02*
X19543992Y-14638746D01*
X19543992Y-14638746D02*
X19553515Y-14619698D01*
X19553515Y-14619698D02*
X19563039Y-14610174D01*
X19563039Y-14610174D02*
X19582087Y-14600650D01*
X19582087Y-14600650D02*
X19610658Y-14600650D01*
X19610658Y-14600650D02*
X19629706Y-14610174D01*
X19629706Y-14610174D02*
X19639230Y-14619698D01*
X19639230Y-14619698D02*
X19648753Y-14638746D01*
X19648753Y-14638746D02*
X19648753Y-14695888D01*
X19648753Y-14695888D02*
X19639230Y-14714936D01*
X19639230Y-14714936D02*
X19629706Y-14724460D01*
X19629706Y-14724460D02*
X19610658Y-14733984D01*
X19610658Y-14733984D02*
X19582087Y-14733984D01*
X19763039Y-14733984D02*
X19743992Y-14724460D01*
X19743992Y-14724460D02*
X19734468Y-14705412D01*
X19734468Y-14705412D02*
X19734468Y-14533984D01*
X19915420Y-14724460D02*
X19896373Y-14733984D01*
X19896373Y-14733984D02*
X19858277Y-14733984D01*
X19858277Y-14733984D02*
X19839230Y-14724460D01*
X19839230Y-14724460D02*
X19829706Y-14705412D01*
X19829706Y-14705412D02*
X19829706Y-14629222D01*
X19829706Y-14629222D02*
X19839230Y-14610174D01*
X19839230Y-14610174D02*
X19858277Y-14600650D01*
X19858277Y-14600650D02*
X19896373Y-14600650D01*
X19896373Y-14600650D02*
X19915420Y-14610174D01*
X19915420Y-14610174D02*
X19924944Y-14629222D01*
X19924944Y-14629222D02*
X19924944Y-14648269D01*
X19924944Y-14648269D02*
X19829706Y-14667317D01*
X20001134Y-14724460D02*
X20020182Y-14733984D01*
X20020182Y-14733984D02*
X20058277Y-14733984D01*
X20058277Y-14733984D02*
X20077325Y-14724460D01*
X20077325Y-14724460D02*
X20086849Y-14705412D01*
X20086849Y-14705412D02*
X20086849Y-14695888D01*
X20086849Y-14695888D02*
X20077325Y-14676841D01*
X20077325Y-14676841D02*
X20058277Y-14667317D01*
X20058277Y-14667317D02*
X20029706Y-14667317D01*
X20029706Y-14667317D02*
X20010658Y-14657793D01*
X20010658Y-14657793D02*
X20001134Y-14638746D01*
X20001134Y-14638746D02*
X20001134Y-14629222D01*
X20001134Y-14629222D02*
X20010658Y-14610174D01*
X20010658Y-14610174D02*
X20029706Y-14600650D01*
X20029706Y-14600650D02*
X20058277Y-14600650D01*
X20058277Y-14600650D02*
X20077325Y-14610174D01*
X20153515Y-14810174D02*
X20163039Y-14800650D01*
X20163039Y-14800650D02*
X20182087Y-14772079D01*
X20182087Y-14772079D02*
X20191611Y-14753031D01*
X20191611Y-14753031D02*
X20201134Y-14724460D01*
X20201134Y-14724460D02*
X20210658Y-14676841D01*
X20210658Y-14676841D02*
X20210658Y-14638746D01*
X20210658Y-14638746D02*
X20201134Y-14591127D01*
X20201134Y-14591127D02*
X20191611Y-14562555D01*
X20191611Y-14562555D02*
X20182087Y-14543508D01*
X20182087Y-14543508D02*
X20163039Y-14514936D01*
X20163039Y-14514936D02*
X20153515Y-14505412D01*
D12*
X14997500Y-14906500D02*
G75*
G02*
X14957500Y-14906500I-20000J0D01*
G01*
X14957500Y-14906500D02*
G75*
G02*
X14997500Y-14906500I20000J0D01*
G01*
D11*
X15296372Y-14797984D02*
X15315420Y-14797984D01*
X15315420Y-14797984D02*
X15334467Y-14807508D01*
X15334467Y-14807508D02*
X15343991Y-14817031D01*
X15343991Y-14817031D02*
X15353515Y-14836079D01*
X15353515Y-14836079D02*
X15363039Y-14874174D01*
X15363039Y-14874174D02*
X15363039Y-14921793D01*
X15363039Y-14921793D02*
X15353515Y-14959888D01*
X15353515Y-14959888D02*
X15343991Y-14978936D01*
X15343991Y-14978936D02*
X15334467Y-14988460D01*
X15334467Y-14988460D02*
X15315420Y-14997984D01*
X15315420Y-14997984D02*
X15296372Y-14997984D01*
X15296372Y-14997984D02*
X15277324Y-14988460D01*
X15277324Y-14988460D02*
X15267801Y-14978936D01*
X15267801Y-14978936D02*
X15258277Y-14959888D01*
X15258277Y-14959888D02*
X15248753Y-14921793D01*
X15248753Y-14921793D02*
X15248753Y-14874174D01*
X15248753Y-14874174D02*
X15258277Y-14836079D01*
X15258277Y-14836079D02*
X15267801Y-14817031D01*
X15267801Y-14817031D02*
X15277324Y-14807508D01*
X15277324Y-14807508D02*
X15296372Y-14797984D01*
X15448753Y-14978936D02*
X15458277Y-14988460D01*
X15458277Y-14988460D02*
X15448753Y-14997984D01*
X15448753Y-14997984D02*
X15439229Y-14988460D01*
X15439229Y-14988460D02*
X15448753Y-14978936D01*
X15448753Y-14978936D02*
X15448753Y-14997984D01*
X15629705Y-14864650D02*
X15629705Y-14997984D01*
X15582086Y-14788460D02*
X15534467Y-14931317D01*
X15534467Y-14931317D02*
X15658277Y-14931317D01*
X15772562Y-14797984D02*
X15791610Y-14797984D01*
X15791610Y-14797984D02*
X15810658Y-14807508D01*
X15810658Y-14807508D02*
X15820182Y-14817031D01*
X15820182Y-14817031D02*
X15829705Y-14836079D01*
X15829705Y-14836079D02*
X15839229Y-14874174D01*
X15839229Y-14874174D02*
X15839229Y-14921793D01*
X15839229Y-14921793D02*
X15829705Y-14959888D01*
X15829705Y-14959888D02*
X15820182Y-14978936D01*
X15820182Y-14978936D02*
X15810658Y-14988460D01*
X15810658Y-14988460D02*
X15791610Y-14997984D01*
X15791610Y-14997984D02*
X15772562Y-14997984D01*
X15772562Y-14997984D02*
X15753515Y-14988460D01*
X15753515Y-14988460D02*
X15743991Y-14978936D01*
X15743991Y-14978936D02*
X15734467Y-14959888D01*
X15734467Y-14959888D02*
X15724943Y-14921793D01*
X15724943Y-14921793D02*
X15724943Y-14874174D01*
X15724943Y-14874174D02*
X15734467Y-14836079D01*
X15734467Y-14836079D02*
X15743991Y-14817031D01*
X15743991Y-14817031D02*
X15753515Y-14807508D01*
X15753515Y-14807508D02*
X15772562Y-14797984D01*
X15963039Y-14797984D02*
X15982086Y-14797984D01*
X15982086Y-14797984D02*
X16001134Y-14807508D01*
X16001134Y-14807508D02*
X16010658Y-14817031D01*
X16010658Y-14817031D02*
X16020182Y-14836079D01*
X16020182Y-14836079D02*
X16029705Y-14874174D01*
X16029705Y-14874174D02*
X16029705Y-14921793D01*
X16029705Y-14921793D02*
X16020182Y-14959888D01*
X16020182Y-14959888D02*
X16010658Y-14978936D01*
X16010658Y-14978936D02*
X16001134Y-14988460D01*
X16001134Y-14988460D02*
X15982086Y-14997984D01*
X15982086Y-14997984D02*
X15963039Y-14997984D01*
X15963039Y-14997984D02*
X15943991Y-14988460D01*
X15943991Y-14988460D02*
X15934467Y-14978936D01*
X15934467Y-14978936D02*
X15924943Y-14959888D01*
X15924943Y-14959888D02*
X15915420Y-14921793D01*
X15915420Y-14921793D02*
X15915420Y-14874174D01*
X15915420Y-14874174D02*
X15924943Y-14836079D01*
X15924943Y-14836079D02*
X15934467Y-14817031D01*
X15934467Y-14817031D02*
X15943991Y-14807508D01*
X15943991Y-14807508D02*
X15963039Y-14797984D01*
X16115420Y-14997984D02*
X16115420Y-14864650D01*
X16115420Y-14883698D02*
X16124943Y-14874174D01*
X16124943Y-14874174D02*
X16143991Y-14864650D01*
X16143991Y-14864650D02*
X16172563Y-14864650D01*
X16172563Y-14864650D02*
X16191610Y-14874174D01*
X16191610Y-14874174D02*
X16201134Y-14893222D01*
X16201134Y-14893222D02*
X16201134Y-14997984D01*
X16201134Y-14893222D02*
X16210658Y-14874174D01*
X16210658Y-14874174D02*
X16229705Y-14864650D01*
X16229705Y-14864650D02*
X16258277Y-14864650D01*
X16258277Y-14864650D02*
X16277324Y-14874174D01*
X16277324Y-14874174D02*
X16286848Y-14893222D01*
X16286848Y-14893222D02*
X16286848Y-14997984D01*
X16382086Y-14997984D02*
X16382086Y-14864650D01*
X16382086Y-14883698D02*
X16391610Y-14874174D01*
X16391610Y-14874174D02*
X16410658Y-14864650D01*
X16410658Y-14864650D02*
X16439229Y-14864650D01*
X16439229Y-14864650D02*
X16458277Y-14874174D01*
X16458277Y-14874174D02*
X16467801Y-14893222D01*
X16467801Y-14893222D02*
X16467801Y-14997984D01*
X16467801Y-14893222D02*
X16477324Y-14874174D01*
X16477324Y-14874174D02*
X16496372Y-14864650D01*
X16496372Y-14864650D02*
X16524943Y-14864650D01*
X16524943Y-14864650D02*
X16543991Y-14874174D01*
X16543991Y-14874174D02*
X16553515Y-14893222D01*
X16553515Y-14893222D02*
X16553515Y-14997984D01*
X16943991Y-14788460D02*
X16772563Y-15045603D01*
X17201134Y-14797984D02*
X17220182Y-14797984D01*
X17220182Y-14797984D02*
X17239229Y-14807508D01*
X17239229Y-14807508D02*
X17248753Y-14817031D01*
X17248753Y-14817031D02*
X17258277Y-14836079D01*
X17258277Y-14836079D02*
X17267801Y-14874174D01*
X17267801Y-14874174D02*
X17267801Y-14921793D01*
X17267801Y-14921793D02*
X17258277Y-14959888D01*
X17258277Y-14959888D02*
X17248753Y-14978936D01*
X17248753Y-14978936D02*
X17239229Y-14988460D01*
X17239229Y-14988460D02*
X17220182Y-14997984D01*
X17220182Y-14997984D02*
X17201134Y-14997984D01*
X17201134Y-14997984D02*
X17182087Y-14988460D01*
X17182087Y-14988460D02*
X17172563Y-14978936D01*
X17172563Y-14978936D02*
X17163039Y-14959888D01*
X17163039Y-14959888D02*
X17153515Y-14921793D01*
X17153515Y-14921793D02*
X17153515Y-14874174D01*
X17153515Y-14874174D02*
X17163039Y-14836079D01*
X17163039Y-14836079D02*
X17172563Y-14817031D01*
X17172563Y-14817031D02*
X17182087Y-14807508D01*
X17182087Y-14807508D02*
X17201134Y-14797984D01*
X17353515Y-14978936D02*
X17363039Y-14988460D01*
X17363039Y-14988460D02*
X17353515Y-14997984D01*
X17353515Y-14997984D02*
X17343991Y-14988460D01*
X17343991Y-14988460D02*
X17353515Y-14978936D01*
X17353515Y-14978936D02*
X17353515Y-14997984D01*
X17486848Y-14797984D02*
X17505896Y-14797984D01*
X17505896Y-14797984D02*
X17524944Y-14807508D01*
X17524944Y-14807508D02*
X17534468Y-14817031D01*
X17534468Y-14817031D02*
X17543991Y-14836079D01*
X17543991Y-14836079D02*
X17553515Y-14874174D01*
X17553515Y-14874174D02*
X17553515Y-14921793D01*
X17553515Y-14921793D02*
X17543991Y-14959888D01*
X17543991Y-14959888D02*
X17534468Y-14978936D01*
X17534468Y-14978936D02*
X17524944Y-14988460D01*
X17524944Y-14988460D02*
X17505896Y-14997984D01*
X17505896Y-14997984D02*
X17486848Y-14997984D01*
X17486848Y-14997984D02*
X17467801Y-14988460D01*
X17467801Y-14988460D02*
X17458277Y-14978936D01*
X17458277Y-14978936D02*
X17448753Y-14959888D01*
X17448753Y-14959888D02*
X17439229Y-14921793D01*
X17439229Y-14921793D02*
X17439229Y-14874174D01*
X17439229Y-14874174D02*
X17448753Y-14836079D01*
X17448753Y-14836079D02*
X17458277Y-14817031D01*
X17458277Y-14817031D02*
X17467801Y-14807508D01*
X17467801Y-14807508D02*
X17486848Y-14797984D01*
X17743991Y-14997984D02*
X17629706Y-14997984D01*
X17686848Y-14997984D02*
X17686848Y-14797984D01*
X17686848Y-14797984D02*
X17667801Y-14826555D01*
X17667801Y-14826555D02*
X17648753Y-14845603D01*
X17648753Y-14845603D02*
X17629706Y-14855127D01*
X17924944Y-14797984D02*
X17829706Y-14797984D01*
X17829706Y-14797984D02*
X17820182Y-14893222D01*
X17820182Y-14893222D02*
X17829706Y-14883698D01*
X17829706Y-14883698D02*
X17848753Y-14874174D01*
X17848753Y-14874174D02*
X17896372Y-14874174D01*
X17896372Y-14874174D02*
X17915420Y-14883698D01*
X17915420Y-14883698D02*
X17924944Y-14893222D01*
X17924944Y-14893222D02*
X17934468Y-14912269D01*
X17934468Y-14912269D02*
X17934468Y-14959888D01*
X17934468Y-14959888D02*
X17924944Y-14978936D01*
X17924944Y-14978936D02*
X17915420Y-14988460D01*
X17915420Y-14988460D02*
X17896372Y-14997984D01*
X17896372Y-14997984D02*
X17848753Y-14997984D01*
X17848753Y-14997984D02*
X17829706Y-14988460D01*
X17829706Y-14988460D02*
X17820182Y-14978936D01*
X18001134Y-14797984D02*
X18134468Y-14797984D01*
X18134468Y-14797984D02*
X18048753Y-14997984D01*
X18201134Y-14797984D02*
X18201134Y-14836079D01*
X18277325Y-14797984D02*
X18277325Y-14836079D01*
X18572563Y-15074174D02*
X18563039Y-15064650D01*
X18563039Y-15064650D02*
X18543991Y-15036079D01*
X18543991Y-15036079D02*
X18534468Y-15017031D01*
X18534468Y-15017031D02*
X18524944Y-14988460D01*
X18524944Y-14988460D02*
X18515420Y-14940841D01*
X18515420Y-14940841D02*
X18515420Y-14902746D01*
X18515420Y-14902746D02*
X18524944Y-14855127D01*
X18524944Y-14855127D02*
X18534468Y-14826555D01*
X18534468Y-14826555D02*
X18543991Y-14807508D01*
X18543991Y-14807508D02*
X18563039Y-14778936D01*
X18563039Y-14778936D02*
X18572563Y-14769412D01*
X18753515Y-14997984D02*
X18639230Y-14997984D01*
X18696372Y-14997984D02*
X18696372Y-14797984D01*
X18696372Y-14797984D02*
X18677325Y-14826555D01*
X18677325Y-14826555D02*
X18658277Y-14845603D01*
X18658277Y-14845603D02*
X18639230Y-14855127D01*
X18943991Y-14997984D02*
X18829706Y-14997984D01*
X18886849Y-14997984D02*
X18886849Y-14797984D01*
X18886849Y-14797984D02*
X18867801Y-14826555D01*
X18867801Y-14826555D02*
X18848753Y-14845603D01*
X18848753Y-14845603D02*
X18829706Y-14855127D01*
X19182087Y-14997984D02*
X19182087Y-14797984D01*
X19267801Y-14997984D02*
X19267801Y-14893222D01*
X19267801Y-14893222D02*
X19258277Y-14874174D01*
X19258277Y-14874174D02*
X19239230Y-14864650D01*
X19239230Y-14864650D02*
X19210658Y-14864650D01*
X19210658Y-14864650D02*
X19191611Y-14874174D01*
X19191611Y-14874174D02*
X19182087Y-14883698D01*
X19391611Y-14997984D02*
X19372563Y-14988460D01*
X19372563Y-14988460D02*
X19363039Y-14978936D01*
X19363039Y-14978936D02*
X19353515Y-14959888D01*
X19353515Y-14959888D02*
X19353515Y-14902746D01*
X19353515Y-14902746D02*
X19363039Y-14883698D01*
X19363039Y-14883698D02*
X19372563Y-14874174D01*
X19372563Y-14874174D02*
X19391611Y-14864650D01*
X19391611Y-14864650D02*
X19420182Y-14864650D01*
X19420182Y-14864650D02*
X19439230Y-14874174D01*
X19439230Y-14874174D02*
X19448753Y-14883698D01*
X19448753Y-14883698D02*
X19458277Y-14902746D01*
X19458277Y-14902746D02*
X19458277Y-14959888D01*
X19458277Y-14959888D02*
X19448753Y-14978936D01*
X19448753Y-14978936D02*
X19439230Y-14988460D01*
X19439230Y-14988460D02*
X19420182Y-14997984D01*
X19420182Y-14997984D02*
X19391611Y-14997984D01*
X19572563Y-14997984D02*
X19553515Y-14988460D01*
X19553515Y-14988460D02*
X19543992Y-14969412D01*
X19543992Y-14969412D02*
X19543992Y-14797984D01*
X19724944Y-14988460D02*
X19705896Y-14997984D01*
X19705896Y-14997984D02*
X19667801Y-14997984D01*
X19667801Y-14997984D02*
X19648753Y-14988460D01*
X19648753Y-14988460D02*
X19639230Y-14969412D01*
X19639230Y-14969412D02*
X19639230Y-14893222D01*
X19639230Y-14893222D02*
X19648753Y-14874174D01*
X19648753Y-14874174D02*
X19667801Y-14864650D01*
X19667801Y-14864650D02*
X19705896Y-14864650D01*
X19705896Y-14864650D02*
X19724944Y-14874174D01*
X19724944Y-14874174D02*
X19734468Y-14893222D01*
X19734468Y-14893222D02*
X19734468Y-14912269D01*
X19734468Y-14912269D02*
X19639230Y-14931317D01*
X19810658Y-14988460D02*
X19829706Y-14997984D01*
X19829706Y-14997984D02*
X19867801Y-14997984D01*
X19867801Y-14997984D02*
X19886849Y-14988460D01*
X19886849Y-14988460D02*
X19896373Y-14969412D01*
X19896373Y-14969412D02*
X19896373Y-14959888D01*
X19896373Y-14959888D02*
X19886849Y-14940841D01*
X19886849Y-14940841D02*
X19867801Y-14931317D01*
X19867801Y-14931317D02*
X19839230Y-14931317D01*
X19839230Y-14931317D02*
X19820182Y-14921793D01*
X19820182Y-14921793D02*
X19810658Y-14902746D01*
X19810658Y-14902746D02*
X19810658Y-14893222D01*
X19810658Y-14893222D02*
X19820182Y-14874174D01*
X19820182Y-14874174D02*
X19839230Y-14864650D01*
X19839230Y-14864650D02*
X19867801Y-14864650D01*
X19867801Y-14864650D02*
X19886849Y-14874174D01*
X19963039Y-15074174D02*
X19972563Y-15064650D01*
X19972563Y-15064650D02*
X19991611Y-15036079D01*
X19991611Y-15036079D02*
X20001134Y-15017031D01*
X20001134Y-15017031D02*
X20010658Y-14988460D01*
X20010658Y-14988460D02*
X20020182Y-14940841D01*
X20020182Y-14940841D02*
X20020182Y-14902746D01*
X20020182Y-14902746D02*
X20010658Y-14855127D01*
X20010658Y-14855127D02*
X20001134Y-14826555D01*
X20001134Y-14826555D02*
X19991611Y-14807508D01*
X19991611Y-14807508D02*
X19972563Y-14778936D01*
X19972563Y-14778936D02*
X19963039Y-14769412D01*
D12*
X14967500Y-15140500D02*
X14967500Y-15200500D01*
X14937500Y-15170500D02*
X14997500Y-15170500D01*
D11*
X15296372Y-15061984D02*
X15315420Y-15061984D01*
X15315420Y-15061984D02*
X15334467Y-15071508D01*
X15334467Y-15071508D02*
X15343991Y-15081031D01*
X15343991Y-15081031D02*
X15353515Y-15100079D01*
X15353515Y-15100079D02*
X15363039Y-15138174D01*
X15363039Y-15138174D02*
X15363039Y-15185793D01*
X15363039Y-15185793D02*
X15353515Y-15223888D01*
X15353515Y-15223888D02*
X15343991Y-15242936D01*
X15343991Y-15242936D02*
X15334467Y-15252460D01*
X15334467Y-15252460D02*
X15315420Y-15261984D01*
X15315420Y-15261984D02*
X15296372Y-15261984D01*
X15296372Y-15261984D02*
X15277324Y-15252460D01*
X15277324Y-15252460D02*
X15267801Y-15242936D01*
X15267801Y-15242936D02*
X15258277Y-15223888D01*
X15258277Y-15223888D02*
X15248753Y-15185793D01*
X15248753Y-15185793D02*
X15248753Y-15138174D01*
X15248753Y-15138174D02*
X15258277Y-15100079D01*
X15258277Y-15100079D02*
X15267801Y-15081031D01*
X15267801Y-15081031D02*
X15277324Y-15071508D01*
X15277324Y-15071508D02*
X15296372Y-15061984D01*
X15448753Y-15242936D02*
X15458277Y-15252460D01*
X15458277Y-15252460D02*
X15448753Y-15261984D01*
X15448753Y-15261984D02*
X15439229Y-15252460D01*
X15439229Y-15252460D02*
X15448753Y-15242936D01*
X15448753Y-15242936D02*
X15448753Y-15261984D01*
X15629705Y-15061984D02*
X15591610Y-15061984D01*
X15591610Y-15061984D02*
X15572562Y-15071508D01*
X15572562Y-15071508D02*
X15563039Y-15081031D01*
X15563039Y-15081031D02*
X15543991Y-15109603D01*
X15543991Y-15109603D02*
X15534467Y-15147698D01*
X15534467Y-15147698D02*
X15534467Y-15223888D01*
X15534467Y-15223888D02*
X15543991Y-15242936D01*
X15543991Y-15242936D02*
X15553515Y-15252460D01*
X15553515Y-15252460D02*
X15572562Y-15261984D01*
X15572562Y-15261984D02*
X15610658Y-15261984D01*
X15610658Y-15261984D02*
X15629705Y-15252460D01*
X15629705Y-15252460D02*
X15639229Y-15242936D01*
X15639229Y-15242936D02*
X15648753Y-15223888D01*
X15648753Y-15223888D02*
X15648753Y-15176269D01*
X15648753Y-15176269D02*
X15639229Y-15157222D01*
X15639229Y-15157222D02*
X15629705Y-15147698D01*
X15629705Y-15147698D02*
X15610658Y-15138174D01*
X15610658Y-15138174D02*
X15572562Y-15138174D01*
X15572562Y-15138174D02*
X15553515Y-15147698D01*
X15553515Y-15147698D02*
X15543991Y-15157222D01*
X15543991Y-15157222D02*
X15534467Y-15176269D01*
X15772562Y-15061984D02*
X15791610Y-15061984D01*
X15791610Y-15061984D02*
X15810658Y-15071508D01*
X15810658Y-15071508D02*
X15820182Y-15081031D01*
X15820182Y-15081031D02*
X15829705Y-15100079D01*
X15829705Y-15100079D02*
X15839229Y-15138174D01*
X15839229Y-15138174D02*
X15839229Y-15185793D01*
X15839229Y-15185793D02*
X15829705Y-15223888D01*
X15829705Y-15223888D02*
X15820182Y-15242936D01*
X15820182Y-15242936D02*
X15810658Y-15252460D01*
X15810658Y-15252460D02*
X15791610Y-15261984D01*
X15791610Y-15261984D02*
X15772562Y-15261984D01*
X15772562Y-15261984D02*
X15753515Y-15252460D01*
X15753515Y-15252460D02*
X15743991Y-15242936D01*
X15743991Y-15242936D02*
X15734467Y-15223888D01*
X15734467Y-15223888D02*
X15724943Y-15185793D01*
X15724943Y-15185793D02*
X15724943Y-15138174D01*
X15724943Y-15138174D02*
X15734467Y-15100079D01*
X15734467Y-15100079D02*
X15743991Y-15081031D01*
X15743991Y-15081031D02*
X15753515Y-15071508D01*
X15753515Y-15071508D02*
X15772562Y-15061984D01*
X15963039Y-15061984D02*
X15982086Y-15061984D01*
X15982086Y-15061984D02*
X16001134Y-15071508D01*
X16001134Y-15071508D02*
X16010658Y-15081031D01*
X16010658Y-15081031D02*
X16020182Y-15100079D01*
X16020182Y-15100079D02*
X16029705Y-15138174D01*
X16029705Y-15138174D02*
X16029705Y-15185793D01*
X16029705Y-15185793D02*
X16020182Y-15223888D01*
X16020182Y-15223888D02*
X16010658Y-15242936D01*
X16010658Y-15242936D02*
X16001134Y-15252460D01*
X16001134Y-15252460D02*
X15982086Y-15261984D01*
X15982086Y-15261984D02*
X15963039Y-15261984D01*
X15963039Y-15261984D02*
X15943991Y-15252460D01*
X15943991Y-15252460D02*
X15934467Y-15242936D01*
X15934467Y-15242936D02*
X15924943Y-15223888D01*
X15924943Y-15223888D02*
X15915420Y-15185793D01*
X15915420Y-15185793D02*
X15915420Y-15138174D01*
X15915420Y-15138174D02*
X15924943Y-15100079D01*
X15924943Y-15100079D02*
X15934467Y-15081031D01*
X15934467Y-15081031D02*
X15943991Y-15071508D01*
X15943991Y-15071508D02*
X15963039Y-15061984D01*
X16115420Y-15261984D02*
X16115420Y-15128650D01*
X16115420Y-15147698D02*
X16124943Y-15138174D01*
X16124943Y-15138174D02*
X16143991Y-15128650D01*
X16143991Y-15128650D02*
X16172563Y-15128650D01*
X16172563Y-15128650D02*
X16191610Y-15138174D01*
X16191610Y-15138174D02*
X16201134Y-15157222D01*
X16201134Y-15157222D02*
X16201134Y-15261984D01*
X16201134Y-15157222D02*
X16210658Y-15138174D01*
X16210658Y-15138174D02*
X16229705Y-15128650D01*
X16229705Y-15128650D02*
X16258277Y-15128650D01*
X16258277Y-15128650D02*
X16277324Y-15138174D01*
X16277324Y-15138174D02*
X16286848Y-15157222D01*
X16286848Y-15157222D02*
X16286848Y-15261984D01*
X16382086Y-15261984D02*
X16382086Y-15128650D01*
X16382086Y-15147698D02*
X16391610Y-15138174D01*
X16391610Y-15138174D02*
X16410658Y-15128650D01*
X16410658Y-15128650D02*
X16439229Y-15128650D01*
X16439229Y-15128650D02*
X16458277Y-15138174D01*
X16458277Y-15138174D02*
X16467801Y-15157222D01*
X16467801Y-15157222D02*
X16467801Y-15261984D01*
X16467801Y-15157222D02*
X16477324Y-15138174D01*
X16477324Y-15138174D02*
X16496372Y-15128650D01*
X16496372Y-15128650D02*
X16524943Y-15128650D01*
X16524943Y-15128650D02*
X16543991Y-15138174D01*
X16543991Y-15138174D02*
X16553515Y-15157222D01*
X16553515Y-15157222D02*
X16553515Y-15261984D01*
X16943991Y-15052460D02*
X16772563Y-15309603D01*
X17201134Y-15061984D02*
X17220182Y-15061984D01*
X17220182Y-15061984D02*
X17239229Y-15071508D01*
X17239229Y-15071508D02*
X17248753Y-15081031D01*
X17248753Y-15081031D02*
X17258277Y-15100079D01*
X17258277Y-15100079D02*
X17267801Y-15138174D01*
X17267801Y-15138174D02*
X17267801Y-15185793D01*
X17267801Y-15185793D02*
X17258277Y-15223888D01*
X17258277Y-15223888D02*
X17248753Y-15242936D01*
X17248753Y-15242936D02*
X17239229Y-15252460D01*
X17239229Y-15252460D02*
X17220182Y-15261984D01*
X17220182Y-15261984D02*
X17201134Y-15261984D01*
X17201134Y-15261984D02*
X17182087Y-15252460D01*
X17182087Y-15252460D02*
X17172563Y-15242936D01*
X17172563Y-15242936D02*
X17163039Y-15223888D01*
X17163039Y-15223888D02*
X17153515Y-15185793D01*
X17153515Y-15185793D02*
X17153515Y-15138174D01*
X17153515Y-15138174D02*
X17163039Y-15100079D01*
X17163039Y-15100079D02*
X17172563Y-15081031D01*
X17172563Y-15081031D02*
X17182087Y-15071508D01*
X17182087Y-15071508D02*
X17201134Y-15061984D01*
X17353515Y-15242936D02*
X17363039Y-15252460D01*
X17363039Y-15252460D02*
X17353515Y-15261984D01*
X17353515Y-15261984D02*
X17343991Y-15252460D01*
X17343991Y-15252460D02*
X17353515Y-15242936D01*
X17353515Y-15242936D02*
X17353515Y-15261984D01*
X17486848Y-15061984D02*
X17505896Y-15061984D01*
X17505896Y-15061984D02*
X17524944Y-15071508D01*
X17524944Y-15071508D02*
X17534468Y-15081031D01*
X17534468Y-15081031D02*
X17543991Y-15100079D01*
X17543991Y-15100079D02*
X17553515Y-15138174D01*
X17553515Y-15138174D02*
X17553515Y-15185793D01*
X17553515Y-15185793D02*
X17543991Y-15223888D01*
X17543991Y-15223888D02*
X17534468Y-15242936D01*
X17534468Y-15242936D02*
X17524944Y-15252460D01*
X17524944Y-15252460D02*
X17505896Y-15261984D01*
X17505896Y-15261984D02*
X17486848Y-15261984D01*
X17486848Y-15261984D02*
X17467801Y-15252460D01*
X17467801Y-15252460D02*
X17458277Y-15242936D01*
X17458277Y-15242936D02*
X17448753Y-15223888D01*
X17448753Y-15223888D02*
X17439229Y-15185793D01*
X17439229Y-15185793D02*
X17439229Y-15138174D01*
X17439229Y-15138174D02*
X17448753Y-15100079D01*
X17448753Y-15100079D02*
X17458277Y-15081031D01*
X17458277Y-15081031D02*
X17467801Y-15071508D01*
X17467801Y-15071508D02*
X17486848Y-15061984D01*
X17629706Y-15081031D02*
X17639229Y-15071508D01*
X17639229Y-15071508D02*
X17658277Y-15061984D01*
X17658277Y-15061984D02*
X17705896Y-15061984D01*
X17705896Y-15061984D02*
X17724944Y-15071508D01*
X17724944Y-15071508D02*
X17734468Y-15081031D01*
X17734468Y-15081031D02*
X17743991Y-15100079D01*
X17743991Y-15100079D02*
X17743991Y-15119127D01*
X17743991Y-15119127D02*
X17734468Y-15147698D01*
X17734468Y-15147698D02*
X17620182Y-15261984D01*
X17620182Y-15261984D02*
X17743991Y-15261984D01*
X17810658Y-15061984D02*
X17934468Y-15061984D01*
X17934468Y-15061984D02*
X17867801Y-15138174D01*
X17867801Y-15138174D02*
X17896372Y-15138174D01*
X17896372Y-15138174D02*
X17915420Y-15147698D01*
X17915420Y-15147698D02*
X17924944Y-15157222D01*
X17924944Y-15157222D02*
X17934468Y-15176269D01*
X17934468Y-15176269D02*
X17934468Y-15223888D01*
X17934468Y-15223888D02*
X17924944Y-15242936D01*
X17924944Y-15242936D02*
X17915420Y-15252460D01*
X17915420Y-15252460D02*
X17896372Y-15261984D01*
X17896372Y-15261984D02*
X17839229Y-15261984D01*
X17839229Y-15261984D02*
X17820182Y-15252460D01*
X17820182Y-15252460D02*
X17810658Y-15242936D01*
X18105896Y-15061984D02*
X18067801Y-15061984D01*
X18067801Y-15061984D02*
X18048753Y-15071508D01*
X18048753Y-15071508D02*
X18039229Y-15081031D01*
X18039229Y-15081031D02*
X18020182Y-15109603D01*
X18020182Y-15109603D02*
X18010658Y-15147698D01*
X18010658Y-15147698D02*
X18010658Y-15223888D01*
X18010658Y-15223888D02*
X18020182Y-15242936D01*
X18020182Y-15242936D02*
X18029706Y-15252460D01*
X18029706Y-15252460D02*
X18048753Y-15261984D01*
X18048753Y-15261984D02*
X18086849Y-15261984D01*
X18086849Y-15261984D02*
X18105896Y-15252460D01*
X18105896Y-15252460D02*
X18115420Y-15242936D01*
X18115420Y-15242936D02*
X18124944Y-15223888D01*
X18124944Y-15223888D02*
X18124944Y-15176269D01*
X18124944Y-15176269D02*
X18115420Y-15157222D01*
X18115420Y-15157222D02*
X18105896Y-15147698D01*
X18105896Y-15147698D02*
X18086849Y-15138174D01*
X18086849Y-15138174D02*
X18048753Y-15138174D01*
X18048753Y-15138174D02*
X18029706Y-15147698D01*
X18029706Y-15147698D02*
X18020182Y-15157222D01*
X18020182Y-15157222D02*
X18010658Y-15176269D01*
X18201134Y-15061984D02*
X18201134Y-15100079D01*
X18277325Y-15061984D02*
X18277325Y-15100079D01*
X18572563Y-15338174D02*
X18563039Y-15328650D01*
X18563039Y-15328650D02*
X18543991Y-15300079D01*
X18543991Y-15300079D02*
X18534468Y-15281031D01*
X18534468Y-15281031D02*
X18524944Y-15252460D01*
X18524944Y-15252460D02*
X18515420Y-15204841D01*
X18515420Y-15204841D02*
X18515420Y-15166746D01*
X18515420Y-15166746D02*
X18524944Y-15119127D01*
X18524944Y-15119127D02*
X18534468Y-15090555D01*
X18534468Y-15090555D02*
X18543991Y-15071508D01*
X18543991Y-15071508D02*
X18563039Y-15042936D01*
X18563039Y-15042936D02*
X18572563Y-15033412D01*
X18734468Y-15128650D02*
X18734468Y-15261984D01*
X18686849Y-15052460D02*
X18639230Y-15195317D01*
X18639230Y-15195317D02*
X18763039Y-15195317D01*
X18991611Y-15261984D02*
X18991611Y-15061984D01*
X19077325Y-15261984D02*
X19077325Y-15157222D01*
X19077325Y-15157222D02*
X19067801Y-15138174D01*
X19067801Y-15138174D02*
X19048753Y-15128650D01*
X19048753Y-15128650D02*
X19020182Y-15128650D01*
X19020182Y-15128650D02*
X19001134Y-15138174D01*
X19001134Y-15138174D02*
X18991611Y-15147698D01*
X19201134Y-15261984D02*
X19182087Y-15252460D01*
X19182087Y-15252460D02*
X19172563Y-15242936D01*
X19172563Y-15242936D02*
X19163039Y-15223888D01*
X19163039Y-15223888D02*
X19163039Y-15166746D01*
X19163039Y-15166746D02*
X19172563Y-15147698D01*
X19172563Y-15147698D02*
X19182087Y-15138174D01*
X19182087Y-15138174D02*
X19201134Y-15128650D01*
X19201134Y-15128650D02*
X19229706Y-15128650D01*
X19229706Y-15128650D02*
X19248753Y-15138174D01*
X19248753Y-15138174D02*
X19258277Y-15147698D01*
X19258277Y-15147698D02*
X19267801Y-15166746D01*
X19267801Y-15166746D02*
X19267801Y-15223888D01*
X19267801Y-15223888D02*
X19258277Y-15242936D01*
X19258277Y-15242936D02*
X19248753Y-15252460D01*
X19248753Y-15252460D02*
X19229706Y-15261984D01*
X19229706Y-15261984D02*
X19201134Y-15261984D01*
X19382087Y-15261984D02*
X19363039Y-15252460D01*
X19363039Y-15252460D02*
X19353515Y-15233412D01*
X19353515Y-15233412D02*
X19353515Y-15061984D01*
X19534468Y-15252460D02*
X19515420Y-15261984D01*
X19515420Y-15261984D02*
X19477325Y-15261984D01*
X19477325Y-15261984D02*
X19458277Y-15252460D01*
X19458277Y-15252460D02*
X19448753Y-15233412D01*
X19448753Y-15233412D02*
X19448753Y-15157222D01*
X19448753Y-15157222D02*
X19458277Y-15138174D01*
X19458277Y-15138174D02*
X19477325Y-15128650D01*
X19477325Y-15128650D02*
X19515420Y-15128650D01*
X19515420Y-15128650D02*
X19534468Y-15138174D01*
X19534468Y-15138174D02*
X19543992Y-15157222D01*
X19543992Y-15157222D02*
X19543992Y-15176269D01*
X19543992Y-15176269D02*
X19448753Y-15195317D01*
X19620182Y-15252460D02*
X19639230Y-15261984D01*
X19639230Y-15261984D02*
X19677325Y-15261984D01*
X19677325Y-15261984D02*
X19696373Y-15252460D01*
X19696373Y-15252460D02*
X19705896Y-15233412D01*
X19705896Y-15233412D02*
X19705896Y-15223888D01*
X19705896Y-15223888D02*
X19696373Y-15204841D01*
X19696373Y-15204841D02*
X19677325Y-15195317D01*
X19677325Y-15195317D02*
X19648753Y-15195317D01*
X19648753Y-15195317D02*
X19629706Y-15185793D01*
X19629706Y-15185793D02*
X19620182Y-15166746D01*
X19620182Y-15166746D02*
X19620182Y-15157222D01*
X19620182Y-15157222D02*
X19629706Y-15138174D01*
X19629706Y-15138174D02*
X19648753Y-15128650D01*
X19648753Y-15128650D02*
X19677325Y-15128650D01*
X19677325Y-15128650D02*
X19696373Y-15138174D01*
X19772563Y-15338174D02*
X19782087Y-15328650D01*
X19782087Y-15328650D02*
X19801134Y-15300079D01*
X19801134Y-15300079D02*
X19810658Y-15281031D01*
X19810658Y-15281031D02*
X19820182Y-15252460D01*
X19820182Y-15252460D02*
X19829706Y-15204841D01*
X19829706Y-15204841D02*
X19829706Y-15166746D01*
X19829706Y-15166746D02*
X19820182Y-15119127D01*
X19820182Y-15119127D02*
X19810658Y-15090555D01*
X19810658Y-15090555D02*
X19801134Y-15071508D01*
X19801134Y-15071508D02*
X19782087Y-15042936D01*
X19782087Y-15042936D02*
X19772563Y-15033412D01*
D12*
X14985784Y-15462784D02*
X14985784Y-15406215D01*
X14929215Y-15406215D01*
X14929215Y-15462784D01*
X14985784Y-15462784D01*
D11*
X15296372Y-15325984D02*
X15315420Y-15325984D01*
X15315420Y-15325984D02*
X15334467Y-15335508D01*
X15334467Y-15335508D02*
X15343991Y-15345031D01*
X15343991Y-15345031D02*
X15353515Y-15364079D01*
X15353515Y-15364079D02*
X15363039Y-15402174D01*
X15363039Y-15402174D02*
X15363039Y-15449793D01*
X15363039Y-15449793D02*
X15353515Y-15487888D01*
X15353515Y-15487888D02*
X15343991Y-15506936D01*
X15343991Y-15506936D02*
X15334467Y-15516460D01*
X15334467Y-15516460D02*
X15315420Y-15525984D01*
X15315420Y-15525984D02*
X15296372Y-15525984D01*
X15296372Y-15525984D02*
X15277324Y-15516460D01*
X15277324Y-15516460D02*
X15267801Y-15506936D01*
X15267801Y-15506936D02*
X15258277Y-15487888D01*
X15258277Y-15487888D02*
X15248753Y-15449793D01*
X15248753Y-15449793D02*
X15248753Y-15402174D01*
X15248753Y-15402174D02*
X15258277Y-15364079D01*
X15258277Y-15364079D02*
X15267801Y-15345031D01*
X15267801Y-15345031D02*
X15277324Y-15335508D01*
X15277324Y-15335508D02*
X15296372Y-15325984D01*
X15448753Y-15506936D02*
X15458277Y-15516460D01*
X15458277Y-15516460D02*
X15448753Y-15525984D01*
X15448753Y-15525984D02*
X15439229Y-15516460D01*
X15439229Y-15516460D02*
X15448753Y-15506936D01*
X15448753Y-15506936D02*
X15448753Y-15525984D01*
X15572562Y-15411698D02*
X15553515Y-15402174D01*
X15553515Y-15402174D02*
X15543991Y-15392650D01*
X15543991Y-15392650D02*
X15534467Y-15373603D01*
X15534467Y-15373603D02*
X15534467Y-15364079D01*
X15534467Y-15364079D02*
X15543991Y-15345031D01*
X15543991Y-15345031D02*
X15553515Y-15335508D01*
X15553515Y-15335508D02*
X15572562Y-15325984D01*
X15572562Y-15325984D02*
X15610658Y-15325984D01*
X15610658Y-15325984D02*
X15629705Y-15335508D01*
X15629705Y-15335508D02*
X15639229Y-15345031D01*
X15639229Y-15345031D02*
X15648753Y-15364079D01*
X15648753Y-15364079D02*
X15648753Y-15373603D01*
X15648753Y-15373603D02*
X15639229Y-15392650D01*
X15639229Y-15392650D02*
X15629705Y-15402174D01*
X15629705Y-15402174D02*
X15610658Y-15411698D01*
X15610658Y-15411698D02*
X15572562Y-15411698D01*
X15572562Y-15411698D02*
X15553515Y-15421222D01*
X15553515Y-15421222D02*
X15543991Y-15430746D01*
X15543991Y-15430746D02*
X15534467Y-15449793D01*
X15534467Y-15449793D02*
X15534467Y-15487888D01*
X15534467Y-15487888D02*
X15543991Y-15506936D01*
X15543991Y-15506936D02*
X15553515Y-15516460D01*
X15553515Y-15516460D02*
X15572562Y-15525984D01*
X15572562Y-15525984D02*
X15610658Y-15525984D01*
X15610658Y-15525984D02*
X15629705Y-15516460D01*
X15629705Y-15516460D02*
X15639229Y-15506936D01*
X15639229Y-15506936D02*
X15648753Y-15487888D01*
X15648753Y-15487888D02*
X15648753Y-15449793D01*
X15648753Y-15449793D02*
X15639229Y-15430746D01*
X15639229Y-15430746D02*
X15629705Y-15421222D01*
X15629705Y-15421222D02*
X15610658Y-15411698D01*
X15772562Y-15325984D02*
X15791610Y-15325984D01*
X15791610Y-15325984D02*
X15810658Y-15335508D01*
X15810658Y-15335508D02*
X15820182Y-15345031D01*
X15820182Y-15345031D02*
X15829705Y-15364079D01*
X15829705Y-15364079D02*
X15839229Y-15402174D01*
X15839229Y-15402174D02*
X15839229Y-15449793D01*
X15839229Y-15449793D02*
X15829705Y-15487888D01*
X15829705Y-15487888D02*
X15820182Y-15506936D01*
X15820182Y-15506936D02*
X15810658Y-15516460D01*
X15810658Y-15516460D02*
X15791610Y-15525984D01*
X15791610Y-15525984D02*
X15772562Y-15525984D01*
X15772562Y-15525984D02*
X15753515Y-15516460D01*
X15753515Y-15516460D02*
X15743991Y-15506936D01*
X15743991Y-15506936D02*
X15734467Y-15487888D01*
X15734467Y-15487888D02*
X15724943Y-15449793D01*
X15724943Y-15449793D02*
X15724943Y-15402174D01*
X15724943Y-15402174D02*
X15734467Y-15364079D01*
X15734467Y-15364079D02*
X15743991Y-15345031D01*
X15743991Y-15345031D02*
X15753515Y-15335508D01*
X15753515Y-15335508D02*
X15772562Y-15325984D01*
X15963039Y-15325984D02*
X15982086Y-15325984D01*
X15982086Y-15325984D02*
X16001134Y-15335508D01*
X16001134Y-15335508D02*
X16010658Y-15345031D01*
X16010658Y-15345031D02*
X16020182Y-15364079D01*
X16020182Y-15364079D02*
X16029705Y-15402174D01*
X16029705Y-15402174D02*
X16029705Y-15449793D01*
X16029705Y-15449793D02*
X16020182Y-15487888D01*
X16020182Y-15487888D02*
X16010658Y-15506936D01*
X16010658Y-15506936D02*
X16001134Y-15516460D01*
X16001134Y-15516460D02*
X15982086Y-15525984D01*
X15982086Y-15525984D02*
X15963039Y-15525984D01*
X15963039Y-15525984D02*
X15943991Y-15516460D01*
X15943991Y-15516460D02*
X15934467Y-15506936D01*
X15934467Y-15506936D02*
X15924943Y-15487888D01*
X15924943Y-15487888D02*
X15915420Y-15449793D01*
X15915420Y-15449793D02*
X15915420Y-15402174D01*
X15915420Y-15402174D02*
X15924943Y-15364079D01*
X15924943Y-15364079D02*
X15934467Y-15345031D01*
X15934467Y-15345031D02*
X15943991Y-15335508D01*
X15943991Y-15335508D02*
X15963039Y-15325984D01*
X16115420Y-15525984D02*
X16115420Y-15392650D01*
X16115420Y-15411698D02*
X16124943Y-15402174D01*
X16124943Y-15402174D02*
X16143991Y-15392650D01*
X16143991Y-15392650D02*
X16172563Y-15392650D01*
X16172563Y-15392650D02*
X16191610Y-15402174D01*
X16191610Y-15402174D02*
X16201134Y-15421222D01*
X16201134Y-15421222D02*
X16201134Y-15525984D01*
X16201134Y-15421222D02*
X16210658Y-15402174D01*
X16210658Y-15402174D02*
X16229705Y-15392650D01*
X16229705Y-15392650D02*
X16258277Y-15392650D01*
X16258277Y-15392650D02*
X16277324Y-15402174D01*
X16277324Y-15402174D02*
X16286848Y-15421222D01*
X16286848Y-15421222D02*
X16286848Y-15525984D01*
X16382086Y-15525984D02*
X16382086Y-15392650D01*
X16382086Y-15411698D02*
X16391610Y-15402174D01*
X16391610Y-15402174D02*
X16410658Y-15392650D01*
X16410658Y-15392650D02*
X16439229Y-15392650D01*
X16439229Y-15392650D02*
X16458277Y-15402174D01*
X16458277Y-15402174D02*
X16467801Y-15421222D01*
X16467801Y-15421222D02*
X16467801Y-15525984D01*
X16467801Y-15421222D02*
X16477324Y-15402174D01*
X16477324Y-15402174D02*
X16496372Y-15392650D01*
X16496372Y-15392650D02*
X16524943Y-15392650D01*
X16524943Y-15392650D02*
X16543991Y-15402174D01*
X16543991Y-15402174D02*
X16553515Y-15421222D01*
X16553515Y-15421222D02*
X16553515Y-15525984D01*
X16943991Y-15316460D02*
X16772563Y-15573603D01*
X17201134Y-15325984D02*
X17220182Y-15325984D01*
X17220182Y-15325984D02*
X17239229Y-15335508D01*
X17239229Y-15335508D02*
X17248753Y-15345031D01*
X17248753Y-15345031D02*
X17258277Y-15364079D01*
X17258277Y-15364079D02*
X17267801Y-15402174D01*
X17267801Y-15402174D02*
X17267801Y-15449793D01*
X17267801Y-15449793D02*
X17258277Y-15487888D01*
X17258277Y-15487888D02*
X17248753Y-15506936D01*
X17248753Y-15506936D02*
X17239229Y-15516460D01*
X17239229Y-15516460D02*
X17220182Y-15525984D01*
X17220182Y-15525984D02*
X17201134Y-15525984D01*
X17201134Y-15525984D02*
X17182087Y-15516460D01*
X17182087Y-15516460D02*
X17172563Y-15506936D01*
X17172563Y-15506936D02*
X17163039Y-15487888D01*
X17163039Y-15487888D02*
X17153515Y-15449793D01*
X17153515Y-15449793D02*
X17153515Y-15402174D01*
X17153515Y-15402174D02*
X17163039Y-15364079D01*
X17163039Y-15364079D02*
X17172563Y-15345031D01*
X17172563Y-15345031D02*
X17182087Y-15335508D01*
X17182087Y-15335508D02*
X17201134Y-15325984D01*
X17353515Y-15506936D02*
X17363039Y-15516460D01*
X17363039Y-15516460D02*
X17353515Y-15525984D01*
X17353515Y-15525984D02*
X17343991Y-15516460D01*
X17343991Y-15516460D02*
X17353515Y-15506936D01*
X17353515Y-15506936D02*
X17353515Y-15525984D01*
X17486848Y-15325984D02*
X17505896Y-15325984D01*
X17505896Y-15325984D02*
X17524944Y-15335508D01*
X17524944Y-15335508D02*
X17534468Y-15345031D01*
X17534468Y-15345031D02*
X17543991Y-15364079D01*
X17543991Y-15364079D02*
X17553515Y-15402174D01*
X17553515Y-15402174D02*
X17553515Y-15449793D01*
X17553515Y-15449793D02*
X17543991Y-15487888D01*
X17543991Y-15487888D02*
X17534468Y-15506936D01*
X17534468Y-15506936D02*
X17524944Y-15516460D01*
X17524944Y-15516460D02*
X17505896Y-15525984D01*
X17505896Y-15525984D02*
X17486848Y-15525984D01*
X17486848Y-15525984D02*
X17467801Y-15516460D01*
X17467801Y-15516460D02*
X17458277Y-15506936D01*
X17458277Y-15506936D02*
X17448753Y-15487888D01*
X17448753Y-15487888D02*
X17439229Y-15449793D01*
X17439229Y-15449793D02*
X17439229Y-15402174D01*
X17439229Y-15402174D02*
X17448753Y-15364079D01*
X17448753Y-15364079D02*
X17458277Y-15345031D01*
X17458277Y-15345031D02*
X17467801Y-15335508D01*
X17467801Y-15335508D02*
X17486848Y-15325984D01*
X17620182Y-15325984D02*
X17743991Y-15325984D01*
X17743991Y-15325984D02*
X17677325Y-15402174D01*
X17677325Y-15402174D02*
X17705896Y-15402174D01*
X17705896Y-15402174D02*
X17724944Y-15411698D01*
X17724944Y-15411698D02*
X17734468Y-15421222D01*
X17734468Y-15421222D02*
X17743991Y-15440269D01*
X17743991Y-15440269D02*
X17743991Y-15487888D01*
X17743991Y-15487888D02*
X17734468Y-15506936D01*
X17734468Y-15506936D02*
X17724944Y-15516460D01*
X17724944Y-15516460D02*
X17705896Y-15525984D01*
X17705896Y-15525984D02*
X17648753Y-15525984D01*
X17648753Y-15525984D02*
X17629706Y-15516460D01*
X17629706Y-15516460D02*
X17620182Y-15506936D01*
X17934468Y-15525984D02*
X17820182Y-15525984D01*
X17877325Y-15525984D02*
X17877325Y-15325984D01*
X17877325Y-15325984D02*
X17858277Y-15354555D01*
X17858277Y-15354555D02*
X17839229Y-15373603D01*
X17839229Y-15373603D02*
X17820182Y-15383127D01*
X18115420Y-15325984D02*
X18020182Y-15325984D01*
X18020182Y-15325984D02*
X18010658Y-15421222D01*
X18010658Y-15421222D02*
X18020182Y-15411698D01*
X18020182Y-15411698D02*
X18039229Y-15402174D01*
X18039229Y-15402174D02*
X18086849Y-15402174D01*
X18086849Y-15402174D02*
X18105896Y-15411698D01*
X18105896Y-15411698D02*
X18115420Y-15421222D01*
X18115420Y-15421222D02*
X18124944Y-15440269D01*
X18124944Y-15440269D02*
X18124944Y-15487888D01*
X18124944Y-15487888D02*
X18115420Y-15506936D01*
X18115420Y-15506936D02*
X18105896Y-15516460D01*
X18105896Y-15516460D02*
X18086849Y-15525984D01*
X18086849Y-15525984D02*
X18039229Y-15525984D01*
X18039229Y-15525984D02*
X18020182Y-15516460D01*
X18020182Y-15516460D02*
X18010658Y-15506936D01*
X18201134Y-15325984D02*
X18201134Y-15364079D01*
X18277325Y-15325984D02*
X18277325Y-15364079D01*
X18572563Y-15602174D02*
X18563039Y-15592650D01*
X18563039Y-15592650D02*
X18543991Y-15564079D01*
X18543991Y-15564079D02*
X18534468Y-15545031D01*
X18534468Y-15545031D02*
X18524944Y-15516460D01*
X18524944Y-15516460D02*
X18515420Y-15468841D01*
X18515420Y-15468841D02*
X18515420Y-15430746D01*
X18515420Y-15430746D02*
X18524944Y-15383127D01*
X18524944Y-15383127D02*
X18534468Y-15354555D01*
X18534468Y-15354555D02*
X18543991Y-15335508D01*
X18543991Y-15335508D02*
X18563039Y-15306936D01*
X18563039Y-15306936D02*
X18572563Y-15297412D01*
X18639230Y-15345031D02*
X18648753Y-15335508D01*
X18648753Y-15335508D02*
X18667801Y-15325984D01*
X18667801Y-15325984D02*
X18715420Y-15325984D01*
X18715420Y-15325984D02*
X18734468Y-15335508D01*
X18734468Y-15335508D02*
X18743991Y-15345031D01*
X18743991Y-15345031D02*
X18753515Y-15364079D01*
X18753515Y-15364079D02*
X18753515Y-15383127D01*
X18753515Y-15383127D02*
X18743991Y-15411698D01*
X18743991Y-15411698D02*
X18629706Y-15525984D01*
X18629706Y-15525984D02*
X18753515Y-15525984D01*
X18867801Y-15411698D02*
X18848753Y-15402174D01*
X18848753Y-15402174D02*
X18839230Y-15392650D01*
X18839230Y-15392650D02*
X18829706Y-15373603D01*
X18829706Y-15373603D02*
X18829706Y-15364079D01*
X18829706Y-15364079D02*
X18839230Y-15345031D01*
X18839230Y-15345031D02*
X18848753Y-15335508D01*
X18848753Y-15335508D02*
X18867801Y-15325984D01*
X18867801Y-15325984D02*
X18905896Y-15325984D01*
X18905896Y-15325984D02*
X18924944Y-15335508D01*
X18924944Y-15335508D02*
X18934468Y-15345031D01*
X18934468Y-15345031D02*
X18943991Y-15364079D01*
X18943991Y-15364079D02*
X18943991Y-15373603D01*
X18943991Y-15373603D02*
X18934468Y-15392650D01*
X18934468Y-15392650D02*
X18924944Y-15402174D01*
X18924944Y-15402174D02*
X18905896Y-15411698D01*
X18905896Y-15411698D02*
X18867801Y-15411698D01*
X18867801Y-15411698D02*
X18848753Y-15421222D01*
X18848753Y-15421222D02*
X18839230Y-15430746D01*
X18839230Y-15430746D02*
X18829706Y-15449793D01*
X18829706Y-15449793D02*
X18829706Y-15487888D01*
X18829706Y-15487888D02*
X18839230Y-15506936D01*
X18839230Y-15506936D02*
X18848753Y-15516460D01*
X18848753Y-15516460D02*
X18867801Y-15525984D01*
X18867801Y-15525984D02*
X18905896Y-15525984D01*
X18905896Y-15525984D02*
X18924944Y-15516460D01*
X18924944Y-15516460D02*
X18934468Y-15506936D01*
X18934468Y-15506936D02*
X18943991Y-15487888D01*
X18943991Y-15487888D02*
X18943991Y-15449793D01*
X18943991Y-15449793D02*
X18934468Y-15430746D01*
X18934468Y-15430746D02*
X18924944Y-15421222D01*
X18924944Y-15421222D02*
X18905896Y-15411698D01*
X19182087Y-15525984D02*
X19182087Y-15325984D01*
X19267801Y-15525984D02*
X19267801Y-15421222D01*
X19267801Y-15421222D02*
X19258277Y-15402174D01*
X19258277Y-15402174D02*
X19239230Y-15392650D01*
X19239230Y-15392650D02*
X19210658Y-15392650D01*
X19210658Y-15392650D02*
X19191611Y-15402174D01*
X19191611Y-15402174D02*
X19182087Y-15411698D01*
X19391611Y-15525984D02*
X19372563Y-15516460D01*
X19372563Y-15516460D02*
X19363039Y-15506936D01*
X19363039Y-15506936D02*
X19353515Y-15487888D01*
X19353515Y-15487888D02*
X19353515Y-15430746D01*
X19353515Y-15430746D02*
X19363039Y-15411698D01*
X19363039Y-15411698D02*
X19372563Y-15402174D01*
X19372563Y-15402174D02*
X19391611Y-15392650D01*
X19391611Y-15392650D02*
X19420182Y-15392650D01*
X19420182Y-15392650D02*
X19439230Y-15402174D01*
X19439230Y-15402174D02*
X19448753Y-15411698D01*
X19448753Y-15411698D02*
X19458277Y-15430746D01*
X19458277Y-15430746D02*
X19458277Y-15487888D01*
X19458277Y-15487888D02*
X19448753Y-15506936D01*
X19448753Y-15506936D02*
X19439230Y-15516460D01*
X19439230Y-15516460D02*
X19420182Y-15525984D01*
X19420182Y-15525984D02*
X19391611Y-15525984D01*
X19572563Y-15525984D02*
X19553515Y-15516460D01*
X19553515Y-15516460D02*
X19543992Y-15497412D01*
X19543992Y-15497412D02*
X19543992Y-15325984D01*
X19724944Y-15516460D02*
X19705896Y-15525984D01*
X19705896Y-15525984D02*
X19667801Y-15525984D01*
X19667801Y-15525984D02*
X19648753Y-15516460D01*
X19648753Y-15516460D02*
X19639230Y-15497412D01*
X19639230Y-15497412D02*
X19639230Y-15421222D01*
X19639230Y-15421222D02*
X19648753Y-15402174D01*
X19648753Y-15402174D02*
X19667801Y-15392650D01*
X19667801Y-15392650D02*
X19705896Y-15392650D01*
X19705896Y-15392650D02*
X19724944Y-15402174D01*
X19724944Y-15402174D02*
X19734468Y-15421222D01*
X19734468Y-15421222D02*
X19734468Y-15440269D01*
X19734468Y-15440269D02*
X19639230Y-15459317D01*
X19810658Y-15516460D02*
X19829706Y-15525984D01*
X19829706Y-15525984D02*
X19867801Y-15525984D01*
X19867801Y-15525984D02*
X19886849Y-15516460D01*
X19886849Y-15516460D02*
X19896373Y-15497412D01*
X19896373Y-15497412D02*
X19896373Y-15487888D01*
X19896373Y-15487888D02*
X19886849Y-15468841D01*
X19886849Y-15468841D02*
X19867801Y-15459317D01*
X19867801Y-15459317D02*
X19839230Y-15459317D01*
X19839230Y-15459317D02*
X19820182Y-15449793D01*
X19820182Y-15449793D02*
X19810658Y-15430746D01*
X19810658Y-15430746D02*
X19810658Y-15421222D01*
X19810658Y-15421222D02*
X19820182Y-15402174D01*
X19820182Y-15402174D02*
X19839230Y-15392650D01*
X19839230Y-15392650D02*
X19867801Y-15392650D01*
X19867801Y-15392650D02*
X19886849Y-15402174D01*
X19963039Y-15602174D02*
X19972563Y-15592650D01*
X19972563Y-15592650D02*
X19991611Y-15564079D01*
X19991611Y-15564079D02*
X20001134Y-15545031D01*
X20001134Y-15545031D02*
X20010658Y-15516460D01*
X20010658Y-15516460D02*
X20020182Y-15468841D01*
X20020182Y-15468841D02*
X20020182Y-15430746D01*
X20020182Y-15430746D02*
X20010658Y-15383127D01*
X20010658Y-15383127D02*
X20001134Y-15354555D01*
X20001134Y-15354555D02*
X19991611Y-15335508D01*
X19991611Y-15335508D02*
X19972563Y-15306936D01*
X19972563Y-15306936D02*
X19963039Y-15297412D01*
D12*
X14952500Y-15743500D02*
X14997500Y-15698500D01*
X14952500Y-15653500D01*
X14907500Y-15698500D01*
X14952500Y-15743500D01*
D11*
X15296372Y-15589984D02*
X15315420Y-15589984D01*
X15315420Y-15589984D02*
X15334467Y-15599508D01*
X15334467Y-15599508D02*
X15343991Y-15609031D01*
X15343991Y-15609031D02*
X15353515Y-15628079D01*
X15353515Y-15628079D02*
X15363039Y-15666174D01*
X15363039Y-15666174D02*
X15363039Y-15713793D01*
X15363039Y-15713793D02*
X15353515Y-15751888D01*
X15353515Y-15751888D02*
X15343991Y-15770936D01*
X15343991Y-15770936D02*
X15334467Y-15780460D01*
X15334467Y-15780460D02*
X15315420Y-15789984D01*
X15315420Y-15789984D02*
X15296372Y-15789984D01*
X15296372Y-15789984D02*
X15277324Y-15780460D01*
X15277324Y-15780460D02*
X15267801Y-15770936D01*
X15267801Y-15770936D02*
X15258277Y-15751888D01*
X15258277Y-15751888D02*
X15248753Y-15713793D01*
X15248753Y-15713793D02*
X15248753Y-15666174D01*
X15248753Y-15666174D02*
X15258277Y-15628079D01*
X15258277Y-15628079D02*
X15267801Y-15609031D01*
X15267801Y-15609031D02*
X15277324Y-15599508D01*
X15277324Y-15599508D02*
X15296372Y-15589984D01*
X15448753Y-15770936D02*
X15458277Y-15780460D01*
X15458277Y-15780460D02*
X15448753Y-15789984D01*
X15448753Y-15789984D02*
X15439229Y-15780460D01*
X15439229Y-15780460D02*
X15448753Y-15770936D01*
X15448753Y-15770936D02*
X15448753Y-15789984D01*
X15553515Y-15789984D02*
X15591610Y-15789984D01*
X15591610Y-15789984D02*
X15610658Y-15780460D01*
X15610658Y-15780460D02*
X15620182Y-15770936D01*
X15620182Y-15770936D02*
X15639229Y-15742365D01*
X15639229Y-15742365D02*
X15648753Y-15704269D01*
X15648753Y-15704269D02*
X15648753Y-15628079D01*
X15648753Y-15628079D02*
X15639229Y-15609031D01*
X15639229Y-15609031D02*
X15629705Y-15599508D01*
X15629705Y-15599508D02*
X15610658Y-15589984D01*
X15610658Y-15589984D02*
X15572562Y-15589984D01*
X15572562Y-15589984D02*
X15553515Y-15599508D01*
X15553515Y-15599508D02*
X15543991Y-15609031D01*
X15543991Y-15609031D02*
X15534467Y-15628079D01*
X15534467Y-15628079D02*
X15534467Y-15675698D01*
X15534467Y-15675698D02*
X15543991Y-15694746D01*
X15543991Y-15694746D02*
X15553515Y-15704269D01*
X15553515Y-15704269D02*
X15572562Y-15713793D01*
X15572562Y-15713793D02*
X15610658Y-15713793D01*
X15610658Y-15713793D02*
X15629705Y-15704269D01*
X15629705Y-15704269D02*
X15639229Y-15694746D01*
X15639229Y-15694746D02*
X15648753Y-15675698D01*
X15772562Y-15589984D02*
X15791610Y-15589984D01*
X15791610Y-15589984D02*
X15810658Y-15599508D01*
X15810658Y-15599508D02*
X15820182Y-15609031D01*
X15820182Y-15609031D02*
X15829705Y-15628079D01*
X15829705Y-15628079D02*
X15839229Y-15666174D01*
X15839229Y-15666174D02*
X15839229Y-15713793D01*
X15839229Y-15713793D02*
X15829705Y-15751888D01*
X15829705Y-15751888D02*
X15820182Y-15770936D01*
X15820182Y-15770936D02*
X15810658Y-15780460D01*
X15810658Y-15780460D02*
X15791610Y-15789984D01*
X15791610Y-15789984D02*
X15772562Y-15789984D01*
X15772562Y-15789984D02*
X15753515Y-15780460D01*
X15753515Y-15780460D02*
X15743991Y-15770936D01*
X15743991Y-15770936D02*
X15734467Y-15751888D01*
X15734467Y-15751888D02*
X15724943Y-15713793D01*
X15724943Y-15713793D02*
X15724943Y-15666174D01*
X15724943Y-15666174D02*
X15734467Y-15628079D01*
X15734467Y-15628079D02*
X15743991Y-15609031D01*
X15743991Y-15609031D02*
X15753515Y-15599508D01*
X15753515Y-15599508D02*
X15772562Y-15589984D01*
X15963039Y-15589984D02*
X15982086Y-15589984D01*
X15982086Y-15589984D02*
X16001134Y-15599508D01*
X16001134Y-15599508D02*
X16010658Y-15609031D01*
X16010658Y-15609031D02*
X16020182Y-15628079D01*
X16020182Y-15628079D02*
X16029705Y-15666174D01*
X16029705Y-15666174D02*
X16029705Y-15713793D01*
X16029705Y-15713793D02*
X16020182Y-15751888D01*
X16020182Y-15751888D02*
X16010658Y-15770936D01*
X16010658Y-15770936D02*
X16001134Y-15780460D01*
X16001134Y-15780460D02*
X15982086Y-15789984D01*
X15982086Y-15789984D02*
X15963039Y-15789984D01*
X15963039Y-15789984D02*
X15943991Y-15780460D01*
X15943991Y-15780460D02*
X15934467Y-15770936D01*
X15934467Y-15770936D02*
X15924943Y-15751888D01*
X15924943Y-15751888D02*
X15915420Y-15713793D01*
X15915420Y-15713793D02*
X15915420Y-15666174D01*
X15915420Y-15666174D02*
X15924943Y-15628079D01*
X15924943Y-15628079D02*
X15934467Y-15609031D01*
X15934467Y-15609031D02*
X15943991Y-15599508D01*
X15943991Y-15599508D02*
X15963039Y-15589984D01*
X16115420Y-15789984D02*
X16115420Y-15656650D01*
X16115420Y-15675698D02*
X16124943Y-15666174D01*
X16124943Y-15666174D02*
X16143991Y-15656650D01*
X16143991Y-15656650D02*
X16172563Y-15656650D01*
X16172563Y-15656650D02*
X16191610Y-15666174D01*
X16191610Y-15666174D02*
X16201134Y-15685222D01*
X16201134Y-15685222D02*
X16201134Y-15789984D01*
X16201134Y-15685222D02*
X16210658Y-15666174D01*
X16210658Y-15666174D02*
X16229705Y-15656650D01*
X16229705Y-15656650D02*
X16258277Y-15656650D01*
X16258277Y-15656650D02*
X16277324Y-15666174D01*
X16277324Y-15666174D02*
X16286848Y-15685222D01*
X16286848Y-15685222D02*
X16286848Y-15789984D01*
X16382086Y-15789984D02*
X16382086Y-15656650D01*
X16382086Y-15675698D02*
X16391610Y-15666174D01*
X16391610Y-15666174D02*
X16410658Y-15656650D01*
X16410658Y-15656650D02*
X16439229Y-15656650D01*
X16439229Y-15656650D02*
X16458277Y-15666174D01*
X16458277Y-15666174D02*
X16467801Y-15685222D01*
X16467801Y-15685222D02*
X16467801Y-15789984D01*
X16467801Y-15685222D02*
X16477324Y-15666174D01*
X16477324Y-15666174D02*
X16496372Y-15656650D01*
X16496372Y-15656650D02*
X16524943Y-15656650D01*
X16524943Y-15656650D02*
X16543991Y-15666174D01*
X16543991Y-15666174D02*
X16553515Y-15685222D01*
X16553515Y-15685222D02*
X16553515Y-15789984D01*
X16943991Y-15580460D02*
X16772563Y-15837603D01*
X17201134Y-15589984D02*
X17220182Y-15589984D01*
X17220182Y-15589984D02*
X17239229Y-15599508D01*
X17239229Y-15599508D02*
X17248753Y-15609031D01*
X17248753Y-15609031D02*
X17258277Y-15628079D01*
X17258277Y-15628079D02*
X17267801Y-15666174D01*
X17267801Y-15666174D02*
X17267801Y-15713793D01*
X17267801Y-15713793D02*
X17258277Y-15751888D01*
X17258277Y-15751888D02*
X17248753Y-15770936D01*
X17248753Y-15770936D02*
X17239229Y-15780460D01*
X17239229Y-15780460D02*
X17220182Y-15789984D01*
X17220182Y-15789984D02*
X17201134Y-15789984D01*
X17201134Y-15789984D02*
X17182087Y-15780460D01*
X17182087Y-15780460D02*
X17172563Y-15770936D01*
X17172563Y-15770936D02*
X17163039Y-15751888D01*
X17163039Y-15751888D02*
X17153515Y-15713793D01*
X17153515Y-15713793D02*
X17153515Y-15666174D01*
X17153515Y-15666174D02*
X17163039Y-15628079D01*
X17163039Y-15628079D02*
X17172563Y-15609031D01*
X17172563Y-15609031D02*
X17182087Y-15599508D01*
X17182087Y-15599508D02*
X17201134Y-15589984D01*
X17353515Y-15770936D02*
X17363039Y-15780460D01*
X17363039Y-15780460D02*
X17353515Y-15789984D01*
X17353515Y-15789984D02*
X17343991Y-15780460D01*
X17343991Y-15780460D02*
X17353515Y-15770936D01*
X17353515Y-15770936D02*
X17353515Y-15789984D01*
X17486848Y-15589984D02*
X17505896Y-15589984D01*
X17505896Y-15589984D02*
X17524944Y-15599508D01*
X17524944Y-15599508D02*
X17534468Y-15609031D01*
X17534468Y-15609031D02*
X17543991Y-15628079D01*
X17543991Y-15628079D02*
X17553515Y-15666174D01*
X17553515Y-15666174D02*
X17553515Y-15713793D01*
X17553515Y-15713793D02*
X17543991Y-15751888D01*
X17543991Y-15751888D02*
X17534468Y-15770936D01*
X17534468Y-15770936D02*
X17524944Y-15780460D01*
X17524944Y-15780460D02*
X17505896Y-15789984D01*
X17505896Y-15789984D02*
X17486848Y-15789984D01*
X17486848Y-15789984D02*
X17467801Y-15780460D01*
X17467801Y-15780460D02*
X17458277Y-15770936D01*
X17458277Y-15770936D02*
X17448753Y-15751888D01*
X17448753Y-15751888D02*
X17439229Y-15713793D01*
X17439229Y-15713793D02*
X17439229Y-15666174D01*
X17439229Y-15666174D02*
X17448753Y-15628079D01*
X17448753Y-15628079D02*
X17458277Y-15609031D01*
X17458277Y-15609031D02*
X17467801Y-15599508D01*
X17467801Y-15599508D02*
X17486848Y-15589984D01*
X17620182Y-15589984D02*
X17743991Y-15589984D01*
X17743991Y-15589984D02*
X17677325Y-15666174D01*
X17677325Y-15666174D02*
X17705896Y-15666174D01*
X17705896Y-15666174D02*
X17724944Y-15675698D01*
X17724944Y-15675698D02*
X17734468Y-15685222D01*
X17734468Y-15685222D02*
X17743991Y-15704269D01*
X17743991Y-15704269D02*
X17743991Y-15751888D01*
X17743991Y-15751888D02*
X17734468Y-15770936D01*
X17734468Y-15770936D02*
X17724944Y-15780460D01*
X17724944Y-15780460D02*
X17705896Y-15789984D01*
X17705896Y-15789984D02*
X17648753Y-15789984D01*
X17648753Y-15789984D02*
X17629706Y-15780460D01*
X17629706Y-15780460D02*
X17620182Y-15770936D01*
X17924944Y-15589984D02*
X17829706Y-15589984D01*
X17829706Y-15589984D02*
X17820182Y-15685222D01*
X17820182Y-15685222D02*
X17829706Y-15675698D01*
X17829706Y-15675698D02*
X17848753Y-15666174D01*
X17848753Y-15666174D02*
X17896372Y-15666174D01*
X17896372Y-15666174D02*
X17915420Y-15675698D01*
X17915420Y-15675698D02*
X17924944Y-15685222D01*
X17924944Y-15685222D02*
X17934468Y-15704269D01*
X17934468Y-15704269D02*
X17934468Y-15751888D01*
X17934468Y-15751888D02*
X17924944Y-15770936D01*
X17924944Y-15770936D02*
X17915420Y-15780460D01*
X17915420Y-15780460D02*
X17896372Y-15789984D01*
X17896372Y-15789984D02*
X17848753Y-15789984D01*
X17848753Y-15789984D02*
X17829706Y-15780460D01*
X17829706Y-15780460D02*
X17820182Y-15770936D01*
X18105896Y-15656650D02*
X18105896Y-15789984D01*
X18058277Y-15580460D02*
X18010658Y-15723317D01*
X18010658Y-15723317D02*
X18134468Y-15723317D01*
X18201134Y-15589984D02*
X18201134Y-15628079D01*
X18277325Y-15589984D02*
X18277325Y-15628079D01*
X18572563Y-15866174D02*
X18563039Y-15856650D01*
X18563039Y-15856650D02*
X18543991Y-15828079D01*
X18543991Y-15828079D02*
X18534468Y-15809031D01*
X18534468Y-15809031D02*
X18524944Y-15780460D01*
X18524944Y-15780460D02*
X18515420Y-15732841D01*
X18515420Y-15732841D02*
X18515420Y-15694746D01*
X18515420Y-15694746D02*
X18524944Y-15647127D01*
X18524944Y-15647127D02*
X18534468Y-15618555D01*
X18534468Y-15618555D02*
X18543991Y-15599508D01*
X18543991Y-15599508D02*
X18563039Y-15570936D01*
X18563039Y-15570936D02*
X18572563Y-15561412D01*
X18686849Y-15589984D02*
X18705896Y-15589984D01*
X18705896Y-15589984D02*
X18724944Y-15599508D01*
X18724944Y-15599508D02*
X18734468Y-15609031D01*
X18734468Y-15609031D02*
X18743991Y-15628079D01*
X18743991Y-15628079D02*
X18753515Y-15666174D01*
X18753515Y-15666174D02*
X18753515Y-15713793D01*
X18753515Y-15713793D02*
X18743991Y-15751888D01*
X18743991Y-15751888D02*
X18734468Y-15770936D01*
X18734468Y-15770936D02*
X18724944Y-15780460D01*
X18724944Y-15780460D02*
X18705896Y-15789984D01*
X18705896Y-15789984D02*
X18686849Y-15789984D01*
X18686849Y-15789984D02*
X18667801Y-15780460D01*
X18667801Y-15780460D02*
X18658277Y-15770936D01*
X18658277Y-15770936D02*
X18648753Y-15751888D01*
X18648753Y-15751888D02*
X18639230Y-15713793D01*
X18639230Y-15713793D02*
X18639230Y-15666174D01*
X18639230Y-15666174D02*
X18648753Y-15628079D01*
X18648753Y-15628079D02*
X18658277Y-15609031D01*
X18658277Y-15609031D02*
X18667801Y-15599508D01*
X18667801Y-15599508D02*
X18686849Y-15589984D01*
X18991611Y-15789984D02*
X18991611Y-15589984D01*
X19077325Y-15789984D02*
X19077325Y-15685222D01*
X19077325Y-15685222D02*
X19067801Y-15666174D01*
X19067801Y-15666174D02*
X19048753Y-15656650D01*
X19048753Y-15656650D02*
X19020182Y-15656650D01*
X19020182Y-15656650D02*
X19001134Y-15666174D01*
X19001134Y-15666174D02*
X18991611Y-15675698D01*
X19201134Y-15789984D02*
X19182087Y-15780460D01*
X19182087Y-15780460D02*
X19172563Y-15770936D01*
X19172563Y-15770936D02*
X19163039Y-15751888D01*
X19163039Y-15751888D02*
X19163039Y-15694746D01*
X19163039Y-15694746D02*
X19172563Y-15675698D01*
X19172563Y-15675698D02*
X19182087Y-15666174D01*
X19182087Y-15666174D02*
X19201134Y-15656650D01*
X19201134Y-15656650D02*
X19229706Y-15656650D01*
X19229706Y-15656650D02*
X19248753Y-15666174D01*
X19248753Y-15666174D02*
X19258277Y-15675698D01*
X19258277Y-15675698D02*
X19267801Y-15694746D01*
X19267801Y-15694746D02*
X19267801Y-15751888D01*
X19267801Y-15751888D02*
X19258277Y-15770936D01*
X19258277Y-15770936D02*
X19248753Y-15780460D01*
X19248753Y-15780460D02*
X19229706Y-15789984D01*
X19229706Y-15789984D02*
X19201134Y-15789984D01*
X19382087Y-15789984D02*
X19363039Y-15780460D01*
X19363039Y-15780460D02*
X19353515Y-15761412D01*
X19353515Y-15761412D02*
X19353515Y-15589984D01*
X19534468Y-15780460D02*
X19515420Y-15789984D01*
X19515420Y-15789984D02*
X19477325Y-15789984D01*
X19477325Y-15789984D02*
X19458277Y-15780460D01*
X19458277Y-15780460D02*
X19448753Y-15761412D01*
X19448753Y-15761412D02*
X19448753Y-15685222D01*
X19448753Y-15685222D02*
X19458277Y-15666174D01*
X19458277Y-15666174D02*
X19477325Y-15656650D01*
X19477325Y-15656650D02*
X19515420Y-15656650D01*
X19515420Y-15656650D02*
X19534468Y-15666174D01*
X19534468Y-15666174D02*
X19543992Y-15685222D01*
X19543992Y-15685222D02*
X19543992Y-15704269D01*
X19543992Y-15704269D02*
X19448753Y-15723317D01*
X19620182Y-15780460D02*
X19639230Y-15789984D01*
X19639230Y-15789984D02*
X19677325Y-15789984D01*
X19677325Y-15789984D02*
X19696373Y-15780460D01*
X19696373Y-15780460D02*
X19705896Y-15761412D01*
X19705896Y-15761412D02*
X19705896Y-15751888D01*
X19705896Y-15751888D02*
X19696373Y-15732841D01*
X19696373Y-15732841D02*
X19677325Y-15723317D01*
X19677325Y-15723317D02*
X19648753Y-15723317D01*
X19648753Y-15723317D02*
X19629706Y-15713793D01*
X19629706Y-15713793D02*
X19620182Y-15694746D01*
X19620182Y-15694746D02*
X19620182Y-15685222D01*
X19620182Y-15685222D02*
X19629706Y-15666174D01*
X19629706Y-15666174D02*
X19648753Y-15656650D01*
X19648753Y-15656650D02*
X19677325Y-15656650D01*
X19677325Y-15656650D02*
X19696373Y-15666174D01*
X19943992Y-15713793D02*
X20096373Y-15713793D01*
X20020182Y-15789984D02*
X20020182Y-15637603D01*
X20334468Y-15609031D02*
X20343992Y-15599508D01*
X20343992Y-15599508D02*
X20363039Y-15589984D01*
X20363039Y-15589984D02*
X20410658Y-15589984D01*
X20410658Y-15589984D02*
X20429706Y-15599508D01*
X20429706Y-15599508D02*
X20439230Y-15609031D01*
X20439230Y-15609031D02*
X20448754Y-15628079D01*
X20448754Y-15628079D02*
X20448754Y-15647127D01*
X20448754Y-15647127D02*
X20439230Y-15675698D01*
X20439230Y-15675698D02*
X20324944Y-15789984D01*
X20324944Y-15789984D02*
X20448754Y-15789984D01*
X20677325Y-15780460D02*
X20696373Y-15789984D01*
X20696373Y-15789984D02*
X20734468Y-15789984D01*
X20734468Y-15789984D02*
X20753516Y-15780460D01*
X20753516Y-15780460D02*
X20763039Y-15761412D01*
X20763039Y-15761412D02*
X20763039Y-15751888D01*
X20763039Y-15751888D02*
X20753516Y-15732841D01*
X20753516Y-15732841D02*
X20734468Y-15723317D01*
X20734468Y-15723317D02*
X20705896Y-15723317D01*
X20705896Y-15723317D02*
X20686849Y-15713793D01*
X20686849Y-15713793D02*
X20677325Y-15694746D01*
X20677325Y-15694746D02*
X20677325Y-15685222D01*
X20677325Y-15685222D02*
X20686849Y-15666174D01*
X20686849Y-15666174D02*
X20705896Y-15656650D01*
X20705896Y-15656650D02*
X20734468Y-15656650D01*
X20734468Y-15656650D02*
X20753516Y-15666174D01*
X20877325Y-15789984D02*
X20858277Y-15780460D01*
X20858277Y-15780460D02*
X20848754Y-15761412D01*
X20848754Y-15761412D02*
X20848754Y-15589984D01*
X20982087Y-15789984D02*
X20963039Y-15780460D01*
X20963039Y-15780460D02*
X20953516Y-15770936D01*
X20953516Y-15770936D02*
X20943992Y-15751888D01*
X20943992Y-15751888D02*
X20943992Y-15694746D01*
X20943992Y-15694746D02*
X20953516Y-15675698D01*
X20953516Y-15675698D02*
X20963039Y-15666174D01*
X20963039Y-15666174D02*
X20982087Y-15656650D01*
X20982087Y-15656650D02*
X21010658Y-15656650D01*
X21010658Y-15656650D02*
X21029706Y-15666174D01*
X21029706Y-15666174D02*
X21039230Y-15675698D01*
X21039230Y-15675698D02*
X21048754Y-15694746D01*
X21048754Y-15694746D02*
X21048754Y-15751888D01*
X21048754Y-15751888D02*
X21039230Y-15770936D01*
X21039230Y-15770936D02*
X21029706Y-15780460D01*
X21029706Y-15780460D02*
X21010658Y-15789984D01*
X21010658Y-15789984D02*
X20982087Y-15789984D01*
X21105897Y-15656650D02*
X21182087Y-15656650D01*
X21134468Y-15589984D02*
X21134468Y-15761412D01*
X21134468Y-15761412D02*
X21143992Y-15780460D01*
X21143992Y-15780460D02*
X21163039Y-15789984D01*
X21163039Y-15789984D02*
X21182087Y-15789984D01*
X21239230Y-15780460D02*
X21258277Y-15789984D01*
X21258277Y-15789984D02*
X21296373Y-15789984D01*
X21296373Y-15789984D02*
X21315420Y-15780460D01*
X21315420Y-15780460D02*
X21324944Y-15761412D01*
X21324944Y-15761412D02*
X21324944Y-15751888D01*
X21324944Y-15751888D02*
X21315420Y-15732841D01*
X21315420Y-15732841D02*
X21296373Y-15723317D01*
X21296373Y-15723317D02*
X21267801Y-15723317D01*
X21267801Y-15723317D02*
X21248754Y-15713793D01*
X21248754Y-15713793D02*
X21239230Y-15694746D01*
X21239230Y-15694746D02*
X21239230Y-15685222D01*
X21239230Y-15685222D02*
X21248754Y-15666174D01*
X21248754Y-15666174D02*
X21267801Y-15656650D01*
X21267801Y-15656650D02*
X21296373Y-15656650D01*
X21296373Y-15656650D02*
X21315420Y-15666174D01*
X21391611Y-15866174D02*
X21401135Y-15856650D01*
X21401135Y-15856650D02*
X21420182Y-15828079D01*
X21420182Y-15828079D02*
X21429706Y-15809031D01*
X21429706Y-15809031D02*
X21439230Y-15780460D01*
X21439230Y-15780460D02*
X21448754Y-15732841D01*
X21448754Y-15732841D02*
X21448754Y-15694746D01*
X21448754Y-15694746D02*
X21439230Y-15647127D01*
X21439230Y-15647127D02*
X21429706Y-15618555D01*
X21429706Y-15618555D02*
X21420182Y-15599508D01*
X21420182Y-15599508D02*
X21401135Y-15570936D01*
X21401135Y-15570936D02*
X21391611Y-15561412D01*
D12*
X14897500Y-15912500D02*
X14997500Y-16012500D01*
X14997500Y-15912500D02*
X14897500Y-16012500D01*
X14997500Y-15962500D02*
G75*
G02*
X14897500Y-15962500I-50000J0D01*
G01*
X14897500Y-15962500D02*
G75*
G02*
X14997500Y-15962500I50000J0D01*
G01*
D11*
X15363039Y-16053984D02*
X15248753Y-16053984D01*
X15305896Y-16053984D02*
X15305896Y-15853984D01*
X15305896Y-15853984D02*
X15286848Y-15882555D01*
X15286848Y-15882555D02*
X15267801Y-15901603D01*
X15267801Y-15901603D02*
X15248753Y-15911127D01*
X15448753Y-16034936D02*
X15458277Y-16044460D01*
X15458277Y-16044460D02*
X15448753Y-16053984D01*
X15448753Y-16053984D02*
X15439229Y-16044460D01*
X15439229Y-16044460D02*
X15448753Y-16034936D01*
X15448753Y-16034936D02*
X15448753Y-16053984D01*
X15582086Y-15853984D02*
X15601134Y-15853984D01*
X15601134Y-15853984D02*
X15620182Y-15863508D01*
X15620182Y-15863508D02*
X15629705Y-15873031D01*
X15629705Y-15873031D02*
X15639229Y-15892079D01*
X15639229Y-15892079D02*
X15648753Y-15930174D01*
X15648753Y-15930174D02*
X15648753Y-15977793D01*
X15648753Y-15977793D02*
X15639229Y-16015888D01*
X15639229Y-16015888D02*
X15629705Y-16034936D01*
X15629705Y-16034936D02*
X15620182Y-16044460D01*
X15620182Y-16044460D02*
X15601134Y-16053984D01*
X15601134Y-16053984D02*
X15582086Y-16053984D01*
X15582086Y-16053984D02*
X15563039Y-16044460D01*
X15563039Y-16044460D02*
X15553515Y-16034936D01*
X15553515Y-16034936D02*
X15543991Y-16015888D01*
X15543991Y-16015888D02*
X15534467Y-15977793D01*
X15534467Y-15977793D02*
X15534467Y-15930174D01*
X15534467Y-15930174D02*
X15543991Y-15892079D01*
X15543991Y-15892079D02*
X15553515Y-15873031D01*
X15553515Y-15873031D02*
X15563039Y-15863508D01*
X15563039Y-15863508D02*
X15582086Y-15853984D01*
X15772562Y-15853984D02*
X15791610Y-15853984D01*
X15791610Y-15853984D02*
X15810658Y-15863508D01*
X15810658Y-15863508D02*
X15820182Y-15873031D01*
X15820182Y-15873031D02*
X15829705Y-15892079D01*
X15829705Y-15892079D02*
X15839229Y-15930174D01*
X15839229Y-15930174D02*
X15839229Y-15977793D01*
X15839229Y-15977793D02*
X15829705Y-16015888D01*
X15829705Y-16015888D02*
X15820182Y-16034936D01*
X15820182Y-16034936D02*
X15810658Y-16044460D01*
X15810658Y-16044460D02*
X15791610Y-16053984D01*
X15791610Y-16053984D02*
X15772562Y-16053984D01*
X15772562Y-16053984D02*
X15753515Y-16044460D01*
X15753515Y-16044460D02*
X15743991Y-16034936D01*
X15743991Y-16034936D02*
X15734467Y-16015888D01*
X15734467Y-16015888D02*
X15724943Y-15977793D01*
X15724943Y-15977793D02*
X15724943Y-15930174D01*
X15724943Y-15930174D02*
X15734467Y-15892079D01*
X15734467Y-15892079D02*
X15743991Y-15873031D01*
X15743991Y-15873031D02*
X15753515Y-15863508D01*
X15753515Y-15863508D02*
X15772562Y-15853984D01*
X15963039Y-15853984D02*
X15982086Y-15853984D01*
X15982086Y-15853984D02*
X16001134Y-15863508D01*
X16001134Y-15863508D02*
X16010658Y-15873031D01*
X16010658Y-15873031D02*
X16020182Y-15892079D01*
X16020182Y-15892079D02*
X16029705Y-15930174D01*
X16029705Y-15930174D02*
X16029705Y-15977793D01*
X16029705Y-15977793D02*
X16020182Y-16015888D01*
X16020182Y-16015888D02*
X16010658Y-16034936D01*
X16010658Y-16034936D02*
X16001134Y-16044460D01*
X16001134Y-16044460D02*
X15982086Y-16053984D01*
X15982086Y-16053984D02*
X15963039Y-16053984D01*
X15963039Y-16053984D02*
X15943991Y-16044460D01*
X15943991Y-16044460D02*
X15934467Y-16034936D01*
X15934467Y-16034936D02*
X15924943Y-16015888D01*
X15924943Y-16015888D02*
X15915420Y-15977793D01*
X15915420Y-15977793D02*
X15915420Y-15930174D01*
X15915420Y-15930174D02*
X15924943Y-15892079D01*
X15924943Y-15892079D02*
X15934467Y-15873031D01*
X15934467Y-15873031D02*
X15943991Y-15863508D01*
X15943991Y-15863508D02*
X15963039Y-15853984D01*
X16115420Y-16053984D02*
X16115420Y-15920650D01*
X16115420Y-15939698D02*
X16124943Y-15930174D01*
X16124943Y-15930174D02*
X16143991Y-15920650D01*
X16143991Y-15920650D02*
X16172563Y-15920650D01*
X16172563Y-15920650D02*
X16191610Y-15930174D01*
X16191610Y-15930174D02*
X16201134Y-15949222D01*
X16201134Y-15949222D02*
X16201134Y-16053984D01*
X16201134Y-15949222D02*
X16210658Y-15930174D01*
X16210658Y-15930174D02*
X16229705Y-15920650D01*
X16229705Y-15920650D02*
X16258277Y-15920650D01*
X16258277Y-15920650D02*
X16277324Y-15930174D01*
X16277324Y-15930174D02*
X16286848Y-15949222D01*
X16286848Y-15949222D02*
X16286848Y-16053984D01*
X16382086Y-16053984D02*
X16382086Y-15920650D01*
X16382086Y-15939698D02*
X16391610Y-15930174D01*
X16391610Y-15930174D02*
X16410658Y-15920650D01*
X16410658Y-15920650D02*
X16439229Y-15920650D01*
X16439229Y-15920650D02*
X16458277Y-15930174D01*
X16458277Y-15930174D02*
X16467801Y-15949222D01*
X16467801Y-15949222D02*
X16467801Y-16053984D01*
X16467801Y-15949222D02*
X16477324Y-15930174D01*
X16477324Y-15930174D02*
X16496372Y-15920650D01*
X16496372Y-15920650D02*
X16524943Y-15920650D01*
X16524943Y-15920650D02*
X16543991Y-15930174D01*
X16543991Y-15930174D02*
X16553515Y-15949222D01*
X16553515Y-15949222D02*
X16553515Y-16053984D01*
X16943991Y-15844460D02*
X16772563Y-16101603D01*
X17201134Y-15853984D02*
X17220182Y-15853984D01*
X17220182Y-15853984D02*
X17239229Y-15863508D01*
X17239229Y-15863508D02*
X17248753Y-15873031D01*
X17248753Y-15873031D02*
X17258277Y-15892079D01*
X17258277Y-15892079D02*
X17267801Y-15930174D01*
X17267801Y-15930174D02*
X17267801Y-15977793D01*
X17267801Y-15977793D02*
X17258277Y-16015888D01*
X17258277Y-16015888D02*
X17248753Y-16034936D01*
X17248753Y-16034936D02*
X17239229Y-16044460D01*
X17239229Y-16044460D02*
X17220182Y-16053984D01*
X17220182Y-16053984D02*
X17201134Y-16053984D01*
X17201134Y-16053984D02*
X17182087Y-16044460D01*
X17182087Y-16044460D02*
X17172563Y-16034936D01*
X17172563Y-16034936D02*
X17163039Y-16015888D01*
X17163039Y-16015888D02*
X17153515Y-15977793D01*
X17153515Y-15977793D02*
X17153515Y-15930174D01*
X17153515Y-15930174D02*
X17163039Y-15892079D01*
X17163039Y-15892079D02*
X17172563Y-15873031D01*
X17172563Y-15873031D02*
X17182087Y-15863508D01*
X17182087Y-15863508D02*
X17201134Y-15853984D01*
X17353515Y-16034936D02*
X17363039Y-16044460D01*
X17363039Y-16044460D02*
X17353515Y-16053984D01*
X17353515Y-16053984D02*
X17343991Y-16044460D01*
X17343991Y-16044460D02*
X17353515Y-16034936D01*
X17353515Y-16034936D02*
X17353515Y-16053984D01*
X17486848Y-15853984D02*
X17505896Y-15853984D01*
X17505896Y-15853984D02*
X17524944Y-15863508D01*
X17524944Y-15863508D02*
X17534468Y-15873031D01*
X17534468Y-15873031D02*
X17543991Y-15892079D01*
X17543991Y-15892079D02*
X17553515Y-15930174D01*
X17553515Y-15930174D02*
X17553515Y-15977793D01*
X17553515Y-15977793D02*
X17543991Y-16015888D01*
X17543991Y-16015888D02*
X17534468Y-16034936D01*
X17534468Y-16034936D02*
X17524944Y-16044460D01*
X17524944Y-16044460D02*
X17505896Y-16053984D01*
X17505896Y-16053984D02*
X17486848Y-16053984D01*
X17486848Y-16053984D02*
X17467801Y-16044460D01*
X17467801Y-16044460D02*
X17458277Y-16034936D01*
X17458277Y-16034936D02*
X17448753Y-16015888D01*
X17448753Y-16015888D02*
X17439229Y-15977793D01*
X17439229Y-15977793D02*
X17439229Y-15930174D01*
X17439229Y-15930174D02*
X17448753Y-15892079D01*
X17448753Y-15892079D02*
X17458277Y-15873031D01*
X17458277Y-15873031D02*
X17467801Y-15863508D01*
X17467801Y-15863508D02*
X17486848Y-15853984D01*
X17620182Y-15853984D02*
X17743991Y-15853984D01*
X17743991Y-15853984D02*
X17677325Y-15930174D01*
X17677325Y-15930174D02*
X17705896Y-15930174D01*
X17705896Y-15930174D02*
X17724944Y-15939698D01*
X17724944Y-15939698D02*
X17734468Y-15949222D01*
X17734468Y-15949222D02*
X17743991Y-15968269D01*
X17743991Y-15968269D02*
X17743991Y-16015888D01*
X17743991Y-16015888D02*
X17734468Y-16034936D01*
X17734468Y-16034936D02*
X17724944Y-16044460D01*
X17724944Y-16044460D02*
X17705896Y-16053984D01*
X17705896Y-16053984D02*
X17648753Y-16053984D01*
X17648753Y-16053984D02*
X17629706Y-16044460D01*
X17629706Y-16044460D02*
X17620182Y-16034936D01*
X17839229Y-16053984D02*
X17877325Y-16053984D01*
X17877325Y-16053984D02*
X17896372Y-16044460D01*
X17896372Y-16044460D02*
X17905896Y-16034936D01*
X17905896Y-16034936D02*
X17924944Y-16006365D01*
X17924944Y-16006365D02*
X17934468Y-15968269D01*
X17934468Y-15968269D02*
X17934468Y-15892079D01*
X17934468Y-15892079D02*
X17924944Y-15873031D01*
X17924944Y-15873031D02*
X17915420Y-15863508D01*
X17915420Y-15863508D02*
X17896372Y-15853984D01*
X17896372Y-15853984D02*
X17858277Y-15853984D01*
X17858277Y-15853984D02*
X17839229Y-15863508D01*
X17839229Y-15863508D02*
X17829706Y-15873031D01*
X17829706Y-15873031D02*
X17820182Y-15892079D01*
X17820182Y-15892079D02*
X17820182Y-15939698D01*
X17820182Y-15939698D02*
X17829706Y-15958746D01*
X17829706Y-15958746D02*
X17839229Y-15968269D01*
X17839229Y-15968269D02*
X17858277Y-15977793D01*
X17858277Y-15977793D02*
X17896372Y-15977793D01*
X17896372Y-15977793D02*
X17915420Y-15968269D01*
X17915420Y-15968269D02*
X17924944Y-15958746D01*
X17924944Y-15958746D02*
X17934468Y-15939698D01*
X18105896Y-15920650D02*
X18105896Y-16053984D01*
X18058277Y-15844460D02*
X18010658Y-15987317D01*
X18010658Y-15987317D02*
X18134468Y-15987317D01*
X18201134Y-15853984D02*
X18201134Y-15892079D01*
X18277325Y-15853984D02*
X18277325Y-15892079D01*
X18572563Y-16130174D02*
X18563039Y-16120650D01*
X18563039Y-16120650D02*
X18543991Y-16092079D01*
X18543991Y-16092079D02*
X18534468Y-16073031D01*
X18534468Y-16073031D02*
X18524944Y-16044460D01*
X18524944Y-16044460D02*
X18515420Y-15996841D01*
X18515420Y-15996841D02*
X18515420Y-15958746D01*
X18515420Y-15958746D02*
X18524944Y-15911127D01*
X18524944Y-15911127D02*
X18534468Y-15882555D01*
X18534468Y-15882555D02*
X18543991Y-15863508D01*
X18543991Y-15863508D02*
X18563039Y-15834936D01*
X18563039Y-15834936D02*
X18572563Y-15825412D01*
X18639230Y-15873031D02*
X18648753Y-15863508D01*
X18648753Y-15863508D02*
X18667801Y-15853984D01*
X18667801Y-15853984D02*
X18715420Y-15853984D01*
X18715420Y-15853984D02*
X18734468Y-15863508D01*
X18734468Y-15863508D02*
X18743991Y-15873031D01*
X18743991Y-15873031D02*
X18753515Y-15892079D01*
X18753515Y-15892079D02*
X18753515Y-15911127D01*
X18753515Y-15911127D02*
X18743991Y-15939698D01*
X18743991Y-15939698D02*
X18629706Y-16053984D01*
X18629706Y-16053984D02*
X18753515Y-16053984D01*
X18991611Y-16053984D02*
X18991611Y-15853984D01*
X19077325Y-16053984D02*
X19077325Y-15949222D01*
X19077325Y-15949222D02*
X19067801Y-15930174D01*
X19067801Y-15930174D02*
X19048753Y-15920650D01*
X19048753Y-15920650D02*
X19020182Y-15920650D01*
X19020182Y-15920650D02*
X19001134Y-15930174D01*
X19001134Y-15930174D02*
X18991611Y-15939698D01*
X19201134Y-16053984D02*
X19182087Y-16044460D01*
X19182087Y-16044460D02*
X19172563Y-16034936D01*
X19172563Y-16034936D02*
X19163039Y-16015888D01*
X19163039Y-16015888D02*
X19163039Y-15958746D01*
X19163039Y-15958746D02*
X19172563Y-15939698D01*
X19172563Y-15939698D02*
X19182087Y-15930174D01*
X19182087Y-15930174D02*
X19201134Y-15920650D01*
X19201134Y-15920650D02*
X19229706Y-15920650D01*
X19229706Y-15920650D02*
X19248753Y-15930174D01*
X19248753Y-15930174D02*
X19258277Y-15939698D01*
X19258277Y-15939698D02*
X19267801Y-15958746D01*
X19267801Y-15958746D02*
X19267801Y-16015888D01*
X19267801Y-16015888D02*
X19258277Y-16034936D01*
X19258277Y-16034936D02*
X19248753Y-16044460D01*
X19248753Y-16044460D02*
X19229706Y-16053984D01*
X19229706Y-16053984D02*
X19201134Y-16053984D01*
X19382087Y-16053984D02*
X19363039Y-16044460D01*
X19363039Y-16044460D02*
X19353515Y-16025412D01*
X19353515Y-16025412D02*
X19353515Y-15853984D01*
X19534468Y-16044460D02*
X19515420Y-16053984D01*
X19515420Y-16053984D02*
X19477325Y-16053984D01*
X19477325Y-16053984D02*
X19458277Y-16044460D01*
X19458277Y-16044460D02*
X19448753Y-16025412D01*
X19448753Y-16025412D02*
X19448753Y-15949222D01*
X19448753Y-15949222D02*
X19458277Y-15930174D01*
X19458277Y-15930174D02*
X19477325Y-15920650D01*
X19477325Y-15920650D02*
X19515420Y-15920650D01*
X19515420Y-15920650D02*
X19534468Y-15930174D01*
X19534468Y-15930174D02*
X19543992Y-15949222D01*
X19543992Y-15949222D02*
X19543992Y-15968269D01*
X19543992Y-15968269D02*
X19448753Y-15987317D01*
X19620182Y-16044460D02*
X19639230Y-16053984D01*
X19639230Y-16053984D02*
X19677325Y-16053984D01*
X19677325Y-16053984D02*
X19696373Y-16044460D01*
X19696373Y-16044460D02*
X19705896Y-16025412D01*
X19705896Y-16025412D02*
X19705896Y-16015888D01*
X19705896Y-16015888D02*
X19696373Y-15996841D01*
X19696373Y-15996841D02*
X19677325Y-15987317D01*
X19677325Y-15987317D02*
X19648753Y-15987317D01*
X19648753Y-15987317D02*
X19629706Y-15977793D01*
X19629706Y-15977793D02*
X19620182Y-15958746D01*
X19620182Y-15958746D02*
X19620182Y-15949222D01*
X19620182Y-15949222D02*
X19629706Y-15930174D01*
X19629706Y-15930174D02*
X19648753Y-15920650D01*
X19648753Y-15920650D02*
X19677325Y-15920650D01*
X19677325Y-15920650D02*
X19696373Y-15930174D01*
X19772563Y-16130174D02*
X19782087Y-16120650D01*
X19782087Y-16120650D02*
X19801134Y-16092079D01*
X19801134Y-16092079D02*
X19810658Y-16073031D01*
X19810658Y-16073031D02*
X19820182Y-16044460D01*
X19820182Y-16044460D02*
X19829706Y-15996841D01*
X19829706Y-15996841D02*
X19829706Y-15958746D01*
X19829706Y-15958746D02*
X19820182Y-15911127D01*
X19820182Y-15911127D02*
X19810658Y-15882555D01*
X19810658Y-15882555D02*
X19801134Y-15863508D01*
X19801134Y-15863508D02*
X19782087Y-15834936D01*
X19782087Y-15834936D02*
X19772563Y-15825412D01*
D12*
X14897500Y-16176500D02*
X14997500Y-16276500D01*
X14997500Y-16176500D02*
X14897500Y-16276500D01*
X14947500Y-16176500D02*
X14947500Y-16276500D01*
X14897500Y-16226500D02*
X14997500Y-16226500D01*
D11*
X15363039Y-16317984D02*
X15248753Y-16317984D01*
X15305896Y-16317984D02*
X15305896Y-16117984D01*
X15305896Y-16117984D02*
X15286848Y-16146555D01*
X15286848Y-16146555D02*
X15267801Y-16165603D01*
X15267801Y-16165603D02*
X15248753Y-16175127D01*
X15448753Y-16298936D02*
X15458277Y-16308460D01*
X15458277Y-16308460D02*
X15448753Y-16317984D01*
X15448753Y-16317984D02*
X15439229Y-16308460D01*
X15439229Y-16308460D02*
X15448753Y-16298936D01*
X15448753Y-16298936D02*
X15448753Y-16317984D01*
X15582086Y-16117984D02*
X15601134Y-16117984D01*
X15601134Y-16117984D02*
X15620182Y-16127508D01*
X15620182Y-16127508D02*
X15629705Y-16137031D01*
X15629705Y-16137031D02*
X15639229Y-16156079D01*
X15639229Y-16156079D02*
X15648753Y-16194174D01*
X15648753Y-16194174D02*
X15648753Y-16241793D01*
X15648753Y-16241793D02*
X15639229Y-16279888D01*
X15639229Y-16279888D02*
X15629705Y-16298936D01*
X15629705Y-16298936D02*
X15620182Y-16308460D01*
X15620182Y-16308460D02*
X15601134Y-16317984D01*
X15601134Y-16317984D02*
X15582086Y-16317984D01*
X15582086Y-16317984D02*
X15563039Y-16308460D01*
X15563039Y-16308460D02*
X15553515Y-16298936D01*
X15553515Y-16298936D02*
X15543991Y-16279888D01*
X15543991Y-16279888D02*
X15534467Y-16241793D01*
X15534467Y-16241793D02*
X15534467Y-16194174D01*
X15534467Y-16194174D02*
X15543991Y-16156079D01*
X15543991Y-16156079D02*
X15553515Y-16137031D01*
X15553515Y-16137031D02*
X15563039Y-16127508D01*
X15563039Y-16127508D02*
X15582086Y-16117984D01*
X15772562Y-16117984D02*
X15791610Y-16117984D01*
X15791610Y-16117984D02*
X15810658Y-16127508D01*
X15810658Y-16127508D02*
X15820182Y-16137031D01*
X15820182Y-16137031D02*
X15829705Y-16156079D01*
X15829705Y-16156079D02*
X15839229Y-16194174D01*
X15839229Y-16194174D02*
X15839229Y-16241793D01*
X15839229Y-16241793D02*
X15829705Y-16279888D01*
X15829705Y-16279888D02*
X15820182Y-16298936D01*
X15820182Y-16298936D02*
X15810658Y-16308460D01*
X15810658Y-16308460D02*
X15791610Y-16317984D01*
X15791610Y-16317984D02*
X15772562Y-16317984D01*
X15772562Y-16317984D02*
X15753515Y-16308460D01*
X15753515Y-16308460D02*
X15743991Y-16298936D01*
X15743991Y-16298936D02*
X15734467Y-16279888D01*
X15734467Y-16279888D02*
X15724943Y-16241793D01*
X15724943Y-16241793D02*
X15724943Y-16194174D01*
X15724943Y-16194174D02*
X15734467Y-16156079D01*
X15734467Y-16156079D02*
X15743991Y-16137031D01*
X15743991Y-16137031D02*
X15753515Y-16127508D01*
X15753515Y-16127508D02*
X15772562Y-16117984D01*
X15963039Y-16117984D02*
X15982086Y-16117984D01*
X15982086Y-16117984D02*
X16001134Y-16127508D01*
X16001134Y-16127508D02*
X16010658Y-16137031D01*
X16010658Y-16137031D02*
X16020182Y-16156079D01*
X16020182Y-16156079D02*
X16029705Y-16194174D01*
X16029705Y-16194174D02*
X16029705Y-16241793D01*
X16029705Y-16241793D02*
X16020182Y-16279888D01*
X16020182Y-16279888D02*
X16010658Y-16298936D01*
X16010658Y-16298936D02*
X16001134Y-16308460D01*
X16001134Y-16308460D02*
X15982086Y-16317984D01*
X15982086Y-16317984D02*
X15963039Y-16317984D01*
X15963039Y-16317984D02*
X15943991Y-16308460D01*
X15943991Y-16308460D02*
X15934467Y-16298936D01*
X15934467Y-16298936D02*
X15924943Y-16279888D01*
X15924943Y-16279888D02*
X15915420Y-16241793D01*
X15915420Y-16241793D02*
X15915420Y-16194174D01*
X15915420Y-16194174D02*
X15924943Y-16156079D01*
X15924943Y-16156079D02*
X15934467Y-16137031D01*
X15934467Y-16137031D02*
X15943991Y-16127508D01*
X15943991Y-16127508D02*
X15963039Y-16117984D01*
X16115420Y-16317984D02*
X16115420Y-16184650D01*
X16115420Y-16203698D02*
X16124943Y-16194174D01*
X16124943Y-16194174D02*
X16143991Y-16184650D01*
X16143991Y-16184650D02*
X16172563Y-16184650D01*
X16172563Y-16184650D02*
X16191610Y-16194174D01*
X16191610Y-16194174D02*
X16201134Y-16213222D01*
X16201134Y-16213222D02*
X16201134Y-16317984D01*
X16201134Y-16213222D02*
X16210658Y-16194174D01*
X16210658Y-16194174D02*
X16229705Y-16184650D01*
X16229705Y-16184650D02*
X16258277Y-16184650D01*
X16258277Y-16184650D02*
X16277324Y-16194174D01*
X16277324Y-16194174D02*
X16286848Y-16213222D01*
X16286848Y-16213222D02*
X16286848Y-16317984D01*
X16382086Y-16317984D02*
X16382086Y-16184650D01*
X16382086Y-16203698D02*
X16391610Y-16194174D01*
X16391610Y-16194174D02*
X16410658Y-16184650D01*
X16410658Y-16184650D02*
X16439229Y-16184650D01*
X16439229Y-16184650D02*
X16458277Y-16194174D01*
X16458277Y-16194174D02*
X16467801Y-16213222D01*
X16467801Y-16213222D02*
X16467801Y-16317984D01*
X16467801Y-16213222D02*
X16477324Y-16194174D01*
X16477324Y-16194174D02*
X16496372Y-16184650D01*
X16496372Y-16184650D02*
X16524943Y-16184650D01*
X16524943Y-16184650D02*
X16543991Y-16194174D01*
X16543991Y-16194174D02*
X16553515Y-16213222D01*
X16553515Y-16213222D02*
X16553515Y-16317984D01*
X16943991Y-16108460D02*
X16772563Y-16365603D01*
X17201134Y-16117984D02*
X17220182Y-16117984D01*
X17220182Y-16117984D02*
X17239229Y-16127508D01*
X17239229Y-16127508D02*
X17248753Y-16137031D01*
X17248753Y-16137031D02*
X17258277Y-16156079D01*
X17258277Y-16156079D02*
X17267801Y-16194174D01*
X17267801Y-16194174D02*
X17267801Y-16241793D01*
X17267801Y-16241793D02*
X17258277Y-16279888D01*
X17258277Y-16279888D02*
X17248753Y-16298936D01*
X17248753Y-16298936D02*
X17239229Y-16308460D01*
X17239229Y-16308460D02*
X17220182Y-16317984D01*
X17220182Y-16317984D02*
X17201134Y-16317984D01*
X17201134Y-16317984D02*
X17182087Y-16308460D01*
X17182087Y-16308460D02*
X17172563Y-16298936D01*
X17172563Y-16298936D02*
X17163039Y-16279888D01*
X17163039Y-16279888D02*
X17153515Y-16241793D01*
X17153515Y-16241793D02*
X17153515Y-16194174D01*
X17153515Y-16194174D02*
X17163039Y-16156079D01*
X17163039Y-16156079D02*
X17172563Y-16137031D01*
X17172563Y-16137031D02*
X17182087Y-16127508D01*
X17182087Y-16127508D02*
X17201134Y-16117984D01*
X17353515Y-16298936D02*
X17363039Y-16308460D01*
X17363039Y-16308460D02*
X17353515Y-16317984D01*
X17353515Y-16317984D02*
X17343991Y-16308460D01*
X17343991Y-16308460D02*
X17353515Y-16298936D01*
X17353515Y-16298936D02*
X17353515Y-16317984D01*
X17486848Y-16117984D02*
X17505896Y-16117984D01*
X17505896Y-16117984D02*
X17524944Y-16127508D01*
X17524944Y-16127508D02*
X17534468Y-16137031D01*
X17534468Y-16137031D02*
X17543991Y-16156079D01*
X17543991Y-16156079D02*
X17553515Y-16194174D01*
X17553515Y-16194174D02*
X17553515Y-16241793D01*
X17553515Y-16241793D02*
X17543991Y-16279888D01*
X17543991Y-16279888D02*
X17534468Y-16298936D01*
X17534468Y-16298936D02*
X17524944Y-16308460D01*
X17524944Y-16308460D02*
X17505896Y-16317984D01*
X17505896Y-16317984D02*
X17486848Y-16317984D01*
X17486848Y-16317984D02*
X17467801Y-16308460D01*
X17467801Y-16308460D02*
X17458277Y-16298936D01*
X17458277Y-16298936D02*
X17448753Y-16279888D01*
X17448753Y-16279888D02*
X17439229Y-16241793D01*
X17439229Y-16241793D02*
X17439229Y-16194174D01*
X17439229Y-16194174D02*
X17448753Y-16156079D01*
X17448753Y-16156079D02*
X17458277Y-16137031D01*
X17458277Y-16137031D02*
X17467801Y-16127508D01*
X17467801Y-16127508D02*
X17486848Y-16117984D01*
X17620182Y-16117984D02*
X17743991Y-16117984D01*
X17743991Y-16117984D02*
X17677325Y-16194174D01*
X17677325Y-16194174D02*
X17705896Y-16194174D01*
X17705896Y-16194174D02*
X17724944Y-16203698D01*
X17724944Y-16203698D02*
X17734468Y-16213222D01*
X17734468Y-16213222D02*
X17743991Y-16232269D01*
X17743991Y-16232269D02*
X17743991Y-16279888D01*
X17743991Y-16279888D02*
X17734468Y-16298936D01*
X17734468Y-16298936D02*
X17724944Y-16308460D01*
X17724944Y-16308460D02*
X17705896Y-16317984D01*
X17705896Y-16317984D02*
X17648753Y-16317984D01*
X17648753Y-16317984D02*
X17629706Y-16308460D01*
X17629706Y-16308460D02*
X17620182Y-16298936D01*
X17839229Y-16317984D02*
X17877325Y-16317984D01*
X17877325Y-16317984D02*
X17896372Y-16308460D01*
X17896372Y-16308460D02*
X17905896Y-16298936D01*
X17905896Y-16298936D02*
X17924944Y-16270365D01*
X17924944Y-16270365D02*
X17934468Y-16232269D01*
X17934468Y-16232269D02*
X17934468Y-16156079D01*
X17934468Y-16156079D02*
X17924944Y-16137031D01*
X17924944Y-16137031D02*
X17915420Y-16127508D01*
X17915420Y-16127508D02*
X17896372Y-16117984D01*
X17896372Y-16117984D02*
X17858277Y-16117984D01*
X17858277Y-16117984D02*
X17839229Y-16127508D01*
X17839229Y-16127508D02*
X17829706Y-16137031D01*
X17829706Y-16137031D02*
X17820182Y-16156079D01*
X17820182Y-16156079D02*
X17820182Y-16203698D01*
X17820182Y-16203698D02*
X17829706Y-16222746D01*
X17829706Y-16222746D02*
X17839229Y-16232269D01*
X17839229Y-16232269D02*
X17858277Y-16241793D01*
X17858277Y-16241793D02*
X17896372Y-16241793D01*
X17896372Y-16241793D02*
X17915420Y-16232269D01*
X17915420Y-16232269D02*
X17924944Y-16222746D01*
X17924944Y-16222746D02*
X17934468Y-16203698D01*
X18105896Y-16184650D02*
X18105896Y-16317984D01*
X18058277Y-16108460D02*
X18010658Y-16251317D01*
X18010658Y-16251317D02*
X18134468Y-16251317D01*
X18201134Y-16117984D02*
X18201134Y-16156079D01*
X18277325Y-16117984D02*
X18277325Y-16156079D01*
X18572563Y-16394174D02*
X18563039Y-16384650D01*
X18563039Y-16384650D02*
X18543991Y-16356079D01*
X18543991Y-16356079D02*
X18534468Y-16337031D01*
X18534468Y-16337031D02*
X18524944Y-16308460D01*
X18524944Y-16308460D02*
X18515420Y-16260841D01*
X18515420Y-16260841D02*
X18515420Y-16222746D01*
X18515420Y-16222746D02*
X18524944Y-16175127D01*
X18524944Y-16175127D02*
X18534468Y-16146555D01*
X18534468Y-16146555D02*
X18543991Y-16127508D01*
X18543991Y-16127508D02*
X18563039Y-16098936D01*
X18563039Y-16098936D02*
X18572563Y-16089412D01*
X18629706Y-16117984D02*
X18753515Y-16117984D01*
X18753515Y-16117984D02*
X18686849Y-16194174D01*
X18686849Y-16194174D02*
X18715420Y-16194174D01*
X18715420Y-16194174D02*
X18734468Y-16203698D01*
X18734468Y-16203698D02*
X18743991Y-16213222D01*
X18743991Y-16213222D02*
X18753515Y-16232269D01*
X18753515Y-16232269D02*
X18753515Y-16279888D01*
X18753515Y-16279888D02*
X18743991Y-16298936D01*
X18743991Y-16298936D02*
X18734468Y-16308460D01*
X18734468Y-16308460D02*
X18715420Y-16317984D01*
X18715420Y-16317984D02*
X18658277Y-16317984D01*
X18658277Y-16317984D02*
X18639230Y-16308460D01*
X18639230Y-16308460D02*
X18629706Y-16298936D01*
X18820182Y-16117984D02*
X18953515Y-16117984D01*
X18953515Y-16117984D02*
X18867801Y-16317984D01*
X19182087Y-16317984D02*
X19182087Y-16117984D01*
X19267801Y-16317984D02*
X19267801Y-16213222D01*
X19267801Y-16213222D02*
X19258277Y-16194174D01*
X19258277Y-16194174D02*
X19239230Y-16184650D01*
X19239230Y-16184650D02*
X19210658Y-16184650D01*
X19210658Y-16184650D02*
X19191611Y-16194174D01*
X19191611Y-16194174D02*
X19182087Y-16203698D01*
X19391611Y-16317984D02*
X19372563Y-16308460D01*
X19372563Y-16308460D02*
X19363039Y-16298936D01*
X19363039Y-16298936D02*
X19353515Y-16279888D01*
X19353515Y-16279888D02*
X19353515Y-16222746D01*
X19353515Y-16222746D02*
X19363039Y-16203698D01*
X19363039Y-16203698D02*
X19372563Y-16194174D01*
X19372563Y-16194174D02*
X19391611Y-16184650D01*
X19391611Y-16184650D02*
X19420182Y-16184650D01*
X19420182Y-16184650D02*
X19439230Y-16194174D01*
X19439230Y-16194174D02*
X19448753Y-16203698D01*
X19448753Y-16203698D02*
X19458277Y-16222746D01*
X19458277Y-16222746D02*
X19458277Y-16279888D01*
X19458277Y-16279888D02*
X19448753Y-16298936D01*
X19448753Y-16298936D02*
X19439230Y-16308460D01*
X19439230Y-16308460D02*
X19420182Y-16317984D01*
X19420182Y-16317984D02*
X19391611Y-16317984D01*
X19572563Y-16317984D02*
X19553515Y-16308460D01*
X19553515Y-16308460D02*
X19543992Y-16289412D01*
X19543992Y-16289412D02*
X19543992Y-16117984D01*
X19724944Y-16308460D02*
X19705896Y-16317984D01*
X19705896Y-16317984D02*
X19667801Y-16317984D01*
X19667801Y-16317984D02*
X19648753Y-16308460D01*
X19648753Y-16308460D02*
X19639230Y-16289412D01*
X19639230Y-16289412D02*
X19639230Y-16213222D01*
X19639230Y-16213222D02*
X19648753Y-16194174D01*
X19648753Y-16194174D02*
X19667801Y-16184650D01*
X19667801Y-16184650D02*
X19705896Y-16184650D01*
X19705896Y-16184650D02*
X19724944Y-16194174D01*
X19724944Y-16194174D02*
X19734468Y-16213222D01*
X19734468Y-16213222D02*
X19734468Y-16232269D01*
X19734468Y-16232269D02*
X19639230Y-16251317D01*
X19810658Y-16308460D02*
X19829706Y-16317984D01*
X19829706Y-16317984D02*
X19867801Y-16317984D01*
X19867801Y-16317984D02*
X19886849Y-16308460D01*
X19886849Y-16308460D02*
X19896373Y-16289412D01*
X19896373Y-16289412D02*
X19896373Y-16279888D01*
X19896373Y-16279888D02*
X19886849Y-16260841D01*
X19886849Y-16260841D02*
X19867801Y-16251317D01*
X19867801Y-16251317D02*
X19839230Y-16251317D01*
X19839230Y-16251317D02*
X19820182Y-16241793D01*
X19820182Y-16241793D02*
X19810658Y-16222746D01*
X19810658Y-16222746D02*
X19810658Y-16213222D01*
X19810658Y-16213222D02*
X19820182Y-16194174D01*
X19820182Y-16194174D02*
X19839230Y-16184650D01*
X19839230Y-16184650D02*
X19867801Y-16184650D01*
X19867801Y-16184650D02*
X19886849Y-16194174D01*
X19963039Y-16394174D02*
X19972563Y-16384650D01*
X19972563Y-16384650D02*
X19991611Y-16356079D01*
X19991611Y-16356079D02*
X20001134Y-16337031D01*
X20001134Y-16337031D02*
X20010658Y-16308460D01*
X20010658Y-16308460D02*
X20020182Y-16260841D01*
X20020182Y-16260841D02*
X20020182Y-16222746D01*
X20020182Y-16222746D02*
X20010658Y-16175127D01*
X20010658Y-16175127D02*
X20001134Y-16146555D01*
X20001134Y-16146555D02*
X19991611Y-16127508D01*
X19991611Y-16127508D02*
X19972563Y-16098936D01*
X19972563Y-16098936D02*
X19963039Y-16089412D01*
X14797500Y-16390500D02*
X14997500Y-16590500D01*
X14997500Y-16390500D02*
X14797500Y-16590500D01*
X14968211Y-16561211D02*
X14968211Y-16419789D01*
X14826789Y-16419789D01*
X14826789Y-16561211D01*
X14968211Y-16561211D01*
X15248753Y-16401031D02*
X15258277Y-16391508D01*
X15258277Y-16391508D02*
X15277324Y-16381984D01*
X15277324Y-16381984D02*
X15324943Y-16381984D01*
X15324943Y-16381984D02*
X15343991Y-16391508D01*
X15343991Y-16391508D02*
X15353515Y-16401031D01*
X15353515Y-16401031D02*
X15363039Y-16420079D01*
X15363039Y-16420079D02*
X15363039Y-16439127D01*
X15363039Y-16439127D02*
X15353515Y-16467698D01*
X15353515Y-16467698D02*
X15239229Y-16581984D01*
X15239229Y-16581984D02*
X15363039Y-16581984D01*
X15448753Y-16562936D02*
X15458277Y-16572460D01*
X15458277Y-16572460D02*
X15448753Y-16581984D01*
X15448753Y-16581984D02*
X15439229Y-16572460D01*
X15439229Y-16572460D02*
X15448753Y-16562936D01*
X15448753Y-16562936D02*
X15448753Y-16581984D01*
X15534467Y-16401031D02*
X15543991Y-16391508D01*
X15543991Y-16391508D02*
X15563039Y-16381984D01*
X15563039Y-16381984D02*
X15610658Y-16381984D01*
X15610658Y-16381984D02*
X15629705Y-16391508D01*
X15629705Y-16391508D02*
X15639229Y-16401031D01*
X15639229Y-16401031D02*
X15648753Y-16420079D01*
X15648753Y-16420079D02*
X15648753Y-16439127D01*
X15648753Y-16439127D02*
X15639229Y-16467698D01*
X15639229Y-16467698D02*
X15524943Y-16581984D01*
X15524943Y-16581984D02*
X15648753Y-16581984D01*
X15772562Y-16381984D02*
X15791610Y-16381984D01*
X15791610Y-16381984D02*
X15810658Y-16391508D01*
X15810658Y-16391508D02*
X15820182Y-16401031D01*
X15820182Y-16401031D02*
X15829705Y-16420079D01*
X15829705Y-16420079D02*
X15839229Y-16458174D01*
X15839229Y-16458174D02*
X15839229Y-16505793D01*
X15839229Y-16505793D02*
X15829705Y-16543888D01*
X15829705Y-16543888D02*
X15820182Y-16562936D01*
X15820182Y-16562936D02*
X15810658Y-16572460D01*
X15810658Y-16572460D02*
X15791610Y-16581984D01*
X15791610Y-16581984D02*
X15772562Y-16581984D01*
X15772562Y-16581984D02*
X15753515Y-16572460D01*
X15753515Y-16572460D02*
X15743991Y-16562936D01*
X15743991Y-16562936D02*
X15734467Y-16543888D01*
X15734467Y-16543888D02*
X15724943Y-16505793D01*
X15724943Y-16505793D02*
X15724943Y-16458174D01*
X15724943Y-16458174D02*
X15734467Y-16420079D01*
X15734467Y-16420079D02*
X15743991Y-16401031D01*
X15743991Y-16401031D02*
X15753515Y-16391508D01*
X15753515Y-16391508D02*
X15772562Y-16381984D01*
X15963039Y-16381984D02*
X15982086Y-16381984D01*
X15982086Y-16381984D02*
X16001134Y-16391508D01*
X16001134Y-16391508D02*
X16010658Y-16401031D01*
X16010658Y-16401031D02*
X16020182Y-16420079D01*
X16020182Y-16420079D02*
X16029705Y-16458174D01*
X16029705Y-16458174D02*
X16029705Y-16505793D01*
X16029705Y-16505793D02*
X16020182Y-16543888D01*
X16020182Y-16543888D02*
X16010658Y-16562936D01*
X16010658Y-16562936D02*
X16001134Y-16572460D01*
X16001134Y-16572460D02*
X15982086Y-16581984D01*
X15982086Y-16581984D02*
X15963039Y-16581984D01*
X15963039Y-16581984D02*
X15943991Y-16572460D01*
X15943991Y-16572460D02*
X15934467Y-16562936D01*
X15934467Y-16562936D02*
X15924943Y-16543888D01*
X15924943Y-16543888D02*
X15915420Y-16505793D01*
X15915420Y-16505793D02*
X15915420Y-16458174D01*
X15915420Y-16458174D02*
X15924943Y-16420079D01*
X15924943Y-16420079D02*
X15934467Y-16401031D01*
X15934467Y-16401031D02*
X15943991Y-16391508D01*
X15943991Y-16391508D02*
X15963039Y-16381984D01*
X16115420Y-16581984D02*
X16115420Y-16448650D01*
X16115420Y-16467698D02*
X16124943Y-16458174D01*
X16124943Y-16458174D02*
X16143991Y-16448650D01*
X16143991Y-16448650D02*
X16172563Y-16448650D01*
X16172563Y-16448650D02*
X16191610Y-16458174D01*
X16191610Y-16458174D02*
X16201134Y-16477222D01*
X16201134Y-16477222D02*
X16201134Y-16581984D01*
X16201134Y-16477222D02*
X16210658Y-16458174D01*
X16210658Y-16458174D02*
X16229705Y-16448650D01*
X16229705Y-16448650D02*
X16258277Y-16448650D01*
X16258277Y-16448650D02*
X16277324Y-16458174D01*
X16277324Y-16458174D02*
X16286848Y-16477222D01*
X16286848Y-16477222D02*
X16286848Y-16581984D01*
X16382086Y-16581984D02*
X16382086Y-16448650D01*
X16382086Y-16467698D02*
X16391610Y-16458174D01*
X16391610Y-16458174D02*
X16410658Y-16448650D01*
X16410658Y-16448650D02*
X16439229Y-16448650D01*
X16439229Y-16448650D02*
X16458277Y-16458174D01*
X16458277Y-16458174D02*
X16467801Y-16477222D01*
X16467801Y-16477222D02*
X16467801Y-16581984D01*
X16467801Y-16477222D02*
X16477324Y-16458174D01*
X16477324Y-16458174D02*
X16496372Y-16448650D01*
X16496372Y-16448650D02*
X16524943Y-16448650D01*
X16524943Y-16448650D02*
X16543991Y-16458174D01*
X16543991Y-16458174D02*
X16553515Y-16477222D01*
X16553515Y-16477222D02*
X16553515Y-16581984D01*
X16943991Y-16372460D02*
X16772563Y-16629603D01*
X17201134Y-16381984D02*
X17220182Y-16381984D01*
X17220182Y-16381984D02*
X17239229Y-16391508D01*
X17239229Y-16391508D02*
X17248753Y-16401031D01*
X17248753Y-16401031D02*
X17258277Y-16420079D01*
X17258277Y-16420079D02*
X17267801Y-16458174D01*
X17267801Y-16458174D02*
X17267801Y-16505793D01*
X17267801Y-16505793D02*
X17258277Y-16543888D01*
X17258277Y-16543888D02*
X17248753Y-16562936D01*
X17248753Y-16562936D02*
X17239229Y-16572460D01*
X17239229Y-16572460D02*
X17220182Y-16581984D01*
X17220182Y-16581984D02*
X17201134Y-16581984D01*
X17201134Y-16581984D02*
X17182087Y-16572460D01*
X17182087Y-16572460D02*
X17172563Y-16562936D01*
X17172563Y-16562936D02*
X17163039Y-16543888D01*
X17163039Y-16543888D02*
X17153515Y-16505793D01*
X17153515Y-16505793D02*
X17153515Y-16458174D01*
X17153515Y-16458174D02*
X17163039Y-16420079D01*
X17163039Y-16420079D02*
X17172563Y-16401031D01*
X17172563Y-16401031D02*
X17182087Y-16391508D01*
X17182087Y-16391508D02*
X17201134Y-16381984D01*
X17353515Y-16562936D02*
X17363039Y-16572460D01*
X17363039Y-16572460D02*
X17353515Y-16581984D01*
X17353515Y-16581984D02*
X17343991Y-16572460D01*
X17343991Y-16572460D02*
X17353515Y-16562936D01*
X17353515Y-16562936D02*
X17353515Y-16581984D01*
X17486848Y-16381984D02*
X17505896Y-16381984D01*
X17505896Y-16381984D02*
X17524944Y-16391508D01*
X17524944Y-16391508D02*
X17534468Y-16401031D01*
X17534468Y-16401031D02*
X17543991Y-16420079D01*
X17543991Y-16420079D02*
X17553515Y-16458174D01*
X17553515Y-16458174D02*
X17553515Y-16505793D01*
X17553515Y-16505793D02*
X17543991Y-16543888D01*
X17543991Y-16543888D02*
X17534468Y-16562936D01*
X17534468Y-16562936D02*
X17524944Y-16572460D01*
X17524944Y-16572460D02*
X17505896Y-16581984D01*
X17505896Y-16581984D02*
X17486848Y-16581984D01*
X17486848Y-16581984D02*
X17467801Y-16572460D01*
X17467801Y-16572460D02*
X17458277Y-16562936D01*
X17458277Y-16562936D02*
X17448753Y-16543888D01*
X17448753Y-16543888D02*
X17439229Y-16505793D01*
X17439229Y-16505793D02*
X17439229Y-16458174D01*
X17439229Y-16458174D02*
X17448753Y-16420079D01*
X17448753Y-16420079D02*
X17458277Y-16401031D01*
X17458277Y-16401031D02*
X17467801Y-16391508D01*
X17467801Y-16391508D02*
X17486848Y-16381984D01*
X17667801Y-16467698D02*
X17648753Y-16458174D01*
X17648753Y-16458174D02*
X17639229Y-16448650D01*
X17639229Y-16448650D02*
X17629706Y-16429603D01*
X17629706Y-16429603D02*
X17629706Y-16420079D01*
X17629706Y-16420079D02*
X17639229Y-16401031D01*
X17639229Y-16401031D02*
X17648753Y-16391508D01*
X17648753Y-16391508D02*
X17667801Y-16381984D01*
X17667801Y-16381984D02*
X17705896Y-16381984D01*
X17705896Y-16381984D02*
X17724944Y-16391508D01*
X17724944Y-16391508D02*
X17734468Y-16401031D01*
X17734468Y-16401031D02*
X17743991Y-16420079D01*
X17743991Y-16420079D02*
X17743991Y-16429603D01*
X17743991Y-16429603D02*
X17734468Y-16448650D01*
X17734468Y-16448650D02*
X17724944Y-16458174D01*
X17724944Y-16458174D02*
X17705896Y-16467698D01*
X17705896Y-16467698D02*
X17667801Y-16467698D01*
X17667801Y-16467698D02*
X17648753Y-16477222D01*
X17648753Y-16477222D02*
X17639229Y-16486746D01*
X17639229Y-16486746D02*
X17629706Y-16505793D01*
X17629706Y-16505793D02*
X17629706Y-16543888D01*
X17629706Y-16543888D02*
X17639229Y-16562936D01*
X17639229Y-16562936D02*
X17648753Y-16572460D01*
X17648753Y-16572460D02*
X17667801Y-16581984D01*
X17667801Y-16581984D02*
X17705896Y-16581984D01*
X17705896Y-16581984D02*
X17724944Y-16572460D01*
X17724944Y-16572460D02*
X17734468Y-16562936D01*
X17734468Y-16562936D02*
X17743991Y-16543888D01*
X17743991Y-16543888D02*
X17743991Y-16505793D01*
X17743991Y-16505793D02*
X17734468Y-16486746D01*
X17734468Y-16486746D02*
X17724944Y-16477222D01*
X17724944Y-16477222D02*
X17705896Y-16467698D01*
X17915420Y-16381984D02*
X17877325Y-16381984D01*
X17877325Y-16381984D02*
X17858277Y-16391508D01*
X17858277Y-16391508D02*
X17848753Y-16401031D01*
X17848753Y-16401031D02*
X17829706Y-16429603D01*
X17829706Y-16429603D02*
X17820182Y-16467698D01*
X17820182Y-16467698D02*
X17820182Y-16543888D01*
X17820182Y-16543888D02*
X17829706Y-16562936D01*
X17829706Y-16562936D02*
X17839229Y-16572460D01*
X17839229Y-16572460D02*
X17858277Y-16581984D01*
X17858277Y-16581984D02*
X17896372Y-16581984D01*
X17896372Y-16581984D02*
X17915420Y-16572460D01*
X17915420Y-16572460D02*
X17924944Y-16562936D01*
X17924944Y-16562936D02*
X17934468Y-16543888D01*
X17934468Y-16543888D02*
X17934468Y-16496269D01*
X17934468Y-16496269D02*
X17924944Y-16477222D01*
X17924944Y-16477222D02*
X17915420Y-16467698D01*
X17915420Y-16467698D02*
X17896372Y-16458174D01*
X17896372Y-16458174D02*
X17858277Y-16458174D01*
X17858277Y-16458174D02*
X17839229Y-16467698D01*
X17839229Y-16467698D02*
X17829706Y-16477222D01*
X17829706Y-16477222D02*
X17820182Y-16496269D01*
X18105896Y-16381984D02*
X18067801Y-16381984D01*
X18067801Y-16381984D02*
X18048753Y-16391508D01*
X18048753Y-16391508D02*
X18039229Y-16401031D01*
X18039229Y-16401031D02*
X18020182Y-16429603D01*
X18020182Y-16429603D02*
X18010658Y-16467698D01*
X18010658Y-16467698D02*
X18010658Y-16543888D01*
X18010658Y-16543888D02*
X18020182Y-16562936D01*
X18020182Y-16562936D02*
X18029706Y-16572460D01*
X18029706Y-16572460D02*
X18048753Y-16581984D01*
X18048753Y-16581984D02*
X18086849Y-16581984D01*
X18086849Y-16581984D02*
X18105896Y-16572460D01*
X18105896Y-16572460D02*
X18115420Y-16562936D01*
X18115420Y-16562936D02*
X18124944Y-16543888D01*
X18124944Y-16543888D02*
X18124944Y-16496269D01*
X18124944Y-16496269D02*
X18115420Y-16477222D01*
X18115420Y-16477222D02*
X18105896Y-16467698D01*
X18105896Y-16467698D02*
X18086849Y-16458174D01*
X18086849Y-16458174D02*
X18048753Y-16458174D01*
X18048753Y-16458174D02*
X18029706Y-16467698D01*
X18029706Y-16467698D02*
X18020182Y-16477222D01*
X18020182Y-16477222D02*
X18010658Y-16496269D01*
X18201134Y-16381984D02*
X18201134Y-16420079D01*
X18277325Y-16381984D02*
X18277325Y-16420079D01*
X18572563Y-16658174D02*
X18563039Y-16648650D01*
X18563039Y-16648650D02*
X18543991Y-16620079D01*
X18543991Y-16620079D02*
X18534468Y-16601031D01*
X18534468Y-16601031D02*
X18524944Y-16572460D01*
X18524944Y-16572460D02*
X18515420Y-16524841D01*
X18515420Y-16524841D02*
X18515420Y-16486746D01*
X18515420Y-16486746D02*
X18524944Y-16439127D01*
X18524944Y-16439127D02*
X18534468Y-16410555D01*
X18534468Y-16410555D02*
X18543991Y-16391508D01*
X18543991Y-16391508D02*
X18563039Y-16362936D01*
X18563039Y-16362936D02*
X18572563Y-16353412D01*
X18629706Y-16381984D02*
X18753515Y-16381984D01*
X18753515Y-16381984D02*
X18686849Y-16458174D01*
X18686849Y-16458174D02*
X18715420Y-16458174D01*
X18715420Y-16458174D02*
X18734468Y-16467698D01*
X18734468Y-16467698D02*
X18743991Y-16477222D01*
X18743991Y-16477222D02*
X18753515Y-16496269D01*
X18753515Y-16496269D02*
X18753515Y-16543888D01*
X18753515Y-16543888D02*
X18743991Y-16562936D01*
X18743991Y-16562936D02*
X18734468Y-16572460D01*
X18734468Y-16572460D02*
X18715420Y-16581984D01*
X18715420Y-16581984D02*
X18658277Y-16581984D01*
X18658277Y-16581984D02*
X18639230Y-16572460D01*
X18639230Y-16572460D02*
X18629706Y-16562936D01*
X18991611Y-16581984D02*
X18991611Y-16381984D01*
X19077325Y-16581984D02*
X19077325Y-16477222D01*
X19077325Y-16477222D02*
X19067801Y-16458174D01*
X19067801Y-16458174D02*
X19048753Y-16448650D01*
X19048753Y-16448650D02*
X19020182Y-16448650D01*
X19020182Y-16448650D02*
X19001134Y-16458174D01*
X19001134Y-16458174D02*
X18991611Y-16467698D01*
X19201134Y-16581984D02*
X19182087Y-16572460D01*
X19182087Y-16572460D02*
X19172563Y-16562936D01*
X19172563Y-16562936D02*
X19163039Y-16543888D01*
X19163039Y-16543888D02*
X19163039Y-16486746D01*
X19163039Y-16486746D02*
X19172563Y-16467698D01*
X19172563Y-16467698D02*
X19182087Y-16458174D01*
X19182087Y-16458174D02*
X19201134Y-16448650D01*
X19201134Y-16448650D02*
X19229706Y-16448650D01*
X19229706Y-16448650D02*
X19248753Y-16458174D01*
X19248753Y-16458174D02*
X19258277Y-16467698D01*
X19258277Y-16467698D02*
X19267801Y-16486746D01*
X19267801Y-16486746D02*
X19267801Y-16543888D01*
X19267801Y-16543888D02*
X19258277Y-16562936D01*
X19258277Y-16562936D02*
X19248753Y-16572460D01*
X19248753Y-16572460D02*
X19229706Y-16581984D01*
X19229706Y-16581984D02*
X19201134Y-16581984D01*
X19382087Y-16581984D02*
X19363039Y-16572460D01*
X19363039Y-16572460D02*
X19353515Y-16553412D01*
X19353515Y-16553412D02*
X19353515Y-16381984D01*
X19534468Y-16572460D02*
X19515420Y-16581984D01*
X19515420Y-16581984D02*
X19477325Y-16581984D01*
X19477325Y-16581984D02*
X19458277Y-16572460D01*
X19458277Y-16572460D02*
X19448753Y-16553412D01*
X19448753Y-16553412D02*
X19448753Y-16477222D01*
X19448753Y-16477222D02*
X19458277Y-16458174D01*
X19458277Y-16458174D02*
X19477325Y-16448650D01*
X19477325Y-16448650D02*
X19515420Y-16448650D01*
X19515420Y-16448650D02*
X19534468Y-16458174D01*
X19534468Y-16458174D02*
X19543992Y-16477222D01*
X19543992Y-16477222D02*
X19543992Y-16496269D01*
X19543992Y-16496269D02*
X19448753Y-16515317D01*
X19620182Y-16572460D02*
X19639230Y-16581984D01*
X19639230Y-16581984D02*
X19677325Y-16581984D01*
X19677325Y-16581984D02*
X19696373Y-16572460D01*
X19696373Y-16572460D02*
X19705896Y-16553412D01*
X19705896Y-16553412D02*
X19705896Y-16543888D01*
X19705896Y-16543888D02*
X19696373Y-16524841D01*
X19696373Y-16524841D02*
X19677325Y-16515317D01*
X19677325Y-16515317D02*
X19648753Y-16515317D01*
X19648753Y-16515317D02*
X19629706Y-16505793D01*
X19629706Y-16505793D02*
X19620182Y-16486746D01*
X19620182Y-16486746D02*
X19620182Y-16477222D01*
X19620182Y-16477222D02*
X19629706Y-16458174D01*
X19629706Y-16458174D02*
X19648753Y-16448650D01*
X19648753Y-16448650D02*
X19677325Y-16448650D01*
X19677325Y-16448650D02*
X19696373Y-16458174D01*
X19772563Y-16658174D02*
X19782087Y-16648650D01*
X19782087Y-16648650D02*
X19801134Y-16620079D01*
X19801134Y-16620079D02*
X19810658Y-16601031D01*
X19810658Y-16601031D02*
X19820182Y-16572460D01*
X19820182Y-16572460D02*
X19829706Y-16524841D01*
X19829706Y-16524841D02*
X19829706Y-16486746D01*
X19829706Y-16486746D02*
X19820182Y-16439127D01*
X19820182Y-16439127D02*
X19810658Y-16410555D01*
X19810658Y-16410555D02*
X19801134Y-16391508D01*
X19801134Y-16391508D02*
X19782087Y-16362936D01*
X19782087Y-16362936D02*
X19772563Y-16353412D01*
M02*
