%TF.GenerationSoftware,KiCad,Pcbnew,8.0.8*%
%TF.CreationDate,2025-03-17T17:43:28-04:00*%
%TF.ProjectId,tuner time,74756e65-7220-4746-996d-652e6b696361,rev?*%
%TF.SameCoordinates,Original*%
%TF.FileFunction,Legend,Bot*%
%TF.FilePolarity,Positive*%
%FSLAX46Y46*%
G04 Gerber Fmt 4.6, Leading zero omitted, Abs format (unit mm)*
G04 Created by KiCad (PCBNEW 8.0.8) date 2025-03-17 17:43:28*
%MOMM*%
%LPD*%
G01*
G04 APERTURE LIST*
%ADD10C,0.500000*%
%ADD11C,0.125000*%
%ADD12C,0.120000*%
%ADD13C,0.000000*%
G04 APERTURE END LIST*
D10*
X224544862Y-109568607D02*
X223878195Y-109568607D01*
X223592481Y-112187655D02*
X224544862Y-112187655D01*
X224544862Y-112187655D02*
X224544862Y-107187655D01*
X224544862Y-107187655D02*
X223592481Y-107187655D01*
X221592481Y-111711464D02*
X221687719Y-111949560D01*
X221687719Y-111949560D02*
X221973433Y-112187655D01*
X221973433Y-112187655D02*
X222163909Y-112187655D01*
X222163909Y-112187655D02*
X222449624Y-111949560D01*
X222449624Y-111949560D02*
X222640100Y-111473369D01*
X222640100Y-111473369D02*
X222735338Y-110997179D01*
X222735338Y-110997179D02*
X222830576Y-110044798D01*
X222830576Y-110044798D02*
X222830576Y-109330512D01*
X222830576Y-109330512D02*
X222735338Y-108378131D01*
X222735338Y-108378131D02*
X222640100Y-107901940D01*
X222640100Y-107901940D02*
X222449624Y-107425750D01*
X222449624Y-107425750D02*
X222163909Y-107187655D01*
X222163909Y-107187655D02*
X221973433Y-107187655D01*
X221973433Y-107187655D02*
X221687719Y-107425750D01*
X221687719Y-107425750D02*
X221592481Y-107663845D01*
X220735338Y-109568607D02*
X220068671Y-109568607D01*
X219782957Y-112187655D02*
X220735338Y-112187655D01*
X220735338Y-112187655D02*
X220735338Y-107187655D01*
X220735338Y-107187655D02*
X219782957Y-107187655D01*
X218068671Y-108854321D02*
X218068671Y-112187655D01*
X218544862Y-106949560D02*
X219021052Y-110520988D01*
X219021052Y-110520988D02*
X217782957Y-110520988D01*
X217211528Y-107187655D02*
X215878195Y-107187655D01*
X215878195Y-107187655D02*
X216735338Y-112187655D01*
X215306766Y-107187655D02*
X213973433Y-107187655D01*
X213973433Y-107187655D02*
X214830576Y-112187655D01*
X211687718Y-110282893D02*
X210163909Y-110282893D01*
X207973432Y-107187655D02*
X206830575Y-107187655D01*
X207402004Y-112187655D02*
X207402004Y-107187655D01*
X205402003Y-111949560D02*
X205592479Y-112187655D01*
X205592479Y-112187655D02*
X205973432Y-112187655D01*
X205973432Y-112187655D02*
X206163908Y-111949560D01*
X206163908Y-111949560D02*
X206259146Y-111473369D01*
X206259146Y-111473369D02*
X206259146Y-109568607D01*
X206259146Y-109568607D02*
X206163908Y-109092417D01*
X206163908Y-109092417D02*
X205973432Y-108854321D01*
X205973432Y-108854321D02*
X205592479Y-108854321D01*
X205592479Y-108854321D02*
X205402003Y-109092417D01*
X205402003Y-109092417D02*
X205306765Y-109568607D01*
X205306765Y-109568607D02*
X205306765Y-110044798D01*
X205306765Y-110044798D02*
X206259146Y-110520988D01*
X203592479Y-112187655D02*
X203592479Y-109568607D01*
X203592479Y-109568607D02*
X203687717Y-109092417D01*
X203687717Y-109092417D02*
X203878193Y-108854321D01*
X203878193Y-108854321D02*
X204259146Y-108854321D01*
X204259146Y-108854321D02*
X204449622Y-109092417D01*
X203592479Y-111949560D02*
X203782955Y-112187655D01*
X203782955Y-112187655D02*
X204259146Y-112187655D01*
X204259146Y-112187655D02*
X204449622Y-111949560D01*
X204449622Y-111949560D02*
X204544860Y-111473369D01*
X204544860Y-111473369D02*
X204544860Y-110997179D01*
X204544860Y-110997179D02*
X204449622Y-110520988D01*
X204449622Y-110520988D02*
X204259146Y-110282893D01*
X204259146Y-110282893D02*
X203782955Y-110282893D01*
X203782955Y-110282893D02*
X203592479Y-110044798D01*
X202640098Y-112187655D02*
X202640098Y-108854321D01*
X202640098Y-109330512D02*
X202544860Y-109092417D01*
X202544860Y-109092417D02*
X202354384Y-108854321D01*
X202354384Y-108854321D02*
X202068669Y-108854321D01*
X202068669Y-108854321D02*
X201878193Y-109092417D01*
X201878193Y-109092417D02*
X201782955Y-109568607D01*
X201782955Y-109568607D02*
X201782955Y-112187655D01*
X201782955Y-109568607D02*
X201687717Y-109092417D01*
X201687717Y-109092417D02*
X201497241Y-108854321D01*
X201497241Y-108854321D02*
X201211527Y-108854321D01*
X201211527Y-108854321D02*
X201021050Y-109092417D01*
X201021050Y-109092417D02*
X200925812Y-109568607D01*
X200925812Y-109568607D02*
X200925812Y-112187655D01*
X198925812Y-112187655D02*
X200068669Y-112187655D01*
X199497241Y-112187655D02*
X199497241Y-107187655D01*
X199497241Y-107187655D02*
X199687717Y-107901940D01*
X199687717Y-107901940D02*
X199878193Y-108378131D01*
X199878193Y-108378131D02*
X200068669Y-108616226D01*
X197021050Y-112187655D02*
X198163907Y-112187655D01*
X197592479Y-112187655D02*
X197592479Y-107187655D01*
X197592479Y-107187655D02*
X197782955Y-107901940D01*
X197782955Y-107901940D02*
X197973431Y-108378131D01*
X197973431Y-108378131D02*
X198163907Y-108616226D01*
X224640100Y-118808803D02*
X223687719Y-118808803D01*
X224830576Y-120237375D02*
X224163910Y-115237375D01*
X224163910Y-115237375D02*
X223497243Y-120237375D01*
X221973433Y-116904041D02*
X221973433Y-120237375D01*
X222830576Y-116904041D02*
X222830576Y-119523089D01*
X222830576Y-119523089D02*
X222735338Y-119999280D01*
X222735338Y-119999280D02*
X222544862Y-120237375D01*
X222544862Y-120237375D02*
X222259147Y-120237375D01*
X222259147Y-120237375D02*
X222068671Y-119999280D01*
X222068671Y-119999280D02*
X221973433Y-119761184D01*
X221306766Y-116904041D02*
X220544862Y-116904041D01*
X221021052Y-115237375D02*
X221021052Y-119523089D01*
X221021052Y-119523089D02*
X220925814Y-119999280D01*
X220925814Y-119999280D02*
X220735338Y-120237375D01*
X220735338Y-120237375D02*
X220544862Y-120237375D01*
X219592481Y-120237375D02*
X219782957Y-119999280D01*
X219782957Y-119999280D02*
X219878195Y-119761184D01*
X219878195Y-119761184D02*
X219973433Y-119284994D01*
X219973433Y-119284994D02*
X219973433Y-117856422D01*
X219973433Y-117856422D02*
X219878195Y-117380232D01*
X219878195Y-117380232D02*
X219782957Y-117142137D01*
X219782957Y-117142137D02*
X219592481Y-116904041D01*
X219592481Y-116904041D02*
X219306766Y-116904041D01*
X219306766Y-116904041D02*
X219116290Y-117142137D01*
X219116290Y-117142137D02*
X219021052Y-117380232D01*
X219021052Y-117380232D02*
X218925814Y-117856422D01*
X218925814Y-117856422D02*
X218925814Y-119284994D01*
X218925814Y-119284994D02*
X219021052Y-119761184D01*
X219021052Y-119761184D02*
X219116290Y-119999280D01*
X219116290Y-119999280D02*
X219306766Y-120237375D01*
X219306766Y-120237375D02*
X219592481Y-120237375D01*
X218068671Y-120237375D02*
X218068671Y-116904041D01*
X218068671Y-117380232D02*
X217973433Y-117142137D01*
X217973433Y-117142137D02*
X217782957Y-116904041D01*
X217782957Y-116904041D02*
X217497242Y-116904041D01*
X217497242Y-116904041D02*
X217306766Y-117142137D01*
X217306766Y-117142137D02*
X217211528Y-117618327D01*
X217211528Y-117618327D02*
X217211528Y-120237375D01*
X217211528Y-117618327D02*
X217116290Y-117142137D01*
X217116290Y-117142137D02*
X216925814Y-116904041D01*
X216925814Y-116904041D02*
X216640100Y-116904041D01*
X216640100Y-116904041D02*
X216449623Y-117142137D01*
X216449623Y-117142137D02*
X216354385Y-117618327D01*
X216354385Y-117618327D02*
X216354385Y-120237375D01*
X214544861Y-120237375D02*
X214544861Y-117618327D01*
X214544861Y-117618327D02*
X214640099Y-117142137D01*
X214640099Y-117142137D02*
X214830575Y-116904041D01*
X214830575Y-116904041D02*
X215211528Y-116904041D01*
X215211528Y-116904041D02*
X215402004Y-117142137D01*
X214544861Y-119999280D02*
X214735337Y-120237375D01*
X214735337Y-120237375D02*
X215211528Y-120237375D01*
X215211528Y-120237375D02*
X215402004Y-119999280D01*
X215402004Y-119999280D02*
X215497242Y-119523089D01*
X215497242Y-119523089D02*
X215497242Y-119046899D01*
X215497242Y-119046899D02*
X215402004Y-118570708D01*
X215402004Y-118570708D02*
X215211528Y-118332613D01*
X215211528Y-118332613D02*
X214735337Y-118332613D01*
X214735337Y-118332613D02*
X214544861Y-118094518D01*
X213878194Y-116904041D02*
X213116290Y-116904041D01*
X213592480Y-115237375D02*
X213592480Y-119523089D01*
X213592480Y-119523089D02*
X213497242Y-119999280D01*
X213497242Y-119999280D02*
X213306766Y-120237375D01*
X213306766Y-120237375D02*
X213116290Y-120237375D01*
X212449623Y-120237375D02*
X212449623Y-116904041D01*
X212449623Y-115237375D02*
X212544861Y-115475470D01*
X212544861Y-115475470D02*
X212449623Y-115713565D01*
X212449623Y-115713565D02*
X212354385Y-115475470D01*
X212354385Y-115475470D02*
X212449623Y-115237375D01*
X212449623Y-115237375D02*
X212449623Y-115713565D01*
X210640099Y-119999280D02*
X210830575Y-120237375D01*
X210830575Y-120237375D02*
X211211528Y-120237375D01*
X211211528Y-120237375D02*
X211402004Y-119999280D01*
X211402004Y-119999280D02*
X211497242Y-119761184D01*
X211497242Y-119761184D02*
X211592480Y-119284994D01*
X211592480Y-119284994D02*
X211592480Y-117856422D01*
X211592480Y-117856422D02*
X211497242Y-117380232D01*
X211497242Y-117380232D02*
X211402004Y-117142137D01*
X211402004Y-117142137D02*
X211211528Y-116904041D01*
X211211528Y-116904041D02*
X210830575Y-116904041D01*
X210830575Y-116904041D02*
X210640099Y-117142137D01*
X207211527Y-115475470D02*
X207402003Y-115237375D01*
X207402003Y-115237375D02*
X207687717Y-115237375D01*
X207687717Y-115237375D02*
X207973432Y-115475470D01*
X207973432Y-115475470D02*
X208163908Y-115951660D01*
X208163908Y-115951660D02*
X208259146Y-116427851D01*
X208259146Y-116427851D02*
X208354384Y-117380232D01*
X208354384Y-117380232D02*
X208354384Y-118094518D01*
X208354384Y-118094518D02*
X208259146Y-119046899D01*
X208259146Y-119046899D02*
X208163908Y-119523089D01*
X208163908Y-119523089D02*
X207973432Y-119999280D01*
X207973432Y-119999280D02*
X207687717Y-120237375D01*
X207687717Y-120237375D02*
X207497241Y-120237375D01*
X207497241Y-120237375D02*
X207211527Y-119999280D01*
X207211527Y-119999280D02*
X207116289Y-119761184D01*
X207116289Y-119761184D02*
X207116289Y-118094518D01*
X207116289Y-118094518D02*
X207497241Y-118094518D01*
X205402003Y-116904041D02*
X205402003Y-120237375D01*
X206259146Y-116904041D02*
X206259146Y-119523089D01*
X206259146Y-119523089D02*
X206163908Y-119999280D01*
X206163908Y-119999280D02*
X205973432Y-120237375D01*
X205973432Y-120237375D02*
X205687717Y-120237375D01*
X205687717Y-120237375D02*
X205497241Y-119999280D01*
X205497241Y-119999280D02*
X205402003Y-119761184D01*
X204449622Y-120237375D02*
X204449622Y-116904041D01*
X204449622Y-115237375D02*
X204544860Y-115475470D01*
X204544860Y-115475470D02*
X204449622Y-115713565D01*
X204449622Y-115713565D02*
X204354384Y-115475470D01*
X204354384Y-115475470D02*
X204449622Y-115237375D01*
X204449622Y-115237375D02*
X204449622Y-115713565D01*
X203782955Y-116904041D02*
X203021051Y-116904041D01*
X203497241Y-115237375D02*
X203497241Y-119523089D01*
X203497241Y-119523089D02*
X203402003Y-119999280D01*
X203402003Y-119999280D02*
X203211527Y-120237375D01*
X203211527Y-120237375D02*
X203021051Y-120237375D01*
X201497241Y-120237375D02*
X201497241Y-117618327D01*
X201497241Y-117618327D02*
X201592479Y-117142137D01*
X201592479Y-117142137D02*
X201782955Y-116904041D01*
X201782955Y-116904041D02*
X202163908Y-116904041D01*
X202163908Y-116904041D02*
X202354384Y-117142137D01*
X201497241Y-119999280D02*
X201687717Y-120237375D01*
X201687717Y-120237375D02*
X202163908Y-120237375D01*
X202163908Y-120237375D02*
X202354384Y-119999280D01*
X202354384Y-119999280D02*
X202449622Y-119523089D01*
X202449622Y-119523089D02*
X202449622Y-119046899D01*
X202449622Y-119046899D02*
X202354384Y-118570708D01*
X202354384Y-118570708D02*
X202163908Y-118332613D01*
X202163908Y-118332613D02*
X201687717Y-118332613D01*
X201687717Y-118332613D02*
X201497241Y-118094518D01*
X200544860Y-120237375D02*
X200544860Y-116904041D01*
X200544860Y-117856422D02*
X200449622Y-117380232D01*
X200449622Y-117380232D02*
X200354384Y-117142137D01*
X200354384Y-117142137D02*
X200163908Y-116904041D01*
X200163908Y-116904041D02*
X199973431Y-116904041D01*
X198068669Y-115237375D02*
X196925812Y-115237375D01*
X197497241Y-120237375D02*
X197497241Y-115237375D01*
X195402002Y-116904041D02*
X195402002Y-120237375D01*
X196259145Y-116904041D02*
X196259145Y-119523089D01*
X196259145Y-119523089D02*
X196163907Y-119999280D01*
X196163907Y-119999280D02*
X195973431Y-120237375D01*
X195973431Y-120237375D02*
X195687716Y-120237375D01*
X195687716Y-120237375D02*
X195497240Y-119999280D01*
X195497240Y-119999280D02*
X195402002Y-119761184D01*
X194449621Y-116904041D02*
X194449621Y-120237375D01*
X194449621Y-117380232D02*
X194354383Y-117142137D01*
X194354383Y-117142137D02*
X194163907Y-116904041D01*
X194163907Y-116904041D02*
X193878192Y-116904041D01*
X193878192Y-116904041D02*
X193687716Y-117142137D01*
X193687716Y-117142137D02*
X193592478Y-117618327D01*
X193592478Y-117618327D02*
X193592478Y-120237375D01*
X191782954Y-120237375D02*
X191782954Y-117618327D01*
X191782954Y-117618327D02*
X191878192Y-117142137D01*
X191878192Y-117142137D02*
X192068668Y-116904041D01*
X192068668Y-116904041D02*
X192449621Y-116904041D01*
X192449621Y-116904041D02*
X192640097Y-117142137D01*
X191782954Y-119999280D02*
X191973430Y-120237375D01*
X191973430Y-120237375D02*
X192449621Y-120237375D01*
X192449621Y-120237375D02*
X192640097Y-119999280D01*
X192640097Y-119999280D02*
X192735335Y-119523089D01*
X192735335Y-119523089D02*
X192735335Y-119046899D01*
X192735335Y-119046899D02*
X192640097Y-118570708D01*
X192640097Y-118570708D02*
X192449621Y-118332613D01*
X192449621Y-118332613D02*
X191973430Y-118332613D01*
X191973430Y-118332613D02*
X191782954Y-118094518D01*
X190830573Y-120237375D02*
X190830573Y-116904041D01*
X190830573Y-117856422D02*
X190735335Y-117380232D01*
X190735335Y-117380232D02*
X190640097Y-117142137D01*
X190640097Y-117142137D02*
X190449621Y-116904041D01*
X190449621Y-116904041D02*
X190259144Y-116904041D01*
X224735338Y-124953761D02*
X224259148Y-128287095D01*
X224259148Y-128287095D02*
X223782957Y-124953761D01*
X221973433Y-128287095D02*
X223116290Y-128287095D01*
X222544862Y-128287095D02*
X222544862Y-123287095D01*
X222544862Y-123287095D02*
X222735338Y-124001380D01*
X222735338Y-124001380D02*
X222925814Y-124477571D01*
X222925814Y-124477571D02*
X223116290Y-124715666D01*
X221116290Y-127810904D02*
X221021052Y-128049000D01*
X221021052Y-128049000D02*
X221116290Y-128287095D01*
X221116290Y-128287095D02*
X221211528Y-128049000D01*
X221211528Y-128049000D02*
X221116290Y-127810904D01*
X221116290Y-127810904D02*
X221116290Y-128287095D01*
X219782957Y-123287095D02*
X219592480Y-123287095D01*
X219592480Y-123287095D02*
X219402004Y-123525190D01*
X219402004Y-123525190D02*
X219306766Y-123763285D01*
X219306766Y-123763285D02*
X219211528Y-124239476D01*
X219211528Y-124239476D02*
X219116290Y-125191857D01*
X219116290Y-125191857D02*
X219116290Y-126382333D01*
X219116290Y-126382333D02*
X219211528Y-127334714D01*
X219211528Y-127334714D02*
X219306766Y-127810904D01*
X219306766Y-127810904D02*
X219402004Y-128049000D01*
X219402004Y-128049000D02*
X219592480Y-128287095D01*
X219592480Y-128287095D02*
X219782957Y-128287095D01*
X219782957Y-128287095D02*
X219973433Y-128049000D01*
X219973433Y-128049000D02*
X220068671Y-127810904D01*
X220068671Y-127810904D02*
X220163909Y-127334714D01*
X220163909Y-127334714D02*
X220259147Y-126382333D01*
X220259147Y-126382333D02*
X220259147Y-125191857D01*
X220259147Y-125191857D02*
X220163909Y-124239476D01*
X220163909Y-124239476D02*
X220068671Y-123763285D01*
X220068671Y-123763285D02*
X219973433Y-123525190D01*
X219973433Y-123525190D02*
X219782957Y-123287095D01*
D11*
X174354761Y-132663595D02*
X174354761Y-131863595D01*
X174354761Y-131863595D02*
X174188094Y-132435023D01*
X174188094Y-132435023D02*
X174021428Y-131863595D01*
X174021428Y-131863595D02*
X174021428Y-132663595D01*
X173521427Y-132663595D02*
X173807141Y-132663595D01*
X173664284Y-132663595D02*
X173664284Y-131863595D01*
X173664284Y-131863595D02*
X173711903Y-131977880D01*
X173711903Y-131977880D02*
X173759522Y-132054071D01*
X173759522Y-132054071D02*
X173807141Y-132092166D01*
X176904761Y-132613595D02*
X176904761Y-131813595D01*
X176904761Y-131813595D02*
X176738094Y-132385023D01*
X176738094Y-132385023D02*
X176571428Y-131813595D01*
X176571428Y-131813595D02*
X176571428Y-132613595D01*
X176238094Y-131813595D02*
X176190475Y-131813595D01*
X176190475Y-131813595D02*
X176142856Y-131851690D01*
X176142856Y-131851690D02*
X176119046Y-131889785D01*
X176119046Y-131889785D02*
X176095237Y-131965976D01*
X176095237Y-131965976D02*
X176071427Y-132118357D01*
X176071427Y-132118357D02*
X176071427Y-132308833D01*
X176071427Y-132308833D02*
X176095237Y-132461214D01*
X176095237Y-132461214D02*
X176119046Y-132537404D01*
X176119046Y-132537404D02*
X176142856Y-132575500D01*
X176142856Y-132575500D02*
X176190475Y-132613595D01*
X176190475Y-132613595D02*
X176238094Y-132613595D01*
X176238094Y-132613595D02*
X176285713Y-132575500D01*
X176285713Y-132575500D02*
X176309522Y-132537404D01*
X176309522Y-132537404D02*
X176333332Y-132461214D01*
X176333332Y-132461214D02*
X176357141Y-132308833D01*
X176357141Y-132308833D02*
X176357141Y-132118357D01*
X176357141Y-132118357D02*
X176333332Y-131965976D01*
X176333332Y-131965976D02*
X176309522Y-131889785D01*
X176309522Y-131889785D02*
X176285713Y-131851690D01*
X176285713Y-131851690D02*
X176238094Y-131813595D01*
X176916666Y-130663595D02*
X176916666Y-131235023D01*
X176916666Y-131235023D02*
X176940475Y-131349309D01*
X176940475Y-131349309D02*
X176988094Y-131425500D01*
X176988094Y-131425500D02*
X177059523Y-131463595D01*
X177059523Y-131463595D02*
X177107142Y-131463595D01*
X176678571Y-131463595D02*
X176678571Y-130663595D01*
X176678571Y-130663595D02*
X176488095Y-130663595D01*
X176488095Y-130663595D02*
X176440476Y-130701690D01*
X176440476Y-130701690D02*
X176416666Y-130739785D01*
X176416666Y-130739785D02*
X176392857Y-130815976D01*
X176392857Y-130815976D02*
X176392857Y-130930261D01*
X176392857Y-130930261D02*
X176416666Y-131006452D01*
X176416666Y-131006452D02*
X176440476Y-131044547D01*
X176440476Y-131044547D02*
X176488095Y-131082642D01*
X176488095Y-131082642D02*
X176678571Y-131082642D01*
X175940476Y-130663595D02*
X176178571Y-130663595D01*
X176178571Y-130663595D02*
X176202380Y-131044547D01*
X176202380Y-131044547D02*
X176178571Y-131006452D01*
X176178571Y-131006452D02*
X176130952Y-130968357D01*
X176130952Y-130968357D02*
X176011904Y-130968357D01*
X176011904Y-130968357D02*
X175964285Y-131006452D01*
X175964285Y-131006452D02*
X175940476Y-131044547D01*
X175940476Y-131044547D02*
X175916666Y-131120738D01*
X175916666Y-131120738D02*
X175916666Y-131311214D01*
X175916666Y-131311214D02*
X175940476Y-131387404D01*
X175940476Y-131387404D02*
X175964285Y-131425500D01*
X175964285Y-131425500D02*
X176011904Y-131463595D01*
X176011904Y-131463595D02*
X176130952Y-131463595D01*
X176130952Y-131463595D02*
X176178571Y-131425500D01*
X176178571Y-131425500D02*
X176202380Y-131387404D01*
X164016666Y-123938595D02*
X164016666Y-124510023D01*
X164016666Y-124510023D02*
X164040475Y-124624309D01*
X164040475Y-124624309D02*
X164088094Y-124700500D01*
X164088094Y-124700500D02*
X164159523Y-124738595D01*
X164159523Y-124738595D02*
X164207142Y-124738595D01*
X163778571Y-124738595D02*
X163778571Y-123938595D01*
X163778571Y-123938595D02*
X163588095Y-123938595D01*
X163588095Y-123938595D02*
X163540476Y-123976690D01*
X163540476Y-123976690D02*
X163516666Y-124014785D01*
X163516666Y-124014785D02*
X163492857Y-124090976D01*
X163492857Y-124090976D02*
X163492857Y-124205261D01*
X163492857Y-124205261D02*
X163516666Y-124281452D01*
X163516666Y-124281452D02*
X163540476Y-124319547D01*
X163540476Y-124319547D02*
X163588095Y-124357642D01*
X163588095Y-124357642D02*
X163778571Y-124357642D01*
X163326190Y-123938595D02*
X162992857Y-123938595D01*
X162992857Y-123938595D02*
X163207142Y-124738595D01*
X174391666Y-130763595D02*
X174391666Y-131335023D01*
X174391666Y-131335023D02*
X174415475Y-131449309D01*
X174415475Y-131449309D02*
X174463094Y-131525500D01*
X174463094Y-131525500D02*
X174534523Y-131563595D01*
X174534523Y-131563595D02*
X174582142Y-131563595D01*
X174153571Y-131563595D02*
X174153571Y-130763595D01*
X174153571Y-130763595D02*
X173963095Y-130763595D01*
X173963095Y-130763595D02*
X173915476Y-130801690D01*
X173915476Y-130801690D02*
X173891666Y-130839785D01*
X173891666Y-130839785D02*
X173867857Y-130915976D01*
X173867857Y-130915976D02*
X173867857Y-131030261D01*
X173867857Y-131030261D02*
X173891666Y-131106452D01*
X173891666Y-131106452D02*
X173915476Y-131144547D01*
X173915476Y-131144547D02*
X173963095Y-131182642D01*
X173963095Y-131182642D02*
X174153571Y-131182642D01*
X173439285Y-130763595D02*
X173534523Y-130763595D01*
X173534523Y-130763595D02*
X173582142Y-130801690D01*
X173582142Y-130801690D02*
X173605952Y-130839785D01*
X173605952Y-130839785D02*
X173653571Y-130954071D01*
X173653571Y-130954071D02*
X173677380Y-131106452D01*
X173677380Y-131106452D02*
X173677380Y-131411214D01*
X173677380Y-131411214D02*
X173653571Y-131487404D01*
X173653571Y-131487404D02*
X173629761Y-131525500D01*
X173629761Y-131525500D02*
X173582142Y-131563595D01*
X173582142Y-131563595D02*
X173486904Y-131563595D01*
X173486904Y-131563595D02*
X173439285Y-131525500D01*
X173439285Y-131525500D02*
X173415476Y-131487404D01*
X173415476Y-131487404D02*
X173391666Y-131411214D01*
X173391666Y-131411214D02*
X173391666Y-131220738D01*
X173391666Y-131220738D02*
X173415476Y-131144547D01*
X173415476Y-131144547D02*
X173439285Y-131106452D01*
X173439285Y-131106452D02*
X173486904Y-131068357D01*
X173486904Y-131068357D02*
X173582142Y-131068357D01*
X173582142Y-131068357D02*
X173629761Y-131106452D01*
X173629761Y-131106452D02*
X173653571Y-131144547D01*
X173653571Y-131144547D02*
X173677380Y-131220738D01*
D12*
%TO.C,JP5*%
X174475000Y-134467500D02*
X174475000Y-133867500D01*
X175025000Y-132667500D02*
X175325000Y-132967500D01*
X175125000Y-133167500D02*
X177925000Y-133167500D01*
X175625000Y-132667500D02*
X175025000Y-132667500D01*
X175625000Y-132667500D02*
X175325000Y-132967500D01*
X177925000Y-135167500D02*
X175125000Y-135167500D01*
X178575000Y-133867500D02*
X178575000Y-134467500D01*
X174475000Y-133867500D02*
G75*
G02*
X175175000Y-133167500I699999J1D01*
G01*
X175175000Y-135167500D02*
G75*
G02*
X174475000Y-134467500I-1J699999D01*
G01*
X177875000Y-133167500D02*
G75*
G02*
X178575000Y-133867500I0J-700000D01*
G01*
X178575000Y-134467500D02*
G75*
G02*
X177875000Y-135167500I-700000J0D01*
G01*
%TO.C,JP7*%
X161524999Y-127125000D02*
X161524999Y-126525000D01*
X162074999Y-125325000D02*
X162374999Y-125625000D01*
X162174999Y-125825000D02*
X164974999Y-125825000D01*
X162674999Y-125325000D02*
X162074999Y-125325000D01*
X162674999Y-125325000D02*
X162374999Y-125625000D01*
X164974999Y-127825000D02*
X162174999Y-127825000D01*
X165624999Y-126525000D02*
X165624999Y-127125000D01*
X161524999Y-126525000D02*
G75*
G02*
X162224999Y-125825000I699999J1D01*
G01*
X162224999Y-127825000D02*
G75*
G02*
X161524999Y-127125000I-1J699999D01*
G01*
X164924999Y-125825000D02*
G75*
G02*
X165624999Y-126525000I0J-700000D01*
G01*
X165624999Y-127125000D02*
G75*
G02*
X164924999Y-127825000I-700000J0D01*
G01*
D13*
%TO.C,G\u002A\u002A\u002A*%
G36*
X193969437Y-129188874D02*
G01*
X194037381Y-129218441D01*
X194084426Y-129272049D01*
X194104543Y-129340783D01*
X194091704Y-129415725D01*
X194073977Y-129448355D01*
X194026606Y-129514278D01*
X193959145Y-129595846D01*
X193877213Y-129687336D01*
X193786428Y-129783023D01*
X193692411Y-129877183D01*
X193600778Y-129964092D01*
X193517151Y-130038025D01*
X193447147Y-130093259D01*
X193396385Y-130124068D01*
X193324505Y-130138606D01*
X193252412Y-130121954D01*
X193195062Y-130076608D01*
X193162145Y-130007395D01*
X193159409Y-129991996D01*
X193162074Y-129940649D01*
X193186813Y-129888659D01*
X193237556Y-129829739D01*
X193318231Y-129757600D01*
X193359152Y-129722153D01*
X193455136Y-129632063D01*
X193563745Y-129522758D01*
X193677394Y-129401982D01*
X193788497Y-129277478D01*
X193809415Y-129253896D01*
X193853883Y-129211253D01*
X193892294Y-129190941D01*
X193936236Y-129185769D01*
X193969437Y-129188874D01*
G37*
G36*
X193457061Y-128653948D02*
G01*
X193522844Y-128701228D01*
X193545549Y-128730491D01*
X193563622Y-128783854D01*
X193554114Y-128845428D01*
X193515799Y-128920293D01*
X193447451Y-129013527D01*
X193427957Y-129037345D01*
X193336623Y-129141477D01*
X193231936Y-129251584D01*
X193123206Y-129358440D01*
X193019740Y-129452820D01*
X192930850Y-129525497D01*
X192876820Y-129561581D01*
X192800909Y-129591605D01*
X192733946Y-129587501D01*
X192670644Y-129549762D01*
X192660326Y-129540460D01*
X192626166Y-129492438D01*
X192616800Y-129429022D01*
X192616918Y-129418525D01*
X192621779Y-129380253D01*
X192638479Y-129346844D01*
X192673433Y-129308783D01*
X192733054Y-129256552D01*
X192813151Y-129185781D01*
X192906218Y-129097767D01*
X193000434Y-129003850D01*
X193088117Y-128911890D01*
X193161587Y-128829747D01*
X193213162Y-128765282D01*
X193240385Y-128730927D01*
X193311887Y-128669613D01*
X193385427Y-128643682D01*
X193457061Y-128653948D01*
G37*
G36*
X192771141Y-128000942D02*
G01*
X192769993Y-128093953D01*
X192765611Y-128160801D01*
X192756063Y-128212680D01*
X192739416Y-128260785D01*
X192713739Y-128316307D01*
X192658603Y-128410056D01*
X192554197Y-128533475D01*
X192428172Y-128636162D01*
X192288456Y-128712025D01*
X192142983Y-128754966D01*
X192103072Y-128761472D01*
X192035876Y-128769908D01*
X191979891Y-128770510D01*
X191918722Y-128762817D01*
X191835974Y-128746370D01*
X191802672Y-128738594D01*
X191640951Y-128677908D01*
X191499577Y-128584759D01*
X191381492Y-128461493D01*
X191289639Y-128310460D01*
X191288185Y-128307388D01*
X191260355Y-128245285D01*
X191242643Y-128193149D01*
X191232788Y-128138723D01*
X191228532Y-128069751D01*
X191227620Y-127974384D01*
X191560492Y-127974384D01*
X191567322Y-128053800D01*
X191603949Y-128173887D01*
X191668322Y-128276567D01*
X191756018Y-128355545D01*
X191862616Y-128404523D01*
X191978577Y-128423391D01*
X192106556Y-128410980D01*
X192223009Y-128362674D01*
X192323744Y-128279607D01*
X192361664Y-128232920D01*
X192421746Y-128118092D01*
X192445046Y-127995329D01*
X192431046Y-127869620D01*
X192379226Y-127745952D01*
X192341592Y-127692518D01*
X192251715Y-127611514D01*
X192143246Y-127557078D01*
X192025197Y-127533072D01*
X191906577Y-127543358D01*
X191818650Y-127572767D01*
X191708430Y-127639416D01*
X191627188Y-127730407D01*
X191577137Y-127842982D01*
X191560492Y-127974384D01*
X191227620Y-127974384D01*
X191227616Y-127973973D01*
X191227625Y-127959227D01*
X191228761Y-127868490D01*
X191233415Y-127803136D01*
X191243884Y-127751100D01*
X191262467Y-127700316D01*
X191291462Y-127638719D01*
X191361825Y-127524539D01*
X191462736Y-127409861D01*
X191579063Y-127314822D01*
X191700748Y-127248998D01*
X191758478Y-127230052D01*
X191891490Y-127206500D01*
X192035887Y-127201806D01*
X192176465Y-127215973D01*
X192298022Y-127248998D01*
X192409621Y-127308081D01*
X192526779Y-127401049D01*
X192629361Y-127514455D01*
X192707308Y-127638719D01*
X192717908Y-127660427D01*
X192742726Y-127715647D01*
X192758342Y-127764138D01*
X192766872Y-127817352D01*
X192770437Y-127886737D01*
X192771154Y-127983743D01*
X192771145Y-127995329D01*
X192771141Y-128000942D01*
G37*
G36*
X196541645Y-129460076D02*
G01*
X196507593Y-129748329D01*
X196441377Y-130041159D01*
X196342108Y-130336332D01*
X196208896Y-130631615D01*
X196196920Y-130654855D01*
X196011804Y-130970802D01*
X195798207Y-131263226D01*
X195558551Y-131530317D01*
X195295257Y-131770265D01*
X195010748Y-131981261D01*
X194707445Y-132161494D01*
X194387772Y-132309156D01*
X194054150Y-132422435D01*
X193709000Y-132499523D01*
X193675383Y-132504585D01*
X193531821Y-132517652D01*
X193367548Y-132522060D01*
X193194418Y-132518266D01*
X193024282Y-132506726D01*
X192868993Y-132487897D01*
X192740405Y-132462234D01*
X192670453Y-132443124D01*
X192420534Y-132356726D01*
X192196310Y-132247115D01*
X191990801Y-132110446D01*
X191797024Y-131942877D01*
X191652253Y-131788794D01*
X191495717Y-131578190D01*
X191370380Y-131349976D01*
X191274962Y-131101282D01*
X191208187Y-130829237D01*
X191168777Y-130530969D01*
X191167433Y-130509018D01*
X191166578Y-130425984D01*
X191169455Y-130320014D01*
X191175394Y-130202785D01*
X191183727Y-130085976D01*
X191193785Y-129981263D01*
X191204899Y-129900325D01*
X191201857Y-129894171D01*
X191172451Y-129879465D01*
X191121430Y-129866535D01*
X190935149Y-129819690D01*
X190718816Y-129731981D01*
X190514939Y-129613649D01*
X190329527Y-129468853D01*
X190168588Y-129301752D01*
X190038129Y-129116507D01*
X189959715Y-128964389D01*
X189874759Y-128730353D01*
X189822718Y-128481869D01*
X189804152Y-128223672D01*
X189819624Y-127960497D01*
X189869695Y-127697079D01*
X189874286Y-127679465D01*
X189909325Y-127558169D01*
X189949434Y-127445435D01*
X189999972Y-127327455D01*
X190066297Y-127190421D01*
X190146727Y-127030453D01*
X189398807Y-126282344D01*
X188650886Y-125534234D01*
X188576387Y-125601540D01*
X188547566Y-125625896D01*
X188490412Y-125659258D01*
X188431489Y-125668846D01*
X188409466Y-125667503D01*
X188382789Y-125660208D01*
X188352013Y-125643279D01*
X188312466Y-125613081D01*
X188259480Y-125565976D01*
X188188383Y-125498331D01*
X188094507Y-125406510D01*
X187827923Y-125144174D01*
X187638636Y-125328356D01*
X187606107Y-125359870D01*
X187535573Y-125426293D01*
X187483918Y-125470473D01*
X187445159Y-125496708D01*
X187413319Y-125509297D01*
X187382416Y-125512538D01*
X187343857Y-125507864D01*
X187276815Y-125474187D01*
X187230039Y-125415581D01*
X187212462Y-125341060D01*
X187213021Y-125326226D01*
X187219565Y-125295780D01*
X187236964Y-125262363D01*
X187269555Y-125219956D01*
X187321677Y-125162539D01*
X187397666Y-125084096D01*
X187582870Y-124895590D01*
X187373243Y-124686835D01*
X187163616Y-124478080D01*
X186976040Y-124663155D01*
X186974077Y-124665091D01*
X186894429Y-124742160D01*
X186835635Y-124794831D01*
X186792110Y-124827282D01*
X186758268Y-124843689D01*
X186728522Y-124848230D01*
X186659926Y-124841984D01*
X186611868Y-124817654D01*
X186576739Y-124768679D01*
X186571751Y-124758823D01*
X186554655Y-124715931D01*
X186551505Y-124676765D01*
X186565223Y-124635247D01*
X186598735Y-124585298D01*
X186654963Y-124520840D01*
X186736830Y-124435793D01*
X186925506Y-124243753D01*
X186788514Y-124099535D01*
X186722617Y-124026921D01*
X186671287Y-123958788D01*
X186645123Y-123902640D01*
X186642699Y-123871260D01*
X187046544Y-123871260D01*
X187738819Y-124563741D01*
X188431094Y-125256222D01*
X188496213Y-125199047D01*
X188544822Y-125161960D01*
X188622100Y-125127749D01*
X188691164Y-125129564D01*
X188695373Y-125132195D01*
X188724637Y-125157362D01*
X188778151Y-125207051D01*
X188853517Y-125278927D01*
X188948340Y-125370651D01*
X189060223Y-125479889D01*
X189186769Y-125604304D01*
X189325582Y-125741558D01*
X189474264Y-125889316D01*
X189630420Y-126045241D01*
X189721781Y-126136727D01*
X189893458Y-126309000D01*
X190040039Y-126456718D01*
X190163366Y-126581836D01*
X190265283Y-126686310D01*
X190347633Y-126772094D01*
X190412257Y-126841143D01*
X190460999Y-126895412D01*
X190495701Y-126936855D01*
X190518207Y-126967429D01*
X190530359Y-126989087D01*
X190534000Y-127003785D01*
X190531938Y-127018576D01*
X190513843Y-127070729D01*
X190480869Y-127140691D01*
X190437620Y-127218218D01*
X190401471Y-127280317D01*
X190281621Y-127527537D01*
X190200006Y-127776129D01*
X190155981Y-128028486D01*
X190148898Y-128287000D01*
X190160714Y-128432250D01*
X190203869Y-128649895D01*
X190277652Y-128845635D01*
X190383250Y-129022325D01*
X190521853Y-129182823D01*
X190533129Y-129193807D01*
X190705619Y-129333174D01*
X190898638Y-129440194D01*
X191108755Y-129513308D01*
X191332536Y-129550958D01*
X191410416Y-129559191D01*
X191464440Y-129570899D01*
X191502894Y-129589794D01*
X191537752Y-129619899D01*
X191541545Y-129623687D01*
X191562998Y-129646268D01*
X191577182Y-129668224D01*
X191584153Y-129696069D01*
X191583968Y-129736317D01*
X191576684Y-129795481D01*
X191562359Y-129880076D01*
X191541049Y-129996615D01*
X191535871Y-130026328D01*
X191513184Y-130243789D01*
X191513078Y-130472162D01*
X191534564Y-130700130D01*
X191576653Y-130916377D01*
X191638355Y-131109586D01*
X191672707Y-131190046D01*
X191795804Y-131416123D01*
X191946681Y-131615283D01*
X192124073Y-131786585D01*
X192326715Y-131929092D01*
X192553341Y-132041864D01*
X192802687Y-132123963D01*
X193073488Y-132174450D01*
X193088181Y-132176192D01*
X193180840Y-132185162D01*
X193269673Y-132190874D01*
X193337257Y-132192157D01*
X193551977Y-132177184D01*
X193855434Y-132124214D01*
X194152326Y-132036212D01*
X194439933Y-131915533D01*
X194715538Y-131764529D01*
X194976424Y-131585551D01*
X195219871Y-131380953D01*
X195443163Y-131153087D01*
X195643581Y-130904305D01*
X195818408Y-130636960D01*
X195964925Y-130353405D01*
X196080415Y-130055991D01*
X196162160Y-129747071D01*
X196172447Y-129690255D01*
X196190742Y-129540958D01*
X196201037Y-129377628D01*
X196203033Y-129213269D01*
X196196428Y-129060883D01*
X196180925Y-128933473D01*
X196122391Y-128694550D01*
X196027265Y-128452244D01*
X195901275Y-128232851D01*
X195745801Y-128037833D01*
X195562221Y-127868650D01*
X195351914Y-127726763D01*
X195116260Y-127613632D01*
X194856637Y-127530717D01*
X194788335Y-127517192D01*
X194657116Y-127502412D01*
X194505082Y-127495210D01*
X194342886Y-127495481D01*
X194181178Y-127503120D01*
X194030610Y-127518024D01*
X193901834Y-127540088D01*
X193850953Y-127551063D01*
X193744602Y-127568539D01*
X193667374Y-127568329D01*
X193613750Y-127547161D01*
X193578214Y-127501767D01*
X193555248Y-127428874D01*
X193539335Y-127325214D01*
X193514378Y-127174384D01*
X193448907Y-126954896D01*
X193352234Y-126758051D01*
X193225345Y-126585108D01*
X193069230Y-126437326D01*
X192884877Y-126315964D01*
X192673274Y-126222280D01*
X192646233Y-126212834D01*
X192589363Y-126194566D01*
X192537567Y-126181995D01*
X192482016Y-126174104D01*
X192413880Y-126169879D01*
X192324331Y-126168303D01*
X192204539Y-126168361D01*
X192201121Y-126168375D01*
X192079086Y-126169470D01*
X191986362Y-126172334D01*
X191913421Y-126178036D01*
X191850736Y-126187640D01*
X191788780Y-126202214D01*
X191718024Y-126222824D01*
X191563780Y-126276436D01*
X191369571Y-126360918D01*
X191157219Y-126470917D01*
X191146273Y-126476957D01*
X191089313Y-126506602D01*
X191051384Y-126519232D01*
X191019675Y-126517164D01*
X190981373Y-126502715D01*
X190968891Y-126494681D01*
X190926576Y-126459525D01*
X190859575Y-126398853D01*
X190769526Y-126314243D01*
X190658067Y-126207272D01*
X190526835Y-126079518D01*
X190377469Y-125932558D01*
X190211606Y-125767969D01*
X190030885Y-125587329D01*
X189977441Y-125533728D01*
X189806806Y-125362470D01*
X189661256Y-125216060D01*
X189538802Y-125092339D01*
X189437453Y-124989147D01*
X189355221Y-124904324D01*
X189290115Y-124835713D01*
X189240146Y-124781154D01*
X189203324Y-124738488D01*
X189177658Y-124705555D01*
X189161160Y-124680197D01*
X189151839Y-124660254D01*
X189147705Y-124643568D01*
X189146770Y-124627978D01*
X189149017Y-124595679D01*
X189168528Y-124540610D01*
X189214079Y-124480763D01*
X189281389Y-124406259D01*
X188588825Y-123713901D01*
X187896261Y-123021544D01*
X187471403Y-123446402D01*
X187046544Y-123871260D01*
X186642699Y-123871260D01*
X186641198Y-123851824D01*
X186656585Y-123799688D01*
X186660319Y-123793475D01*
X186688438Y-123758851D01*
X186740214Y-123701259D01*
X186812544Y-123623952D01*
X186902327Y-123530179D01*
X187006461Y-123423191D01*
X187121845Y-123306240D01*
X187245376Y-123182577D01*
X187312580Y-123115642D01*
X187450971Y-122977788D01*
X187565665Y-122864777D01*
X187659803Y-122775049D01*
X187736526Y-122707042D01*
X187798972Y-122659196D01*
X187850282Y-122629948D01*
X187893597Y-122617738D01*
X187932056Y-122621005D01*
X187968800Y-122638187D01*
X188006968Y-122667724D01*
X188049701Y-122708053D01*
X188100139Y-122757615D01*
X188141112Y-122796660D01*
X188196505Y-122847043D01*
X188237754Y-122881572D01*
X188258087Y-122894384D01*
X188260656Y-122893490D01*
X188286240Y-122874225D01*
X188332381Y-122833647D01*
X188393473Y-122776809D01*
X188463909Y-122708769D01*
X188468307Y-122704450D01*
X188547648Y-122628076D01*
X188606205Y-122575924D01*
X188649571Y-122543830D01*
X188683337Y-122527628D01*
X188713097Y-122523154D01*
X188744152Y-122525986D01*
X188812658Y-122556103D01*
X188859675Y-122612666D01*
X188877139Y-122687592D01*
X188875670Y-122715551D01*
X188867764Y-122745529D01*
X188849066Y-122778494D01*
X188815247Y-122820484D01*
X188761977Y-122877540D01*
X188684925Y-122955700D01*
X188492712Y-123148638D01*
X188701948Y-123357874D01*
X188911184Y-123567110D01*
X189104394Y-123377286D01*
X189161978Y-123321121D01*
X189225475Y-123261524D01*
X189271973Y-123222665D01*
X189307486Y-123200237D01*
X189338028Y-123189938D01*
X189369613Y-123187461D01*
X189402955Y-123190326D01*
X189473259Y-123220057D01*
X189520353Y-123276727D01*
X189537539Y-123353708D01*
X189536614Y-123373284D01*
X189529309Y-123403655D01*
X189511103Y-123437423D01*
X189477735Y-123480566D01*
X189424942Y-123539063D01*
X189348461Y-123618891D01*
X189159384Y-123813745D01*
X189426615Y-124083438D01*
X189523239Y-124181950D01*
X189601264Y-124265623D01*
X189654887Y-124331236D01*
X189686089Y-124383422D01*
X189696849Y-124426814D01*
X189689149Y-124466045D01*
X189664969Y-124505748D01*
X189626288Y-124550556D01*
X189558730Y-124623538D01*
X190311814Y-125377541D01*
X191064897Y-126131545D01*
X191214641Y-126056072D01*
X191351444Y-125994476D01*
X191516131Y-125933069D01*
X191685802Y-125880548D01*
X191843077Y-125842811D01*
X191872009Y-125837786D01*
X191983951Y-125825667D01*
X192116184Y-125819498D01*
X192256906Y-125819144D01*
X192394314Y-125824470D01*
X192516607Y-125835341D01*
X192611983Y-125851621D01*
X192656977Y-125863005D01*
X192875207Y-125934107D01*
X193068617Y-126027628D01*
X193246124Y-126148558D01*
X193416644Y-126301887D01*
X193428313Y-126313680D01*
X193514002Y-126404420D01*
X193579150Y-126483796D01*
X193632633Y-126563579D01*
X193683325Y-126655538D01*
X193684876Y-126658571D01*
X193737891Y-126770473D01*
X193784624Y-126884170D01*
X193821915Y-126990664D01*
X193846607Y-127080959D01*
X193855539Y-127146058D01*
X193857096Y-127170607D01*
X193866937Y-127185803D01*
X193892609Y-127190428D01*
X193941654Y-127185698D01*
X194021616Y-127172828D01*
X194062246Y-127167110D01*
X194175173Y-127157993D01*
X194309962Y-127153696D01*
X194454968Y-127154086D01*
X194598544Y-127159031D01*
X194729046Y-127168399D01*
X194834829Y-127182058D01*
X195047834Y-127230026D01*
X195308871Y-127320548D01*
X195547529Y-127440212D01*
X195762920Y-127586784D01*
X195954152Y-127758031D01*
X196120338Y-127951720D01*
X196260587Y-128165618D01*
X196374009Y-128397491D01*
X196459716Y-128645107D01*
X196516817Y-128906232D01*
X196544423Y-129178632D01*
X196544081Y-129213269D01*
X196541645Y-129460076D01*
G37*
D12*
%TO.C,JP1*%
X151425000Y-126425000D02*
X151425000Y-125025000D01*
X152125000Y-124325000D02*
X152725000Y-124325000D01*
X152725000Y-127125000D02*
X152125000Y-127125000D01*
X153425000Y-125025000D02*
X153425000Y-126425000D01*
X151425000Y-125025000D02*
G75*
G02*
X152125000Y-124325000I700000J0D01*
G01*
X152125000Y-127125000D02*
G75*
G02*
X151425000Y-126425000I-1J699999D01*
G01*
X152725000Y-124325000D02*
G75*
G02*
X153425000Y-125025000I0J-700000D01*
G01*
X153425000Y-126425000D02*
G75*
G02*
X152725000Y-127125000I-699999J-1D01*
G01*
%TO.C,JP6*%
X171924999Y-134425000D02*
X171924999Y-133825000D01*
X172574999Y-133125000D02*
X175374999Y-133125000D01*
X174874999Y-135625000D02*
X175174999Y-135325000D01*
X174874999Y-135625000D02*
X175474999Y-135625000D01*
X175374999Y-135125000D02*
X172574999Y-135125000D01*
X175474999Y-135625000D02*
X175174999Y-135325000D01*
X176024999Y-133825000D02*
X176024999Y-134425000D01*
X171924999Y-133825000D02*
G75*
G02*
X172624999Y-133125000I700000J0D01*
G01*
X172624999Y-135125000D02*
G75*
G02*
X171924999Y-134425000I0J700000D01*
G01*
X175324999Y-133125000D02*
G75*
G02*
X176024999Y-133825000I1J-699999D01*
G01*
X176024999Y-134425000D02*
G75*
G02*
X175324999Y-135125000I-699999J-1D01*
G01*
%TD*%
M02*
