M48
; DRILL file {KiCad 8.0.8} date 2025-03-15T04:19:04-0400
; FORMAT={-:-/ absolute / inch / decimal}
; #@! TF.CreationDate,2025-03-15T04:19:04-04:00
; #@! TF.GenerationSoftware,Kicad,Pcbnew,8.0.8
; #@! TF.FileFunction,Plated,1,4,PTH
FMAT,2
INCH
; #@! TA.AperFunction,Plated,PTH,ViaDrill
T1C0.0157
; #@! TA.AperFunction,Plated,PTH,ComponentDrill
T2C0.0157
; #@! TA.AperFunction,Plated,PTH,ViaDrill
T3C0.0236
; #@! TA.AperFunction,Plated,PTH,ComponentDrill
T4C0.0315
; #@! TA.AperFunction,Plated,PTH,ComponentDrill
T5C0.0354
; #@! TA.AperFunction,Plated,PTH,ViaDrill
T6C0.0394
; #@! TA.AperFunction,Plated,PTH,ComponentDrill
T7C0.0394
; #@! TA.AperFunction,Plated,PTH,ComponentDrill
T8C0.0866
%
G90
G05
T1
X5.9656Y-4.2264
X5.9656Y-4.2736
X5.9744Y-4.8661
X5.9764Y-4.6191
X5.9764Y-4.6663
X5.9774Y-5.4528
X5.9783Y-5.0256
X6.0217Y-4.8661
X6.0236Y-4.6191
X6.0236Y-4.6663
X6.0256Y-5.0256
X6.0709Y-4.5719
X6.0709Y-4.6191
X6.0709Y-4.6663
X6.0709Y-4.7136
X6.0709Y-4.8642
X6.0719Y-4.9203
X6.0719Y-4.9754
X6.0719Y-5.0256
X6.0728Y-4.8185
X6.0965Y-4.2382
X6.1181Y-5.4518
X6.1191Y-4.9203
X6.1191Y-4.9754
X6.1191Y-5.0256
X6.1191Y-5.0778
X6.1535Y-4.1673
X6.1585Y-4.253
X6.19Y-4.4902
X6.2028Y-4.9035
X6.2087Y-4.3337
X6.2096Y-4.1703
X6.2126Y-4.7653
X6.2303Y-4.2126
X6.2343Y-4.4902
X6.2785Y-4.2382
X6.2805Y-4.4744
X6.2825Y-4.435
X6.3327Y-4.2382
X6.3327Y-4.2854
X6.3711Y-4.3701
X6.3711Y-4.4921
X6.3799Y-4.2382
X6.3804Y-5.384
X6.4183Y-4.3701
X6.4183Y-4.4921
X6.4183Y-5.4075
X6.4272Y-4.2382
X6.44Y-4.9429
X6.4685Y-5.0689
X6.4695Y-4.3696
X6.4744Y-4.2382
X6.4872Y-4.8307
X6.5079Y-5.0689
X6.5472Y-5.0295
X6.5472Y-5.0689
X6.5472Y-5.1083
X6.5472Y-5.1476
X6.5472Y-5.1841
X6.5492Y-4.3543
X6.5502Y-5.3406
X6.5512Y-5.3799
X6.5512Y-5.4193
X6.5866Y-5.0295
X6.5866Y-5.0689
X6.5866Y-5.1083
X6.5866Y-5.1476
X6.5866Y-5.1841
X6.5896Y-5.3406
X6.5906Y-5.3799
X6.5906Y-5.4193
X6.5955Y-4.7657
X6.626Y-5.0295
X6.626Y-5.0689
X6.626Y-5.1083
X6.626Y-5.1476
X6.626Y-5.1841
X6.6289Y-4.3553
X6.6289Y-5.3406
X6.6299Y-4.0715
X6.6299Y-5.3799
X6.6299Y-5.4193
X6.6427Y-4.4052
X6.6437Y-4.9656
X6.6791Y-4.5394
X6.6791Y-4.5866
X6.7096Y-4.3711
X6.7106Y-4.0699
X6.7274Y-4.5394
X6.7274Y-4.5866
X6.753Y-5.3268
X6.753Y-5.3819
X6.7648Y-5.188
X6.7707Y-5.4203
X6.7923Y-4.2028
X6.8415Y-4.3228
X6.8681Y-5.123
X6.9006Y-4.5374
X6.9006Y-4.5846
X6.9006Y-4.6339
X6.9006Y-4.6811
X6.9104Y-4.2854
X6.9104Y-4.7569
X6.9104Y-4.7963
X6.9104Y-4.8356
X6.9104Y-4.875
X6.935Y-5.377
X6.9478Y-4.6339
X6.9478Y-4.6811
X6.9488Y-4.5374
X6.9488Y-4.5846
X6.9695Y-4.7569
X6.9695Y-4.7963
X6.9695Y-4.8356
X6.9695Y-4.875
X6.9951Y-4.5394
X6.9951Y-4.5866
X6.9951Y-4.6339
X6.9951Y-4.6811
X7.0246Y-4.7569
X7.0246Y-4.7963
X7.0246Y-4.8356
X7.0246Y-4.875
X7.0379Y-5.0422
X7.0379Y-5.0894
X7.0379Y-5.1367
X7.0379Y-5.1839
X7.0379Y-5.2312
X7.0423Y-4.5394
X7.0423Y-4.5866
X7.0423Y-4.6339
X7.0423Y-4.6811
X7.0851Y-5.3257
X7.1073Y-4.2854
X7.1324Y-5.3257
X7.1339Y-5.1476
X7.1796Y-5.3257
X7.2126Y-4.8415
X7.2126Y-4.8809
X7.2126Y-4.9203
X7.2126Y-4.9596
X7.2136Y-4.7264
X7.2146Y-4.7844
X7.2268Y-5.0422
X7.2268Y-5.0894
X7.2268Y-5.1367
X7.2268Y-5.1839
X7.2268Y-5.2312
X7.2268Y-5.2784
X7.2268Y-5.3257
X7.2313Y-4.5394
X7.2313Y-4.5866
X7.2313Y-4.6339
X7.2741Y-5.0422
X7.2741Y-5.0894
X7.2741Y-5.1367
X7.2741Y-5.1839
X7.2741Y-5.2312
X7.2741Y-5.2784
X7.2741Y-5.3257
X7.2785Y-4.5866
X7.2785Y-4.6339
X7.2785Y-4.6811
X7.2844Y-4.3258
X7.3504Y-4.2697
X7.3645Y-4.4872
X7.373Y-4.189
X7.3991Y-4.4356
X7.4186Y-4.1739
X7.4213Y-4.3445
X7.4213Y-4.3996
X7.4764Y-4.4104
X7.498Y-4.4626
X7.5571Y-4.5906
X7.5787Y-4.4249
X7.5945Y-4.3612
X7.607Y-4.4978
X7.6673Y-4.188
X7.6789Y-4.4442
X7.689Y-4.8445
X7.6909Y-4.7648
X7.7205Y-4.5039
X7.7626Y-4.3857
X7.7667Y-4.5108
X7.81Y-4.5128
X7.81Y-4.8898
X7.8111Y-4.187
X7.8199Y-4.6841
X7.8278Y-4.9567
X7.8287Y-5.0256
X7.8553Y-4.3317
X7.8612Y-4.9262
X7.8632Y-4.9882
X7.8976Y-4.2146
X7.9449Y-4.5728
X7.9705Y-4.6191
X7.9724Y-4.6644
X7.9744Y-4.7657
X7.9783Y-4.2195
X7.9843Y-4.9213
X8.0065Y-4.9583
X8.0276Y-4.7657
X8.0482Y-4.9587
X8.0502Y-4.6781
X8.0561Y-4.2205
X8.0748Y-4.4675
X8.0787Y-4.9154
X8.0866Y-4.5089
X8.1058Y-4.7908
X8.1122Y-4.6988
X8.1142Y-4.4685
X8.1339Y-5.0728
X8.1457Y-4.7638
X8.1811Y-4.7904
X8.187Y-4.6693
X8.189Y-4.2539
X8.2057Y-5.0069
X8.2224Y-4.7992
X8.2234Y-4.5768
X8.2352Y-4.4941
X8.2451Y-4.5344
X8.2638Y-4.5728
X8.2648Y-4.253
X8.2697Y-4.6801
X8.2717Y-4.4616
X8.3219Y-4.9498
X8.4114Y-4.8317
X8.4222Y-4.4537
X8.4222Y-4.4872
X8.4222Y-4.6319
X8.497Y-4.5315
X8.5384Y-4.7825
X8.5728Y-4.5335
X8.6398Y-4.6516
X8.6575Y-4.8012
X8.6575Y-5.1585
X8.6801Y-5.2697
X8.7185Y-5.1585
X8.7392Y-5.2657
X8.7559Y-4.6083
X8.7717Y-4.9626
T2
X6.9006Y-4.9587
X6.997Y-5.4124
X7.5738Y-4.2313
X7.5738Y-4.2904
X7.626Y-4.2313
X7.6329Y-4.2894
X7.7156Y-4.625
X7.753Y-4.6053
X7.7953Y-4.5856
X8.2441Y-5.0443
X8.3002Y-5.0394
T3
X5.9656Y-4.3839
X5.9665Y-4.3327
X6.0906Y-4.3258
X6.0925Y-4.3848
T4
X6.001Y-4.7323
X6.001Y-4.811
X6.0015Y-4.4774
X6.0015Y-4.5561
X6.8671Y-4.0364
X6.8671Y-4.1152
X7.0848Y-4.0364
X7.0848Y-4.1152
X7.3026Y-4.0364
X7.3026Y-4.1152
X7.5203Y-4.0364
X7.5203Y-4.1152
X7.738Y-4.0364
X7.738Y-4.1152
X7.9557Y-4.0364
X7.9557Y-4.1152
X8.9577Y-4.2126
X8.9577Y-4.2913
X8.9577Y-4.3701
X8.9577Y-4.4488
X8.9577Y-4.5276
X8.9577Y-4.6063
X8.9587Y-4.8406
X8.9587Y-4.9193
X8.9587Y-4.998
X8.9587Y-5.0768
X8.9587Y-5.1555
X8.9587Y-5.2343
T6
X6.3947Y-4.4301
X6.5896Y-5.2628
T7
X6.0276Y-5.0915
X6.0276Y-5.19
X6.0276Y-5.2884
X6.0276Y-5.3868
X6.8159Y-4.4553
X6.8159Y-4.5553
X6.8159Y-4.6553
X6.8159Y-4.7553
X6.8159Y-4.8553
X7.1358Y-4.4557
X7.1358Y-4.5557
X7.1358Y-4.6557
X7.1358Y-4.7557
X7.1358Y-4.8557
X7.7783Y-5.2672
X7.7783Y-5.3672
X7.8783Y-5.2672
X7.8783Y-5.3672
X7.9783Y-5.2672
X7.9783Y-5.3672
X8.0783Y-5.2672
X8.0783Y-5.3672
X8.125Y-4.0289
X8.125Y-4.1289
X8.1783Y-5.2672
X8.1783Y-5.3672
X8.225Y-4.0289
X8.225Y-4.1289
X8.325Y-4.0289
X8.325Y-4.1289
X8.425Y-4.0289
X8.425Y-4.1289
X8.4744Y-5.0984
X8.4744Y-5.1984
X8.5667Y-4.0325
X8.6667Y-4.0325
X8.7667Y-4.0325
T8
X6.003Y-4.0335
X8.9488Y-4.0413
X8.9498Y-5.4065
T5
G00X6.2451Y-4.0061
M15
G01X6.2451Y-4.0218
M16
G05
G00X6.5561Y-4.0061
M15
G01X6.5561Y-4.0218
M16
G05
M30
