%TF.GenerationSoftware,KiCad,Pcbnew,8.0.8*%
%TF.CreationDate,2025-03-17T17:43:28-04:00*%
%TF.ProjectId,tuner time,74756e65-7220-4746-996d-652e6b696361,rev?*%
%TF.SameCoordinates,Original*%
%TF.FileFunction,Paste,Top*%
%TF.FilePolarity,Positive*%
%FSLAX46Y46*%
G04 Gerber Fmt 4.6, Leading zero omitted, Abs format (unit mm)*
G04 Created by KiCad (PCBNEW 8.0.8) date 2025-03-17 17:43:28*
%MOMM*%
%LPD*%
G01*
G04 APERTURE LIST*
G04 Aperture macros list*
%AMRoundRect*
0 Rectangle with rounded corners*
0 $1 Rounding radius*
0 $2 $3 $4 $5 $6 $7 $8 $9 X,Y pos of 4 corners*
0 Add a 4 corners polygon primitive as box body*
4,1,4,$2,$3,$4,$5,$6,$7,$8,$9,$2,$3,0*
0 Add four circle primitives for the rounded corners*
1,1,$1+$1,$2,$3*
1,1,$1+$1,$4,$5*
1,1,$1+$1,$6,$7*
1,1,$1+$1,$8,$9*
0 Add four rect primitives between the rounded corners*
20,1,$1+$1,$2,$3,$4,$5,0*
20,1,$1+$1,$4,$5,$6,$7,0*
20,1,$1+$1,$6,$7,$8,$9,0*
20,1,$1+$1,$8,$9,$2,$3,0*%
%AMFreePoly0*
4,1,21,-0.300000,0.050000,-0.296194,0.069134,-0.285355,0.085355,-0.269134,0.096194,-0.250000,0.100000,0.250000,0.100000,0.269134,0.096194,0.285355,0.085355,0.296194,0.069134,0.300000,0.050000,0.300000,-0.050000,0.296194,-0.069134,0.285355,-0.085355,0.269134,-0.096194,0.250000,-0.100000,-0.250000,-0.100000,-0.269134,-0.096194,-0.285355,-0.085355,-0.296194,-0.069134,-0.300000,-0.050000,
-0.300000,0.050000,-0.300000,0.050000,$1*%
G04 Aperture macros list end*
%ADD10C,0.000000*%
%ADD11RoundRect,0.075000X0.700000X0.075000X-0.700000X0.075000X-0.700000X-0.075000X0.700000X-0.075000X0*%
%ADD12RoundRect,0.075000X0.075000X0.700000X-0.075000X0.700000X-0.075000X-0.700000X0.075000X-0.700000X0*%
%ADD13R,1.003300X0.558800*%
%ADD14RoundRect,0.050000X0.050000X0.137500X-0.050000X0.137500X-0.050000X-0.137500X0.050000X-0.137500X0*%
%ADD15RoundRect,0.270000X0.270000X0.605000X-0.270000X0.605000X-0.270000X-0.605000X0.270000X-0.605000X0*%
%ADD16FreePoly0,180.000000*%
%ADD17R,0.203200X0.660400*%
%ADD18R,1.600200X0.990600*%
%ADD19R,1.400000X2.100000*%
%ADD20R,0.457200X1.371600*%
%ADD21R,1.422400X1.549400*%
%ADD22R,0.889000X1.905000*%
%ADD23R,0.901700X1.397000*%
%ADD24R,1.778000X1.270000*%
%ADD25RoundRect,0.250000X-0.450000X0.325000X-0.450000X-0.325000X0.450000X-0.325000X0.450000X0.325000X0*%
%ADD26RoundRect,0.250000X-0.325000X-0.450000X0.325000X-0.450000X0.325000X0.450000X-0.325000X0.450000X0*%
%ADD27R,1.600000X2.800000*%
%ADD28R,0.635000X0.406400*%
%ADD29RoundRect,0.250000X-0.450000X0.262500X-0.450000X-0.262500X0.450000X-0.262500X0.450000X0.262500X0*%
%ADD30RoundRect,0.250000X0.250000X0.475000X-0.250000X0.475000X-0.250000X-0.475000X0.250000X-0.475000X0*%
%ADD31RoundRect,0.250000X0.450000X-0.262500X0.450000X0.262500X-0.450000X0.262500X-0.450000X-0.262500X0*%
%ADD32RoundRect,0.250000X0.475000X-0.250000X0.475000X0.250000X-0.475000X0.250000X-0.475000X-0.250000X0*%
%ADD33RoundRect,0.250000X0.262500X0.450000X-0.262500X0.450000X-0.262500X-0.450000X0.262500X-0.450000X0*%
%ADD34RoundRect,0.250000X-0.475000X0.250000X-0.475000X-0.250000X0.475000X-0.250000X0.475000X0.250000X0*%
%ADD35RoundRect,0.250000X-0.250000X-0.475000X0.250000X-0.475000X0.250000X0.475000X-0.250000X0.475000X0*%
%ADD36RoundRect,0.250000X0.650000X-0.412500X0.650000X0.412500X-0.650000X0.412500X-0.650000X-0.412500X0*%
%ADD37RoundRect,0.112500X-0.237500X0.112500X-0.237500X-0.112500X0.237500X-0.112500X0.237500X0.112500X0*%
%ADD38RoundRect,0.075000X0.175000X0.075000X-0.175000X0.075000X-0.175000X-0.075000X0.175000X-0.075000X0*%
%ADD39RoundRect,0.050000X-0.050000X0.370000X-0.050000X-0.370000X0.050000X-0.370000X0.050000X0.370000X0*%
%ADD40RoundRect,0.250000X-0.262500X-0.450000X0.262500X-0.450000X0.262500X0.450000X-0.262500X0.450000X0*%
%ADD41RoundRect,0.050000X0.050000X-0.370000X0.050000X0.370000X-0.050000X0.370000X-0.050000X-0.370000X0*%
%ADD42RoundRect,0.170000X0.295000X0.170000X-0.295000X0.170000X-0.295000X-0.170000X0.295000X-0.170000X0*%
%ADD43RoundRect,0.120000X0.345000X0.120000X-0.345000X0.120000X-0.345000X-0.120000X0.345000X-0.120000X0*%
%ADD44R,1.200000X1.200000*%
%ADD45R,1.500000X1.600000*%
%ADD46R,1.000000X0.800000*%
%ADD47R,0.700000X1.500000*%
G04 APERTURE END LIST*
D10*
%TO.C,U5*%
G36*
X165375001Y-130250001D02*
G01*
X163775000Y-130250001D01*
X163775000Y-129949999D01*
X165375001Y-129949999D01*
X165375001Y-130250001D01*
G37*
G36*
X165375001Y-130899999D02*
G01*
X163775000Y-130899999D01*
X163775000Y-130600000D01*
X165375001Y-130600000D01*
X165375001Y-130899999D01*
G37*
G36*
X165375001Y-131550000D02*
G01*
X163775000Y-131550000D01*
X163775000Y-131249998D01*
X165375001Y-131249998D01*
X165375001Y-131550000D01*
G37*
G36*
X165375001Y-132199999D02*
G01*
X163775000Y-132199999D01*
X163775000Y-131900000D01*
X165375001Y-131900000D01*
X165375001Y-132199999D01*
G37*
G36*
X165375001Y-132850000D02*
G01*
X163775000Y-132850000D01*
X163775000Y-132549998D01*
X165375001Y-132549998D01*
X165375001Y-132850000D01*
G37*
G36*
X165375001Y-133499999D02*
G01*
X163775000Y-133499999D01*
X163775000Y-133200000D01*
X165375001Y-133200000D01*
X165375001Y-133499999D01*
G37*
G36*
X165375001Y-134150000D02*
G01*
X163775000Y-134150000D01*
X163775000Y-133849998D01*
X165375001Y-133849998D01*
X165375001Y-134150000D01*
G37*
G36*
X165375001Y-134799999D02*
G01*
X163775000Y-134799999D01*
X163775000Y-134500000D01*
X165375001Y-134500000D01*
X165375001Y-134799999D01*
G37*
G36*
X165375001Y-135450000D02*
G01*
X163775000Y-135450000D01*
X163775000Y-135149998D01*
X165375001Y-135149998D01*
X165375001Y-135450000D01*
G37*
G36*
X165375001Y-136099999D02*
G01*
X163775000Y-136099999D01*
X163775000Y-135800000D01*
X165375001Y-135800000D01*
X165375001Y-136099999D01*
G37*
G36*
X165375001Y-136750000D02*
G01*
X163775000Y-136750000D01*
X163775000Y-136449998D01*
X165375001Y-136449998D01*
X165375001Y-136750000D01*
G37*
G36*
X165375001Y-137399999D02*
G01*
X163775000Y-137399999D01*
X163775000Y-137099999D01*
X165375001Y-137099999D01*
X165375001Y-137399999D01*
G37*
G36*
X168475000Y-133575000D02*
G01*
X166275000Y-133575000D01*
X166275000Y-132134999D01*
X168475000Y-132134999D01*
X168475000Y-133575000D01*
G37*
G36*
X168475000Y-135215001D02*
G01*
X166275000Y-135215001D01*
X166275000Y-133775000D01*
X168475000Y-133775000D01*
X168475000Y-135215001D01*
G37*
G36*
X170975000Y-130250001D02*
G01*
X169374999Y-130250001D01*
X169374999Y-129950001D01*
X170975000Y-129950001D01*
X170975000Y-130250001D01*
G37*
G36*
X170975000Y-130900002D02*
G01*
X169374999Y-130900002D01*
X169374999Y-130600000D01*
X170975000Y-130600000D01*
X170975000Y-130900002D01*
G37*
G36*
X170975000Y-131550000D02*
G01*
X169374999Y-131550000D01*
X169374999Y-131250001D01*
X170975000Y-131250001D01*
X170975000Y-131550000D01*
G37*
G36*
X170975000Y-132200002D02*
G01*
X169374999Y-132200002D01*
X169374999Y-131900000D01*
X170975000Y-131900000D01*
X170975000Y-132200002D01*
G37*
G36*
X170975000Y-132850000D02*
G01*
X169374999Y-132850000D01*
X169374999Y-132550001D01*
X170975000Y-132550001D01*
X170975000Y-132850000D01*
G37*
G36*
X170975000Y-133500002D02*
G01*
X169374999Y-133500002D01*
X169374999Y-133200000D01*
X170975000Y-133200000D01*
X170975000Y-133500002D01*
G37*
G36*
X170975000Y-134150000D02*
G01*
X169374999Y-134150000D01*
X169374999Y-133850001D01*
X170975000Y-133850001D01*
X170975000Y-134150000D01*
G37*
G36*
X170975000Y-134800002D02*
G01*
X169374999Y-134800002D01*
X169374999Y-134500000D01*
X170975000Y-134500000D01*
X170975000Y-134800002D01*
G37*
G36*
X170975000Y-135450000D02*
G01*
X169374999Y-135450000D01*
X169374999Y-135150001D01*
X170975000Y-135150001D01*
X170975000Y-135450000D01*
G37*
G36*
X170975000Y-136100002D02*
G01*
X169374999Y-136100002D01*
X169374999Y-135800000D01*
X170975000Y-135800000D01*
X170975000Y-136100002D01*
G37*
G36*
X170975000Y-136750000D02*
G01*
X169374999Y-136750000D01*
X169374999Y-136450001D01*
X170975000Y-136450001D01*
X170975000Y-136750000D01*
G37*
G36*
X170975000Y-137400001D02*
G01*
X169374999Y-137400001D01*
X169374999Y-137099999D01*
X170975000Y-137099999D01*
X170975000Y-137400001D01*
G37*
%TD*%
D11*
%TO.C,U7*%
X211525000Y-121475000D03*
X211525000Y-120975000D03*
X211525000Y-120475000D03*
X211525000Y-119975000D03*
X211525000Y-119475000D03*
X211525000Y-118975000D03*
X211525000Y-118475000D03*
X211525000Y-117975000D03*
X211525000Y-117475000D03*
X211525000Y-116975000D03*
X211525000Y-116475000D03*
X211525000Y-115975000D03*
X211525000Y-115475000D03*
X211525000Y-114975000D03*
X211525000Y-114475000D03*
X211525000Y-113975000D03*
D12*
X209600000Y-112050000D03*
X209100000Y-112050000D03*
X208600000Y-112050000D03*
X208100000Y-112050000D03*
X207600000Y-112050000D03*
X207100000Y-112050000D03*
X206600000Y-112050000D03*
X206100000Y-112050000D03*
X205600000Y-112050000D03*
X205100000Y-112050000D03*
X204600000Y-112050000D03*
X204100000Y-112050000D03*
X203600000Y-112050000D03*
X203100000Y-112050000D03*
X202600000Y-112050000D03*
X202100000Y-112050000D03*
D11*
X200175000Y-113975000D03*
X200175000Y-114475000D03*
X200175000Y-114975000D03*
X200175000Y-115475000D03*
X200175000Y-115975000D03*
X200175000Y-116475000D03*
X200175000Y-116975000D03*
X200175000Y-117475000D03*
X200175000Y-117975000D03*
X200175000Y-118475000D03*
X200175000Y-118975000D03*
X200175000Y-119475000D03*
X200175000Y-119975000D03*
X200175000Y-120475000D03*
X200175000Y-120975000D03*
X200175000Y-121475000D03*
D12*
X202100000Y-123400000D03*
X202600000Y-123400000D03*
X203100000Y-123400000D03*
X203600000Y-123400000D03*
X204100000Y-123400000D03*
X204600000Y-123400000D03*
X205100000Y-123400000D03*
X205600000Y-123400000D03*
X206100000Y-123400000D03*
X206600000Y-123400000D03*
X207100000Y-123400000D03*
X207600000Y-123400000D03*
X208100000Y-123400000D03*
X208600000Y-123400000D03*
X209100000Y-123400000D03*
X209600000Y-123400000D03*
%TD*%
D13*
%TO.C,U4*%
X198402550Y-109925000D03*
X198402550Y-108875000D03*
X198402550Y-107825000D03*
X195697450Y-107825000D03*
X195697450Y-108875000D03*
X195697450Y-109925000D03*
%TD*%
%TO.C,U3*%
X179377550Y-109900000D03*
X179377550Y-108850000D03*
X179377550Y-107800000D03*
X176672450Y-107800000D03*
X176672450Y-108850000D03*
X176672450Y-109900000D03*
%TD*%
D14*
%TO.C,U2*%
X163557500Y-113792500D03*
X163557500Y-111267500D03*
D15*
X163072500Y-112530000D03*
X161792500Y-112530000D03*
D14*
X161307500Y-113792500D03*
X161307500Y-111267500D03*
D16*
X164332500Y-113530000D03*
X164332500Y-113130000D03*
X164332500Y-112730000D03*
X164332500Y-112330000D03*
X164332500Y-111930000D03*
X164332500Y-111530000D03*
X160532500Y-111530000D03*
X160532500Y-111930000D03*
X160532500Y-112330000D03*
X160532500Y-112730000D03*
X160532500Y-113130000D03*
X160532500Y-113530000D03*
%TD*%
D17*
%TO.C,U1*%
X155624875Y-109155275D03*
X156024925Y-109155275D03*
X156424975Y-109155275D03*
X156825025Y-109155275D03*
X157225075Y-109155275D03*
X157225075Y-106894675D03*
X156825025Y-106894675D03*
X156424975Y-106894675D03*
X156024925Y-106894675D03*
X155624875Y-106894675D03*
D18*
X156424975Y-108024975D03*
%TD*%
D19*
%TO.C,SW8*%
X218475000Y-131025000D03*
X222975000Y-131025000D03*
X218475000Y-121925000D03*
X222975000Y-121925000D03*
%TD*%
D20*
%TO.C,J11*%
X161275000Y-104618500D03*
X163875000Y-104618500D03*
D21*
X165037499Y-104529600D03*
X160112501Y-104529600D03*
D22*
X163762500Y-101954299D03*
X161387500Y-101954299D03*
%TD*%
D23*
%TO.C,F2*%
X155529650Y-104600000D03*
X157320350Y-104600000D03*
%TD*%
D24*
%TO.C,F1*%
X181200000Y-126177600D03*
X181200000Y-129022400D03*
%TD*%
D25*
%TO.C,D10*%
X167950000Y-119000000D03*
X167950000Y-121050000D03*
%TD*%
D26*
%TO.C,D9*%
X190305000Y-127175000D03*
X192355000Y-127175000D03*
%TD*%
%TO.C,D8*%
X190305000Y-124675000D03*
X192355000Y-124675000D03*
%TD*%
%TO.C,D7*%
X190305000Y-122175000D03*
X192355000Y-122175000D03*
%TD*%
%TO.C,D6*%
X190305000Y-119675000D03*
X192355000Y-119675000D03*
%TD*%
D25*
%TO.C,D5*%
X156565625Y-118987500D03*
X156565625Y-121037500D03*
%TD*%
%TO.C,D4*%
X158879218Y-118987500D03*
X158879218Y-121037500D03*
%TD*%
%TO.C,D3*%
X161300000Y-118987500D03*
X161300000Y-121037500D03*
%TD*%
%TO.C,D2*%
X165850000Y-118987500D03*
X165850000Y-121037500D03*
%TD*%
%TO.C,D1*%
X163600000Y-118987500D03*
X163600000Y-121037500D03*
%TD*%
D27*
%TO.C,C10*%
X181224999Y-133150002D03*
X181224999Y-137450002D03*
%TD*%
D28*
%TO.C,C7*%
X191834000Y-110791803D03*
X191834000Y-111591804D03*
X191834000Y-112391802D03*
X191834000Y-113191803D03*
X193866000Y-113191803D03*
X193866000Y-112391802D03*
X193866000Y-111591804D03*
X193866000Y-110791803D03*
%TD*%
%TO.C,C6*%
X185009000Y-110775000D03*
X185009000Y-111575001D03*
X185009000Y-112374999D03*
X185009000Y-113175000D03*
X187041000Y-113175000D03*
X187041000Y-112374999D03*
X187041000Y-111575001D03*
X187041000Y-110775000D03*
%TD*%
D29*
%TO.C,R21*%
X167950000Y-115362500D03*
X167950000Y-117187500D03*
%TD*%
D30*
%TO.C,C22*%
X210325000Y-125725000D03*
X208425000Y-125725000D03*
%TD*%
D29*
%TO.C,R7*%
X172500000Y-107950000D03*
X172500000Y-109775000D03*
%TD*%
D31*
%TO.C,R3*%
X161255000Y-117150000D03*
X161255000Y-115325000D03*
%TD*%
D32*
%TO.C,C1*%
X153024975Y-110649975D03*
X153024975Y-108749975D03*
%TD*%
D29*
%TO.C,R1*%
X163581096Y-115325000D03*
X163581096Y-117150000D03*
%TD*%
D33*
%TO.C,R15*%
X159737499Y-126750002D03*
X157912499Y-126750002D03*
%TD*%
D34*
%TO.C,C20*%
X213925000Y-114775000D03*
X213925000Y-116675000D03*
%TD*%
%TO.C,C12*%
X175169665Y-133549998D03*
X175169665Y-135449998D03*
%TD*%
D29*
%TO.C,R18*%
X158119666Y-135037498D03*
X158119666Y-136862498D03*
%TD*%
D35*
%TO.C,C16*%
X215850000Y-116450000D03*
X217750000Y-116450000D03*
%TD*%
D31*
%TO.C,R19*%
X158094666Y-132312498D03*
X158094666Y-130487498D03*
%TD*%
D30*
%TO.C,C15*%
X222375000Y-115975000D03*
X220475000Y-115975000D03*
%TD*%
D33*
%TO.C,R16*%
X159712499Y-128725002D03*
X157887499Y-128725002D03*
%TD*%
D29*
%TO.C,R2*%
X165857189Y-115325000D03*
X165857189Y-117150000D03*
%TD*%
%TO.C,R24*%
X163600000Y-122712500D03*
X163600000Y-124537500D03*
%TD*%
%TO.C,R17*%
X161300000Y-122712500D03*
X161300000Y-124537500D03*
%TD*%
D34*
%TO.C,C8*%
X173150000Y-133549998D03*
X173150000Y-135449998D03*
%TD*%
D32*
%TO.C,C21*%
X202652500Y-110025000D03*
X202652500Y-108125000D03*
%TD*%
D36*
%TO.C,C25*%
X213925000Y-112125000D03*
X213925000Y-109000000D03*
%TD*%
D29*
%TO.C,R6*%
X170450000Y-107950000D03*
X170450000Y-109775000D03*
%TD*%
D35*
%TO.C,C4*%
X165732500Y-111892500D03*
X167632500Y-111892500D03*
%TD*%
D34*
%TO.C,C11*%
X177124999Y-133575000D03*
X177124999Y-135475000D03*
%TD*%
D29*
%TO.C,R5*%
X156625000Y-115325000D03*
X156625000Y-117150000D03*
%TD*%
D37*
%TO.C,U6*%
X215825000Y-118175000D03*
X215825000Y-119475000D03*
X217825000Y-118825000D03*
%TD*%
D38*
%TO.C,U8*%
X163075000Y-106250000D03*
X162075000Y-106250000D03*
%TD*%
D30*
%TO.C,C23*%
X198325000Y-120975000D03*
X196425000Y-120975000D03*
%TD*%
%TO.C,C18*%
X198350000Y-123050000D03*
X196450000Y-123050000D03*
%TD*%
D29*
%TO.C,R4*%
X158912500Y-115325000D03*
X158912500Y-117150000D03*
%TD*%
D39*
%TO.C,RN2*%
X191200000Y-114780000D03*
X190700000Y-114780000D03*
X190200000Y-114780000D03*
X189700000Y-114780000D03*
X189200000Y-114780000D03*
X188700000Y-114780000D03*
X188200000Y-114780000D03*
X187700000Y-114780000D03*
X187700000Y-116570000D03*
X188200000Y-116570000D03*
X188700000Y-116570000D03*
X189200000Y-116570000D03*
X189700000Y-116570000D03*
X190200000Y-116570000D03*
X190700000Y-116570000D03*
X191200000Y-116570000D03*
%TD*%
D31*
%TO.C,R9*%
X166350000Y-109725000D03*
X166350000Y-107900000D03*
%TD*%
D33*
%TO.C,R13*%
X175212499Y-137225002D03*
X173387499Y-137225002D03*
%TD*%
D29*
%TO.C,R10*%
X168400000Y-104487500D03*
X168400000Y-106312500D03*
%TD*%
%TO.C,R11*%
X168400000Y-107925000D03*
X168400000Y-109750000D03*
%TD*%
D35*
%TO.C,C24*%
X208000000Y-109525000D03*
X209900000Y-109525000D03*
%TD*%
D40*
%TO.C,R23*%
X220512500Y-118175000D03*
X222337500Y-118175000D03*
%TD*%
D41*
%TO.C,RN1*%
X187700000Y-109270000D03*
X188200000Y-109270000D03*
X188700000Y-109270000D03*
X189200000Y-109270000D03*
X189700000Y-109270000D03*
X190200000Y-109270000D03*
X190700000Y-109270000D03*
X191200000Y-109270000D03*
X191200000Y-107480000D03*
X190700000Y-107480000D03*
X190200000Y-107480000D03*
X189700000Y-107480000D03*
X189200000Y-107480000D03*
X188700000Y-107480000D03*
X188200000Y-107480000D03*
X187700000Y-107480000D03*
%TD*%
D42*
%TO.C,RN3*%
X187900000Y-124725000D03*
D43*
X187900000Y-123825000D03*
X187900000Y-123025000D03*
D42*
X187900000Y-122125000D03*
X186160000Y-122125000D03*
D43*
X186160000Y-123025000D03*
X186160000Y-123825000D03*
D42*
X186160000Y-124725000D03*
%TD*%
D32*
%TO.C,C3*%
X158975000Y-110700000D03*
X158975000Y-108800000D03*
%TD*%
D31*
%TO.C,R22*%
X204650000Y-109987500D03*
X204650000Y-108162500D03*
%TD*%
%TO.C,R14*%
X158900000Y-124537500D03*
X158900000Y-122712500D03*
%TD*%
%TO.C,R8*%
X156475000Y-112637500D03*
X156475000Y-110812500D03*
%TD*%
D33*
%TO.C,R20*%
X206600000Y-127500000D03*
X204775000Y-127500000D03*
%TD*%
D32*
%TO.C,C9*%
X173150000Y-131825000D03*
X173150000Y-129925000D03*
%TD*%
%TO.C,C5*%
X153024975Y-107324975D03*
X153024975Y-105424975D03*
%TD*%
D35*
%TO.C,C2*%
X162675000Y-109775000D03*
X164575000Y-109775000D03*
%TD*%
D44*
%TO.C,RV1*%
X170350000Y-126250000D03*
D45*
X173600000Y-127250000D03*
D44*
X170350000Y-128250000D03*
%TD*%
D35*
%TO.C,C17*%
X213650000Y-121475000D03*
X215550000Y-121475000D03*
%TD*%
D29*
%TO.C,R12*%
X170450000Y-104462500D03*
X170450000Y-106287500D03*
%TD*%
D32*
%TO.C,C19*%
X200625000Y-110025000D03*
X200625000Y-108125000D03*
%TD*%
D46*
%TO.C,SW9*%
X216075000Y-135820000D03*
X216075000Y-138030000D03*
X223375000Y-135820000D03*
X223375000Y-138030000D03*
D47*
X217475000Y-135170000D03*
X220475000Y-135170000D03*
X221975000Y-135170000D03*
%TD*%
M02*
