M48
; DRILL file {KiCad 8.0.8} date 2025-03-13T15:21:56-0400
; FORMAT={-:-/ absolute / inch / decimal}
; #@! TF.CreationDate,2025-03-13T15:21:56-04:00
; #@! TF.GenerationSoftware,Kicad,Pcbnew,8.0.8
; #@! TF.FileFunction,Plated,1,4,PTH
FMAT,2
INCH
; #@! TA.AperFunction,Plated,PTH,ComponentDrill
T1C0.0010
; #@! TA.AperFunction,Plated,PTH,ViaDrill
T2C0.0079
; #@! TA.AperFunction,Plated,PTH,ComponentDrill
T3C0.0079
; #@! TA.AperFunction,Plated,PTH,ViaDrill
T4C0.0118
; #@! TA.AperFunction,Plated,PTH,ViaDrill
T5C0.0197
; #@! TA.AperFunction,Plated,PTH,ComponentDrill
T6C0.0197
; #@! TA.AperFunction,Plated,PTH,ComponentDrill
T7C0.0315
; #@! TA.AperFunction,Plated,PTH,ComponentDrill
T8C0.0394
; #@! TA.AperFunction,Plated,PTH,ComponentDrill
T9C0.0413
; #@! TA.AperFunction,Plated,PTH,ComponentDrill
T10C0.0866
%
G90
G05
T1
X6.1452Y-4.0671
X6.4562Y-4.0671
T2
X6.1063Y-4.3071
X6.122Y-4.4646
X6.1329Y-4.3145
X6.1594Y-4.3209
X6.2992Y-4.6368
X6.4016Y-4.3278
X6.4045Y-4.2539
X6.4498Y-4.6358
X6.4833Y-4.6083
X6.6437Y-4.8196
X6.6752Y-4.8196
X6.7067Y-4.8196
X6.7382Y-4.8196
X7.1407Y-4.2933
X7.1732Y-4.2933
X7.2047Y-4.2933
X7.2441Y-4.2933
X7.4173Y-4.7165
X7.4193Y-4.6732
X7.4272Y-4.7677
X7.4341Y-4.6339
X7.4353Y-4.6957
X7.5088Y-4.9637
X7.5285Y-5.0748
X7.5512Y-5.1102
X7.5699Y-4.8583
X7.5925Y-4.9724
X7.6083Y-4.8573
X7.6132Y-5.187
X7.627Y-4.4016
X7.7047Y-4.9764
X7.7205Y-4.7539
X7.7303Y-5.2559
X7.7746Y-4.6654
X7.8524Y-4.9754
X7.8819Y-4.5768
X7.8834Y-4.675
X7.8917Y-5.1791
X7.9024Y-4.5951
X8.3337Y-4.4921
X8.6437Y-4.6476
T3
X6.3366Y-4.5704
X6.375Y-4.5418
X6.375Y-4.5704
X6.375Y-4.5989
X6.4134Y-4.5704
T4
X7.4508Y-4.9646
X7.7461Y-4.3917
T5
X8.5315Y-4.6998
T6
X5.7953Y-5.3366
X6.2372Y-5.0098
X6.3268Y-4.9026
X6.3435Y-5.0098
X7.0669Y-3.0512
X7.0669Y-3.189
X7.2343Y-3.4154
X7.2598Y-4.5748
X7.2756Y-4.5039
X7.3362Y-3.0717
X7.4563Y-3.0717
X7.4563Y-3.1917
X7.561Y-3.2657
T7
X6.0217Y-5.3091
X6.0217Y-5.3878
X6.0285Y-4.7234
X6.0285Y-4.8022
X6.2299Y-5.3091
X6.2299Y-5.3878
X6.4382Y-5.3091
X6.4382Y-5.3878
X6.6465Y-5.3091
X6.6465Y-5.3878
X6.8547Y-5.3091
X6.8547Y-5.3878
X7.063Y-5.3091
X7.063Y-5.3878
X7.9528Y-5.4094
X8.0315Y-5.4094
X8.1102Y-5.4094
X8.189Y-5.4094
X8.2677Y-5.4094
X8.3465Y-5.4094
X8.5236Y-5.4094
X8.6024Y-5.4094
X8.6811Y-5.4094
X8.7598Y-5.4094
X8.8386Y-5.4094
X8.9173Y-5.4094
T8
X6.565Y-4.0354
X6.665Y-4.0354
X6.765Y-4.0354
X6.865Y-4.0354
X6.885Y-4.0248
X6.885Y-4.1248
X6.965Y-4.0354
X6.985Y-4.0248
X6.985Y-4.1248
X7.085Y-4.0248
X7.085Y-4.1248
X7.185Y-4.0248
X7.185Y-4.1248
X7.285Y-4.0248
X7.285Y-4.1248
X7.3012Y-5.2193
X7.3012Y-5.3193
X7.3012Y-5.4193
X7.4362Y-5.3504
X7.4362Y-5.4504
X7.5362Y-5.3504
X7.5362Y-5.4504
X7.6362Y-5.3504
X7.6362Y-5.4504
X7.7362Y-5.3504
X7.7362Y-5.4504
X8.9213Y-4.7244
X8.9213Y-4.8228
X8.9213Y-4.9213
X8.9213Y-5.0197
X8.9764Y-4.0209
X8.9764Y-4.1209
X8.9764Y-4.2209
X8.9764Y-4.3209
X8.9764Y-4.4209
T9
X6.0295Y-5.0207
X6.0295Y-5.1191
T10
X6.0128Y-4.0433
X9.2795Y-5.503
M30
