%TF.GenerationSoftware,KiCad,Pcbnew,8.0.8*%
%TF.CreationDate,2025-03-13T15:24:21-04:00*%
%TF.ProjectId,tuner time,74756e65-7220-4746-996d-652e6b696361,rev?*%
%TF.SameCoordinates,Original*%
%TF.FileFunction,Legend,Bot*%
%TF.FilePolarity,Positive*%
%FSLAX46Y46*%
G04 Gerber Fmt 4.6, Leading zero omitted, Abs format (unit mm)*
G04 Created by KiCad (PCBNEW 8.0.8) date 2025-03-13 15:24:21*
%MOMM*%
%LPD*%
G01*
G04 APERTURE LIST*
G04 Aperture macros list*
%AMRoundRect*
0 Rectangle with rounded corners*
0 $1 Rounding radius*
0 $2 $3 $4 $5 $6 $7 $8 $9 X,Y pos of 4 corners*
0 Add a 4 corners polygon primitive as box body*
4,1,4,$2,$3,$4,$5,$6,$7,$8,$9,$2,$3,0*
0 Add four circle primitives for the rounded corners*
1,1,$1+$1,$2,$3*
1,1,$1+$1,$4,$5*
1,1,$1+$1,$6,$7*
1,1,$1+$1,$8,$9*
0 Add four rect primitives between the rounded corners*
20,1,$1+$1,$2,$3,$4,$5,0*
20,1,$1+$1,$4,$5,$6,$7,0*
20,1,$1+$1,$6,$7,$8,$9,0*
20,1,$1+$1,$8,$9,$2,$3,0*%
%AMFreePoly0*
4,1,19,0.550000,-0.750000,0.000000,-0.750000,0.000000,-0.744911,-0.071157,-0.744911,-0.207708,-0.704816,-0.327430,-0.627875,-0.420627,-0.520320,-0.479746,-0.390866,-0.500000,-0.250000,-0.500000,0.250000,-0.479746,0.390866,-0.420627,0.520320,-0.327430,0.627875,-0.207708,0.704816,-0.071157,0.744911,0.000000,0.744911,0.000000,0.750000,0.550000,0.750000,0.550000,-0.750000,0.550000,-0.750000,
$1*%
%AMFreePoly1*
4,1,19,0.000000,0.744911,0.071157,0.744911,0.207708,0.704816,0.327430,0.627875,0.420627,0.520320,0.479746,0.390866,0.500000,0.250000,0.500000,-0.250000,0.479746,-0.390866,0.420627,-0.520320,0.327430,-0.627875,0.207708,-0.704816,0.071157,-0.744911,0.000000,-0.744911,0.000000,-0.750000,-0.550000,-0.750000,-0.550000,0.750000,0.000000,0.750000,0.000000,0.744911,0.000000,0.744911,
$1*%
%AMFreePoly2*
4,1,19,0.500000,-0.750000,0.000000,-0.750000,0.000000,-0.744911,-0.071157,-0.744911,-0.207708,-0.704816,-0.327430,-0.627875,-0.420627,-0.520320,-0.479746,-0.390866,-0.500000,-0.250000,-0.500000,0.250000,-0.479746,0.390866,-0.420627,0.520320,-0.327430,0.627875,-0.207708,0.704816,-0.071157,0.744911,0.000000,0.744911,0.000000,0.750000,0.500000,0.750000,0.500000,-0.750000,0.500000,-0.750000,
$1*%
%AMFreePoly3*
4,1,19,0.000000,0.744911,0.071157,0.744911,0.207708,0.704816,0.327430,0.627875,0.420627,0.520320,0.479746,0.390866,0.500000,0.250000,0.500000,-0.250000,0.479746,-0.390866,0.420627,-0.520320,0.327430,-0.627875,0.207708,-0.704816,0.071157,-0.744911,0.000000,-0.744911,0.000000,-0.750000,-0.500000,-0.750000,-0.500000,0.750000,0.000000,0.750000,0.000000,0.744911,0.000000,0.744911,
$1*%
%AMFreePoly4*
4,1,21,-0.300000,0.050000,-0.296194,0.069134,-0.285355,0.085355,-0.269134,0.096194,-0.250000,0.100000,0.250000,0.100000,0.269134,0.096194,0.285355,0.085355,0.296194,0.069134,0.300000,0.050000,0.300000,-0.050000,0.296194,-0.069134,0.285355,-0.085355,0.269134,-0.096194,0.250000,-0.100000,-0.250000,-0.100000,-0.269134,-0.096194,-0.285355,-0.085355,-0.296194,-0.069134,-0.300000,-0.050000,
-0.300000,0.050000,-0.300000,0.050000,$1*%
G04 Aperture macros list end*
%ADD10C,0.150000*%
%ADD11C,0.152400*%
%ADD12C,0.120000*%
%TA.AperFunction,EtchedComponent*%
%ADD13C,0.000000*%
%TD*%
%TA.AperFunction,ComponentPad*%
%ADD14R,1.308000X1.308000*%
%TD*%
%TA.AperFunction,ComponentPad*%
%ADD15C,1.308000*%
%TD*%
%TA.AperFunction,ComponentPad*%
%ADD16C,1.000000*%
%TD*%
%TA.AperFunction,ComponentPad*%
%ADD17O,1.422400X2.108200*%
%TD*%
%TA.AperFunction,ComponentPad*%
%ADD18R,1.700000X1.700000*%
%TD*%
%TA.AperFunction,ComponentPad*%
%ADD19O,1.700000X1.700000*%
%TD*%
%TA.AperFunction,HeatsinkPad*%
%ADD20C,0.500000*%
%TD*%
%TA.AperFunction,ComponentPad*%
%ADD21C,2.600000*%
%TD*%
%TA.AperFunction,ComponentPad*%
%ADD22R,1.508000X1.508000*%
%TD*%
%TA.AperFunction,ComponentPad*%
%ADD23C,1.508000*%
%TD*%
%TA.AperFunction,ComponentPad*%
%ADD24R,1.575000X1.575000*%
%TD*%
%TA.AperFunction,ComponentPad*%
%ADD25C,1.575000*%
%TD*%
%TA.AperFunction,SMDPad,CuDef*%
%ADD26R,1.900000X1.300000*%
%TD*%
%TA.AperFunction,SMDPad,CuDef*%
%ADD27FreePoly0,180.000000*%
%TD*%
%TA.AperFunction,SMDPad,CuDef*%
%ADD28R,1.000000X1.500000*%
%TD*%
%TA.AperFunction,SMDPad,CuDef*%
%ADD29FreePoly1,180.000000*%
%TD*%
%TA.AperFunction,SMDPad,CuDef*%
%ADD30RoundRect,0.250000X0.250000X0.475000X-0.250000X0.475000X-0.250000X-0.475000X0.250000X-0.475000X0*%
%TD*%
%TA.AperFunction,SMDPad,CuDef*%
%ADD31FreePoly0,0.000000*%
%TD*%
%TA.AperFunction,SMDPad,CuDef*%
%ADD32FreePoly1,0.000000*%
%TD*%
%TA.AperFunction,SMDPad,CuDef*%
%ADD33FreePoly0,90.000000*%
%TD*%
%TA.AperFunction,SMDPad,CuDef*%
%ADD34R,1.500000X1.000000*%
%TD*%
%TA.AperFunction,SMDPad,CuDef*%
%ADD35FreePoly1,90.000000*%
%TD*%
%TA.AperFunction,SMDPad,CuDef*%
%ADD36FreePoly2,180.000000*%
%TD*%
%TA.AperFunction,SMDPad,CuDef*%
%ADD37FreePoly3,180.000000*%
%TD*%
%TA.AperFunction,ViaPad*%
%ADD38C,0.500000*%
%TD*%
%TA.AperFunction,ViaPad*%
%ADD39C,0.600000*%
%TD*%
%TA.AperFunction,ViaPad*%
%ADD40C,0.800000*%
%TD*%
%TA.AperFunction,Conductor*%
%ADD41C,0.200000*%
%TD*%
%TA.AperFunction,Conductor*%
%ADD42C,0.150000*%
%TD*%
%TA.AperFunction,Conductor*%
%ADD43C,0.760000*%
%TD*%
%TA.AperFunction,Conductor*%
%ADD44C,0.300000*%
%TD*%
%TA.AperFunction,SMDPad,CuDef*%
%ADD45RoundRect,0.152500X-0.152500X0.297500X-0.152500X-0.297500X0.152500X-0.297500X0.152500X0.297500X0*%
%TD*%
%TA.AperFunction,SMDPad,CuDef*%
%ADD46RoundRect,0.132500X-0.132500X0.317500X-0.132500X-0.317500X0.132500X-0.317500X0.132500X0.317500X0*%
%TD*%
%TA.AperFunction,SMDPad,CuDef*%
%ADD47RoundRect,0.250000X0.475000X-0.250000X0.475000X0.250000X-0.475000X0.250000X-0.475000X-0.250000X0*%
%TD*%
%TA.AperFunction,SMDPad,CuDef*%
%ADD48RoundRect,0.250000X0.450000X-0.262500X0.450000X0.262500X-0.450000X0.262500X-0.450000X-0.262500X0*%
%TD*%
%TA.AperFunction,SMDPad,CuDef*%
%ADD49RoundRect,0.075000X-0.700000X-0.075000X0.700000X-0.075000X0.700000X0.075000X-0.700000X0.075000X0*%
%TD*%
%TA.AperFunction,SMDPad,CuDef*%
%ADD50RoundRect,0.075000X-0.075000X-0.700000X0.075000X-0.700000X0.075000X0.700000X-0.075000X0.700000X0*%
%TD*%
%TA.AperFunction,SMDPad,CuDef*%
%ADD51RoundRect,0.250000X-0.450000X0.325000X-0.450000X-0.325000X0.450000X-0.325000X0.450000X0.325000X0*%
%TD*%
%TA.AperFunction,SMDPad,CuDef*%
%ADD52RoundRect,0.250000X-0.450000X0.262500X-0.450000X-0.262500X0.450000X-0.262500X0.450000X0.262500X0*%
%TD*%
%TA.AperFunction,SMDPad,CuDef*%
%ADD53RoundRect,0.250000X0.262500X0.450000X-0.262500X0.450000X-0.262500X-0.450000X0.262500X-0.450000X0*%
%TD*%
%TA.AperFunction,SMDPad,CuDef*%
%ADD54RoundRect,0.250000X-0.475000X0.250000X-0.475000X-0.250000X0.475000X-0.250000X0.475000X0.250000X0*%
%TD*%
%TA.AperFunction,SMDPad,CuDef*%
%ADD55RoundRect,0.218750X-0.256250X0.218750X-0.256250X-0.218750X0.256250X-0.218750X0.256250X0.218750X0*%
%TD*%
%TA.AperFunction,SMDPad,CuDef*%
%ADD56R,1.003300X0.558800*%
%TD*%
%TA.AperFunction,SMDPad,CuDef*%
%ADD57RoundRect,0.250000X-0.250000X-0.475000X0.250000X-0.475000X0.250000X0.475000X-0.250000X0.475000X0*%
%TD*%
%TA.AperFunction,SMDPad,CuDef*%
%ADD58R,0.457200X1.371600*%
%TD*%
%TA.AperFunction,SMDPad,CuDef*%
%ADD59R,1.422400X1.549400*%
%TD*%
%TA.AperFunction,SMDPad,CuDef*%
%ADD60R,0.889000X1.905000*%
%TD*%
%TA.AperFunction,SMDPad,CuDef*%
%ADD61R,0.406400X0.635000*%
%TD*%
%TA.AperFunction,SMDPad,CuDef*%
%ADD62RoundRect,0.250000X-0.262500X-0.450000X0.262500X-0.450000X0.262500X0.450000X-0.262500X0.450000X0*%
%TD*%
%TA.AperFunction,SMDPad,CuDef*%
%ADD63R,0.300000X1.600000*%
%TD*%
%TA.AperFunction,SMDPad,CuDef*%
%ADD64R,3.280001X2.400000*%
%TD*%
%TA.AperFunction,SMDPad,CuDef*%
%ADD65R,1.000000X0.800000*%
%TD*%
%TA.AperFunction,SMDPad,CuDef*%
%ADD66R,0.700000X1.500000*%
%TD*%
%TA.AperFunction,SMDPad,CuDef*%
%ADD67RoundRect,0.250000X-0.412500X-0.650000X0.412500X-0.650000X0.412500X0.650000X-0.412500X0.650000X0*%
%TD*%
%TA.AperFunction,SMDPad,CuDef*%
%ADD68R,2.000000X5.500000*%
%TD*%
%TA.AperFunction,SMDPad,CuDef*%
%ADD69RoundRect,0.075000X0.175000X0.075000X-0.175000X0.075000X-0.175000X-0.075000X0.175000X-0.075000X0*%
%TD*%
%TA.AperFunction,SMDPad,CuDef*%
%ADD70FreePoly4,180.000000*%
%TD*%
%TA.AperFunction,SMDPad,CuDef*%
%ADD71RoundRect,0.050000X0.050000X-0.212500X0.050000X0.212500X-0.050000X0.212500X-0.050000X-0.212500X0*%
%TD*%
%TA.AperFunction,SMDPad,CuDef*%
%ADD72R,2.450000X1.950000*%
%TD*%
%TA.AperFunction,ConnectorPad*%
%ADD73C,3.800000*%
%TD*%
%TA.AperFunction,SMDPad,CuDef*%
%ADD74RoundRect,0.085000X-0.085000X0.335000X-0.085000X-0.335000X0.085000X-0.335000X0.085000X0.335000X0*%
%TD*%
%TA.AperFunction,SMDPad,CuDef*%
%ADD75R,1.270000X1.778000*%
%TD*%
%TA.AperFunction,SMDPad,CuDef*%
%ADD76R,0.901700X1.397000*%
%TD*%
%TA.AperFunction,SMDPad,CuDef*%
%ADD77RoundRect,0.250000X0.450000X-0.325000X0.450000X0.325000X-0.450000X0.325000X-0.450000X-0.325000X0*%
%TD*%
%TA.AperFunction,SMDPad,CuDef*%
%ADD78R,2.100000X1.400000*%
%TD*%
%TA.AperFunction,SMDPad,CuDef*%
%ADD79RoundRect,0.170000X0.170000X-0.295000X0.170000X0.295000X-0.170000X0.295000X-0.170000X-0.295000X0*%
%TD*%
%TA.AperFunction,SMDPad,CuDef*%
%ADD80RoundRect,0.120000X0.120000X-0.345000X0.120000X0.345000X-0.120000X0.345000X-0.120000X-0.345000X0*%
%TD*%
%TA.AperFunction,SMDPad,CuDef*%
%ADD81R,2.800000X1.600000*%
%TD*%
%TA.AperFunction,SMDPad,CuDef*%
%ADD82R,1.200000X1.200000*%
%TD*%
%TA.AperFunction,SMDPad,CuDef*%
%ADD83R,1.500000X1.600000*%
%TD*%
%TA.AperFunction,SMDPad,CuDef*%
%ADD84R,0.203200X0.660400*%
%TD*%
%TA.AperFunction,SMDPad,CuDef*%
%ADD85R,1.600200X0.990600*%
%TD*%
%TA.AperFunction,Conductor*%
%ADD86C,0.450000*%
%TD*%
%TA.AperFunction,Conductor*%
%ADD87C,0.400000*%
%TD*%
%TA.AperFunction,Conductor*%
%ADD88C,0.500000*%
%TD*%
%TA.AperFunction,Conductor*%
%ADD89C,0.350000*%
%TD*%
G04 APERTURE END LIST*
D10*
X170273810Y-88823919D02*
X169607144Y-89823919D01*
X169607144Y-88823919D02*
X170273810Y-89823919D01*
X169369048Y-88823919D02*
X168797620Y-88823919D01*
X169083334Y-89823919D02*
X169083334Y-88823919D01*
X168511905Y-89538204D02*
X168035715Y-89538204D01*
X168607143Y-89823919D02*
X168273810Y-88823919D01*
X168273810Y-88823919D02*
X167940477Y-89823919D01*
X167130953Y-89823919D02*
X167607143Y-89823919D01*
X167607143Y-89823919D02*
X167607143Y-88823919D01*
X166273810Y-89823919D02*
X166845238Y-89823919D01*
X166559524Y-89823919D02*
X166559524Y-88823919D01*
X166559524Y-88823919D02*
X166654762Y-88966776D01*
X166654762Y-88966776D02*
X166750000Y-89062014D01*
X166750000Y-89062014D02*
X166845238Y-89109633D01*
X244833333Y-127112319D02*
X244833333Y-127826604D01*
X244833333Y-127826604D02*
X244880952Y-127969461D01*
X244880952Y-127969461D02*
X244976190Y-128064700D01*
X244976190Y-128064700D02*
X245119047Y-128112319D01*
X245119047Y-128112319D02*
X245214285Y-128112319D01*
X244357142Y-128112319D02*
X244357142Y-127112319D01*
X244357142Y-127112319D02*
X243976190Y-127112319D01*
X243976190Y-127112319D02*
X243880952Y-127159938D01*
X243880952Y-127159938D02*
X243833333Y-127207557D01*
X243833333Y-127207557D02*
X243785714Y-127302795D01*
X243785714Y-127302795D02*
X243785714Y-127445652D01*
X243785714Y-127445652D02*
X243833333Y-127540890D01*
X243833333Y-127540890D02*
X243880952Y-127588509D01*
X243880952Y-127588509D02*
X243976190Y-127636128D01*
X243976190Y-127636128D02*
X244357142Y-127636128D01*
X243452380Y-127112319D02*
X242833333Y-127112319D01*
X242833333Y-127112319D02*
X243166666Y-127493271D01*
X243166666Y-127493271D02*
X243023809Y-127493271D01*
X243023809Y-127493271D02*
X242928571Y-127540890D01*
X242928571Y-127540890D02*
X242880952Y-127588509D01*
X242880952Y-127588509D02*
X242833333Y-127683747D01*
X242833333Y-127683747D02*
X242833333Y-127921842D01*
X242833333Y-127921842D02*
X242880952Y-128017080D01*
X242880952Y-128017080D02*
X242928571Y-128064700D01*
X242928571Y-128064700D02*
X243023809Y-128112319D01*
X243023809Y-128112319D02*
X243309523Y-128112319D01*
X243309523Y-128112319D02*
X243404761Y-128064700D01*
X243404761Y-128064700D02*
X243452380Y-128017080D01*
X182092857Y-114879580D02*
X182140476Y-114927200D01*
X182140476Y-114927200D02*
X182283333Y-114974819D01*
X182283333Y-114974819D02*
X182378571Y-114974819D01*
X182378571Y-114974819D02*
X182521428Y-114927200D01*
X182521428Y-114927200D02*
X182616666Y-114831961D01*
X182616666Y-114831961D02*
X182664285Y-114736723D01*
X182664285Y-114736723D02*
X182711904Y-114546247D01*
X182711904Y-114546247D02*
X182711904Y-114403390D01*
X182711904Y-114403390D02*
X182664285Y-114212914D01*
X182664285Y-114212914D02*
X182616666Y-114117676D01*
X182616666Y-114117676D02*
X182521428Y-114022438D01*
X182521428Y-114022438D02*
X182378571Y-113974819D01*
X182378571Y-113974819D02*
X182283333Y-113974819D01*
X182283333Y-113974819D02*
X182140476Y-114022438D01*
X182140476Y-114022438D02*
X182092857Y-114070057D01*
X181711904Y-114070057D02*
X181664285Y-114022438D01*
X181664285Y-114022438D02*
X181569047Y-113974819D01*
X181569047Y-113974819D02*
X181330952Y-113974819D01*
X181330952Y-113974819D02*
X181235714Y-114022438D01*
X181235714Y-114022438D02*
X181188095Y-114070057D01*
X181188095Y-114070057D02*
X181140476Y-114165295D01*
X181140476Y-114165295D02*
X181140476Y-114260533D01*
X181140476Y-114260533D02*
X181188095Y-114403390D01*
X181188095Y-114403390D02*
X181759523Y-114974819D01*
X181759523Y-114974819D02*
X181140476Y-114974819D01*
X180521428Y-113974819D02*
X180426190Y-113974819D01*
X180426190Y-113974819D02*
X180330952Y-114022438D01*
X180330952Y-114022438D02*
X180283333Y-114070057D01*
X180283333Y-114070057D02*
X180235714Y-114165295D01*
X180235714Y-114165295D02*
X180188095Y-114355771D01*
X180188095Y-114355771D02*
X180188095Y-114593866D01*
X180188095Y-114593866D02*
X180235714Y-114784342D01*
X180235714Y-114784342D02*
X180283333Y-114879580D01*
X180283333Y-114879580D02*
X180330952Y-114927200D01*
X180330952Y-114927200D02*
X180426190Y-114974819D01*
X180426190Y-114974819D02*
X180521428Y-114974819D01*
X180521428Y-114974819D02*
X180616666Y-114927200D01*
X180616666Y-114927200D02*
X180664285Y-114879580D01*
X180664285Y-114879580D02*
X180711904Y-114784342D01*
X180711904Y-114784342D02*
X180759523Y-114593866D01*
X180759523Y-114593866D02*
X180759523Y-114355771D01*
X180759523Y-114355771D02*
X180711904Y-114165295D01*
X180711904Y-114165295D02*
X180664285Y-114070057D01*
X180664285Y-114070057D02*
X180616666Y-114022438D01*
X180616666Y-114022438D02*
X180521428Y-113974819D01*
X181842857Y-112879580D02*
X181890476Y-112927200D01*
X181890476Y-112927200D02*
X182033333Y-112974819D01*
X182033333Y-112974819D02*
X182128571Y-112974819D01*
X182128571Y-112974819D02*
X182271428Y-112927200D01*
X182271428Y-112927200D02*
X182366666Y-112831961D01*
X182366666Y-112831961D02*
X182414285Y-112736723D01*
X182414285Y-112736723D02*
X182461904Y-112546247D01*
X182461904Y-112546247D02*
X182461904Y-112403390D01*
X182461904Y-112403390D02*
X182414285Y-112212914D01*
X182414285Y-112212914D02*
X182366666Y-112117676D01*
X182366666Y-112117676D02*
X182271428Y-112022438D01*
X182271428Y-112022438D02*
X182128571Y-111974819D01*
X182128571Y-111974819D02*
X182033333Y-111974819D01*
X182033333Y-111974819D02*
X181890476Y-112022438D01*
X181890476Y-112022438D02*
X181842857Y-112070057D01*
X180890476Y-112974819D02*
X181461904Y-112974819D01*
X181176190Y-112974819D02*
X181176190Y-111974819D01*
X181176190Y-111974819D02*
X181271428Y-112117676D01*
X181271428Y-112117676D02*
X181366666Y-112212914D01*
X181366666Y-112212914D02*
X181461904Y-112260533D01*
X180414285Y-112974819D02*
X180223809Y-112974819D01*
X180223809Y-112974819D02*
X180128571Y-112927200D01*
X180128571Y-112927200D02*
X180080952Y-112879580D01*
X180080952Y-112879580D02*
X179985714Y-112736723D01*
X179985714Y-112736723D02*
X179938095Y-112546247D01*
X179938095Y-112546247D02*
X179938095Y-112165295D01*
X179938095Y-112165295D02*
X179985714Y-112070057D01*
X179985714Y-112070057D02*
X180033333Y-112022438D01*
X180033333Y-112022438D02*
X180128571Y-111974819D01*
X180128571Y-111974819D02*
X180319047Y-111974819D01*
X180319047Y-111974819D02*
X180414285Y-112022438D01*
X180414285Y-112022438D02*
X180461904Y-112070057D01*
X180461904Y-112070057D02*
X180509523Y-112165295D01*
X180509523Y-112165295D02*
X180509523Y-112403390D01*
X180509523Y-112403390D02*
X180461904Y-112498628D01*
X180461904Y-112498628D02*
X180414285Y-112546247D01*
X180414285Y-112546247D02*
X180319047Y-112593866D01*
X180319047Y-112593866D02*
X180128571Y-112593866D01*
X180128571Y-112593866D02*
X180033333Y-112546247D01*
X180033333Y-112546247D02*
X179985714Y-112498628D01*
X179985714Y-112498628D02*
X179938095Y-112403390D01*
X239583333Y-129254819D02*
X239583333Y-129969104D01*
X239583333Y-129969104D02*
X239630952Y-130111961D01*
X239630952Y-130111961D02*
X239726190Y-130207200D01*
X239726190Y-130207200D02*
X239869047Y-130254819D01*
X239869047Y-130254819D02*
X239964285Y-130254819D01*
X239107142Y-130254819D02*
X239107142Y-129254819D01*
X239107142Y-129254819D02*
X238726190Y-129254819D01*
X238726190Y-129254819D02*
X238630952Y-129302438D01*
X238630952Y-129302438D02*
X238583333Y-129350057D01*
X238583333Y-129350057D02*
X238535714Y-129445295D01*
X238535714Y-129445295D02*
X238535714Y-129588152D01*
X238535714Y-129588152D02*
X238583333Y-129683390D01*
X238583333Y-129683390D02*
X238630952Y-129731009D01*
X238630952Y-129731009D02*
X238726190Y-129778628D01*
X238726190Y-129778628D02*
X239107142Y-129778628D01*
X238154761Y-129350057D02*
X238107142Y-129302438D01*
X238107142Y-129302438D02*
X238011904Y-129254819D01*
X238011904Y-129254819D02*
X237773809Y-129254819D01*
X237773809Y-129254819D02*
X237678571Y-129302438D01*
X237678571Y-129302438D02*
X237630952Y-129350057D01*
X237630952Y-129350057D02*
X237583333Y-129445295D01*
X237583333Y-129445295D02*
X237583333Y-129540533D01*
X237583333Y-129540533D02*
X237630952Y-129683390D01*
X237630952Y-129683390D02*
X238202380Y-130254819D01*
X238202380Y-130254819D02*
X237583333Y-130254819D01*
X214004819Y-113291666D02*
X214719104Y-113291666D01*
X214719104Y-113291666D02*
X214861961Y-113244047D01*
X214861961Y-113244047D02*
X214957200Y-113148809D01*
X214957200Y-113148809D02*
X215004819Y-113005952D01*
X215004819Y-113005952D02*
X215004819Y-112910714D01*
X215004819Y-113767857D02*
X214004819Y-113767857D01*
X214004819Y-113767857D02*
X214004819Y-114148809D01*
X214004819Y-114148809D02*
X214052438Y-114244047D01*
X214052438Y-114244047D02*
X214100057Y-114291666D01*
X214100057Y-114291666D02*
X214195295Y-114339285D01*
X214195295Y-114339285D02*
X214338152Y-114339285D01*
X214338152Y-114339285D02*
X214433390Y-114291666D01*
X214433390Y-114291666D02*
X214481009Y-114244047D01*
X214481009Y-114244047D02*
X214528628Y-114148809D01*
X214528628Y-114148809D02*
X214528628Y-113767857D01*
X214338152Y-115196428D02*
X215004819Y-115196428D01*
X213957200Y-114958333D02*
X214671485Y-114720238D01*
X214671485Y-114720238D02*
X214671485Y-115339285D01*
X208833333Y-100154819D02*
X208833333Y-100869104D01*
X208833333Y-100869104D02*
X208880952Y-101011961D01*
X208880952Y-101011961D02*
X208976190Y-101107200D01*
X208976190Y-101107200D02*
X209119047Y-101154819D01*
X209119047Y-101154819D02*
X209214285Y-101154819D01*
X208357142Y-101154819D02*
X208357142Y-100154819D01*
X208357142Y-100154819D02*
X207976190Y-100154819D01*
X207976190Y-100154819D02*
X207880952Y-100202438D01*
X207880952Y-100202438D02*
X207833333Y-100250057D01*
X207833333Y-100250057D02*
X207785714Y-100345295D01*
X207785714Y-100345295D02*
X207785714Y-100488152D01*
X207785714Y-100488152D02*
X207833333Y-100583390D01*
X207833333Y-100583390D02*
X207880952Y-100631009D01*
X207880952Y-100631009D02*
X207976190Y-100678628D01*
X207976190Y-100678628D02*
X208357142Y-100678628D01*
X206833333Y-101154819D02*
X207404761Y-101154819D01*
X207119047Y-101154819D02*
X207119047Y-100154819D01*
X207119047Y-100154819D02*
X207214285Y-100297676D01*
X207214285Y-100297676D02*
X207309523Y-100392914D01*
X207309523Y-100392914D02*
X207404761Y-100440533D01*
D11*
%TO.C,XTAL1*%
X166218001Y-85241600D02*
X166218001Y-85630460D01*
X166218001Y-87595940D02*
X166218001Y-91142260D01*
X166218001Y-93107740D02*
X166218001Y-93496600D01*
X166218001Y-93496600D02*
X170282001Y-93496600D01*
X170282001Y-85241600D02*
X166218001Y-85241600D01*
X170282001Y-85630460D02*
X170282001Y-85241600D01*
X170282001Y-91142260D02*
X170282001Y-87595940D01*
X170282001Y-93496600D02*
X170282001Y-93107740D01*
X174734502Y-86613200D02*
G75*
G02*
X174480502Y-86613200I-127000J0D01*
G01*
X174480502Y-86613200D02*
G75*
G02*
X174734502Y-86613200I127000J0D01*
G01*
D12*
%TO.C,JP3*%
X241950000Y-129757500D02*
X241950000Y-129157500D01*
X242600000Y-128457500D02*
X245400000Y-128457500D01*
X244900000Y-130957500D02*
X245200000Y-130657500D01*
X244900000Y-130957500D02*
X245500000Y-130957500D01*
X245400000Y-130457500D02*
X242600000Y-130457500D01*
X245500000Y-130957500D02*
X245200000Y-130657500D01*
X246050000Y-129157500D02*
X246050000Y-129757500D01*
X241950000Y-129157500D02*
G75*
G02*
X242650000Y-128457500I700000J0D01*
G01*
X242650000Y-130457500D02*
G75*
G02*
X241950000Y-129757500I0J700000D01*
G01*
X245350000Y-128457500D02*
G75*
G02*
X246050000Y-129157500I1J-699999D01*
G01*
X246050000Y-129757500D02*
G75*
G02*
X245350000Y-130457500I-699999J-1D01*
G01*
%TO.C,C20*%
X181188748Y-115465000D02*
X181711252Y-115465000D01*
X181188748Y-116935000D02*
X181711252Y-116935000D01*
%TO.C,C19*%
X180938748Y-113465000D02*
X181461252Y-113465000D01*
X180938748Y-114935000D02*
X181461252Y-114935000D01*
%TO.C,JP2*%
X236700000Y-128300000D02*
X236700000Y-127700000D01*
X237250000Y-126500000D02*
X237550000Y-126800000D01*
X237350000Y-127000000D02*
X240150000Y-127000000D01*
X237850000Y-126500000D02*
X237250000Y-126500000D01*
X237850000Y-126500000D02*
X237550000Y-126800000D01*
X240150000Y-129000000D02*
X237350000Y-129000000D01*
X240800000Y-127700000D02*
X240800000Y-128300000D01*
X236700000Y-127700000D02*
G75*
G02*
X237400000Y-127000000I699999J1D01*
G01*
X237400000Y-129000000D02*
G75*
G02*
X236700000Y-128300000I-1J699999D01*
G01*
X240100000Y-127000000D02*
G75*
G02*
X240800000Y-127700000I0J-700000D01*
G01*
X240800000Y-128300000D02*
G75*
G02*
X240100000Y-129000000I-700000J0D01*
G01*
%TO.C,JP4*%
X211250000Y-115025000D02*
X211250000Y-115625000D01*
X211250000Y-115025000D02*
X211550000Y-115325000D01*
X211250000Y-115625000D02*
X211550000Y-115325000D01*
X211750000Y-115525000D02*
X211750000Y-112725000D01*
X212450000Y-112075000D02*
X213050000Y-112075000D01*
X213050000Y-116175000D02*
X212450000Y-116175000D01*
X213750000Y-112725000D02*
X213750000Y-115525000D01*
X211750000Y-112775000D02*
G75*
G02*
X212450000Y-112075000I700000J0D01*
G01*
X212450000Y-116175000D02*
G75*
G02*
X211750000Y-115475000I-1J699999D01*
G01*
X213050000Y-112075000D02*
G75*
G02*
X213750000Y-112775000I0J-700000D01*
G01*
X213750000Y-115475000D02*
G75*
G02*
X213050000Y-116175000I-699999J-1D01*
G01*
%TO.C,JP1*%
X206600000Y-102800000D02*
X206600000Y-102200000D01*
X207300000Y-101500000D02*
X208700000Y-101500000D01*
X208700000Y-103500000D02*
X207300000Y-103500000D01*
X209400000Y-102200000D02*
X209400000Y-102800000D01*
X206600000Y-102200000D02*
G75*
G02*
X207300000Y-101500000I700000J0D01*
G01*
X207300000Y-103500000D02*
G75*
G02*
X206600000Y-102800000I0J700000D01*
G01*
X208700000Y-101500000D02*
G75*
G02*
X209400000Y-102200000I1J-699999D01*
G01*
X209400000Y-102800000D02*
G75*
G02*
X208700000Y-103500000I-699999J-1D01*
G01*
%TD*%
D13*
%TA.AperFunction,EtchedComponent*%
%TO.C,JP4*%
G36*
X213050000Y-115025000D02*
G01*
X212450000Y-115025000D01*
X212450000Y-114525000D01*
X213050000Y-114525000D01*
X213050000Y-115025000D01*
G37*
%TD.AperFunction*%
%TA.AperFunction,EtchedComponent*%
%TO.C,JP1*%
G36*
X208250000Y-102300000D02*
G01*
X207750000Y-102300000D01*
X207750000Y-101900000D01*
X208250000Y-101900000D01*
X208250000Y-102300000D01*
G37*
%TD.AperFunction*%
%TA.AperFunction,EtchedComponent*%
G36*
X208250000Y-103100000D02*
G01*
X207750000Y-103100000D01*
X207750000Y-102700000D01*
X208250000Y-102700000D01*
X208250000Y-103100000D01*
G37*
%TD.AperFunction*%
%TD*%
D14*
%TO.P,SW3,1,1*%
%TO.N,GND*%
X174110000Y-136850000D03*
D15*
%TO.P,SW3,2,2*%
%TO.N,/UI/B2*%
X174110000Y-134850000D03*
%TD*%
D16*
%TO.P,TP4,1,1*%
%TO.N,Net-(RN1H-R8.2)*%
X147200000Y-135550000D03*
%TD*%
D14*
%TO.P,J2,1,1*%
%TO.N,GND*%
X226500000Y-137400000D03*
D15*
%TO.P,J2,2,2*%
%TO.N,I2S_WS*%
X224500000Y-137400000D03*
%TO.P,J2,3,3*%
%TO.N,I2S_DATA*%
X222500000Y-137400000D03*
%TO.P,J2,4,4*%
%TO.N,I2S_BCLK*%
X220500000Y-137400000D03*
%TO.P,J2,5,5*%
%TO.N,GND*%
X218500000Y-137400000D03*
%TO.P,J2,6,6*%
%TO.N,3V3*%
X216500000Y-137400000D03*
%TD*%
D16*
%TO.P,TP5,1,1*%
%TO.N,/UI/B7*%
X161125000Y-127250000D03*
%TD*%
%TO.P,TP1,1,1*%
%TO.N,/Motor/VREF*%
X179500000Y-77500000D03*
%TD*%
D17*
%TO.P,J10,10*%
%TO.N,N/C*%
X163987501Y-103304299D03*
%TO.P,J10,11*%
X156087501Y-103304299D03*
%TD*%
D16*
%TO.P,TP12,1,1*%
%TO.N,Net-(U6-PB8)*%
X189390000Y-81070000D03*
%TD*%
D18*
%TO.P,J5,1,Pin_1*%
%TO.N,unconnected-(J5-Pin_1-Pad1)*%
X228000000Y-112290000D03*
D19*
%TO.P,J5,2,Pin_2*%
%TO.N,unconnected-(J5-Pin_2-Pad2)*%
X228000000Y-109750000D03*
%TO.P,J5,3,Pin_3*%
%TO.N,VSYS*%
X228000000Y-107210000D03*
%TO.P,J5,4,Pin_4*%
%TO.N,AGND*%
X228000000Y-104670000D03*
%TO.P,J5,5,Pin_5*%
%TO.N,5V*%
X228000000Y-102130000D03*
%TD*%
D16*
%TO.P,TP2,1,1*%
%TO.N,/Motor/EN*%
X179500000Y-81000000D03*
%TD*%
D14*
%TO.P,SW6,1,1*%
%TO.N,GND*%
X158240000Y-136850000D03*
D15*
%TO.P,SW6,2,2*%
%TO.N,/UI/B5*%
X158240000Y-134850000D03*
%TD*%
D20*
%TO.P,U2,13,PAD*%
%TO.N,GND*%
X162900000Y-116087500D03*
X161925000Y-116812500D03*
X161925000Y-116087500D03*
X161925000Y-115362500D03*
X160950000Y-116087500D03*
%TD*%
D21*
%TO.P,H2,1*%
%TO.N,N/C*%
X235700000Y-139775000D03*
%TD*%
D16*
%TO.P,TP3,1,1*%
%TO.N,Net-(RN1G-R7.2)*%
X160700000Y-124525000D03*
%TD*%
%TO.P,TP7,1,1*%
%TO.N,PC14-OSC32IN*%
X184800000Y-114400000D03*
%TD*%
%TO.P,TP8,1,1*%
%TO.N,PC15-OSC32OUT*%
X184400000Y-116200000D03*
%TD*%
D18*
%TO.P,J8,1,VTref*%
%TO.N,3V3*%
X185040000Y-102230000D03*
D19*
%TO.P,J8,2,SWDIO/TMS*%
%TO.N,Net-(J8-SWDIO{slash}TMS)*%
X185040000Y-104770000D03*
%TO.P,J8,3,GND*%
%TO.N,GND*%
X182500000Y-102230000D03*
%TO.P,J8,4,SWCLK/TCK*%
%TO.N,Net-(J8-SWCLK{slash}TCK)*%
X182500000Y-104770000D03*
%TO.P,J8,5,GND*%
%TO.N,GND*%
X179960000Y-102230000D03*
%TO.P,J8,6,SWO/TDO*%
%TO.N,Net-(J8-SWO{slash}TDO)*%
X179960000Y-104770000D03*
%TO.P,J8,7,KEY*%
%TO.N,unconnected-(J8-KEY-Pad7)*%
X177420000Y-102230000D03*
%TO.P,J8,8,NC/TDI*%
%TO.N,unconnected-(J8-NC{slash}TDI-Pad8)*%
X177420000Y-104770000D03*
%TO.P,J8,9,GNDDetect*%
%TO.N,GND*%
X174880000Y-102230000D03*
%TO.P,J8,10,~{RESET}*%
%TO.N,Net-(J8-~{RESET})*%
X174880000Y-104770000D03*
%TD*%
D21*
%TO.P,H1,1*%
%TO.N,N/C*%
X152725000Y-102700000D03*
%TD*%
D16*
%TO.P,TP13,1,1*%
%TO.N,Net-(U6-PB9)*%
X183750000Y-86750000D03*
%TD*%
D22*
%TO.P,J7,1,1*%
%TO.N,/Motor/B1*%
X226600000Y-120000000D03*
D23*
%TO.P,J7,2,2*%
%TO.N,/Motor/B2*%
X226600000Y-122500000D03*
%TO.P,J7,3,3*%
%TO.N,/Motor/A2*%
X226600000Y-125000000D03*
%TO.P,J7,4,4*%
%TO.N,/Motor/A1*%
X226600000Y-127500000D03*
%TD*%
D14*
%TO.P,J1,1,1*%
%TO.N,3V3*%
X212000000Y-137400000D03*
D15*
%TO.P,J1,2,2*%
%TO.N,I2S_WS*%
X210000000Y-137400000D03*
%TO.P,J1,3,3*%
%TO.N,I2S_DATA*%
X208000000Y-137400000D03*
%TO.P,J1,4,4*%
%TO.N,I2S_BCLK*%
X206000000Y-137400000D03*
%TO.P,J1,5,5*%
%TO.N,GND*%
X204000000Y-137400000D03*
%TO.P,J1,6,6*%
%TO.N,3V3*%
X202000000Y-137400000D03*
%TD*%
D16*
%TO.P,TP10,1,1*%
%TO.N,Net-(U6-PC8)*%
X192050000Y-82950000D03*
%TD*%
%TO.P,TP6,1,1*%
%TO.N,/UI/B8*%
X158425000Y-127250000D03*
%TD*%
D18*
%TO.P,J6,1,Pin_1*%
%TO.N,GND*%
X196500000Y-135900000D03*
D19*
%TO.P,J6,2,Pin_2*%
%TO.N,3V3*%
X196500000Y-138440000D03*
%TO.P,J6,3,Pin_3*%
%TO.N,MISO*%
X193960000Y-135900000D03*
%TO.P,J6,4,Pin_4*%
%TO.N,CS*%
X193960000Y-138440000D03*
%TO.P,J6,5,Pin_5*%
%TO.N,RST*%
X191420000Y-135900000D03*
%TO.P,J6,6,Pin_6*%
%TO.N,DC*%
X191420000Y-138440000D03*
%TO.P,J6,7,Pin_7*%
%TO.N,SCK*%
X188880000Y-135900000D03*
%TO.P,J6,8,Pin_8*%
%TO.N,MOSI*%
X188880000Y-138440000D03*
%TD*%
D18*
%TO.P,J4,1,Pin_1*%
%TO.N,unconnected-(J4-Pin_1-Pad1)*%
X166750000Y-102500000D03*
D19*
%TO.P,J4,2,Pin_2*%
%TO.N,unconnected-(J4-Pin_2-Pad2)*%
X169290000Y-102500000D03*
%TO.P,J4,3,Pin_3*%
%TO.N,VSYS*%
X171830000Y-102500000D03*
%TO.P,J4,4,Pin_4*%
%TO.N,GND*%
X174370000Y-102500000D03*
%TO.P,J4,5,Pin_5*%
%TO.N,3V3*%
X176910000Y-102500000D03*
%TD*%
D16*
%TO.P,TP11,1,1*%
%TO.N,Net-(U6-PC7)*%
X189390000Y-78020000D03*
%TD*%
D14*
%TO.P,SW4,1,1*%
%TO.N,GND*%
X168820000Y-136850000D03*
D15*
%TO.P,SW4,2,2*%
%TO.N,/UI/B3*%
X168820000Y-134850000D03*
%TD*%
D18*
%TO.P,J9,1,Pin_1*%
%TO.N,MCU_RX*%
X185450000Y-132570000D03*
D19*
%TO.P,J9,2,Pin_2*%
%TO.N,MCU_TX*%
X185450000Y-135110000D03*
%TO.P,J9,3,Pin_3*%
%TO.N,GND*%
X185450000Y-137650000D03*
%TD*%
D16*
%TO.P,TP9,1,1*%
%TO.N,Net-(U6-PC9)*%
X186340000Y-78020000D03*
%TD*%
D14*
%TO.P,SW1,1,A*%
%TO.N,Net-(SW1-A)*%
X153125000Y-121975000D03*
D15*
%TO.P,SW1,2,B*%
%TO.N,BATT_POS*%
X153125000Y-119975000D03*
%TD*%
D14*
%TO.P,SW2,1,1*%
%TO.N,GND*%
X179400000Y-136850000D03*
D15*
%TO.P,SW2,2,2*%
%TO.N,/UI/B1*%
X179400000Y-134850000D03*
%TD*%
D14*
%TO.P,SW7,1,1*%
%TO.N,GND*%
X152950000Y-136850000D03*
D15*
%TO.P,SW7,2,2*%
%TO.N,/UI/B6*%
X152950000Y-134850000D03*
%TD*%
D24*
%TO.P,J3,1,1*%
%TO.N,GND*%
X153150000Y-130025000D03*
D25*
%TO.P,J3,2,2*%
%TO.N,Net-(SW1-A)*%
X153150000Y-127525000D03*
%TD*%
D14*
%TO.P,SW5,1,1*%
%TO.N,GND*%
X163530000Y-136850000D03*
D15*
%TO.P,SW5,2,2*%
%TO.N,/UI/B4*%
X163530000Y-134850000D03*
%TD*%
D26*
%TO.P,XTAL1,1,1*%
%TO.N,PC15-OSC32OUT*%
X169850000Y-86613200D03*
%TO.P,XTAL1,2,2*%
%TO.N,unconnected-(XTAL1-Pad2)*%
X169850000Y-92125000D03*
%TO.P,XTAL1,3,3*%
%TO.N,unconnected-(XTAL1-Pad3)*%
X166650002Y-92125000D03*
%TO.P,XTAL1,4,4*%
%TO.N,PC14-OSC32IN*%
X166650002Y-86613200D03*
%TD*%
D27*
%TO.P,JP3,1,A*%
%TO.N,3V3*%
X245300000Y-129457500D03*
D28*
%TO.P,JP3,2,C*%
%TO.N,/Motor/M0*%
X244000000Y-129457500D03*
D29*
%TO.P,JP3,3,B*%
%TO.N,GND*%
X242700000Y-129457500D03*
%TD*%
D30*
%TO.P,C20,1*%
%TO.N,PC15-OSC32OUT*%
X182400000Y-116200000D03*
%TO.P,C20,2*%
%TO.N,GND*%
X180500000Y-116200000D03*
%TD*%
%TO.P,C19,1*%
%TO.N,PC14-OSC32IN*%
X182150000Y-114200000D03*
%TO.P,C19,2*%
%TO.N,GND*%
X180250000Y-114200000D03*
%TD*%
D31*
%TO.P,JP2,1,A*%
%TO.N,3V3*%
X237450000Y-128000000D03*
D28*
%TO.P,JP2,2,C*%
%TO.N,/Motor/M1*%
X238750000Y-128000000D03*
D32*
%TO.P,JP2,3,B*%
%TO.N,GND*%
X240050000Y-128000000D03*
%TD*%
D33*
%TO.P,JP4,1,A*%
%TO.N,3V3*%
X212750000Y-115425000D03*
D34*
%TO.P,JP4,2,C*%
%TO.N,/Motor/SLP*%
X212750000Y-114125000D03*
D35*
%TO.P,JP4,3,B*%
%TO.N,GND*%
X212750000Y-112825000D03*
%TD*%
D36*
%TO.P,JP1,1,A*%
%TO.N,AGND*%
X208650000Y-102500000D03*
D37*
%TO.P,JP1,2,B*%
%TO.N,GND*%
X207350000Y-102500000D03*
%TD*%
D38*
%TO.N,Button1*%
X188450000Y-118700000D03*
X168750000Y-122416598D03*
%TO.N,Button2*%
X169550001Y-122416599D03*
X188856847Y-119269629D03*
%TO.N,Button3*%
X170350000Y-122416598D03*
X188400000Y-119800000D03*
%TO.N,Button4*%
X196100000Y-120750000D03*
X171150000Y-122416598D03*
%TO.N,Button5*%
X192275000Y-123400000D03*
%TO.N,Button6*%
X193250000Y-123375000D03*
%TO.N,NRST*%
X181375000Y-109050000D03*
X188825000Y-117700000D03*
X200721671Y-116716758D03*
%TO.N,DC*%
X200450000Y-131550000D03*
X196350000Y-133500000D03*
X200239337Y-118745735D03*
%TO.N,SCK*%
X191225000Y-128900000D03*
%TO.N,CS*%
X190724607Y-126079189D03*
%TO.N,MISO*%
X191800000Y-129800000D03*
X193375000Y-131750000D03*
%TO.N,RST*%
X192850000Y-126300000D03*
X197475000Y-118500000D03*
%TO.N,SDA*%
X163825000Y-117750000D03*
%TO.N,SCL*%
X164675000Y-117050000D03*
%TO.N,/Motor/SLP*%
X211675000Y-114100000D03*
D39*
%TO.N,MCU_RX*%
X189250000Y-126100000D03*
D38*
%TO.N,I2S_BCLK*%
X199450000Y-126375000D03*
X195700000Y-126400000D03*
D39*
%TO.N,SWCLK*%
X196750000Y-111550000D03*
D38*
X183000000Y-109050000D03*
%TO.N,SWDIO*%
X200200000Y-116250000D03*
X184000000Y-109050000D03*
%TO.N,SWO*%
X193725000Y-111800000D03*
X182200000Y-109050000D03*
%TO.N,Net-(U1-TS{slash}MR)*%
X162600000Y-109925000D03*
X156450000Y-109750000D03*
%TO.N,Net-(U1-ILIM{slash}VSET)*%
X162675000Y-108050000D03*
X155775000Y-109589498D03*
%TO.N,STEP*%
X219550000Y-118050000D03*
X188650000Y-121100000D03*
D40*
%TO.N,/Motor/B2*%
X216700000Y-119375000D03*
D38*
%TO.N,BAT_EMPTY*%
X160000000Y-117775000D03*
%TO.N,STATS2*%
X155500000Y-113400000D03*
%TO.N,STATS1*%
X155100000Y-109400000D03*
%TD*%
D41*
%TO.N,Button1*%
X168750000Y-120366598D02*
X168750000Y-122416598D01*
X186400000Y-118750000D02*
X182800000Y-122350000D01*
X188400000Y-118750000D02*
X186400000Y-118750000D01*
X188450000Y-118700000D02*
X188400000Y-118750000D01*
X169750000Y-119366598D02*
X168750000Y-120366598D01*
%TO.N,Button2*%
X186600000Y-119250000D02*
X183100000Y-122750000D01*
X188837218Y-119250000D02*
X186600000Y-119250000D01*
X170250000Y-119766598D02*
X169600000Y-120416598D01*
X169600000Y-120416598D02*
X169600000Y-122366600D01*
X188856847Y-119269629D02*
X188837218Y-119250000D01*
X169600000Y-122366600D02*
X169550001Y-122416599D01*
%TO.N,Button3*%
X170350000Y-120816598D02*
X170350000Y-122416598D01*
X188400000Y-119800000D02*
X186615686Y-119800000D01*
X186615686Y-119800000D02*
X183265686Y-123150000D01*
X171000000Y-120166598D02*
X170350000Y-120816598D01*
%TO.N,Button4*%
X185750000Y-121650000D02*
X183800000Y-123600000D01*
X195200000Y-121650000D02*
X185750000Y-121650000D01*
X196100000Y-120750000D02*
X195200000Y-121650000D01*
X171150000Y-121016598D02*
X171150000Y-122416598D01*
X171550000Y-120616598D02*
X171150000Y-121016598D01*
%TO.N,Button5*%
X191675000Y-124000000D02*
X173627818Y-124000000D01*
X192275000Y-123400000D02*
X191675000Y-124000000D01*
%TO.N,Button6*%
X193250000Y-123375000D02*
X193250000Y-123675000D01*
X193250000Y-123675000D02*
X192325000Y-124600000D01*
X192325000Y-124600000D02*
X175400000Y-124600000D01*
%TO.N,NRST*%
X189675000Y-116800000D02*
X188900000Y-117575000D01*
X200721671Y-116716758D02*
X200638429Y-116800000D01*
X188900000Y-117625000D02*
X188825000Y-117700000D01*
X188900000Y-117575000D02*
X188900000Y-117625000D01*
X200638429Y-116800000D02*
X189675000Y-116800000D01*
%TO.N,DC*%
X193525000Y-136875000D02*
X192500000Y-137900000D01*
X193525000Y-135496141D02*
X193525000Y-136875000D01*
X196350000Y-133500000D02*
X195521141Y-133500000D01*
X200750000Y-119250000D02*
X200750000Y-131250000D01*
X195521141Y-133500000D02*
X193525000Y-135496141D01*
X200239337Y-118745735D02*
X200245735Y-118745735D01*
X200245735Y-118745735D02*
X200750000Y-119250000D01*
X200750000Y-131250000D02*
X200450000Y-131550000D01*
%TO.N,SCK*%
X191225000Y-135175000D02*
X190500000Y-135900000D01*
X191225000Y-128900000D02*
X191225000Y-135175000D01*
%TO.N,CS*%
X197700000Y-138350000D02*
X197700000Y-133050000D01*
X197700000Y-133050000D02*
X190750000Y-126100000D01*
X194500000Y-137900000D02*
X195475000Y-138875000D01*
X195475000Y-138875000D02*
X197175000Y-138875000D01*
X197175000Y-138875000D02*
X197700000Y-138350000D01*
D42*
%TO.N,MISO*%
X193050000Y-131750000D02*
X191800000Y-130500000D01*
X191800000Y-129875000D02*
X191800000Y-129950000D01*
X191800000Y-130500000D02*
X191800000Y-129875000D01*
X193375000Y-131750000D02*
X193050000Y-131750000D01*
%TO.N,RST*%
X197475000Y-118500000D02*
X197475000Y-122269976D01*
X194425000Y-123950000D02*
X195794975Y-123950000D01*
X197475000Y-122269976D02*
X197384988Y-122359988D01*
X192850000Y-125525000D02*
X194425000Y-123950000D01*
X192850000Y-126300000D02*
X192850000Y-125525000D01*
X195794975Y-123950000D02*
X197384988Y-122359988D01*
X197384988Y-122359988D02*
X197450000Y-122294975D01*
D41*
%TO.N,PC14-OSC32IN*%
X182150000Y-114200000D02*
X184600000Y-114200000D01*
X184600000Y-114200000D02*
X184800000Y-114400000D01*
%TO.N,PC15-OSC32OUT*%
X182400000Y-116200000D02*
X184400000Y-116200000D01*
D43*
%TO.N,VSYS*%
X219520000Y-107280000D02*
X219590000Y-107210000D01*
X219590000Y-107210000D02*
X228000000Y-107210000D01*
X217020000Y-104780000D02*
X219520000Y-107280000D01*
X171830000Y-102500000D02*
X174110000Y-104780000D01*
X174110000Y-104780000D02*
X217020000Y-104780000D01*
D42*
%TO.N,/Motor/SLP*%
X212750000Y-114125000D02*
X211700000Y-114125000D01*
X211700000Y-114125000D02*
X211675000Y-114100000D01*
D41*
%TO.N,MCU_RX*%
X185450000Y-127550000D02*
X185450000Y-132570000D01*
X189250000Y-126100000D02*
X186900000Y-126100000D01*
X186900000Y-126100000D02*
X185450000Y-127550000D01*
D44*
%TO.N,I2S_BCLK*%
X220500000Y-137400000D02*
X220500000Y-137600000D01*
D42*
X195700000Y-126400000D02*
X199425000Y-126400000D01*
D44*
X220500000Y-137600000D02*
X219275000Y-138825000D01*
X219275000Y-138825000D02*
X207425000Y-138825000D01*
X207425000Y-138825000D02*
X206000000Y-137400000D01*
D42*
X199425000Y-126400000D02*
X199450000Y-126375000D01*
D41*
%TO.N,SWCLK*%
X196750000Y-111550000D02*
X196350000Y-111150000D01*
X185100000Y-111150000D02*
X183000000Y-109050000D01*
X196350000Y-111150000D02*
X185100000Y-111150000D01*
%TO.N,SWDIO*%
X185450000Y-110500000D02*
X196548529Y-110500000D01*
X200200000Y-114151471D02*
X200200000Y-116250000D01*
X196548529Y-110500000D02*
X200200000Y-114151471D01*
X184000000Y-109050000D02*
X185450000Y-110500000D01*
D42*
%TO.N,SWO*%
X193725000Y-111800000D02*
X193700000Y-111775000D01*
X193700000Y-111775000D02*
X184925000Y-111775000D01*
X184925000Y-111775000D02*
X182200000Y-109050000D01*
%TO.N,Net-(U1-TS{slash}MR)*%
X156625000Y-109925000D02*
X156450000Y-109750000D01*
X162600000Y-109925000D02*
X156625000Y-109925000D01*
%TO.N,Net-(U1-ILIM{slash}VSET)*%
X161450000Y-109275000D02*
X162675000Y-108050000D01*
X156089498Y-109275000D02*
X161450000Y-109275000D01*
X155775000Y-109589498D02*
X156089498Y-109275000D01*
%TO.N,STEP*%
X192175000Y-117275000D02*
X216300000Y-117275000D01*
X188650000Y-120800000D02*
X192175000Y-117275000D01*
X188650000Y-121100000D02*
X188650000Y-120800000D01*
D44*
%TO.N,/Motor/B2*%
X219825000Y-122500000D02*
X226600000Y-122500000D01*
X216700000Y-119375000D02*
X219825000Y-122500000D01*
%TD*%
D14*
%TO.N,GND*%
%TO.C,SW3*%
X174110000Y-136850000D03*
D15*
%TO.N,/UI/B2*%
X174110000Y-134850000D03*
%TD*%
D16*
%TO.N,Net-(RN1H-R8.2)*%
%TO.C,TP4*%
X147200000Y-135550000D03*
%TD*%
D14*
%TO.N,GND*%
%TO.C,J2*%
X226500000Y-137400000D03*
D15*
%TO.N,I2S_WS*%
X224500000Y-137400000D03*
%TO.N,I2S_DATA*%
X222500000Y-137400000D03*
%TO.N,I2S_BCLK*%
X220500000Y-137400000D03*
%TO.N,GND*%
X218500000Y-137400000D03*
%TO.N,3V3*%
X216500000Y-137400000D03*
%TD*%
D16*
%TO.N,/UI/B7*%
%TO.C,TP5*%
X161125000Y-127250000D03*
%TD*%
%TO.N,/Motor/VREF*%
%TO.C,TP1*%
X179500000Y-77500000D03*
%TD*%
D17*
%TO.N,N/C*%
%TO.C,J10*%
X163987501Y-103304299D03*
X156087501Y-103304299D03*
%TD*%
D16*
%TO.N,Net-(U6-PB8)*%
%TO.C,TP12*%
X189390000Y-81070000D03*
%TD*%
D18*
%TO.N,unconnected-(J5-Pin_1-Pad1)*%
%TO.C,J5*%
X228000000Y-112290000D03*
D19*
%TO.N,unconnected-(J5-Pin_2-Pad2)*%
X228000000Y-109750000D03*
%TO.N,VSYS*%
X228000000Y-107210000D03*
%TO.N,AGND*%
X228000000Y-104670000D03*
%TO.N,5V*%
X228000000Y-102130000D03*
%TD*%
D16*
%TO.N,/Motor/EN*%
%TO.C,TP2*%
X179500000Y-81000000D03*
%TD*%
D14*
%TO.N,GND*%
%TO.C,SW6*%
X158240000Y-136850000D03*
D15*
%TO.N,/UI/B5*%
X158240000Y-134850000D03*
%TD*%
D20*
%TO.N,GND*%
%TO.C,U2*%
X162900000Y-116087500D03*
X161925000Y-116812500D03*
X161925000Y-116087500D03*
X161925000Y-115362500D03*
X160950000Y-116087500D03*
%TD*%
D21*
%TO.N,N/C*%
%TO.C,H2*%
X235700000Y-139775000D03*
%TD*%
D16*
%TO.N,Net-(RN1G-R7.2)*%
%TO.C,TP3*%
X160700000Y-124525000D03*
%TD*%
%TO.N,PC14-OSC32IN*%
%TO.C,TP7*%
X184800000Y-114400000D03*
%TD*%
%TO.N,PC15-OSC32OUT*%
%TO.C,TP8*%
X184400000Y-116200000D03*
%TD*%
D18*
%TO.N,3V3*%
%TO.C,J8*%
X185040000Y-102230000D03*
D19*
%TO.N,Net-(J8-SWDIO{slash}TMS)*%
X185040000Y-104770000D03*
%TO.N,GND*%
X182500000Y-102230000D03*
%TO.N,Net-(J8-SWCLK{slash}TCK)*%
X182500000Y-104770000D03*
%TO.N,GND*%
X179960000Y-102230000D03*
%TO.N,Net-(J8-SWO{slash}TDO)*%
X179960000Y-104770000D03*
%TO.N,unconnected-(J8-KEY-Pad7)*%
X177420000Y-102230000D03*
%TO.N,unconnected-(J8-NC{slash}TDI-Pad8)*%
X177420000Y-104770000D03*
%TO.N,GND*%
X174880000Y-102230000D03*
%TO.N,Net-(J8-~{RESET})*%
X174880000Y-104770000D03*
%TD*%
D21*
%TO.N,N/C*%
%TO.C,H1*%
X152725000Y-102700000D03*
%TD*%
D16*
%TO.N,Net-(U6-PB9)*%
%TO.C,TP13*%
X183750000Y-86750000D03*
%TD*%
D22*
%TO.N,/Motor/B1*%
%TO.C,J7*%
X226600000Y-120000000D03*
D23*
%TO.N,/Motor/B2*%
X226600000Y-122500000D03*
%TO.N,/Motor/A2*%
X226600000Y-125000000D03*
%TO.N,/Motor/A1*%
X226600000Y-127500000D03*
%TD*%
D14*
%TO.N,3V3*%
%TO.C,J1*%
X212000000Y-137400000D03*
D15*
%TO.N,I2S_WS*%
X210000000Y-137400000D03*
%TO.N,I2S_DATA*%
X208000000Y-137400000D03*
%TO.N,I2S_BCLK*%
X206000000Y-137400000D03*
%TO.N,GND*%
X204000000Y-137400000D03*
%TO.N,3V3*%
X202000000Y-137400000D03*
%TD*%
D16*
%TO.N,Net-(U6-PC8)*%
%TO.C,TP10*%
X192050000Y-82950000D03*
%TD*%
%TO.N,/UI/B8*%
%TO.C,TP6*%
X158425000Y-127250000D03*
%TD*%
D18*
%TO.N,GND*%
%TO.C,J6*%
X196500000Y-135900000D03*
D19*
%TO.N,3V3*%
X196500000Y-138440000D03*
%TO.N,MISO*%
X193960000Y-135900000D03*
%TO.N,CS*%
X193960000Y-138440000D03*
%TO.N,RST*%
X191420000Y-135900000D03*
%TO.N,DC*%
X191420000Y-138440000D03*
%TO.N,SCK*%
X188880000Y-135900000D03*
%TO.N,MOSI*%
X188880000Y-138440000D03*
%TD*%
D18*
%TO.N,unconnected-(J4-Pin_1-Pad1)*%
%TO.C,J4*%
X166750000Y-102500000D03*
D19*
%TO.N,unconnected-(J4-Pin_2-Pad2)*%
X169290000Y-102500000D03*
%TO.N,VSYS*%
X171830000Y-102500000D03*
%TO.N,GND*%
X174370000Y-102500000D03*
%TO.N,3V3*%
X176910000Y-102500000D03*
%TD*%
D16*
%TO.N,Net-(U6-PC7)*%
%TO.C,TP11*%
X189390000Y-78020000D03*
%TD*%
D14*
%TO.N,GND*%
%TO.C,SW4*%
X168820000Y-136850000D03*
D15*
%TO.N,/UI/B3*%
X168820000Y-134850000D03*
%TD*%
D18*
%TO.N,MCU_RX*%
%TO.C,J9*%
X185450000Y-132570000D03*
D19*
%TO.N,MCU_TX*%
X185450000Y-135110000D03*
%TO.N,GND*%
X185450000Y-137650000D03*
%TD*%
D16*
%TO.N,Net-(U6-PC9)*%
%TO.C,TP9*%
X186340000Y-78020000D03*
%TD*%
D14*
%TO.N,Net-(SW1-A)*%
%TO.C,SW1*%
X153125000Y-121975000D03*
D15*
%TO.N,BATT_POS*%
X153125000Y-119975000D03*
%TD*%
D14*
%TO.N,GND*%
%TO.C,SW2*%
X179400000Y-136850000D03*
D15*
%TO.N,/UI/B1*%
X179400000Y-134850000D03*
%TD*%
D14*
%TO.N,GND*%
%TO.C,SW7*%
X152950000Y-136850000D03*
D15*
%TO.N,/UI/B6*%
X152950000Y-134850000D03*
%TD*%
D24*
%TO.N,GND*%
%TO.C,J3*%
X153150000Y-130025000D03*
D25*
%TO.N,Net-(SW1-A)*%
X153150000Y-127525000D03*
%TD*%
D14*
%TO.N,GND*%
%TO.C,SW5*%
X163530000Y-136850000D03*
D15*
%TO.N,/UI/B4*%
X163530000Y-134850000D03*
%TD*%
D38*
%TO.N,Button1*%
X188450000Y-118700000D03*
X168750000Y-122416598D03*
%TO.N,Button2*%
X169550001Y-122416599D03*
X188856847Y-119269629D03*
%TO.N,Button3*%
X170350000Y-122416598D03*
X188400000Y-119800000D03*
%TO.N,Button4*%
X196100000Y-120750000D03*
X171150000Y-122416598D03*
%TO.N,Button5*%
X192275000Y-123400000D03*
%TO.N,Button6*%
X193250000Y-123375000D03*
%TO.N,NRST*%
X181375000Y-109050000D03*
X188825000Y-117700000D03*
X200721671Y-116716758D03*
%TO.N,DC*%
X200450000Y-131550000D03*
X196350000Y-133500000D03*
X200239337Y-118745735D03*
%TO.N,SCK*%
X191225000Y-128900000D03*
%TO.N,CS*%
X190724607Y-126079189D03*
%TO.N,MISO*%
X191800000Y-129800000D03*
X193375000Y-131750000D03*
%TO.N,RST*%
X192850000Y-126300000D03*
X197475000Y-118500000D03*
%TO.N,SDA*%
X163825000Y-117750000D03*
%TO.N,SCL*%
X164675000Y-117050000D03*
%TO.N,/Motor/SLP*%
X211675000Y-114100000D03*
D39*
%TO.N,MCU_RX*%
X189250000Y-126100000D03*
D38*
%TO.N,I2S_BCLK*%
X199450000Y-126375000D03*
X195700000Y-126400000D03*
D39*
%TO.N,SWCLK*%
X196750000Y-111550000D03*
D38*
X183000000Y-109050000D03*
%TO.N,SWDIO*%
X200200000Y-116250000D03*
X184000000Y-109050000D03*
%TO.N,SWO*%
X193725000Y-111800000D03*
X182200000Y-109050000D03*
%TO.N,Net-(U1-TS{slash}MR)*%
X162600000Y-109925000D03*
X156450000Y-109750000D03*
%TO.N,Net-(U1-ILIM{slash}VSET)*%
X162675000Y-108050000D03*
X155775000Y-109589498D03*
%TO.N,STEP*%
X219550000Y-118050000D03*
X188650000Y-121100000D03*
D40*
%TO.N,/Motor/B2*%
X216700000Y-119375000D03*
D38*
%TO.N,BAT_EMPTY*%
X160000000Y-117775000D03*
%TO.N,STATS2*%
X155500000Y-113400000D03*
%TO.N,STATS1*%
X155100000Y-109400000D03*
%TD*%
D14*
%TO.N,GND*%
%TO.C,SW3*%
X174110000Y-136850000D03*
D15*
%TO.N,/UI/B2*%
X174110000Y-134850000D03*
%TD*%
D16*
%TO.N,Net-(RN1H-R8.2)*%
%TO.C,TP4*%
X147200000Y-135550000D03*
%TD*%
D14*
%TO.N,GND*%
%TO.C,J2*%
X226500000Y-137400000D03*
D15*
%TO.N,I2S_WS*%
X224500000Y-137400000D03*
%TO.N,I2S_DATA*%
X222500000Y-137400000D03*
%TO.N,I2S_BCLK*%
X220500000Y-137400000D03*
%TO.N,GND*%
X218500000Y-137400000D03*
%TO.N,3V3*%
X216500000Y-137400000D03*
%TD*%
D16*
%TO.N,/UI/B7*%
%TO.C,TP5*%
X161125000Y-127250000D03*
%TD*%
%TO.N,/Motor/VREF*%
%TO.C,TP1*%
X179500000Y-77500000D03*
%TD*%
D17*
%TO.N,N/C*%
%TO.C,J10*%
X163987501Y-103304299D03*
X156087501Y-103304299D03*
%TD*%
D16*
%TO.N,Net-(U6-PB8)*%
%TO.C,TP12*%
X189390000Y-81070000D03*
%TD*%
D18*
%TO.N,unconnected-(J5-Pin_1-Pad1)*%
%TO.C,J5*%
X228000000Y-112290000D03*
D19*
%TO.N,unconnected-(J5-Pin_2-Pad2)*%
X228000000Y-109750000D03*
%TO.N,VSYS*%
X228000000Y-107210000D03*
%TO.N,AGND*%
X228000000Y-104670000D03*
%TO.N,5V*%
X228000000Y-102130000D03*
%TD*%
D16*
%TO.N,/Motor/EN*%
%TO.C,TP2*%
X179500000Y-81000000D03*
%TD*%
D14*
%TO.N,GND*%
%TO.C,SW6*%
X158240000Y-136850000D03*
D15*
%TO.N,/UI/B5*%
X158240000Y-134850000D03*
%TD*%
D20*
%TO.N,GND*%
%TO.C,U2*%
X162900000Y-116087500D03*
X161925000Y-116812500D03*
X161925000Y-116087500D03*
X161925000Y-115362500D03*
X160950000Y-116087500D03*
%TD*%
D21*
%TO.N,N/C*%
%TO.C,H2*%
X235700000Y-139775000D03*
%TD*%
D16*
%TO.N,Net-(RN1G-R7.2)*%
%TO.C,TP3*%
X160700000Y-124525000D03*
%TD*%
%TO.N,PC14-OSC32IN*%
%TO.C,TP7*%
X184800000Y-114400000D03*
%TD*%
%TO.N,PC15-OSC32OUT*%
%TO.C,TP8*%
X184400000Y-116200000D03*
%TD*%
D18*
%TO.N,3V3*%
%TO.C,J8*%
X185040000Y-102230000D03*
D19*
%TO.N,Net-(J8-SWDIO{slash}TMS)*%
X185040000Y-104770000D03*
%TO.N,GND*%
X182500000Y-102230000D03*
%TO.N,Net-(J8-SWCLK{slash}TCK)*%
X182500000Y-104770000D03*
%TO.N,GND*%
X179960000Y-102230000D03*
%TO.N,Net-(J8-SWO{slash}TDO)*%
X179960000Y-104770000D03*
%TO.N,unconnected-(J8-KEY-Pad7)*%
X177420000Y-102230000D03*
%TO.N,unconnected-(J8-NC{slash}TDI-Pad8)*%
X177420000Y-104770000D03*
%TO.N,GND*%
X174880000Y-102230000D03*
%TO.N,Net-(J8-~{RESET})*%
X174880000Y-104770000D03*
%TD*%
D21*
%TO.N,N/C*%
%TO.C,H1*%
X152725000Y-102700000D03*
%TD*%
D16*
%TO.N,Net-(U6-PB9)*%
%TO.C,TP13*%
X183750000Y-86750000D03*
%TD*%
D22*
%TO.N,/Motor/B1*%
%TO.C,J7*%
X226600000Y-120000000D03*
D23*
%TO.N,/Motor/B2*%
X226600000Y-122500000D03*
%TO.N,/Motor/A2*%
X226600000Y-125000000D03*
%TO.N,/Motor/A1*%
X226600000Y-127500000D03*
%TD*%
D14*
%TO.N,3V3*%
%TO.C,J1*%
X212000000Y-137400000D03*
D15*
%TO.N,I2S_WS*%
X210000000Y-137400000D03*
%TO.N,I2S_DATA*%
X208000000Y-137400000D03*
%TO.N,I2S_BCLK*%
X206000000Y-137400000D03*
%TO.N,GND*%
X204000000Y-137400000D03*
%TO.N,3V3*%
X202000000Y-137400000D03*
%TD*%
D16*
%TO.N,Net-(U6-PC8)*%
%TO.C,TP10*%
X192050000Y-82950000D03*
%TD*%
%TO.N,/UI/B8*%
%TO.C,TP6*%
X158425000Y-127250000D03*
%TD*%
D18*
%TO.N,GND*%
%TO.C,J6*%
X196500000Y-135900000D03*
D19*
%TO.N,3V3*%
X196500000Y-138440000D03*
%TO.N,MISO*%
X193960000Y-135900000D03*
%TO.N,CS*%
X193960000Y-138440000D03*
%TO.N,RST*%
X191420000Y-135900000D03*
%TO.N,DC*%
X191420000Y-138440000D03*
%TO.N,SCK*%
X188880000Y-135900000D03*
%TO.N,MOSI*%
X188880000Y-138440000D03*
%TD*%
D18*
%TO.N,unconnected-(J4-Pin_1-Pad1)*%
%TO.C,J4*%
X166750000Y-102500000D03*
D19*
%TO.N,unconnected-(J4-Pin_2-Pad2)*%
X169290000Y-102500000D03*
%TO.N,VSYS*%
X171830000Y-102500000D03*
%TO.N,GND*%
X174370000Y-102500000D03*
%TO.N,3V3*%
X176910000Y-102500000D03*
%TD*%
D16*
%TO.N,Net-(U6-PC7)*%
%TO.C,TP11*%
X189390000Y-78020000D03*
%TD*%
D14*
%TO.N,GND*%
%TO.C,SW4*%
X168820000Y-136850000D03*
D15*
%TO.N,/UI/B3*%
X168820000Y-134850000D03*
%TD*%
D18*
%TO.N,MCU_RX*%
%TO.C,J9*%
X185450000Y-132570000D03*
D19*
%TO.N,MCU_TX*%
X185450000Y-135110000D03*
%TO.N,GND*%
X185450000Y-137650000D03*
%TD*%
D16*
%TO.N,Net-(U6-PC9)*%
%TO.C,TP9*%
X186340000Y-78020000D03*
%TD*%
D14*
%TO.N,Net-(SW1-A)*%
%TO.C,SW1*%
X153125000Y-121975000D03*
D15*
%TO.N,BATT_POS*%
X153125000Y-119975000D03*
%TD*%
D14*
%TO.N,GND*%
%TO.C,SW2*%
X179400000Y-136850000D03*
D15*
%TO.N,/UI/B1*%
X179400000Y-134850000D03*
%TD*%
D14*
%TO.N,GND*%
%TO.C,SW7*%
X152950000Y-136850000D03*
D15*
%TO.N,/UI/B6*%
X152950000Y-134850000D03*
%TD*%
D24*
%TO.N,GND*%
%TO.C,J3*%
X153150000Y-130025000D03*
D25*
%TO.N,Net-(SW1-A)*%
X153150000Y-127525000D03*
%TD*%
D14*
%TO.N,GND*%
%TO.C,SW5*%
X163530000Y-136850000D03*
D15*
%TO.N,/UI/B4*%
X163530000Y-134850000D03*
%TD*%
D38*
%TO.N,Button1*%
X188450000Y-118700000D03*
X168750000Y-122416598D03*
%TO.N,Button2*%
X169550001Y-122416599D03*
X188856847Y-119269629D03*
%TO.N,Button3*%
X170350000Y-122416598D03*
X188400000Y-119800000D03*
%TO.N,Button4*%
X196100000Y-120750000D03*
X171150000Y-122416598D03*
%TO.N,Button5*%
X192275000Y-123400000D03*
%TO.N,Button6*%
X193250000Y-123375000D03*
%TO.N,NRST*%
X181375000Y-109050000D03*
X188825000Y-117700000D03*
X200721671Y-116716758D03*
%TO.N,DC*%
X200450000Y-131550000D03*
X196350000Y-133500000D03*
X200239337Y-118745735D03*
%TO.N,SCK*%
X191225000Y-128900000D03*
%TO.N,CS*%
X190724607Y-126079189D03*
%TO.N,MISO*%
X191800000Y-129800000D03*
X193375000Y-131750000D03*
%TO.N,RST*%
X192850000Y-126300000D03*
X197475000Y-118500000D03*
%TO.N,SDA*%
X163825000Y-117750000D03*
%TO.N,SCL*%
X164675000Y-117050000D03*
%TO.N,/Motor/SLP*%
X211675000Y-114100000D03*
D39*
%TO.N,MCU_RX*%
X189250000Y-126100000D03*
D38*
%TO.N,I2S_BCLK*%
X199450000Y-126375000D03*
X195700000Y-126400000D03*
D39*
%TO.N,SWCLK*%
X196750000Y-111550000D03*
D38*
X183000000Y-109050000D03*
%TO.N,SWDIO*%
X200200000Y-116250000D03*
X184000000Y-109050000D03*
%TO.N,SWO*%
X193725000Y-111800000D03*
X182200000Y-109050000D03*
%TO.N,Net-(U1-TS{slash}MR)*%
X162600000Y-109925000D03*
X156450000Y-109750000D03*
%TO.N,Net-(U1-ILIM{slash}VSET)*%
X162675000Y-108050000D03*
X155775000Y-109589498D03*
%TO.N,STEP*%
X219550000Y-118050000D03*
X188650000Y-121100000D03*
D40*
%TO.N,/Motor/B2*%
X216700000Y-119375000D03*
D38*
%TO.N,BAT_EMPTY*%
X160000000Y-117775000D03*
%TO.N,STATS2*%
X155500000Y-113400000D03*
%TO.N,STATS1*%
X155100000Y-109400000D03*
%TD*%
D45*
%TO.P,RN4,1,R1.1*%
%TO.N,Net-(J8-SWDIO{slash}TMS)*%
X183840000Y-105915000D03*
D46*
%TO.P,RN4,2,R2.1*%
%TO.N,Net-(J8-SWCLK{slash}TCK)*%
X183000000Y-105915000D03*
%TO.P,RN4,3,R3.1*%
%TO.N,Net-(J8-SWO{slash}TDO)*%
X182200000Y-105915000D03*
D45*
%TO.P,RN4,4,R4.1*%
%TO.N,Net-(J8-~{RESET})*%
X181360000Y-105915000D03*
%TO.P,RN4,5,R4.2*%
%TO.N,NRST*%
X181360000Y-107685000D03*
D46*
%TO.P,RN4,6,R3.2*%
%TO.N,SWO*%
X182200000Y-107685000D03*
%TO.P,RN4,7,R2.2*%
%TO.N,SWCLK*%
X183000000Y-107685000D03*
D45*
%TO.P,RN4,8,R1.2*%
%TO.N,SWDIO*%
X183840000Y-107685000D03*
%TD*%
D47*
%TO.P,C26,1*%
%TO.N,3V3*%
X187300000Y-112250000D03*
%TO.P,C26,2*%
%TO.N,GND*%
X187300000Y-110350000D03*
%TD*%
D48*
%TO.P,R7,1*%
%TO.N,3V3*%
X172775000Y-117675000D03*
%TO.P,R7,2*%
%TO.N,SDA*%
X172775000Y-115850000D03*
%TD*%
D47*
%TO.P,C1,1*%
%TO.N,VSYS*%
X151625000Y-114075000D03*
%TO.P,C1,2*%
%TO.N,GND*%
X151625000Y-112175000D03*
%TD*%
D49*
%TO.P,U6,1,VBAT*%
%TO.N,3V3*%
X187325000Y-115250000D03*
%TO.P,U6,2,PC13*%
%TO.N,unconnected-(U6-PC13-Pad2)*%
X187325000Y-115750000D03*
%TO.P,U6,3,PC14*%
%TO.N,PC14-OSC32IN*%
X187325000Y-116250000D03*
%TO.P,U6,4,PC15*%
%TO.N,PC15-OSC32OUT*%
X187325000Y-116750000D03*
%TO.P,U6,5,PH0*%
%TO.N,PH0-OSCIN*%
X187325000Y-117250000D03*
%TO.P,U6,6,PH1*%
%TO.N,PH1-OSCOUT*%
X187325000Y-117750000D03*
%TO.P,U6,7,NRST*%
%TO.N,NRST*%
X187325000Y-118250000D03*
%TO.P,U6,8,PC0*%
%TO.N,Button1*%
X187325000Y-118750000D03*
%TO.P,U6,9,PC1*%
%TO.N,Button2*%
X187325000Y-119250000D03*
%TO.P,U6,10,PC2*%
%TO.N,Button3*%
X187325000Y-119750000D03*
%TO.P,U6,11,PC3*%
%TO.N,I2S_DATA*%
X187325000Y-120250000D03*
%TO.P,U6,12,VSSA*%
%TO.N,GND*%
X187325000Y-120750000D03*
%TO.P,U6,13,VDDA*%
%TO.N,+3.3VA*%
X187325000Y-121250000D03*
%TO.P,U6,14,PA0*%
%TO.N,STEP*%
X187325000Y-121750000D03*
%TO.P,U6,15,PA1*%
%TO.N,DIR*%
X187325000Y-122250000D03*
%TO.P,U6,16,PA2*%
%TO.N,MCU_TX*%
X187325000Y-122750000D03*
D50*
%TO.P,U6,17,PA3*%
%TO.N,MCU_RX*%
X189250000Y-124675000D03*
%TO.P,U6,18,VSS*%
%TO.N,GND*%
X189750000Y-124675000D03*
%TO.P,U6,19,VDD*%
%TO.N,3V3*%
X190250000Y-124675000D03*
%TO.P,U6,20,PA4*%
%TO.N,CS*%
X190750000Y-124675000D03*
%TO.P,U6,21,PA5*%
%TO.N,SCK*%
X191250000Y-124675000D03*
%TO.P,U6,22,PA6*%
%TO.N,MISO*%
X191750000Y-124675000D03*
%TO.P,U6,23,PA7*%
%TO.N,MOSI*%
X192250000Y-124675000D03*
%TO.P,U6,24,PC4*%
%TO.N,Button5*%
X192750000Y-124675000D03*
%TO.P,U6,25,PC5*%
%TO.N,Button6*%
X193250000Y-124675000D03*
%TO.P,U6,26,PB0*%
%TO.N,unconnected-(U6-PB0-Pad26)*%
X193750000Y-124675000D03*
%TO.P,U6,27,PB1*%
%TO.N,unconnected-(U6-PB1-Pad27)*%
X194250000Y-124675000D03*
%TO.P,U6,28,PB2*%
%TO.N,/MCU/BOOT1*%
X194750000Y-124675000D03*
%TO.P,U6,29,PB10*%
%TO.N,I2S_BCLK*%
X195250000Y-124675000D03*
%TO.P,U6,30,PB11*%
%TO.N,unconnected-(U6-PB11-Pad30)*%
X195750000Y-124675000D03*
%TO.P,U6,31,VCAP_1*%
%TO.N,Net-(U6-VCAP_1)*%
X196250000Y-124675000D03*
%TO.P,U6,32,VDD*%
%TO.N,3V3*%
X196750000Y-124675000D03*
D49*
%TO.P,U6,33,PB12*%
%TO.N,I2S_WS*%
X198675000Y-122750000D03*
%TO.P,U6,34,PB13*%
%TO.N,unconnected-(U6-PB13-Pad34)*%
X198675000Y-122250000D03*
%TO.P,U6,35,PB14*%
%TO.N,unconnected-(U6-PB14-Pad35)*%
X198675000Y-121750000D03*
%TO.P,U6,36,PB15*%
%TO.N,unconnected-(U6-PB15-Pad36)*%
X198675000Y-121250000D03*
%TO.P,U6,37,PC6*%
%TO.N,Button4*%
X198675000Y-120750000D03*
%TO.P,U6,38,PC7*%
%TO.N,Net-(U6-PC7)*%
X198675000Y-120250000D03*
%TO.P,U6,39,PC8*%
%TO.N,Net-(U6-PC8)*%
X198675000Y-119750000D03*
%TO.P,U6,40,PC9*%
%TO.N,Net-(U6-PC9)*%
X198675000Y-119250000D03*
%TO.P,U6,41,PA8*%
%TO.N,DC*%
X198675000Y-118750000D03*
%TO.P,U6,42,PA9*%
%TO.N,RST*%
X198675000Y-118250000D03*
%TO.P,U6,43,PA10*%
%TO.N,BAT_EMPTY*%
X198675000Y-117750000D03*
%TO.P,U6,44,PA11*%
%TO.N,unconnected-(U6-PA11-Pad44)*%
X198675000Y-117250000D03*
%TO.P,U6,45,PA12*%
%TO.N,unconnected-(U6-PA12-Pad45)*%
X198675000Y-116750000D03*
%TO.P,U6,46,PA13*%
%TO.N,SWDIO*%
X198675000Y-116250000D03*
%TO.P,U6,47,VCAP_2*%
%TO.N,Net-(U6-VCAP_2)*%
X198675000Y-115750000D03*
%TO.P,U6,48,VDD*%
%TO.N,3V3*%
X198675000Y-115250000D03*
D50*
%TO.P,U6,49,PA14*%
%TO.N,SWCLK*%
X196750000Y-113325000D03*
%TO.P,U6,50,PA15*%
%TO.N,unconnected-(U6-PA15-Pad50)*%
X196250000Y-113325000D03*
%TO.P,U6,51,PC10*%
%TO.N,PC10*%
X195750000Y-113325000D03*
%TO.P,U6,52,PC11*%
%TO.N,PC11*%
X195250000Y-113325000D03*
%TO.P,U6,53,PC12*%
%TO.N,PC12*%
X194750000Y-113325000D03*
%TO.P,U6,54,PD2*%
%TO.N,unconnected-(U6-PD2-Pad54)*%
X194250000Y-113325000D03*
%TO.P,U6,55,PB3*%
%TO.N,SWO*%
X193750000Y-113325000D03*
%TO.P,U6,56,PB4*%
%TO.N,PB4*%
X193250000Y-113325000D03*
%TO.P,U6,57,PB5*%
%TO.N,unconnected-(U6-PB5-Pad57)*%
X192750000Y-113325000D03*
%TO.P,U6,58,PB6*%
%TO.N,SCL*%
X192250000Y-113325000D03*
%TO.P,U6,59,PB7*%
%TO.N,SDA*%
X191750000Y-113325000D03*
%TO.P,U6,60,BOOT0*%
%TO.N,BOOT0*%
X191250000Y-113325000D03*
%TO.P,U6,61,PB8*%
%TO.N,Net-(U6-PB8)*%
X190750000Y-113325000D03*
%TO.P,U6,62,PB9*%
%TO.N,Net-(U6-PB9)*%
X190250000Y-113325000D03*
%TO.P,U6,63,VSS*%
%TO.N,GND*%
X189750000Y-113325000D03*
%TO.P,U6,64,VDD*%
%TO.N,3V3*%
X189250000Y-113325000D03*
%TD*%
D14*
%TO.P,SW3,1,1*%
%TO.N,GND*%
X174110000Y-136850000D03*
D15*
%TO.P,SW3,2,2*%
%TO.N,/UI/B2*%
X174110000Y-134850000D03*
%TD*%
D16*
%TO.P,TP4,1,1*%
%TO.N,Net-(RN1H-R8.2)*%
X147200000Y-135550000D03*
%TD*%
D51*
%TO.P,D7,1,K*%
%TO.N,Net-(D7-K)*%
X201250000Y-106170000D03*
%TO.P,D7,2,A*%
%TO.N,PC11*%
X201250000Y-108220000D03*
%TD*%
D52*
%TO.P,R1,1*%
%TO.N,GND*%
X206150000Y-102212500D03*
%TO.P,R1,2*%
%TO.N,Net-(D1-K)*%
X206150000Y-104037500D03*
%TD*%
D14*
%TO.P,J2,1,1*%
%TO.N,GND*%
X226500000Y-137400000D03*
D15*
%TO.P,J2,2,2*%
%TO.N,I2S_WS*%
X224500000Y-137400000D03*
%TO.P,J2,3,3*%
%TO.N,I2S_DATA*%
X222500000Y-137400000D03*
%TO.P,J2,4,4*%
%TO.N,I2S_BCLK*%
X220500000Y-137400000D03*
%TO.P,J2,5,5*%
%TO.N,GND*%
X218500000Y-137400000D03*
%TO.P,J2,6,6*%
%TO.N,3V3*%
X216500000Y-137400000D03*
%TD*%
D16*
%TO.P,TP5,1,1*%
%TO.N,/UI/B7*%
X161125000Y-127250000D03*
%TD*%
D53*
%TO.P,R15,1*%
%TO.N,Net-(U5-BDECAY)*%
X210834900Y-112100000D03*
%TO.P,R15,2*%
%TO.N,AGND*%
X209009900Y-112100000D03*
%TD*%
D54*
%TO.P,C24,1*%
%TO.N,3V3*%
X189825000Y-127975000D03*
%TO.P,C24,2*%
%TO.N,GND*%
X189825000Y-129875000D03*
%TD*%
D55*
%TO.P,FB1,1*%
%TO.N,+3.3VA*%
X184500000Y-123762500D03*
%TO.P,FB1,2*%
%TO.N,3V3*%
X184500000Y-125337500D03*
%TD*%
D56*
%TO.P,U3,1,1*%
%TO.N,/UI/B3*%
X173447450Y-129550000D03*
%TO.P,U3,2,2*%
%TO.N,GND*%
X173447450Y-130600000D03*
%TO.P,U3,3,3*%
%TO.N,/UI/B2*%
X173447450Y-131650000D03*
%TO.P,U3,4,4*%
%TO.N,/UI/B1*%
X176152550Y-131650000D03*
%TO.P,U3,5,5*%
%TO.N,GND*%
X176152550Y-130600000D03*
%TO.P,U3,6,6*%
%TO.N,/UI/B4*%
X176152550Y-129550000D03*
%TD*%
D57*
%TO.P,C12,1*%
%TO.N,VMOT*%
X223950000Y-108000000D03*
%TO.P,C12,2*%
%TO.N,AGND*%
X225850000Y-108000000D03*
%TD*%
D54*
%TO.P,C18,1*%
%TO.N,PH1-OSCOUT*%
X183650000Y-119700000D03*
%TO.P,C18,2*%
%TO.N,GND*%
X183650000Y-121600000D03*
%TD*%
D53*
%TO.P,R20,1*%
%TO.N,VMOT*%
X214052500Y-101770000D03*
%TO.P,R20,2*%
%TO.N,Net-(C14-Pad1)*%
X212227500Y-101770000D03*
%TD*%
D52*
%TO.P,R18,1*%
%TO.N,Net-(U5-BAISEN)*%
X217600000Y-120687500D03*
%TO.P,R18,2*%
%TO.N,AGND*%
X217600000Y-122512500D03*
%TD*%
D51*
%TO.P,D9,1,K*%
%TO.N,Net-(D9-K)*%
X196250000Y-106170000D03*
%TO.P,D9,2,A*%
%TO.N,PB4*%
X196250000Y-108220000D03*
%TD*%
D52*
%TO.P,R19,1*%
%TO.N,Net-(U5-AISEN)*%
X215650000Y-120687500D03*
%TO.P,R19,2*%
%TO.N,AGND*%
X215650000Y-122512500D03*
%TD*%
D16*
%TO.P,TP1,1,1*%
%TO.N,/Motor/VREF*%
X179500000Y-77500000D03*
%TD*%
D58*
%TO.P,J10,1,VBUS*%
%TO.N,Net-(J10-VBUS)*%
X158737501Y-105968500D03*
%TO.P,J10,2,D-*%
%TO.N,/USB/D-*%
X159387502Y-105968500D03*
%TO.P,J10,3,D+*%
%TO.N,/USB/D+*%
X160037501Y-105968500D03*
%TO.P,J10,4,ID*%
%TO.N,unconnected-(J10-ID-Pad4)*%
X160687500Y-105968500D03*
%TO.P,J10,5,GND*%
%TO.N,GND*%
X161337501Y-105968500D03*
D59*
%TO.P,J10,6*%
%TO.N,N/C*%
X162500000Y-105879600D03*
%TO.P,J10,7*%
X157575002Y-105879600D03*
D60*
%TO.P,J10,8*%
X161225001Y-103304299D03*
%TO.P,J10,9*%
X158850001Y-103304299D03*
D17*
%TO.P,J10,10*%
X163987501Y-103304299D03*
%TO.P,J10,11*%
X156087501Y-103304299D03*
%TD*%
D16*
%TO.P,TP12,1,1*%
%TO.N,Net-(U6-PB8)*%
X189390000Y-81070000D03*
%TD*%
D30*
%TO.P,C14,1*%
%TO.N,Net-(C14-Pad1)*%
X210550000Y-101800000D03*
%TO.P,C14,2*%
%TO.N,AGND*%
X208650000Y-101800000D03*
%TD*%
D57*
%TO.P,C17,1*%
%TO.N,NRST*%
X202150000Y-118600000D03*
%TO.P,C17,2*%
%TO.N,GND*%
X204050000Y-118600000D03*
%TD*%
D47*
%TO.P,C16,1*%
%TO.N,3V3*%
X178100000Y-118250000D03*
%TO.P,C16,2*%
%TO.N,GND*%
X178100000Y-116350000D03*
%TD*%
D61*
%TO.P,C7,1*%
%TO.N,/UI/B8*%
X164225000Y-123166000D03*
%TO.P,C7,2*%
%TO.N,/UI/B7*%
X165025001Y-123166000D03*
%TO.P,C7,3*%
%TO.N,Button6*%
X165824999Y-123166000D03*
%TO.P,C7,4*%
%TO.N,Button5*%
X166625000Y-123166000D03*
%TO.P,C7,5*%
%TO.N,GND*%
X166625000Y-121134000D03*
%TO.P,C7,6*%
X165824999Y-121134000D03*
%TO.P,C7,7*%
X165025001Y-121134000D03*
%TO.P,C7,8*%
X164225000Y-121134000D03*
%TD*%
D53*
%TO.P,R16,1*%
%TO.N,Net-(U5-ADECAY)*%
X210834900Y-110200000D03*
%TO.P,R16,2*%
%TO.N,AGND*%
X209009900Y-110200000D03*
%TD*%
D62*
%TO.P,R21,1*%
%TO.N,unconnected-(R21-Pad1)*%
X180000000Y-119900000D03*
%TO.P,R21,2*%
%TO.N,PH1-OSCOUT*%
X181825000Y-119900000D03*
%TD*%
D52*
%TO.P,R22,1*%
%TO.N,Net-(SW9-B)*%
X191250000Y-106887500D03*
%TO.P,R22,2*%
%TO.N,BOOT0*%
X191250000Y-108712500D03*
%TD*%
D48*
%TO.P,R2,1*%
%TO.N,GND*%
X177025000Y-112787500D03*
%TO.P,R2,2*%
%TO.N,Net-(D2-K)*%
X177025000Y-110962500D03*
%TD*%
D63*
%TO.P,U5,1,AOUT1*%
%TO.N,/Motor/A1*%
X215000003Y-116600000D03*
%TO.P,U5,2,AISEN*%
%TO.N,Net-(U5-AISEN)*%
X215650002Y-116600000D03*
%TO.P,U5,3,AOUT2*%
%TO.N,/Motor/A2*%
X216300000Y-116600000D03*
%TO.P,U5,4,BOUT2*%
%TO.N,/Motor/B2*%
X216950001Y-116600000D03*
%TO.P,U5,5,BAISEN*%
%TO.N,Net-(U5-BAISEN)*%
X217600000Y-116600000D03*
%TO.P,U5,6,BOUT1*%
%TO.N,/Motor/B1*%
X218250001Y-116600000D03*
%TO.P,U5,7,ENBL*%
%TO.N,/Motor/EN*%
X218900000Y-116600000D03*
%TO.P,U5,8,STEP*%
%TO.N,STEP*%
X219550001Y-116600000D03*
%TO.P,U5,9,DIR*%
%TO.N,DIR*%
X220200000Y-116600000D03*
%TO.P,U5,10,M0*%
%TO.N,/Motor/M0*%
X220850001Y-116600000D03*
%TO.P,U5,11,M1*%
%TO.N,/Motor/M1*%
X221500000Y-116600000D03*
%TO.P,U5,12,CONFIG*%
%TO.N,Net-(U5-CONFIG)*%
X222150001Y-116600000D03*
%TO.P,U5,13,FAULT*%
%TO.N,Net-(U5-FAULT)*%
X222150001Y-111000002D03*
%TO.P,U5,14,VCP*%
%TO.N,Net-(U5-VCP)*%
X221500002Y-111000002D03*
%TO.P,U5,15,VM*%
%TO.N,VMOT*%
X220850001Y-111000002D03*
%TO.P,U5,16,VM*%
X220200003Y-111000002D03*
%TO.P,U5,17,VINT*%
%TO.N,3V3*%
X219550001Y-111000002D03*
%TO.P,U5,18,GND*%
%TO.N,AGND*%
X218900003Y-111000002D03*
%TO.P,U5,19,AVREF*%
%TO.N,/Motor/VREF*%
X218250004Y-111000002D03*
%TO.P,U5,20,BVREF*%
X217600003Y-111000002D03*
%TO.P,U5,21,VREF0*%
%TO.N,Net-(U5-VREF0)*%
X216950004Y-111000002D03*
%TO.P,U5,22,SLEEP*%
%TO.N,/Motor/SLP*%
X216300003Y-111000002D03*
%TO.P,U5,23,BDECAY*%
%TO.N,Net-(U5-BDECAY)*%
X215650004Y-111000002D03*
%TO.P,U5,24,ADECAY*%
%TO.N,Net-(U5-ADECAY)*%
X215000003Y-111000002D03*
D64*
%TO.P,U5,25,GND*%
%TO.N,AGND*%
X218575002Y-113800001D03*
%TD*%
D51*
%TO.P,D8,1,K*%
%TO.N,Net-(D8-K)*%
X198750000Y-106170000D03*
%TO.P,D8,2,A*%
%TO.N,PC12*%
X198750000Y-108220000D03*
%TD*%
D62*
%TO.P,R17,1*%
%TO.N,/Motor/FLT*%
X208975000Y-114100000D03*
%TO.P,R17,2*%
%TO.N,/Motor/SLP*%
X210800000Y-114100000D03*
%TD*%
D65*
%TO.P,SW9,*%
%TO.N,*%
X194250000Y-104255000D03*
X194250000Y-102045000D03*
X186950000Y-104255000D03*
X186950000Y-102045000D03*
D66*
%TO.P,SW9,1,A*%
%TO.N,3V3*%
X192850000Y-104905000D03*
%TO.P,SW9,2,B*%
%TO.N,Net-(SW9-B)*%
X189850000Y-104905000D03*
%TO.P,SW9,3,C*%
%TO.N,GND*%
X188350000Y-104905000D03*
%TD*%
D54*
%TO.P,C8,1*%
%TO.N,VMOT*%
X222100000Y-107250000D03*
%TO.P,C8,2*%
%TO.N,Net-(U5-VCP)*%
X222100000Y-109150000D03*
%TD*%
%TO.P,C25,1*%
%TO.N,Net-(U6-VCAP_1)*%
X196450000Y-128000000D03*
%TO.P,C25,2*%
%TO.N,GND*%
X196450000Y-129900000D03*
%TD*%
D18*
%TO.P,J5,1,Pin_1*%
%TO.N,unconnected-(J5-Pin_1-Pad1)*%
X228000000Y-112290000D03*
D19*
%TO.P,J5,2,Pin_2*%
%TO.N,unconnected-(J5-Pin_2-Pad2)*%
X228000000Y-109750000D03*
%TO.P,J5,3,Pin_3*%
%TO.N,VSYS*%
X228000000Y-107210000D03*
%TO.P,J5,4,Pin_4*%
%TO.N,AGND*%
X228000000Y-104670000D03*
%TO.P,J5,5,Pin_5*%
%TO.N,5V*%
X228000000Y-102130000D03*
%TD*%
D67*
%TO.P,C31,1*%
%TO.N,3V3*%
X186992500Y-96525000D03*
%TO.P,C31,2*%
%TO.N,GND*%
X190117500Y-96525000D03*
%TD*%
D16*
%TO.P,TP2,1,1*%
%TO.N,/Motor/EN*%
X179500000Y-81000000D03*
%TD*%
D56*
%TO.P,U4,1,1*%
%TO.N,/UI/B8*%
X158425000Y-129475000D03*
%TO.P,U4,2,2*%
%TO.N,GND*%
X158425000Y-130525000D03*
%TO.P,U4,3,3*%
%TO.N,/UI/B6*%
X158425000Y-131575000D03*
%TO.P,U4,4,4*%
%TO.N,/UI/B5*%
X161130100Y-131575000D03*
%TO.P,U4,5,5*%
%TO.N,GND*%
X161130100Y-130525000D03*
%TO.P,U4,6,6*%
%TO.N,/UI/B7*%
X161130100Y-129475000D03*
%TD*%
D54*
%TO.P,C29,1*%
%TO.N,+3.3VA*%
X182550000Y-123600000D03*
%TO.P,C29,2*%
%TO.N,GND*%
X182550000Y-125500000D03*
%TD*%
D68*
%TO.P,Y1,1,1*%
%TO.N,unconnected-(Y1-Pad1)*%
X199750000Y-93675000D03*
%TO.P,Y1,2,2*%
%TO.N,unconnected-(Y1-Pad2)*%
X199750000Y-84175000D03*
%TD*%
D51*
%TO.P,D1,1,K*%
%TO.N,Net-(D1-K)*%
X206150000Y-106125000D03*
%TO.P,D1,2,A*%
%TO.N,VMOT*%
X206150000Y-108175000D03*
%TD*%
D48*
%TO.P,R6,1*%
%TO.N,3V3*%
X174775000Y-117675000D03*
%TO.P,R6,2*%
%TO.N,SCL*%
X174775000Y-115850000D03*
%TD*%
D47*
%TO.P,C4,1*%
%TO.N,Net-(U2-V_{DD})*%
X165875000Y-116050000D03*
%TO.P,C4,2*%
%TO.N,GND*%
X165875000Y-114150000D03*
%TD*%
D14*
%TO.P,SW6,1,1*%
%TO.N,GND*%
X158240000Y-136850000D03*
D15*
%TO.P,SW6,2,2*%
%TO.N,/UI/B5*%
X158240000Y-134850000D03*
%TD*%
D57*
%TO.P,C11,1*%
%TO.N,VMOT*%
X223950000Y-104000000D03*
%TO.P,C11,2*%
%TO.N,AGND*%
X225850000Y-104000000D03*
%TD*%
D51*
%TO.P,D3,1,K*%
%TO.N,Net-(D3-K)*%
X206200000Y-110275000D03*
%TO.P,D3,2,A*%
%TO.N,/Motor/FLT*%
X206200000Y-112325000D03*
%TD*%
D48*
%TO.P,R5,1*%
%TO.N,STATS1*%
X174625000Y-112762500D03*
%TO.P,R5,2*%
%TO.N,Net-(D5-K)*%
X174625000Y-110937500D03*
%TD*%
D69*
%TO.P,U7,1*%
%TO.N,GND*%
X160440750Y-108075000D03*
%TO.P,U7,2*%
%TO.N,Net-(J10-VBUS)*%
X159440750Y-108075000D03*
%TD*%
D70*
%TO.P,U2,1,SDA*%
%TO.N,SDA*%
X163825000Y-117087500D03*
%TO.P,U2,2,SCL*%
%TO.N,SCL*%
X163825000Y-116687500D03*
%TO.P,U2,3,V_{SS}*%
%TO.N,GND*%
X163825000Y-116287500D03*
%TO.P,U2,4,NC*%
%TO.N,unconnected-(U2-NC-Pad4)*%
X163825000Y-115887500D03*
%TO.P,U2,5,V_{DD}*%
%TO.N,Net-(U2-V_{DD})*%
X163825000Y-115487500D03*
%TO.P,U2,6,BAT*%
%TO.N,BATT_POS*%
X163825000Y-115087500D03*
%TO.P,U2,7,SRN*%
%TO.N,VBAT*%
X160025000Y-115087500D03*
%TO.P,U2,8,SRP*%
%TO.N,BATT_POS*%
X160025000Y-115487500D03*
%TO.P,U2,9,NC*%
%TO.N,unconnected-(U2-NC-Pad9)*%
X160025000Y-115887500D03*
%TO.P,U2,10,BIN*%
%TO.N,Net-(U2-BIN)*%
X160025000Y-116287500D03*
%TO.P,U2,11,NC*%
%TO.N,unconnected-(U2-NC-Pad11)*%
X160025000Y-116687500D03*
%TO.P,U2,12,GPOUT*%
%TO.N,BAT_EMPTY*%
X160025000Y-117087500D03*
D71*
%TO.P,U2,13,PAD*%
%TO.N,GND*%
X163050000Y-117275000D03*
X163050000Y-114900000D03*
D20*
X162900000Y-116087500D03*
X161925000Y-116812500D03*
X161925000Y-116087500D03*
D72*
X161925000Y-116087500D03*
D20*
X161925000Y-115362500D03*
X160950000Y-116087500D03*
D71*
X160800000Y-117275000D03*
X160800000Y-114900000D03*
%TD*%
D21*
%TO.P,H2,1*%
%TO.N,N/C*%
X235700000Y-139775000D03*
D73*
X235700000Y-139775000D03*
%TD*%
D57*
%TO.P,C27,1*%
%TO.N,Net-(U6-VCAP_2)*%
X202150000Y-116150000D03*
%TO.P,C27,2*%
%TO.N,GND*%
X204050000Y-116150000D03*
%TD*%
%TO.P,C22,1*%
%TO.N,3V3*%
X202150000Y-113900000D03*
%TO.P,C22,2*%
%TO.N,GND*%
X204050000Y-113900000D03*
%TD*%
D16*
%TO.P,TP3,1,1*%
%TO.N,Net-(RN1G-R7.2)*%
X160700000Y-124525000D03*
%TD*%
D48*
%TO.P,R4,1*%
%TO.N,STATS2*%
X172075000Y-112737500D03*
%TO.P,R4,2*%
%TO.N,Net-(D4-K)*%
X172075000Y-110912500D03*
%TD*%
D74*
%TO.P,RN2,1,R1.1*%
%TO.N,/UI/B8*%
X171700000Y-126855000D03*
%TO.P,RN2,2,R2.1*%
%TO.N,/UI/B7*%
X171200000Y-126855000D03*
%TO.P,RN2,3,R3.1*%
%TO.N,Button6*%
X170700000Y-126855000D03*
%TO.P,RN2,4,R4.1*%
%TO.N,Button5*%
X170200000Y-126855000D03*
%TO.P,RN2,5,R5.1*%
%TO.N,Button4*%
X169700000Y-126855000D03*
%TO.P,RN2,6,R6.1*%
%TO.N,Button3*%
X169200000Y-126855000D03*
%TO.P,RN2,7,R7.1*%
%TO.N,Button2*%
X168700000Y-126855000D03*
%TO.P,RN2,8,R8.1*%
%TO.N,Button1*%
X168200000Y-126855000D03*
%TO.P,RN2,9,R8.2*%
%TO.N,3V3*%
X168200000Y-128645000D03*
%TO.P,RN2,10,R7.2*%
X168700000Y-128645000D03*
%TO.P,RN2,11,R6.2*%
X169200000Y-128645000D03*
%TO.P,RN2,12,R5.2*%
X169700000Y-128645000D03*
%TO.P,RN2,13,R4.2*%
X170200000Y-128645000D03*
%TO.P,RN2,14,R3.2*%
X170700000Y-128645000D03*
%TO.P,RN2,15,R2.2*%
X171200000Y-128645000D03*
%TO.P,RN2,16,R1.2*%
X171700000Y-128645000D03*
%TD*%
D16*
%TO.P,TP7,1,1*%
%TO.N,PC14-OSC32IN*%
X184800000Y-114400000D03*
%TD*%
D52*
%TO.P,R9,1*%
%TO.N,Net-(U2-BIN)*%
X157750000Y-116325000D03*
%TO.P,R9,2*%
%TO.N,GND*%
X157750000Y-118150000D03*
%TD*%
%TO.P,R13,1*%
%TO.N,3V3*%
X223925000Y-114662500D03*
%TO.P,R13,2*%
%TO.N,Net-(U5-CONFIG)*%
X223925000Y-116487500D03*
%TD*%
D75*
%TO.P,F1,1,1*%
%TO.N,5V*%
X225522400Y-101800000D03*
%TO.P,F1,2,2*%
%TO.N,VMOT*%
X222677600Y-101800000D03*
%TD*%
D62*
%TO.P,R10,1*%
%TO.N,Net-(U1-TS{slash}MR)*%
X163612500Y-109925000D03*
%TO.P,R10,2*%
%TO.N,GND*%
X165437500Y-109925000D03*
%TD*%
D76*
%TO.P,F2,1,1*%
%TO.N,VBUS*%
X156054650Y-108025000D03*
%TO.P,F2,2,2*%
%TO.N,Net-(J10-VBUS)*%
X157845350Y-108025000D03*
%TD*%
D16*
%TO.P,TP8,1,1*%
%TO.N,PC15-OSC32OUT*%
X184400000Y-116200000D03*
%TD*%
D77*
%TO.P,D2,1,K*%
%TO.N,Net-(D2-K)*%
X177025000Y-109150000D03*
%TO.P,D2,2,A*%
%TO.N,3V3*%
X177025000Y-107100000D03*
%TD*%
D78*
%TO.P,SW8,1,1*%
%TO.N,GND*%
X202900000Y-121200000D03*
%TO.P,SW8,2,2*%
%TO.N,NRST*%
X202900000Y-125700000D03*
%TO.P,SW8,3*%
%TO.N,N/C*%
X212000000Y-121200000D03*
%TO.P,SW8,4*%
X212000000Y-125700000D03*
%TD*%
D18*
%TO.P,J8,1,VTref*%
%TO.N,3V3*%
X185040000Y-102230000D03*
D19*
%TO.P,J8,2,SWDIO/TMS*%
%TO.N,Net-(J8-SWDIO{slash}TMS)*%
X185040000Y-104770000D03*
%TO.P,J8,3,GND*%
%TO.N,GND*%
X182500000Y-102230000D03*
%TO.P,J8,4,SWCLK/TCK*%
%TO.N,Net-(J8-SWCLK{slash}TCK)*%
X182500000Y-104770000D03*
%TO.P,J8,5,GND*%
%TO.N,GND*%
X179960000Y-102230000D03*
%TO.P,J8,6,SWO/TDO*%
%TO.N,Net-(J8-SWO{slash}TDO)*%
X179960000Y-104770000D03*
%TO.P,J8,7,KEY*%
%TO.N,unconnected-(J8-KEY-Pad7)*%
X177420000Y-102230000D03*
%TO.P,J8,8,NC/TDI*%
%TO.N,unconnected-(J8-NC{slash}TDI-Pad8)*%
X177420000Y-104770000D03*
%TO.P,J8,9,GNDDetect*%
%TO.N,GND*%
X174880000Y-102230000D03*
%TO.P,J8,10,~{RESET}*%
%TO.N,Net-(J8-~{RESET})*%
X174880000Y-104770000D03*
%TD*%
D48*
%TO.P,R11,1*%
%TO.N,3V3*%
X170475000Y-117700000D03*
%TO.P,R11,2*%
%TO.N,BAT_EMPTY*%
X170475000Y-115875000D03*
%TD*%
D30*
%TO.P,C28,1*%
%TO.N,3V3*%
X185350000Y-112400000D03*
%TO.P,C28,2*%
%TO.N,GND*%
X183450000Y-112400000D03*
%TD*%
D57*
%TO.P,C13,1*%
%TO.N,VMOT*%
X223950000Y-106000000D03*
%TO.P,C13,2*%
%TO.N,AGND*%
X225850000Y-106000000D03*
%TD*%
D74*
%TO.P,RN1,1,R1.1*%
%TO.N,Button1*%
X167000000Y-126855000D03*
%TO.P,RN1,2,R2.1*%
%TO.N,Button2*%
X166500000Y-126855000D03*
%TO.P,RN1,3,R3.1*%
%TO.N,Button3*%
X166000000Y-126855000D03*
%TO.P,RN1,4,R4.1*%
%TO.N,Button4*%
X165500000Y-126855000D03*
%TO.P,RN1,5,R5.1*%
%TO.N,Button5*%
X165000000Y-126855000D03*
%TO.P,RN1,6,R6.1*%
%TO.N,Button6*%
X164500000Y-126855000D03*
%TO.P,RN1,7,R7.1*%
%TO.N,/UI/B7*%
X164000000Y-126855000D03*
%TO.P,RN1,8,R8.1*%
%TO.N,/UI/B8*%
X163500000Y-126855000D03*
%TO.P,RN1,9,R8.2*%
%TO.N,Net-(RN1H-R8.2)*%
X163500000Y-128645000D03*
%TO.P,RN1,10,R7.2*%
%TO.N,Net-(RN1G-R7.2)*%
X164000000Y-128645000D03*
%TO.P,RN1,11,R6.2*%
%TO.N,/UI/B6*%
X164500000Y-128645000D03*
%TO.P,RN1,12,R5.2*%
%TO.N,/UI/B5*%
X165000000Y-128645000D03*
%TO.P,RN1,13,R4.2*%
%TO.N,/UI/B4*%
X165500000Y-128645000D03*
%TO.P,RN1,14,R3.2*%
%TO.N,/UI/B3*%
X166000000Y-128645000D03*
%TO.P,RN1,15,R2.2*%
%TO.N,/UI/B2*%
X166500000Y-128645000D03*
%TO.P,RN1,16,R1.2*%
%TO.N,/UI/B1*%
X167000000Y-128645000D03*
%TD*%
D79*
%TO.P,RN3,1,R1.1*%
%TO.N,Net-(D9-K)*%
X196700000Y-103827500D03*
D80*
%TO.P,RN3,2,R2.1*%
%TO.N,Net-(D8-K)*%
X197600000Y-103827500D03*
%TO.P,RN3,3,R3.1*%
%TO.N,Net-(D7-K)*%
X198400000Y-103827500D03*
D79*
%TO.P,RN3,4,R4.1*%
%TO.N,Net-(D6-K)*%
X199300000Y-103827500D03*
%TO.P,RN3,5,R4.2*%
%TO.N,GND*%
X199300000Y-102087500D03*
D80*
%TO.P,RN3,6,R3.2*%
X198400000Y-102087500D03*
%TO.P,RN3,7,R2.2*%
X197600000Y-102087500D03*
D79*
%TO.P,RN3,8,R1.2*%
X196700000Y-102087500D03*
%TD*%
D21*
%TO.P,H1,1*%
%TO.N,N/C*%
X152725000Y-102700000D03*
D73*
X152725000Y-102700000D03*
%TD*%
D16*
%TO.P,TP13,1,1*%
%TO.N,Net-(U6-PB9)*%
X183750000Y-86750000D03*
%TD*%
D22*
%TO.P,J7,1,1*%
%TO.N,/Motor/B1*%
X226600000Y-120000000D03*
D23*
%TO.P,J7,2,2*%
%TO.N,/Motor/B2*%
X226600000Y-122500000D03*
%TO.P,J7,3,3*%
%TO.N,/Motor/A2*%
X226600000Y-125000000D03*
%TO.P,J7,4,4*%
%TO.N,/Motor/A1*%
X226600000Y-127500000D03*
%TD*%
D57*
%TO.P,C3,1*%
%TO.N,VBAT*%
X156825000Y-114050000D03*
%TO.P,C3,2*%
%TO.N,GND*%
X158725000Y-114050000D03*
%TD*%
D52*
%TO.P,R23,1*%
%TO.N,/MCU/BOOT1*%
X194100000Y-128037500D03*
%TO.P,R23,2*%
%TO.N,GND*%
X194100000Y-129862500D03*
%TD*%
D14*
%TO.P,J1,1,1*%
%TO.N,3V3*%
X212000000Y-137400000D03*
D15*
%TO.P,J1,2,2*%
%TO.N,I2S_WS*%
X210000000Y-137400000D03*
%TO.P,J1,3,3*%
%TO.N,I2S_DATA*%
X208000000Y-137400000D03*
%TO.P,J1,4,4*%
%TO.N,I2S_BCLK*%
X206000000Y-137400000D03*
%TO.P,J1,5,5*%
%TO.N,GND*%
X204000000Y-137400000D03*
%TO.P,J1,6,6*%
%TO.N,3V3*%
X202000000Y-137400000D03*
%TD*%
D16*
%TO.P,TP10,1,1*%
%TO.N,Net-(U6-PC8)*%
X192050000Y-82950000D03*
%TD*%
D81*
%TO.P,C10,1*%
%TO.N,VMOT*%
X220100000Y-104200000D03*
%TO.P,C10,2*%
%TO.N,AGND*%
X215800000Y-104200000D03*
%TD*%
D52*
%TO.P,R14,1*%
%TO.N,Net-(U5-FAULT)*%
X223900000Y-110987500D03*
%TO.P,R14,2*%
%TO.N,/Motor/FLT*%
X223900000Y-112812500D03*
%TD*%
D16*
%TO.P,TP6,1,1*%
%TO.N,/UI/B8*%
X158425000Y-127250000D03*
%TD*%
D48*
%TO.P,R8,1*%
%TO.N,BATT_POS*%
X154625000Y-116187500D03*
%TO.P,R8,2*%
%TO.N,VBAT*%
X154625000Y-114362500D03*
%TD*%
D18*
%TO.P,J6,1,Pin_1*%
%TO.N,GND*%
X196500000Y-135900000D03*
D19*
%TO.P,J6,2,Pin_2*%
%TO.N,3V3*%
X196500000Y-138440000D03*
%TO.P,J6,3,Pin_3*%
%TO.N,MISO*%
X193960000Y-135900000D03*
%TO.P,J6,4,Pin_4*%
%TO.N,CS*%
X193960000Y-138440000D03*
%TO.P,J6,5,Pin_5*%
%TO.N,RST*%
X191420000Y-135900000D03*
%TO.P,J6,6,Pin_6*%
%TO.N,DC*%
X191420000Y-138440000D03*
%TO.P,J6,7,Pin_7*%
%TO.N,SCK*%
X188880000Y-135900000D03*
%TO.P,J6,8,Pin_8*%
%TO.N,MOSI*%
X188880000Y-138440000D03*
%TD*%
D67*
%TO.P,C30,1*%
%TO.N,+3.3VA*%
X186992500Y-93175000D03*
%TO.P,C30,2*%
%TO.N,GND*%
X190117500Y-93175000D03*
%TD*%
D18*
%TO.P,J4,1,Pin_1*%
%TO.N,unconnected-(J4-Pin_1-Pad1)*%
X166750000Y-102500000D03*
D19*
%TO.P,J4,2,Pin_2*%
%TO.N,unconnected-(J4-Pin_2-Pad2)*%
X169290000Y-102500000D03*
%TO.P,J4,3,Pin_3*%
%TO.N,VSYS*%
X171830000Y-102500000D03*
%TO.P,J4,4,Pin_4*%
%TO.N,GND*%
X174370000Y-102500000D03*
%TO.P,J4,5,Pin_5*%
%TO.N,3V3*%
X176910000Y-102500000D03*
%TD*%
D30*
%TO.P,C15,1*%
%TO.N,PH0-OSCIN*%
X182250000Y-114400000D03*
%TO.P,C15,2*%
%TO.N,GND*%
X180350000Y-114400000D03*
%TD*%
D77*
%TO.P,D5,1,K*%
%TO.N,Net-(D5-K)*%
X174600000Y-109150000D03*
%TO.P,D5,2,A*%
%TO.N,VSYS*%
X174600000Y-107100000D03*
%TD*%
D16*
%TO.P,TP11,1,1*%
%TO.N,Net-(U6-PC7)*%
X189390000Y-78020000D03*
%TD*%
D30*
%TO.P,C9,1*%
%TO.N,3V3*%
X218950000Y-108100000D03*
%TO.P,C9,2*%
%TO.N,AGND*%
X217050000Y-108100000D03*
%TD*%
D53*
%TO.P,R3,1*%
%TO.N,Net-(D3-K)*%
X204012500Y-111550000D03*
%TO.P,R3,2*%
%TO.N,GND*%
X202187500Y-111550000D03*
%TD*%
D61*
%TO.P,C6,1*%
%TO.N,GND*%
X171150000Y-121184598D03*
%TO.P,C6,2*%
X170349999Y-121184598D03*
%TO.P,C6,3*%
X169550001Y-121184598D03*
%TO.P,C6,4*%
X168750000Y-121184598D03*
%TO.P,C6,5*%
%TO.N,Button1*%
X168750000Y-123216598D03*
%TO.P,C6,6*%
%TO.N,Button2*%
X169550001Y-123216598D03*
%TO.P,C6,7*%
%TO.N,Button3*%
X170349999Y-123216598D03*
%TO.P,C6,8*%
%TO.N,Button4*%
X171150000Y-123216598D03*
%TD*%
D51*
%TO.P,D6,1,K*%
%TO.N,Net-(D6-K)*%
X203750000Y-106170000D03*
%TO.P,D6,2,A*%
%TO.N,PC10*%
X203750000Y-108220000D03*
%TD*%
D47*
%TO.P,C5,1*%
%TO.N,GND*%
X151625000Y-110750000D03*
%TO.P,C5,2*%
%TO.N,VBUS*%
X151625000Y-108850000D03*
%TD*%
D54*
%TO.P,C2,1*%
%TO.N,GND*%
X163850000Y-111650000D03*
%TO.P,C2,2*%
%TO.N,BATT_POS*%
X163850000Y-113550000D03*
%TD*%
D14*
%TO.P,SW4,1,1*%
%TO.N,GND*%
X168820000Y-136850000D03*
D15*
%TO.P,SW4,2,2*%
%TO.N,/UI/B3*%
X168820000Y-134850000D03*
%TD*%
D82*
%TO.P,RV1,1,1*%
%TO.N,AGND*%
X210700000Y-106400000D03*
D83*
%TO.P,RV1,2,2*%
%TO.N,/Motor/VREF*%
X213950000Y-107400000D03*
D82*
%TO.P,RV1,3,3*%
%TO.N,Net-(U5-VREF0)*%
X210700000Y-108400000D03*
%TD*%
D77*
%TO.P,D4,1,K*%
%TO.N,Net-(D4-K)*%
X172075000Y-109200000D03*
%TO.P,D4,2,A*%
%TO.N,VSYS*%
X172075000Y-107150000D03*
%TD*%
D47*
%TO.P,C21,1*%
%TO.N,3V3*%
X199600000Y-113100000D03*
%TO.P,C21,2*%
%TO.N,GND*%
X199600000Y-111200000D03*
%TD*%
D18*
%TO.P,J9,1,Pin_1*%
%TO.N,MCU_RX*%
X185450000Y-132570000D03*
D19*
%TO.P,J9,2,Pin_2*%
%TO.N,MCU_TX*%
X185450000Y-135110000D03*
%TO.P,J9,3,Pin_3*%
%TO.N,GND*%
X185450000Y-137650000D03*
%TD*%
D84*
%TO.P,U1,1,SYS*%
%TO.N,VSYS*%
X154224900Y-112580300D03*
%TO.P,U1,2,BAT*%
%TO.N,VBAT*%
X154624950Y-112580300D03*
%TO.P,U1,3,STAT2*%
%TO.N,STATS2*%
X155025000Y-112580300D03*
%TO.P,U1,4,/CE*%
%TO.N,GND*%
X155425050Y-112580300D03*
%TO.P,U1,5,GND*%
X155825100Y-112580300D03*
%TO.P,U1,6,TS/MR*%
%TO.N,Net-(U1-TS{slash}MR)*%
X155825100Y-110319700D03*
%TO.P,U1,7,ILIM/VSET*%
%TO.N,Net-(U1-ILIM{slash}VSET)*%
X155425050Y-110319700D03*
%TO.P,U1,8,ISET*%
X155025000Y-110319700D03*
%TO.P,U1,9,STAT1*%
%TO.N,STATS1*%
X154624950Y-110319700D03*
%TO.P,U1,10,IN*%
%TO.N,VBUS*%
X154224900Y-110319700D03*
D85*
%TO.P,U1,11,EPAD*%
%TO.N,GND*%
X155025000Y-111450000D03*
%TD*%
D16*
%TO.P,TP9,1,1*%
%TO.N,Net-(U6-PC9)*%
X186340000Y-78020000D03*
%TD*%
D14*
%TO.P,SW1,1,A*%
%TO.N,Net-(SW1-A)*%
X153125000Y-121975000D03*
D15*
%TO.P,SW1,2,B*%
%TO.N,BATT_POS*%
X153125000Y-119975000D03*
%TD*%
D14*
%TO.P,SW2,1,1*%
%TO.N,GND*%
X179400000Y-136850000D03*
D15*
%TO.P,SW2,2,2*%
%TO.N,/UI/B1*%
X179400000Y-134850000D03*
%TD*%
D62*
%TO.P,R12,1*%
%TO.N,Net-(U1-ILIM{slash}VSET)*%
X163612500Y-108025000D03*
%TO.P,R12,2*%
%TO.N,GND*%
X165437500Y-108025000D03*
%TD*%
D14*
%TO.P,SW7,1,1*%
%TO.N,GND*%
X152950000Y-136850000D03*
D15*
%TO.P,SW7,2,2*%
%TO.N,/UI/B6*%
X152950000Y-134850000D03*
%TD*%
D24*
%TO.P,J3,1,1*%
%TO.N,GND*%
X153150000Y-130025000D03*
D25*
%TO.P,J3,2,2*%
%TO.N,Net-(SW1-A)*%
X153150000Y-127525000D03*
%TD*%
D14*
%TO.P,SW5,1,1*%
%TO.N,GND*%
X163530000Y-136850000D03*
D15*
%TO.P,SW5,2,2*%
%TO.N,/UI/B4*%
X163530000Y-134850000D03*
%TD*%
D54*
%TO.P,C23,1*%
%TO.N,3V3*%
X198750000Y-128000000D03*
%TO.P,C23,2*%
%TO.N,GND*%
X198750000Y-129900000D03*
%TD*%
D38*
%TO.N,Button1*%
X188450000Y-118700000D03*
X168750000Y-122416598D03*
%TO.N,Button2*%
X169550001Y-122416599D03*
X188856847Y-119269629D03*
%TO.N,Button3*%
X170350000Y-122416598D03*
X188400000Y-119800000D03*
%TO.N,Button4*%
X196100000Y-120750000D03*
X171150000Y-122416598D03*
%TO.N,Button5*%
X192275000Y-123400000D03*
%TO.N,Button6*%
X193250000Y-123375000D03*
%TO.N,NRST*%
X181375000Y-109050000D03*
X188825000Y-117700000D03*
X200721671Y-116716758D03*
%TO.N,DC*%
X200450000Y-131550000D03*
X196350000Y-133500000D03*
X200239337Y-118745735D03*
%TO.N,SCK*%
X191225000Y-128900000D03*
%TO.N,CS*%
X190724607Y-126079189D03*
%TO.N,MISO*%
X191800000Y-129800000D03*
X193375000Y-131750000D03*
%TO.N,RST*%
X192850000Y-126300000D03*
X197475000Y-118500000D03*
%TO.N,SDA*%
X163825000Y-117750000D03*
%TO.N,SCL*%
X164675000Y-117050000D03*
%TO.N,/Motor/SLP*%
X211675000Y-114100000D03*
D39*
%TO.N,MCU_RX*%
X189250000Y-126100000D03*
D38*
%TO.N,I2S_BCLK*%
X199450000Y-126375000D03*
X195700000Y-126400000D03*
D39*
%TO.N,SWCLK*%
X196750000Y-111550000D03*
D38*
X183000000Y-109050000D03*
%TO.N,SWDIO*%
X200200000Y-116250000D03*
X184000000Y-109050000D03*
%TO.N,SWO*%
X193725000Y-111800000D03*
X182200000Y-109050000D03*
%TO.N,Net-(U1-TS{slash}MR)*%
X162600000Y-109925000D03*
X156450000Y-109750000D03*
%TO.N,Net-(U1-ILIM{slash}VSET)*%
X162675000Y-108050000D03*
X155775000Y-109589498D03*
%TO.N,STEP*%
X219550000Y-118050000D03*
X188650000Y-121100000D03*
D40*
%TO.N,/Motor/B2*%
X216700000Y-119375000D03*
D38*
%TO.N,BAT_EMPTY*%
X160000000Y-117775000D03*
%TO.N,STATS2*%
X155500000Y-113400000D03*
%TO.N,STATS1*%
X155100000Y-109400000D03*
%TD*%
D41*
%TO.N,GND*%
X155425050Y-111850050D02*
X155025000Y-111450000D01*
D42*
X196700000Y-102087500D02*
X199300000Y-102087500D01*
D41*
X155425050Y-112580300D02*
X155825100Y-112580300D01*
D42*
X183770000Y-102230000D02*
X182500000Y-102230000D01*
D41*
X155425050Y-112580300D02*
X155425050Y-111850050D01*
%TO.N,Button1*%
X188450000Y-118700000D02*
X188400000Y-118750000D01*
X168750000Y-123216598D02*
X168750000Y-122416598D01*
X168750000Y-123216598D02*
X168200000Y-123766598D01*
X168200000Y-126855000D02*
X167000000Y-126855000D01*
X188450000Y-118750000D02*
X188450000Y-118700000D01*
X188400000Y-118750000D02*
X187325000Y-118750000D01*
%TO.N,Button2*%
X169550001Y-123216598D02*
X169550001Y-123734098D01*
X188837218Y-119250000D02*
X187325000Y-119250000D01*
X188856847Y-119269629D02*
X188837218Y-119250000D01*
X169550001Y-123216598D02*
X169550001Y-122416599D01*
%TO.N,Button3*%
X170350000Y-123216597D02*
X170349999Y-123216598D01*
X170349999Y-123216598D02*
X170349999Y-123766599D01*
X188400000Y-119800000D02*
X188350000Y-119750000D01*
X188350000Y-119750000D02*
X187325000Y-119750000D01*
X170350000Y-122416598D02*
X170350000Y-123216597D01*
%TO.N,Button4*%
X171150000Y-123216598D02*
X171150000Y-123866598D01*
X171150000Y-123216598D02*
X171150000Y-122416598D01*
X196100000Y-120750000D02*
X198675000Y-120750000D01*
%TO.N,Button5*%
X165000000Y-126388172D02*
X165000000Y-126855000D01*
X192282410Y-123400000D02*
X192750000Y-123867590D01*
X192275000Y-123400000D02*
X192282410Y-123400000D01*
X192750000Y-123867590D02*
X192750000Y-124675000D01*
%TO.N,Button6*%
X193250000Y-123375000D02*
X193250000Y-124675000D01*
%TO.N,3V3*%
X168200000Y-128645000D02*
X171700000Y-128645000D01*
D43*
X196500000Y-137900000D02*
X201500000Y-137900000D01*
X176910000Y-105385001D02*
X177000000Y-105475001D01*
D86*
X219550001Y-108700001D02*
X218950000Y-108100000D01*
D43*
X176910000Y-102500000D02*
X176910000Y-105385001D01*
D86*
X219550001Y-111000002D02*
X219550001Y-108700001D01*
D43*
X202000000Y-137400000D02*
X201500000Y-137900000D01*
X212000000Y-137400000D02*
X216500000Y-137400000D01*
D41*
%TO.N,NRST*%
X202150000Y-118600000D02*
X200675000Y-117125000D01*
X200675000Y-116675000D02*
X200679913Y-116675000D01*
X200750000Y-124900000D02*
X200750000Y-119450000D01*
D42*
X181360000Y-109035000D02*
X181375000Y-109050000D01*
D41*
X200675000Y-117125000D02*
X200675000Y-116675000D01*
X188825000Y-117700000D02*
X188682411Y-117700000D01*
X201600000Y-118600000D02*
X202150000Y-118600000D01*
X200750000Y-119450000D02*
X201600000Y-118600000D01*
X188132411Y-118250000D02*
X187325000Y-118250000D01*
X202900000Y-125700000D02*
X201550000Y-125700000D01*
X200679913Y-116675000D02*
X200721671Y-116716758D01*
X201550000Y-125700000D02*
X200750000Y-124900000D01*
X188682411Y-117700000D02*
X188132411Y-118250000D01*
D42*
X181360000Y-107685000D02*
X181360000Y-109035000D01*
D41*
%TO.N,DC*%
X200450000Y-131650000D02*
X200450000Y-131550000D01*
X198679265Y-118745735D02*
X198675000Y-118750000D01*
X196350000Y-133500000D02*
X198600000Y-133500000D01*
X200239337Y-118745735D02*
X198679265Y-118745735D01*
X198600000Y-133500000D02*
X200450000Y-131650000D01*
%TO.N,SCK*%
X191225000Y-128900000D02*
X191274607Y-128850393D01*
X191274607Y-128850393D02*
X191274607Y-124699607D01*
X191274607Y-124699607D02*
X191250000Y-124675000D01*
%TO.N,MOSI*%
X191000000Y-136778859D02*
X191525000Y-136253859D01*
X190500000Y-137900000D02*
X190500000Y-137300000D01*
X191525000Y-136253859D02*
X191525000Y-134350000D01*
X192250000Y-126477818D02*
X192250000Y-124675000D01*
X191000000Y-136800000D02*
X191000000Y-136778859D01*
X192425000Y-126652818D02*
X192250000Y-126477818D01*
X192425000Y-133450000D02*
X192425000Y-126652818D01*
X191525000Y-134350000D02*
X192425000Y-133450000D01*
X190500000Y-137300000D02*
X191000000Y-136800000D01*
D43*
%TO.N,5V*%
X225852400Y-102130000D02*
X225522400Y-101800000D01*
X228000000Y-102130000D02*
X225852400Y-102130000D01*
D41*
%TO.N,CS*%
X190724607Y-126079189D02*
X190750000Y-126053796D01*
X190750000Y-126053796D02*
X190750000Y-124675000D01*
D42*
%TO.N,MISO*%
X193725000Y-132100000D02*
X193375000Y-131750000D01*
X191750001Y-124675000D02*
X191750001Y-129400001D01*
X194500000Y-132875000D02*
X193725000Y-132100000D01*
X194500000Y-135900000D02*
X194500000Y-132875000D01*
X191800000Y-129450000D02*
X191800000Y-129800000D01*
X191775000Y-129825000D02*
X191800000Y-129800000D01*
X191750001Y-129400001D02*
X191800000Y-129450000D01*
%TO.N,RST*%
X192850000Y-135550000D02*
X192850000Y-126275000D01*
X192850000Y-126275000D02*
X192850000Y-126300000D01*
X197725000Y-118250000D02*
X197475000Y-118500000D01*
X198675000Y-118250000D02*
X197725000Y-118250000D01*
X192500000Y-135900000D02*
X192850000Y-135550000D01*
D41*
%TO.N,PC14-OSC32IN*%
X185942894Y-116250000D02*
X184800000Y-115107106D01*
X184800000Y-115107106D02*
X184800000Y-114400000D01*
X187325000Y-116250000D02*
X185942894Y-116250000D01*
%TO.N,PC15-OSC32OUT*%
X187325000Y-116750000D02*
X184950000Y-116750000D01*
X184950000Y-116750000D02*
X184400000Y-116200000D01*
%TO.N,PH0-OSCIN*%
X184050000Y-117250000D02*
X183175000Y-116375000D01*
X182249999Y-114400000D02*
X182249999Y-116374999D01*
X187325000Y-117250000D02*
X184050000Y-117250000D01*
X182249999Y-116374999D02*
X182250000Y-116375000D01*
X183175000Y-116375000D02*
X182250000Y-116375000D01*
%TO.N,PH1-OSCOUT*%
X183650000Y-118950000D02*
X183650000Y-119700001D01*
X183450001Y-119900000D02*
X181825000Y-119900000D01*
X184849999Y-117750001D02*
X183650000Y-118950000D01*
X187325000Y-117750001D02*
X184849999Y-117750001D01*
X183650000Y-119700001D02*
X183450001Y-119900000D01*
D42*
%TO.N,Net-(U2-V_{DD})*%
X165875000Y-116050000D02*
X164687500Y-116050000D01*
X164687500Y-116050000D02*
X164662500Y-116025000D01*
X164662500Y-116025000D02*
X164725000Y-116025000D01*
X163825000Y-115487500D02*
X164125000Y-115487500D01*
X164125000Y-115487500D02*
X164662500Y-116025000D01*
%TO.N,BATT_POS*%
X154625000Y-116187500D02*
X154625000Y-115731250D01*
X166975000Y-117700000D02*
X165887500Y-118787500D01*
X163850000Y-113550000D02*
X163850000Y-115062500D01*
X162312500Y-118787500D02*
X161375000Y-119725000D01*
X166975000Y-115525000D02*
X166975000Y-117700000D01*
X154625000Y-115700000D02*
X154625000Y-116187500D01*
X165887500Y-118787500D02*
X162312500Y-118787500D01*
X163850000Y-115062500D02*
X163825000Y-115087500D01*
X163825000Y-115087500D02*
X166537500Y-115087500D01*
X166537500Y-115087500D02*
X166975000Y-115525000D01*
X154837500Y-115487500D02*
X154625000Y-115700000D01*
X160025000Y-115487500D02*
X154837500Y-115487500D01*
X161375000Y-119725000D02*
X153150000Y-119725000D01*
%TO.N,SDA*%
X163825000Y-117087500D02*
X163825000Y-117750000D01*
D86*
%TO.N,AGND*%
X218900001Y-109950001D02*
X218900001Y-111000002D01*
D43*
X225850000Y-104000000D02*
X225850000Y-108000000D01*
D86*
X217050000Y-108100000D02*
X218900001Y-109950001D01*
D43*
X226520000Y-104670000D02*
X225850000Y-104000000D01*
D86*
X218900001Y-113475002D02*
X218900001Y-111000004D01*
D43*
X228000000Y-104670000D02*
X226520000Y-104670000D01*
D86*
X218575002Y-113800001D02*
X218900001Y-113475002D01*
D42*
%TO.N,SCL*%
X164650000Y-117025000D02*
X164675000Y-117050000D01*
X163825000Y-116687500D02*
X164362500Y-116687500D01*
X164362500Y-116687500D02*
X164625000Y-116950000D01*
X164625000Y-116950000D02*
X164650000Y-116975000D01*
X164650000Y-116975000D02*
X164650000Y-117025000D01*
%TO.N,VMOT*%
X213975000Y-101847500D02*
X214052500Y-101770000D01*
X208975000Y-107275000D02*
X211575000Y-107275000D01*
X211575000Y-107275000D02*
X213975000Y-104875000D01*
X206150000Y-108175000D02*
X208075000Y-108175000D01*
X213975000Y-104875000D02*
X213975000Y-101847500D01*
X208075000Y-108175000D02*
X208975000Y-107275000D01*
D41*
%TO.N,/Motor/FLT*%
X206200000Y-113000000D02*
X206200000Y-112324999D01*
X207300000Y-114100000D02*
X206200000Y-113000000D01*
X207300000Y-114100000D02*
X208975000Y-114100000D01*
D42*
%TO.N,/Motor/SLP*%
X216300003Y-111950002D02*
X214150005Y-114100000D01*
X216300003Y-111000002D02*
X216300003Y-111950002D01*
X211675000Y-114100000D02*
X210800000Y-114100000D01*
X214150005Y-114100000D02*
X211675000Y-114100000D01*
D86*
%TO.N,Net-(U5-VCP)*%
X221500002Y-111000002D02*
X221500002Y-109749998D01*
X221500002Y-109749998D02*
X222100000Y-109150000D01*
D41*
%TO.N,Net-(U6-VCAP_1)*%
X196450000Y-126850000D02*
X196450000Y-128000000D01*
X196250000Y-126650000D02*
X196450000Y-126850000D01*
X196250000Y-124675000D02*
X196250000Y-126650000D01*
D44*
%TO.N,Net-(D1-K)*%
X206150000Y-106125000D02*
X206150000Y-104037500D01*
D43*
%TO.N,Net-(D2-K)*%
X177025000Y-109149999D02*
X177025000Y-110962500D01*
D42*
%TO.N,PC10*%
X203350000Y-110250000D02*
X203350000Y-110150000D01*
X197236827Y-110250000D02*
X203350000Y-110250000D01*
X195750000Y-113325000D02*
X195750000Y-111736827D01*
X203750000Y-109750000D02*
X203750000Y-108219999D01*
X195750000Y-111736827D02*
X197236827Y-110250000D01*
X203350000Y-110150000D02*
X203750000Y-109750000D01*
%TO.N,Net-(D3-K)*%
X204012500Y-110837500D02*
X204012500Y-111550000D01*
X204574999Y-110275001D02*
X204012500Y-110837500D01*
X206200000Y-110275001D02*
X204574999Y-110275001D01*
%TO.N,PC11*%
X197091852Y-109900000D02*
X195250000Y-111741852D01*
X195250000Y-111741852D02*
X195250000Y-113325000D01*
X201250000Y-108219999D02*
X199569999Y-109900000D01*
X199569999Y-109900000D02*
X197091852Y-109900000D01*
%TO.N,PC12*%
X194750000Y-111800000D02*
X194850000Y-111700000D01*
X194850000Y-111646877D02*
X196996877Y-109500000D01*
X198750000Y-109200000D02*
X198750000Y-108220000D01*
X194850000Y-111700000D02*
X194850000Y-111646877D01*
X194750000Y-113325000D02*
X194750000Y-111800000D01*
X196996877Y-109500000D02*
X198500000Y-109500000D01*
X198500000Y-109450000D02*
X198750000Y-109200000D01*
X198500000Y-109500000D02*
X198500000Y-109450000D01*
D44*
%TO.N,Net-(J10-VBUS)*%
X158737501Y-105968500D02*
X158737501Y-106975000D01*
X157870350Y-108225000D02*
X157870350Y-107842151D01*
D42*
%TO.N,MCU_TX*%
X186890000Y-135110000D02*
X187650000Y-134350000D01*
X187650000Y-134350000D02*
X187650000Y-124850000D01*
X187325000Y-124525000D02*
X187325000Y-122749999D01*
X187650000Y-124850000D02*
X187325000Y-124525000D01*
X185450000Y-135110000D02*
X186890000Y-135110000D01*
D41*
%TO.N,MCU_RX*%
X189250001Y-124675000D02*
X189250001Y-126099999D01*
X189250001Y-126099999D02*
X189250000Y-126100000D01*
%TO.N,I2S_WS*%
X219650000Y-132550000D02*
X207400000Y-132550000D01*
X207400000Y-132550000D02*
X198675000Y-123825000D01*
X198675000Y-123825000D02*
X198675000Y-122749999D01*
D44*
X223496000Y-138404000D02*
X224500000Y-137400000D01*
D41*
X224500000Y-137400000D02*
X219650000Y-132550000D01*
D44*
X210000000Y-137400000D02*
X211004000Y-138404000D01*
X211004000Y-138404000D02*
X223496000Y-138404000D01*
D42*
%TO.N,I2S_BCLK*%
X195600000Y-126400000D02*
X195700000Y-126400000D01*
X195250000Y-126050000D02*
X195600000Y-126400000D01*
X199450000Y-126375000D02*
X199737500Y-126662500D01*
X206000000Y-137400000D02*
X206000000Y-132950000D01*
X206000000Y-132950000D02*
X199737500Y-126687500D01*
X199737500Y-126662500D02*
X199737500Y-126687500D01*
X195250000Y-124675000D02*
X195250000Y-126050000D01*
%TO.N,I2S_DATA*%
X187325000Y-120249999D02*
X187400001Y-120325000D01*
X187400001Y-120325000D02*
X194425000Y-120325000D01*
X194425000Y-120325000D02*
X208000000Y-133900000D01*
D41*
X209400000Y-136000000D02*
X208000000Y-137400000D01*
X222500000Y-137400000D02*
X221100000Y-136000000D01*
D42*
X208000000Y-133900000D02*
X208000000Y-137400000D01*
D41*
X221100000Y-136000000D02*
X209400000Y-136000000D01*
D42*
%TO.N,Net-(J8-SWCLK{slash}TCK)*%
X183770000Y-104305000D02*
X183000000Y-105075000D01*
X183000000Y-105075000D02*
X183000000Y-105915000D01*
X183770000Y-103500000D02*
X183770000Y-104305000D01*
D44*
%TO.N,Net-(D8-K)*%
X198750000Y-106170000D02*
X198520000Y-106170000D01*
X197600000Y-105250000D02*
X197600000Y-103827500D01*
X198520000Y-106170000D02*
X197600000Y-105250000D01*
D41*
%TO.N,SWCLK*%
X196749999Y-113325000D02*
X196749999Y-112517589D01*
X196750000Y-112517588D02*
X196750000Y-111650000D01*
X183000000Y-107685000D02*
X183000000Y-109050000D01*
X196750000Y-111650000D02*
X196750000Y-111550000D01*
X196749999Y-112517589D02*
X196750000Y-112517588D01*
%TO.N,SWDIO*%
X183840000Y-108890000D02*
X184000000Y-109050000D01*
X183840000Y-107685000D02*
X183840000Y-108890000D01*
X198675000Y-116250000D02*
X200200000Y-116250000D01*
D42*
%TO.N,SWO*%
X182200000Y-109050000D02*
X182200000Y-107685000D01*
X193725000Y-111800000D02*
X193750000Y-111825000D01*
X193750000Y-111825000D02*
X193750000Y-113325000D01*
D41*
%TO.N,BOOT0*%
X191250000Y-108712500D02*
X191250000Y-113325000D01*
%TO.N,Net-(SW9-B)*%
X191250000Y-106887500D02*
X191250000Y-106305000D01*
X191250000Y-106305000D02*
X189850000Y-104905000D01*
%TO.N,/MCU/BOOT1*%
X194750000Y-124675000D02*
X194750000Y-126200000D01*
X194100000Y-126850000D02*
X194100000Y-128037500D01*
X194750000Y-126200000D02*
X194100000Y-126850000D01*
%TO.N,/Motor/VREF*%
X216850000Y-109125000D02*
X214325000Y-109125000D01*
X217600003Y-111000002D02*
X217600003Y-109875003D01*
X213950000Y-108750000D02*
X213950000Y-107400000D01*
X218250004Y-111000002D02*
X217600003Y-111000002D01*
X217600003Y-109875003D02*
X216850000Y-109125000D01*
X214325000Y-109125000D02*
X213950000Y-108750000D01*
%TO.N,Net-(U2-BIN)*%
X157787500Y-116287500D02*
X157750000Y-116325000D01*
X160025000Y-116287500D02*
X157787500Y-116287500D01*
D42*
%TO.N,Net-(U1-TS{slash}MR)*%
X156450000Y-109750000D02*
X156450000Y-110125000D01*
X156255300Y-110319700D02*
X155825100Y-110319700D01*
X163612500Y-109925000D02*
X162600000Y-109925000D01*
X156450000Y-110125000D02*
X156255300Y-110319700D01*
%TO.N,Net-(U1-ILIM{slash}VSET)*%
X155675000Y-109625000D02*
X155700000Y-109625000D01*
X155700000Y-109625000D02*
X155735502Y-109589498D01*
D41*
X155425050Y-110319700D02*
X155025000Y-110319700D01*
D42*
X162675000Y-108050000D02*
X163587500Y-108050000D01*
X155560500Y-109739500D02*
X155425050Y-109874950D01*
X155560500Y-109739500D02*
X155675000Y-109625000D01*
X155735502Y-109589498D02*
X155775000Y-109589498D01*
X155425050Y-109874950D02*
X155425050Y-110319700D01*
X163587500Y-108050000D02*
X163612500Y-108025000D01*
D41*
%TO.N,Net-(U5-CONFIG)*%
X223900000Y-116212500D02*
X223900000Y-116200000D01*
X223400000Y-116600000D02*
X222150001Y-116600000D01*
X223850000Y-116150000D02*
X223400000Y-116600000D01*
X223900000Y-116200000D02*
X223850000Y-116150000D01*
D42*
%TO.N,Net-(U5-BDECAY)*%
X210834900Y-112100000D02*
X215400005Y-112100000D01*
X215650004Y-111850001D02*
X215650004Y-111000002D01*
X215400005Y-112100000D02*
X215650004Y-111850001D01*
%TO.N,Net-(U5-ADECAY)*%
X214200001Y-110200000D02*
X215000003Y-111000002D01*
X210834900Y-110200000D02*
X214200001Y-110200000D01*
D44*
%TO.N,Net-(U5-BAISEN)*%
X217600000Y-116600000D02*
X217600000Y-117450000D01*
D87*
X217600000Y-117450000D02*
X217600000Y-120687500D01*
D41*
%TO.N,STEP*%
X187325000Y-121750000D02*
X188132410Y-121750000D01*
D42*
X219550001Y-118049999D02*
X219550000Y-118050000D01*
D41*
X188650000Y-121232410D02*
X188650000Y-121100000D01*
D42*
X219550001Y-116600000D02*
X219550001Y-118049999D01*
D41*
X188132410Y-121750000D02*
X188650000Y-121232410D01*
D44*
%TO.N,Net-(U5-AISEN)*%
X215650002Y-116600000D02*
X215650002Y-117500001D01*
D88*
X215650000Y-117500003D02*
X215650000Y-120687500D01*
X215650002Y-117500001D02*
X215650000Y-117500003D01*
D41*
%TO.N,Net-(U5-VREF0)*%
X216950004Y-111000002D02*
X216950004Y-110000002D01*
X212925000Y-109525000D02*
X211800000Y-108400000D01*
X216950004Y-110000002D02*
X216475002Y-109525000D01*
X211800000Y-108400000D02*
X210700000Y-108400000D01*
X216475002Y-109525000D02*
X212925000Y-109525000D01*
D44*
%TO.N,Net-(D9-K)*%
X196250000Y-104277500D02*
X196700000Y-103827500D01*
X196250000Y-106170000D02*
X196250000Y-104277500D01*
D89*
%TO.N,/Motor/A1*%
X215000003Y-118699997D02*
X215000000Y-118700000D01*
X215000003Y-116600000D02*
X215000003Y-118699997D01*
D44*
%TO.N,/Motor/B2*%
X216950001Y-119124999D02*
X216700000Y-119375000D01*
X216950001Y-116600000D02*
X216950001Y-119124999D01*
%TO.N,/Motor/A2*%
X216300000Y-118250000D02*
X216375000Y-118325000D01*
X216300000Y-116600000D02*
X216300000Y-118250000D01*
%TO.N,Net-(D6-K)*%
X199300000Y-103827500D02*
X201407499Y-103827500D01*
X201407499Y-103827500D02*
X203750000Y-106170001D01*
%TO.N,Net-(D7-K)*%
X198400000Y-103827500D02*
X198400000Y-104650000D01*
X198525000Y-104775000D02*
X199854999Y-104775000D01*
X199854999Y-104775000D02*
X201250000Y-106170001D01*
X198400000Y-104650000D02*
X198525000Y-104775000D01*
D42*
%TO.N,PB4*%
X193250000Y-111220000D02*
X193250000Y-113325000D01*
X196250000Y-108220000D02*
X193250000Y-111220000D01*
%TO.N,Net-(J8-SWDIO{slash}TMS)*%
X185040000Y-104715000D02*
X183840000Y-105915000D01*
X185040000Y-103500000D02*
X185040000Y-104715000D01*
%TO.N,Net-(J8-~{RESET})*%
X179960000Y-105450000D02*
X179960000Y-103500000D01*
X181360000Y-105915000D02*
X180425000Y-105915000D01*
X180425000Y-105915000D02*
X179960000Y-105450000D01*
%TO.N,Net-(J8-SWO{slash}TDO)*%
X182200000Y-104575000D02*
X182200000Y-105915000D01*
X182500000Y-103500000D02*
X182500000Y-104275000D01*
X182500000Y-104275000D02*
X182200000Y-104575000D01*
D41*
%TO.N,BAT_EMPTY*%
X160025000Y-117750000D02*
X160000000Y-117775000D01*
X160025000Y-117087500D02*
X160025000Y-117750000D01*
D42*
%TO.N,STATS2*%
X155025000Y-113175000D02*
X155025000Y-112580300D01*
X155250000Y-113400000D02*
X155025000Y-113175000D01*
X155500000Y-113400000D02*
X155250000Y-113400000D01*
D41*
%TO.N,STATS1*%
X154624950Y-110319700D02*
X154624950Y-109875050D01*
X154624950Y-109875050D02*
X155100000Y-109400000D01*
%TO.N,/UI/B6*%
X163050000Y-132950000D02*
X163350000Y-132650000D01*
X164500000Y-129666598D02*
X164500000Y-128645000D01*
X154850000Y-132950000D02*
X163050000Y-132950000D01*
X152950000Y-134850000D02*
X154850000Y-132950000D01*
%TO.N,/UI/B2*%
X172810000Y-133550000D02*
X174110000Y-134850000D01*
X165350000Y-133100000D02*
X165800000Y-133550000D01*
X165800000Y-133550000D02*
X172810000Y-133550000D01*
X166500000Y-128645000D02*
X166500000Y-130116598D01*
%TO.N,/UI/B3*%
X165500000Y-134850000D02*
X168820000Y-134850000D01*
X166000000Y-128645000D02*
X166000000Y-131266598D01*
X164900000Y-134250000D02*
X165500000Y-134850000D01*
X164850000Y-134250000D02*
X164900000Y-134250000D01*
%TO.N,/UI/B1*%
X166250000Y-133150000D02*
X177700000Y-133150000D01*
X165850000Y-132750000D02*
X166250000Y-133150000D01*
X177700000Y-133150000D02*
X179400000Y-134850000D01*
X167000000Y-128645000D02*
X167000000Y-129766598D01*
%TO.N,/UI/B5*%
X163850000Y-132715686D02*
X163165686Y-133400000D01*
X158240000Y-133760000D02*
X158240000Y-134850000D01*
X165000000Y-128645000D02*
X165000000Y-129732284D01*
X163165686Y-133400000D02*
X158600000Y-133400000D01*
X158600000Y-133400000D02*
X158240000Y-133760000D01*
%TO.N,/UI/B4*%
X164350000Y-134030000D02*
X163530000Y-134850000D01*
X165500000Y-128645000D02*
X165500000Y-131046598D01*
D42*
%TO.N,VBAT*%
X154625000Y-114950000D02*
X154787500Y-115112500D01*
X154787500Y-115112500D02*
X160000000Y-115112500D01*
D41*
X154687500Y-114300000D02*
X154625000Y-114362500D01*
D42*
X154625000Y-114362500D02*
X154625000Y-114950000D01*
D41*
X156025000Y-114050000D02*
X155775000Y-114300000D01*
X155775000Y-114300000D02*
X154687500Y-114300000D01*
X154624950Y-112580300D02*
X154624950Y-114362450D01*
X156825000Y-114050000D02*
X156025000Y-114050000D01*
D42*
X160000000Y-115112500D02*
X160025000Y-115087500D01*
D41*
X154624950Y-114362450D02*
X154625000Y-114362500D01*
%TD*%
%TA.AperFunction,Conductor*%
%TO.N,VMOT*%
G36*
X223306439Y-101045185D02*
G01*
X223352194Y-101097989D01*
X223363400Y-101149500D01*
X223363400Y-102638200D01*
X224564565Y-102638200D01*
X224631604Y-102657885D01*
X224677359Y-102710689D01*
X224688546Y-102760038D01*
X224796761Y-108964308D01*
X224778249Y-109031680D01*
X224726251Y-109078349D01*
X224657276Y-109089497D01*
X224627251Y-109081809D01*
X223243928Y-108535761D01*
X222900000Y-108400000D01*
X222899998Y-108400000D01*
X222899995Y-108399999D01*
X221299999Y-108449999D01*
X221299999Y-108450000D01*
X221292760Y-108558592D01*
X221268806Y-108623976D01*
X221222208Y-108687115D01*
X221177353Y-108815303D01*
X221174500Y-108845730D01*
X221174500Y-109429557D01*
X221157887Y-109491556D01*
X221103502Y-109585754D01*
X221103499Y-109585761D01*
X221074502Y-109693980D01*
X221074502Y-111056019D01*
X221103499Y-111164241D01*
X221123763Y-111199338D01*
X221132888Y-111215142D01*
X221149502Y-111277143D01*
X221149502Y-111819754D01*
X221161133Y-111878228D01*
X221161264Y-111878544D01*
X221161343Y-111879287D01*
X221163517Y-111890212D01*
X221162539Y-111890406D01*
X221168734Y-111948013D01*
X221137461Y-112010493D01*
X221077373Y-112046147D01*
X221046704Y-112050000D01*
X220024000Y-112050000D01*
X219956961Y-112030315D01*
X219911206Y-111977511D01*
X219900000Y-111926000D01*
X219900000Y-111830927D01*
X219900501Y-111820738D01*
X219900501Y-111277143D01*
X219917114Y-111215142D01*
X219946504Y-111164239D01*
X219975501Y-111056020D01*
X219975501Y-108643983D01*
X219946504Y-108535764D01*
X219890486Y-108438738D01*
X219811264Y-108359516D01*
X219697749Y-108246001D01*
X219664264Y-108184678D01*
X219663120Y-108178724D01*
X219652187Y-108113122D01*
X219650500Y-108092737D01*
X219650500Y-107570730D01*
X219647646Y-107540300D01*
X219647646Y-107540298D01*
X219602793Y-107412119D01*
X219602792Y-107412117D01*
X219533333Y-107318002D01*
X219510793Y-107264761D01*
X219450000Y-106900000D01*
X219449998Y-106899999D01*
X218115469Y-106807963D01*
X218049942Y-106783713D01*
X218007929Y-106727886D01*
X218000000Y-106684257D01*
X218000000Y-103150000D01*
X213577706Y-103198596D01*
X213510454Y-103179649D01*
X213464121Y-103127351D01*
X213452364Y-103072309D01*
X213488015Y-101147204D01*
X213508938Y-101080541D01*
X213562580Y-101035771D01*
X213611994Y-101025500D01*
X223239400Y-101025500D01*
X223306439Y-101045185D01*
G37*
%TD.AperFunction*%
%TD*%
%TA.AperFunction,Conductor*%
%TO.N,GND*%
G36*
X162950000Y-117600000D02*
G01*
X160900000Y-117600000D01*
X160900000Y-114550000D01*
X162950000Y-114550000D01*
X162950000Y-117600000D01*
G37*
%TD.AperFunction*%
%TD*%
%TA.AperFunction,Conductor*%
%TO.N,VSYS*%
G36*
X154012530Y-112251535D02*
G01*
X154015399Y-112252046D01*
X154028906Y-112254453D01*
X154115186Y-112252727D01*
X154121470Y-112251698D01*
X154123904Y-112251300D01*
X154139897Y-112250000D01*
X154226000Y-112250000D01*
X154284191Y-112268907D01*
X154320155Y-112318407D01*
X154325000Y-112349000D01*
X154325000Y-112642576D01*
X154323992Y-112656667D01*
X154321500Y-112673997D01*
X154321500Y-112878964D01*
X154305388Y-112933099D01*
X154303569Y-112935883D01*
X154300701Y-112940386D01*
X154300698Y-112940390D01*
X154281568Y-112983970D01*
X154281566Y-112983978D01*
X154263608Y-113051491D01*
X154263606Y-113051502D01*
X154258434Y-113095441D01*
X154258433Y-113095459D01*
X154266255Y-113400486D01*
X154248846Y-113459143D01*
X154228068Y-113481170D01*
X153702398Y-113890025D01*
X153702397Y-113890026D01*
X153683076Y-113907871D01*
X153654900Y-113938702D01*
X153620486Y-113999792D01*
X153620483Y-113999797D01*
X153600798Y-114066837D01*
X153594500Y-114110641D01*
X153594500Y-114749208D01*
X153594501Y-114749232D01*
X153598292Y-114783346D01*
X153610246Y-114836470D01*
X153645899Y-114905831D01*
X153645901Y-114905834D01*
X153664512Y-114926701D01*
X153677603Y-114941381D01*
X153702224Y-114997393D01*
X153702685Y-115004736D01*
X153719049Y-115642962D01*
X153701640Y-115701619D01*
X153653078Y-115738840D01*
X153620082Y-115744500D01*
X151149497Y-115744500D01*
X151135080Y-115746050D01*
X151075202Y-115733470D01*
X151034154Y-115688097D01*
X151025500Y-115647617D01*
X151025500Y-113674000D01*
X151044407Y-113615809D01*
X151093907Y-113579845D01*
X151124500Y-113575000D01*
X152275000Y-113575000D01*
X152899476Y-112983978D01*
X153646369Y-112277096D01*
X153701629Y-112250830D01*
X153714420Y-112250000D01*
X153995163Y-112250000D01*
X154012530Y-112251535D01*
G37*
%TD.AperFunction*%
%TD*%
%TA.AperFunction,Conductor*%
%TO.N,Net-(J10-VBUS)*%
G36*
X158914472Y-106199133D02*
G01*
X158952311Y-106247214D01*
X158958402Y-106281403D01*
X158958402Y-106674046D01*
X158958403Y-106674058D01*
X158970034Y-106732527D01*
X158970035Y-106732531D01*
X159014350Y-106798852D01*
X159080671Y-106843167D01*
X159110301Y-106849060D01*
X159163684Y-106878957D01*
X159188356Y-106928274D01*
X159274999Y-107399999D01*
X159275000Y-107400000D01*
X159651000Y-107400000D01*
X159709191Y-107418907D01*
X159745155Y-107468407D01*
X159750000Y-107499000D01*
X159750000Y-107519419D01*
X159743203Y-107555469D01*
X159734175Y-107578556D01*
X159720108Y-107657493D01*
X159720108Y-107657494D01*
X159725540Y-107929108D01*
X159727958Y-108049999D01*
X159727958Y-108050003D01*
X159728040Y-108054106D01*
X159731540Y-108229109D01*
X159731540Y-108229110D01*
X159738513Y-108577787D01*
X159720773Y-108636344D01*
X159672002Y-108673290D01*
X159642532Y-108678721D01*
X157453687Y-108745049D01*
X157394950Y-108727912D01*
X157357503Y-108679524D01*
X157351701Y-108644500D01*
X157375000Y-107200000D01*
X157375000Y-106953800D01*
X157393907Y-106895609D01*
X157443407Y-106859645D01*
X157474000Y-106854800D01*
X158305949Y-106854800D01*
X158305950Y-106854800D01*
X158364433Y-106843167D01*
X158430754Y-106798852D01*
X158475069Y-106732531D01*
X158486702Y-106674048D01*
X158486702Y-106291930D01*
X158505609Y-106233739D01*
X158555109Y-106197775D01*
X158581890Y-106193004D01*
X158855600Y-106182476D01*
X158914472Y-106199133D01*
G37*
%TD.AperFunction*%
%TD*%
%TA.AperFunction,Conductor*%
%TO.N,VBUS*%
G36*
X156485579Y-104814647D02*
G01*
X156500314Y-104849695D01*
X156524731Y-108707543D01*
X156510368Y-108742848D01*
X156483119Y-108756980D01*
X154425001Y-109099999D01*
X154425000Y-109100000D01*
X154416210Y-109715195D01*
X154412424Y-109733541D01*
X154374450Y-109825219D01*
X154374450Y-109961732D01*
X154373494Y-109971439D01*
X154372850Y-109974680D01*
X154372850Y-109974682D01*
X154372850Y-110594711D01*
X154358264Y-110629925D01*
X154332773Y-110643553D01*
X154331981Y-110643710D01*
X154330817Y-110643942D01*
X154321096Y-110644900D01*
X154137357Y-110644900D01*
X154116002Y-110640089D01*
X154080767Y-110623363D01*
X154053391Y-110614973D01*
X154029029Y-110609599D01*
X153949167Y-110619637D01*
X153926911Y-110628702D01*
X153917757Y-110631440D01*
X153915300Y-110631924D01*
X153915290Y-110631927D01*
X153880082Y-110646510D01*
X153880080Y-110646511D01*
X153844923Y-110666808D01*
X153800260Y-110725016D01*
X153767251Y-110744074D01*
X153760751Y-110744500D01*
X153651856Y-110744500D01*
X153616642Y-110729914D01*
X153613626Y-110726614D01*
X153606901Y-110718559D01*
X153606892Y-110718548D01*
X153592884Y-110703443D01*
X153577528Y-110688524D01*
X153529514Y-110646512D01*
X152792531Y-110001652D01*
X152413317Y-109669840D01*
X152406190Y-109663883D01*
X152406189Y-109663882D01*
X152406178Y-109663873D01*
X152399190Y-109658296D01*
X152399189Y-109658295D01*
X152334495Y-109623464D01*
X152334494Y-109623463D01*
X152334491Y-109623462D01*
X152295701Y-109610859D01*
X152276304Y-109604557D01*
X152276300Y-109604556D01*
X152276295Y-109604555D01*
X152226519Y-109596672D01*
X152212802Y-109594500D01*
X151124500Y-109594500D01*
X151109373Y-109595690D01*
X151092347Y-109597030D01*
X151083088Y-109598497D01*
X151046026Y-109589597D01*
X151026113Y-109557098D01*
X151025500Y-109549310D01*
X151025500Y-104872786D01*
X151040086Y-104837572D01*
X151075086Y-104822986D01*
X156450305Y-104800210D01*
X156485579Y-104814647D01*
G37*
%TD.AperFunction*%
%TD*%
%TA.AperFunction,Conductor*%
%TO.N,GND*%
G36*
X166835264Y-104989649D02*
G01*
X166850000Y-105024800D01*
X166850000Y-113125007D01*
X166860197Y-114970790D01*
X166845806Y-115006084D01*
X166810673Y-115020864D01*
X166775379Y-115006473D01*
X166775184Y-115006279D01*
X166728670Y-114959765D01*
X166728670Y-114959764D01*
X166665236Y-114896330D01*
X166665235Y-114896329D01*
X166640960Y-114886274D01*
X166582355Y-114861999D01*
X166492645Y-114861999D01*
X166486851Y-114861999D01*
X166486843Y-114862000D01*
X164188343Y-114862000D01*
X164160677Y-114853608D01*
X164153231Y-114848633D01*
X164115584Y-114841144D01*
X164083892Y-114819968D01*
X164075500Y-114792301D01*
X164075500Y-114433370D01*
X165048401Y-114433370D01*
X165058357Y-114501714D01*
X165109895Y-114607133D01*
X165192866Y-114690104D01*
X165298289Y-114741642D01*
X165366627Y-114751599D01*
X165625000Y-114751599D01*
X166125000Y-114751599D01*
X166383371Y-114751599D01*
X166451714Y-114741642D01*
X166557133Y-114690104D01*
X166640104Y-114607133D01*
X166691642Y-114501710D01*
X166701600Y-114433372D01*
X166701600Y-114400000D01*
X166125000Y-114400000D01*
X166125000Y-114751599D01*
X165625000Y-114751599D01*
X165625000Y-114400000D01*
X165048401Y-114400000D01*
X165048401Y-114433370D01*
X164075500Y-114433370D01*
X164075500Y-114250299D01*
X164090086Y-114215085D01*
X164125300Y-114200499D01*
X164356517Y-114200499D01*
X164356518Y-114200499D01*
X164450304Y-114185646D01*
X164563342Y-114128050D01*
X164653050Y-114038342D01*
X164710646Y-113925304D01*
X164719939Y-113866627D01*
X165048400Y-113866627D01*
X165048400Y-113900000D01*
X165625000Y-113900000D01*
X166125000Y-113900000D01*
X166701599Y-113900000D01*
X166701599Y-113866629D01*
X166691642Y-113798285D01*
X166640104Y-113692866D01*
X166557133Y-113609895D01*
X166451710Y-113558357D01*
X166383372Y-113548400D01*
X166125000Y-113548400D01*
X166125000Y-113900000D01*
X165625000Y-113900000D01*
X165625000Y-113548400D01*
X165366629Y-113548400D01*
X165298285Y-113558357D01*
X165192866Y-113609895D01*
X165109895Y-113692866D01*
X165058357Y-113798289D01*
X165048400Y-113866627D01*
X164719939Y-113866627D01*
X164725500Y-113831519D01*
X164725499Y-113268482D01*
X164710646Y-113174696D01*
X164653050Y-113061658D01*
X164563342Y-112971950D01*
X164563341Y-112971949D01*
X164563342Y-112971949D01*
X164450302Y-112914353D01*
X164356519Y-112899500D01*
X163343482Y-112899500D01*
X163249695Y-112914354D01*
X163136658Y-112971949D01*
X163046949Y-113061658D01*
X162989353Y-113174697D01*
X162974500Y-113268480D01*
X162974500Y-113831517D01*
X162989354Y-113925304D01*
X163014520Y-113974696D01*
X163046950Y-114038342D01*
X163136658Y-114128050D01*
X163249696Y-114185646D01*
X163343481Y-114200500D01*
X163574700Y-114200499D01*
X163609914Y-114215085D01*
X163624500Y-114250299D01*
X163624500Y-114787200D01*
X163609914Y-114822414D01*
X163574700Y-114837000D01*
X163555249Y-114837000D01*
X163496770Y-114848632D01*
X163430448Y-114892948D01*
X163386132Y-114959270D01*
X163374500Y-115017749D01*
X163374500Y-115157250D01*
X163386132Y-115215730D01*
X163386133Y-115215732D01*
X163415601Y-115259833D01*
X163423037Y-115297215D01*
X163415601Y-115315167D01*
X163386133Y-115359267D01*
X163386132Y-115359269D01*
X163374500Y-115417749D01*
X163374500Y-115557250D01*
X163386132Y-115615730D01*
X163386133Y-115615732D01*
X163415601Y-115659833D01*
X163423037Y-115697215D01*
X163415601Y-115715167D01*
X163386133Y-115759267D01*
X163386132Y-115759269D01*
X163374500Y-115817749D01*
X163374500Y-115957250D01*
X163386132Y-116015729D01*
X163386132Y-116015730D01*
X163386133Y-116015731D01*
X163420797Y-116067609D01*
X163430448Y-116082052D01*
X163430449Y-116082053D01*
X163434732Y-116084915D01*
X163455908Y-116116607D01*
X163448473Y-116153989D01*
X163432194Y-116178352D01*
X163430375Y-116187499D01*
X163430376Y-116187500D01*
X164219624Y-116187500D01*
X164219624Y-116187499D01*
X164217805Y-116178351D01*
X164201527Y-116153990D01*
X164194091Y-116116607D01*
X164215264Y-116084916D01*
X164219552Y-116082052D01*
X164258376Y-116023947D01*
X164290068Y-116002773D01*
X164327451Y-116010209D01*
X164334997Y-116016402D01*
X164468488Y-116149893D01*
X164468491Y-116149897D01*
X164559764Y-116241170D01*
X164642642Y-116275499D01*
X164642643Y-116275499D01*
X164642645Y-116275500D01*
X164949701Y-116275500D01*
X164984915Y-116290086D01*
X164999501Y-116325300D01*
X164999501Y-116331518D01*
X165000501Y-116337832D01*
X165014354Y-116425304D01*
X165071775Y-116538000D01*
X165071950Y-116538342D01*
X165161658Y-116628050D01*
X165274696Y-116685646D01*
X165368481Y-116700500D01*
X166381518Y-116700499D01*
X166475304Y-116685646D01*
X166588342Y-116628050D01*
X166664486Y-116551906D01*
X166699700Y-116537320D01*
X166734914Y-116551906D01*
X166749500Y-116587120D01*
X166749500Y-117585967D01*
X166734914Y-117621181D01*
X165808681Y-118547414D01*
X165773467Y-118562000D01*
X162267642Y-118562000D01*
X162184764Y-118596329D01*
X162121329Y-118659765D01*
X161296181Y-119484914D01*
X161260967Y-119499500D01*
X156401234Y-119499500D01*
X156366020Y-119484914D01*
X156351434Y-119449700D01*
X156351436Y-119449226D01*
X156360992Y-118445870D01*
X156948401Y-118445870D01*
X156958357Y-118514214D01*
X157009895Y-118619633D01*
X157092866Y-118702604D01*
X157198289Y-118754142D01*
X157266627Y-118764099D01*
X157500000Y-118764099D01*
X158000000Y-118764099D01*
X158233371Y-118764099D01*
X158301714Y-118754142D01*
X158407133Y-118702604D01*
X158490104Y-118619633D01*
X158541642Y-118514210D01*
X158551600Y-118445872D01*
X158551600Y-118400000D01*
X158000000Y-118400000D01*
X158000000Y-118764099D01*
X157500000Y-118764099D01*
X157500000Y-118400000D01*
X156948401Y-118400000D01*
X156948401Y-118445870D01*
X156360992Y-118445870D01*
X156366627Y-117854127D01*
X156948400Y-117854127D01*
X156948400Y-117900000D01*
X157500000Y-117900000D01*
X158000000Y-117900000D01*
X158551599Y-117900000D01*
X158551599Y-117854129D01*
X158541642Y-117785785D01*
X158490104Y-117680366D01*
X158407133Y-117597395D01*
X158301710Y-117545857D01*
X158233372Y-117535900D01*
X158000000Y-117535900D01*
X158000000Y-117900000D01*
X157500000Y-117900000D01*
X157500000Y-117535900D01*
X157266629Y-117535900D01*
X157198285Y-117545857D01*
X157092866Y-117597395D01*
X157009895Y-117680366D01*
X156958357Y-117785789D01*
X156948400Y-117854127D01*
X156366627Y-117854127D01*
X156374526Y-117024733D01*
X156389447Y-116989660D01*
X156424733Y-116975411D01*
X157227370Y-116982044D01*
X157234720Y-116982652D01*
X157268481Y-116988000D01*
X157947840Y-116987999D01*
X157948071Y-116988000D01*
X159380355Y-116999837D01*
X159414242Y-117013530D01*
X159565131Y-117156874D01*
X159579674Y-117183262D01*
X159584320Y-117206618D01*
X159586133Y-117215731D01*
X159630448Y-117282052D01*
X159696769Y-117326367D01*
X159734415Y-117333855D01*
X159766107Y-117355030D01*
X159774500Y-117382698D01*
X159774500Y-117413480D01*
X159759914Y-117448694D01*
X159671949Y-117536658D01*
X159614353Y-117649696D01*
X159614353Y-117649697D01*
X159594508Y-117775000D01*
X159614353Y-117900302D01*
X159614353Y-117900303D01*
X159659212Y-117988342D01*
X159671950Y-118013342D01*
X159761658Y-118103050D01*
X159874696Y-118160646D01*
X160000000Y-118180492D01*
X160125304Y-118160646D01*
X160238342Y-118103050D01*
X160328050Y-118013342D01*
X160342971Y-117984056D01*
X160371953Y-117959303D01*
X160377127Y-117959710D01*
X160400000Y-117950000D01*
X160401172Y-117805785D01*
X160401780Y-117798434D01*
X160405492Y-117775000D01*
X160402264Y-117754619D01*
X160401654Y-117746447D01*
X160403638Y-117502436D01*
X160598401Y-117502436D01*
X160607195Y-117546649D01*
X160607197Y-117546653D01*
X160640701Y-117596795D01*
X160640704Y-117596798D01*
X160690849Y-117630304D01*
X160690851Y-117630305D01*
X160699999Y-117632124D01*
X160700000Y-117632124D01*
X160700000Y-117375000D01*
X160598401Y-117375000D01*
X160598401Y-117502436D01*
X160403638Y-117502436D01*
X160405148Y-117316677D01*
X160417704Y-117286716D01*
X160416827Y-117286130D01*
X160419552Y-117282052D01*
X160463867Y-117215731D01*
X160475500Y-117157248D01*
X160475500Y-117017752D01*
X160463867Y-116959269D01*
X160434397Y-116915165D01*
X160426962Y-116877785D01*
X160434396Y-116859836D01*
X160463867Y-116815731D01*
X160475500Y-116757248D01*
X160475500Y-116617752D01*
X160463867Y-116559269D01*
X160434397Y-116515165D01*
X160426962Y-116477784D01*
X160434397Y-116459834D01*
X160463867Y-116415731D01*
X160475500Y-116357248D01*
X160475500Y-116217752D01*
X160463867Y-116159269D01*
X160459502Y-116152736D01*
X160434399Y-116115167D01*
X160426963Y-116077785D01*
X160434399Y-116059833D01*
X160458376Y-116023948D01*
X160463867Y-116015731D01*
X160475500Y-115957248D01*
X160475500Y-115817752D01*
X160463867Y-115759269D01*
X160434397Y-115715165D01*
X160426962Y-115677785D01*
X160434396Y-115659836D01*
X160463867Y-115615731D01*
X160475500Y-115557248D01*
X160475500Y-115417752D01*
X160463867Y-115359269D01*
X160434398Y-115315166D01*
X160426962Y-115277783D01*
X160434395Y-115259837D01*
X160463867Y-115215731D01*
X160475500Y-115157248D01*
X160475500Y-115017752D01*
X160471969Y-115000000D01*
X160598400Y-115000000D01*
X160598400Y-115837500D01*
X160900000Y-115837500D01*
X160900000Y-115999971D01*
X160893355Y-116002724D01*
X160865224Y-116030855D01*
X160850000Y-116067609D01*
X160850000Y-116107391D01*
X160865224Y-116144145D01*
X160893355Y-116172276D01*
X160900000Y-116175028D01*
X160900000Y-116337500D01*
X160598400Y-116337500D01*
X160598400Y-117175000D01*
X160900000Y-117175000D01*
X160900000Y-117375000D01*
X160900000Y-117632124D01*
X160909148Y-117630305D01*
X160909150Y-117630304D01*
X160954503Y-117600000D01*
X162895496Y-117600000D01*
X162940849Y-117630304D01*
X162940851Y-117630305D01*
X162949999Y-117632124D01*
X162950000Y-117632124D01*
X163150000Y-117632124D01*
X163159148Y-117630305D01*
X163159150Y-117630304D01*
X163209295Y-117596798D01*
X163209298Y-117596795D01*
X163242803Y-117546652D01*
X163242804Y-117546650D01*
X163251599Y-117502433D01*
X163251600Y-117502426D01*
X163251600Y-117375000D01*
X163150000Y-117375000D01*
X163150000Y-117632124D01*
X162950000Y-117632124D01*
X162950000Y-117375000D01*
X162950000Y-117175000D01*
X163251599Y-117175000D01*
X163251599Y-116617749D01*
X163374500Y-116617749D01*
X163374500Y-116757250D01*
X163386132Y-116815730D01*
X163386133Y-116815732D01*
X163415601Y-116859833D01*
X163423037Y-116897215D01*
X163415601Y-116915167D01*
X163386133Y-116959267D01*
X163386132Y-116959269D01*
X163374500Y-117017749D01*
X163374500Y-117157250D01*
X163386132Y-117215729D01*
X163386132Y-117215730D01*
X163386133Y-117215731D01*
X163430448Y-117282052D01*
X163496769Y-117326367D01*
X163555252Y-117338000D01*
X163555253Y-117338000D01*
X163557651Y-117338477D01*
X163557452Y-117339474D01*
X163588183Y-117355884D01*
X163599500Y-117387493D01*
X163599500Y-117388480D01*
X163584914Y-117423694D01*
X163496949Y-117511658D01*
X163439353Y-117624696D01*
X163439353Y-117624697D01*
X163419508Y-117750000D01*
X163439353Y-117875302D01*
X163439353Y-117875303D01*
X163482154Y-117959303D01*
X163496950Y-117988342D01*
X163586658Y-118078050D01*
X163699696Y-118135646D01*
X163825000Y-118155492D01*
X163950304Y-118135646D01*
X164063342Y-118078050D01*
X164153050Y-117988342D01*
X164210646Y-117875304D01*
X164230492Y-117750000D01*
X164210646Y-117624696D01*
X164153050Y-117511658D01*
X164065086Y-117423694D01*
X164050500Y-117388480D01*
X164050500Y-117387493D01*
X164065086Y-117352279D01*
X164092515Y-117339313D01*
X164092349Y-117338477D01*
X164094747Y-117338000D01*
X164094748Y-117338000D01*
X164153231Y-117326367D01*
X164219552Y-117282052D01*
X164242810Y-117247243D01*
X164274499Y-117226070D01*
X164311882Y-117233505D01*
X164328587Y-117252304D01*
X164346949Y-117288341D01*
X164346950Y-117288342D01*
X164436658Y-117378050D01*
X164549696Y-117435646D01*
X164675000Y-117455492D01*
X164800304Y-117435646D01*
X164913342Y-117378050D01*
X165003050Y-117288342D01*
X165060646Y-117175304D01*
X165080492Y-117050000D01*
X165060646Y-116924696D01*
X165003050Y-116811658D01*
X164913342Y-116721950D01*
X164913341Y-116721949D01*
X164913342Y-116721949D01*
X164800302Y-116664353D01*
X164675000Y-116644508D01*
X164674999Y-116644508D01*
X164668476Y-116645541D01*
X164631414Y-116636642D01*
X164625473Y-116631568D01*
X164553670Y-116559765D01*
X164553670Y-116559764D01*
X164490236Y-116496330D01*
X164490235Y-116496329D01*
X164465960Y-116486274D01*
X164407355Y-116461999D01*
X164317645Y-116461999D01*
X164311851Y-116461999D01*
X164311843Y-116462000D01*
X164265267Y-116462000D01*
X164230053Y-116447414D01*
X164215467Y-116412200D01*
X164217573Y-116401606D01*
X164216848Y-116401462D01*
X164219624Y-116387500D01*
X163430375Y-116387500D01*
X163432194Y-116396648D01*
X163432195Y-116396650D01*
X163448472Y-116421010D01*
X163455908Y-116458392D01*
X163434736Y-116490082D01*
X163430448Y-116492947D01*
X163386132Y-116559270D01*
X163374500Y-116617749D01*
X163251599Y-116617749D01*
X163251599Y-116337500D01*
X162950000Y-116337500D01*
X162950000Y-116175028D01*
X162956645Y-116172276D01*
X162984776Y-116144145D01*
X163000000Y-116107391D01*
X163000000Y-116067609D01*
X162984776Y-116030855D01*
X162956645Y-116002724D01*
X162950000Y-115999971D01*
X162950000Y-115837500D01*
X163251599Y-115837500D01*
X163251599Y-115130493D01*
X163251600Y-115130476D01*
X163251600Y-115000000D01*
X162950000Y-115000000D01*
X162950000Y-114800000D01*
X163150000Y-114800000D01*
X163251599Y-114800000D01*
X163251599Y-114672570D01*
X163251598Y-114672563D01*
X163242804Y-114628350D01*
X163242802Y-114628346D01*
X163209298Y-114578204D01*
X163209297Y-114578203D01*
X163159153Y-114544697D01*
X163159148Y-114544695D01*
X163150000Y-114542874D01*
X163150000Y-114800000D01*
X162950000Y-114800000D01*
X162950000Y-114550000D01*
X162950000Y-114542874D01*
X162940851Y-114544695D01*
X162940846Y-114544697D01*
X162932910Y-114550000D01*
X160917089Y-114550000D01*
X160909153Y-114544697D01*
X160909148Y-114544695D01*
X160900000Y-114542874D01*
X160900000Y-114550000D01*
X160900000Y-115000000D01*
X160598400Y-115000000D01*
X160471969Y-115000000D01*
X160463867Y-114959269D01*
X160433304Y-114913529D01*
X160424914Y-114885460D01*
X160425000Y-114875000D01*
X160424999Y-114875000D01*
X160409447Y-114875347D01*
X160380669Y-114866966D01*
X160353232Y-114848633D01*
X160353230Y-114848632D01*
X160294750Y-114837000D01*
X160294748Y-114837000D01*
X159755252Y-114837000D01*
X159755249Y-114837000D01*
X159696770Y-114848632D01*
X159651911Y-114878607D01*
X159624243Y-114887000D01*
X159230466Y-114887000D01*
X159195252Y-114872414D01*
X159180666Y-114837200D01*
X159195252Y-114801986D01*
X159265104Y-114732133D01*
X159294224Y-114672566D01*
X160598400Y-114672566D01*
X160598400Y-114800000D01*
X160700000Y-114800000D01*
X160700000Y-114542874D01*
X160690851Y-114544695D01*
X160690846Y-114544697D01*
X160640702Y-114578203D01*
X160640701Y-114578204D01*
X160607196Y-114628347D01*
X160607195Y-114628349D01*
X160598400Y-114672566D01*
X159294224Y-114672566D01*
X159316642Y-114626710D01*
X159326600Y-114558372D01*
X159326600Y-114300000D01*
X158123401Y-114300000D01*
X158123401Y-114558370D01*
X158133357Y-114626714D01*
X158184895Y-114732133D01*
X158254748Y-114801986D01*
X158269334Y-114837200D01*
X158254748Y-114872414D01*
X158219534Y-114887000D01*
X157399620Y-114887000D01*
X157364406Y-114872414D01*
X157349820Y-114837200D01*
X157364406Y-114801986D01*
X157379192Y-114787200D01*
X157403050Y-114763342D01*
X157460646Y-114650304D01*
X157475500Y-114556519D01*
X157475499Y-113543482D01*
X157475205Y-113541627D01*
X158123400Y-113541627D01*
X158123400Y-113800000D01*
X158475000Y-113800000D01*
X158975000Y-113800000D01*
X159326599Y-113800000D01*
X159326599Y-113541629D01*
X159316642Y-113473285D01*
X159265104Y-113367866D01*
X159182133Y-113284895D01*
X159076710Y-113233357D01*
X159008372Y-113223400D01*
X158975000Y-113223400D01*
X158975000Y-113800000D01*
X158475000Y-113800000D01*
X158475000Y-113223400D01*
X158474999Y-113223399D01*
X158441629Y-113223400D01*
X158373285Y-113233357D01*
X158267866Y-113284895D01*
X158184895Y-113367866D01*
X158133357Y-113473289D01*
X158123400Y-113541627D01*
X157475205Y-113541627D01*
X157460646Y-113449696D01*
X157403050Y-113336658D01*
X157313342Y-113246950D01*
X157313341Y-113246949D01*
X157313342Y-113246949D01*
X157200302Y-113189353D01*
X157106519Y-113174500D01*
X156543482Y-113174500D01*
X156449695Y-113189354D01*
X156336658Y-113246949D01*
X156246949Y-113336658D01*
X156189353Y-113449697D01*
X156174500Y-113543480D01*
X156174500Y-113749700D01*
X156159914Y-113784914D01*
X156124700Y-113799500D01*
X156016142Y-113799500D01*
X155980928Y-113784914D01*
X155966342Y-113749700D01*
X155966346Y-113749036D01*
X155968201Y-113609895D01*
X155975000Y-113100000D01*
X155974998Y-113099999D01*
X155967789Y-113092172D01*
X155950775Y-113083709D01*
X155938646Y-113047574D01*
X155955620Y-113013448D01*
X155962453Y-113009214D01*
X155962263Y-113008930D01*
X155999948Y-112983748D01*
X156022405Y-112950141D01*
X156028299Y-112920507D01*
X156028300Y-112920501D01*
X156028300Y-112681900D01*
X155474850Y-112681900D01*
X155439636Y-112667314D01*
X155425050Y-112632100D01*
X155425050Y-112580300D01*
X155373250Y-112580300D01*
X155338036Y-112565714D01*
X155323450Y-112530500D01*
X155323450Y-112148500D01*
X155526650Y-112148500D01*
X155526650Y-112478700D01*
X155723500Y-112478700D01*
X155926700Y-112478700D01*
X156028299Y-112478700D01*
X156028299Y-112240098D01*
X156028298Y-112240094D01*
X156022405Y-112210458D01*
X155999948Y-112176851D01*
X155966340Y-112154394D01*
X155966341Y-112154394D01*
X155936707Y-112148500D01*
X155926700Y-112148500D01*
X155926700Y-112478700D01*
X155723500Y-112478700D01*
X155723500Y-112148500D01*
X155723499Y-112148499D01*
X155713500Y-112148500D01*
X155683857Y-112154395D01*
X155652742Y-112175186D01*
X155615360Y-112182622D01*
X155597408Y-112175186D01*
X155566293Y-112154395D01*
X155566291Y-112154394D01*
X155536657Y-112148500D01*
X155526650Y-112148500D01*
X155323450Y-112148500D01*
X155323449Y-112148499D01*
X155313449Y-112148500D01*
X155285304Y-112154097D01*
X155247921Y-112146658D01*
X155226748Y-112114965D01*
X155225808Y-112106539D01*
X155225589Y-112097976D01*
X155239264Y-112062402D01*
X155274092Y-112046915D01*
X155275372Y-112046899D01*
X155835102Y-112046899D01*
X155835105Y-112046898D01*
X155864741Y-112041005D01*
X155888693Y-112025000D01*
X156050000Y-112025000D01*
X156050000Y-111933370D01*
X163023401Y-111933370D01*
X163033357Y-112001714D01*
X163084895Y-112107133D01*
X163167866Y-112190104D01*
X163273289Y-112241642D01*
X163341627Y-112251599D01*
X163600000Y-112251599D01*
X164100000Y-112251599D01*
X164358371Y-112251599D01*
X164426714Y-112241642D01*
X164532133Y-112190104D01*
X164615104Y-112107133D01*
X164666642Y-112001710D01*
X164676600Y-111933372D01*
X164676600Y-111900000D01*
X164100000Y-111900000D01*
X164100000Y-112251599D01*
X163600000Y-112251599D01*
X163600000Y-111900000D01*
X163023401Y-111900000D01*
X163023401Y-111933370D01*
X156050000Y-111933370D01*
X156050000Y-111366627D01*
X163023400Y-111366627D01*
X163023400Y-111400000D01*
X163600000Y-111400000D01*
X164100000Y-111400000D01*
X164676599Y-111400000D01*
X164676599Y-111366629D01*
X164666642Y-111298285D01*
X164615104Y-111192866D01*
X164532133Y-111109895D01*
X164426710Y-111058357D01*
X164358372Y-111048400D01*
X164100000Y-111048400D01*
X164100000Y-111400000D01*
X163600000Y-111400000D01*
X163600000Y-111048400D01*
X163341629Y-111048400D01*
X163273285Y-111058357D01*
X163167866Y-111109895D01*
X163084895Y-111192866D01*
X163033357Y-111298289D01*
X163023400Y-111366627D01*
X156050000Y-111366627D01*
X156050000Y-110800000D01*
X155949476Y-110798817D01*
X155985422Y-110791667D01*
X156035204Y-110758404D01*
X156055989Y-110727296D01*
X156087679Y-110706122D01*
X156096909Y-110705169D01*
X156650000Y-110700000D01*
X156650000Y-110241322D01*
X156653790Y-110222267D01*
X156675500Y-110169855D01*
X156675500Y-110111519D01*
X156690085Y-110076306D01*
X156778050Y-109988342D01*
X156810325Y-109925000D01*
X162194508Y-109925000D01*
X162214353Y-110050302D01*
X162214353Y-110050303D01*
X162265407Y-110150500D01*
X162271950Y-110163342D01*
X162361658Y-110253050D01*
X162474696Y-110310646D01*
X162600000Y-110330492D01*
X162725304Y-110310646D01*
X162838342Y-110253050D01*
X162864487Y-110226904D01*
X162899700Y-110212318D01*
X162934914Y-110226903D01*
X162949501Y-110262117D01*
X162949501Y-110406518D01*
X162964354Y-110500304D01*
X163021950Y-110613342D01*
X163111658Y-110703050D01*
X163224696Y-110760646D01*
X163318481Y-110775500D01*
X163906518Y-110775499D01*
X164000304Y-110760646D01*
X164113342Y-110703050D01*
X164203050Y-110613342D01*
X164260646Y-110500304D01*
X164275207Y-110408370D01*
X164823401Y-110408370D01*
X164833357Y-110476714D01*
X164884895Y-110582133D01*
X164967866Y-110665104D01*
X165073289Y-110716642D01*
X165141628Y-110726599D01*
X165187500Y-110726599D01*
X165687500Y-110726599D01*
X165733371Y-110726599D01*
X165801714Y-110716642D01*
X165907133Y-110665104D01*
X165990104Y-110582133D01*
X166041642Y-110476710D01*
X166051600Y-110408372D01*
X166051600Y-110175000D01*
X165687500Y-110175000D01*
X165687500Y-110726599D01*
X165187500Y-110726599D01*
X165187500Y-110175000D01*
X164823401Y-110175000D01*
X164823401Y-110408370D01*
X164275207Y-110408370D01*
X164275500Y-110406519D01*
X164275499Y-109443482D01*
X164275205Y-109441627D01*
X164823400Y-109441627D01*
X164823400Y-109675000D01*
X165187500Y-109675000D01*
X165687500Y-109675000D01*
X166051599Y-109675000D01*
X166051599Y-109441629D01*
X166041642Y-109373285D01*
X165990104Y-109267866D01*
X165907133Y-109184895D01*
X165801710Y-109133357D01*
X165733372Y-109123400D01*
X165687500Y-109123400D01*
X165687500Y-109675000D01*
X165187500Y-109675000D01*
X165187500Y-109123400D01*
X165141629Y-109123400D01*
X165073285Y-109133357D01*
X164967866Y-109184895D01*
X164884895Y-109267866D01*
X164833357Y-109373289D01*
X164823400Y-109441627D01*
X164275205Y-109441627D01*
X164260646Y-109349696D01*
X164203050Y-109236658D01*
X164113342Y-109146950D01*
X164113341Y-109146949D01*
X164113342Y-109146949D01*
X164000302Y-109089353D01*
X163906519Y-109074500D01*
X163318482Y-109074500D01*
X163224695Y-109089354D01*
X163111658Y-109146949D01*
X163021949Y-109236658D01*
X162964353Y-109349697D01*
X162949500Y-109443480D01*
X162949500Y-109587880D01*
X162934914Y-109623094D01*
X162899700Y-109637680D01*
X162864486Y-109623094D01*
X162838341Y-109596949D01*
X162838342Y-109596949D01*
X162725303Y-109539353D01*
X162600000Y-109519508D01*
X162474697Y-109539353D01*
X162474696Y-109539353D01*
X162361658Y-109596949D01*
X162271949Y-109686658D01*
X162214353Y-109799696D01*
X162214353Y-109799697D01*
X162194508Y-109925000D01*
X156810325Y-109925000D01*
X156835646Y-109875304D01*
X156855492Y-109750000D01*
X156835646Y-109624696D01*
X156778050Y-109511658D01*
X156688342Y-109421950D01*
X156677189Y-109416267D01*
X156652437Y-109387282D01*
X156650000Y-109371896D01*
X156650000Y-109023313D01*
X156664586Y-108988099D01*
X156698290Y-108973536D01*
X159950000Y-108875000D01*
X159936999Y-108225000D01*
X160103468Y-108225000D01*
X160138426Y-108277320D01*
X160138429Y-108277323D01*
X160196842Y-108316353D01*
X160196844Y-108316354D01*
X160248355Y-108326599D01*
X160290749Y-108326599D01*
X160590750Y-108326599D01*
X160633143Y-108326599D01*
X160633153Y-108326598D01*
X160684653Y-108316355D01*
X160684655Y-108316354D01*
X160743070Y-108277323D01*
X160743073Y-108277320D01*
X160778032Y-108225000D01*
X160590750Y-108225000D01*
X160590750Y-108326599D01*
X160290749Y-108326599D01*
X160290750Y-108326598D01*
X160290750Y-108225000D01*
X160103468Y-108225000D01*
X159936999Y-108225000D01*
X159933499Y-108050000D01*
X162269508Y-108050000D01*
X162289353Y-108175302D01*
X162289353Y-108175303D01*
X162341336Y-108277323D01*
X162346950Y-108288342D01*
X162436658Y-108378050D01*
X162549696Y-108435646D01*
X162675000Y-108455492D01*
X162800304Y-108435646D01*
X162877093Y-108396519D01*
X162915089Y-108393529D01*
X162944072Y-108418283D01*
X162949500Y-108440891D01*
X162949500Y-108506517D01*
X162964354Y-108600304D01*
X163001241Y-108672700D01*
X163021950Y-108713342D01*
X163111658Y-108803050D01*
X163224696Y-108860646D01*
X163318481Y-108875500D01*
X163906518Y-108875499D01*
X164000304Y-108860646D01*
X164113342Y-108803050D01*
X164203050Y-108713342D01*
X164260646Y-108600304D01*
X164275207Y-108508370D01*
X164823401Y-108508370D01*
X164833357Y-108576714D01*
X164884895Y-108682133D01*
X164967866Y-108765104D01*
X165073289Y-108816642D01*
X165141628Y-108826599D01*
X165187500Y-108826599D01*
X165687500Y-108826599D01*
X165733371Y-108826599D01*
X165801714Y-108816642D01*
X165907133Y-108765104D01*
X165990104Y-108682133D01*
X166041642Y-108576710D01*
X166051600Y-108508372D01*
X166051600Y-108275000D01*
X165687500Y-108275000D01*
X165687500Y-108826599D01*
X165187500Y-108826599D01*
X165187500Y-108275000D01*
X164823401Y-108275000D01*
X164823401Y-108508370D01*
X164275207Y-108508370D01*
X164275500Y-108506519D01*
X164275499Y-107543482D01*
X164275205Y-107541627D01*
X164823400Y-107541627D01*
X164823400Y-107775000D01*
X165187500Y-107775000D01*
X165687500Y-107775000D01*
X166051599Y-107775000D01*
X166051599Y-107541629D01*
X166041642Y-107473285D01*
X165990104Y-107367866D01*
X165907133Y-107284895D01*
X165801710Y-107233357D01*
X165733372Y-107223400D01*
X165687500Y-107223400D01*
X165687500Y-107775000D01*
X165187500Y-107775000D01*
X165187500Y-107223400D01*
X165141629Y-107223400D01*
X165073285Y-107233357D01*
X164967866Y-107284895D01*
X164884895Y-107367866D01*
X164833357Y-107473289D01*
X164823400Y-107541627D01*
X164275205Y-107541627D01*
X164260646Y-107449696D01*
X164203050Y-107336658D01*
X164113342Y-107246950D01*
X164113341Y-107246949D01*
X164113342Y-107246949D01*
X164000302Y-107189353D01*
X163906519Y-107174500D01*
X163318482Y-107174500D01*
X163224695Y-107189354D01*
X163111658Y-107246949D01*
X163021949Y-107336658D01*
X162964353Y-107449697D01*
X162949500Y-107543480D01*
X162949500Y-107659107D01*
X162934914Y-107694321D01*
X162899700Y-107708907D01*
X162877091Y-107703479D01*
X162800303Y-107664353D01*
X162675000Y-107644508D01*
X162549697Y-107664353D01*
X162549696Y-107664353D01*
X162436658Y-107721949D01*
X162346949Y-107811658D01*
X162289353Y-107924696D01*
X162289353Y-107924697D01*
X162269508Y-108050000D01*
X159933499Y-108050000D01*
X159930999Y-107924999D01*
X160103467Y-107924999D01*
X160103468Y-107925000D01*
X160290750Y-107925000D01*
X160590750Y-107925000D01*
X160778032Y-107925000D01*
X160778032Y-107924999D01*
X160743073Y-107872679D01*
X160743070Y-107872676D01*
X160684657Y-107833646D01*
X160684655Y-107833645D01*
X160633147Y-107823400D01*
X160590750Y-107823400D01*
X160590750Y-107925000D01*
X160290750Y-107925000D01*
X160290750Y-107823400D01*
X160248362Y-107823400D01*
X160248358Y-107823401D01*
X160196843Y-107833646D01*
X160138429Y-107872676D01*
X160138426Y-107872679D01*
X160103467Y-107924999D01*
X159930999Y-107924999D01*
X159925567Y-107653389D01*
X159939446Y-107617892D01*
X159949139Y-107610056D01*
X160710262Y-107138885D01*
X160974999Y-106975001D01*
X160975000Y-106975000D01*
X160975000Y-106822566D01*
X160989586Y-106787352D01*
X160997129Y-106781161D01*
X161024604Y-106762804D01*
X161024603Y-106762804D01*
X161028684Y-106760078D01*
X161029453Y-106761229D01*
X161059071Y-106748955D01*
X161068797Y-106749912D01*
X161098894Y-106755899D01*
X161108900Y-106755898D01*
X161108901Y-106755898D01*
X161108901Y-105181100D01*
X161108900Y-105181099D01*
X161098901Y-105181100D01*
X161068792Y-105187088D01*
X161031409Y-105179650D01*
X161025476Y-105174779D01*
X160997132Y-105155839D01*
X160975957Y-105124146D01*
X160975000Y-105114432D01*
X160975000Y-105049588D01*
X160989586Y-105014374D01*
X161024585Y-104999788D01*
X161595852Y-104997358D01*
X161631126Y-105011794D01*
X161645862Y-105046945D01*
X161644905Y-105056872D01*
X161638300Y-105090077D01*
X161638300Y-105132790D01*
X161623714Y-105168004D01*
X161588500Y-105182590D01*
X161578785Y-105181633D01*
X161576108Y-105181100D01*
X161566101Y-105181100D01*
X161566101Y-106755899D01*
X161576103Y-106755899D01*
X161576106Y-106755898D01*
X161605741Y-106750005D01*
X161609964Y-106747184D01*
X161647347Y-106739748D01*
X161676759Y-106759399D01*
X161676825Y-106759334D01*
X161677154Y-106759663D01*
X161679038Y-106760922D01*
X161680295Y-106762803D01*
X161680296Y-106762804D01*
X161730078Y-106796067D01*
X161773980Y-106804800D01*
X161773985Y-106804800D01*
X163226015Y-106804800D01*
X163226020Y-106804800D01*
X163269922Y-106796067D01*
X163319704Y-106762804D01*
X163352967Y-106713022D01*
X163361700Y-106669120D01*
X163361700Y-105090080D01*
X163353565Y-105049185D01*
X163361001Y-105011803D01*
X163392692Y-104990627D01*
X163402180Y-104989671D01*
X166799989Y-104975212D01*
X166835264Y-104989649D01*
G37*
%TD.AperFunction*%
%TA.AperFunction,Conductor*%
G36*
X154159923Y-112057183D02*
G01*
X154138747Y-112088875D01*
X154112076Y-112097258D01*
X154025796Y-112098984D01*
X153990297Y-112085105D01*
X153989297Y-112082823D01*
X153975000Y-112069999D01*
X153975000Y-112025000D01*
X154153521Y-112025000D01*
X154159923Y-112057183D01*
G37*
%TD.AperFunction*%
%TA.AperFunction,Conductor*%
G36*
X154035202Y-110772038D02*
G01*
X154041689Y-110776372D01*
X153975268Y-110775591D01*
X153975385Y-110775592D01*
X153978422Y-110775627D01*
X154007829Y-110763648D01*
X154035202Y-110772038D01*
G37*
%TD.AperFunction*%
%TD*%
%TA.AperFunction,Conductor*%
%TO.N,VBAT*%
G36*
X154715939Y-112569685D02*
G01*
X154761694Y-112622489D01*
X154772900Y-112674000D01*
X154772900Y-112925320D01*
X154772900Y-112925322D01*
X154772899Y-112925322D01*
X154781631Y-112969217D01*
X154786306Y-112980502D01*
X154783870Y-112981510D01*
X154799480Y-113031360D01*
X154799500Y-113033576D01*
X154799500Y-113120142D01*
X154799499Y-113120156D01*
X154799499Y-113219855D01*
X154821208Y-113272264D01*
X154821207Y-113272264D01*
X154836182Y-113308414D01*
X154845581Y-113352690D01*
X154849999Y-113524998D01*
X154850000Y-113525001D01*
X155451604Y-113987772D01*
X155492739Y-114044249D01*
X155500000Y-114086057D01*
X155500000Y-114727759D01*
X155480315Y-114794798D01*
X155427511Y-114840553D01*
X155377771Y-114851746D01*
X153875771Y-114873203D01*
X153808457Y-114854478D01*
X153761953Y-114802333D01*
X153750000Y-114749216D01*
X153750000Y-114110646D01*
X153769685Y-114043607D01*
X153797867Y-114012769D01*
X154425000Y-113525000D01*
X154413883Y-113091466D01*
X154431842Y-113023947D01*
X154434739Y-113019400D01*
X154435004Y-113019004D01*
X154468267Y-112969222D01*
X154477000Y-112925320D01*
X154477000Y-112674000D01*
X154496685Y-112606961D01*
X154549489Y-112561206D01*
X154601000Y-112550000D01*
X154648900Y-112550000D01*
X154715939Y-112569685D01*
G37*
%TD.AperFunction*%
%TD*%
%TA.AperFunction,Conductor*%
%TO.N,GND*%
G36*
X153975269Y-110775591D02*
G01*
X154041687Y-110776371D01*
X154064578Y-110791667D01*
X154108480Y-110800400D01*
X154108485Y-110800400D01*
X154341315Y-110800400D01*
X154341320Y-110800400D01*
X154385222Y-110791667D01*
X154397258Y-110783625D01*
X154411825Y-110780727D01*
X154446584Y-110781136D01*
X154452593Y-110783625D01*
X154464628Y-110791667D01*
X154508530Y-110800400D01*
X154508535Y-110800400D01*
X154741365Y-110800400D01*
X154741370Y-110800400D01*
X154785272Y-110791667D01*
X154794899Y-110785234D01*
X154856127Y-110785953D01*
X154864678Y-110791667D01*
X154908580Y-110800400D01*
X154908585Y-110800400D01*
X155141415Y-110800400D01*
X155141420Y-110800400D01*
X155185322Y-110791667D01*
X155188027Y-110789859D01*
X155263348Y-110790745D01*
X155264728Y-110791667D01*
X155308630Y-110800400D01*
X155308635Y-110800400D01*
X155541465Y-110800400D01*
X155541470Y-110800400D01*
X155571768Y-110794373D01*
X155685082Y-110795705D01*
X155708680Y-110800400D01*
X155708685Y-110800400D01*
X155941515Y-110800400D01*
X155941520Y-110800400D01*
X155949477Y-110798817D01*
X156050000Y-110800000D01*
X156050000Y-112025000D01*
X153925000Y-112025000D01*
X153925000Y-110825389D01*
X153939586Y-110790175D01*
X153974800Y-110775589D01*
X153975269Y-110775591D01*
G37*
%TD.AperFunction*%
%TD*%
%TA.AperFunction,Conductor*%
%TO.N,GND*%
G36*
X152270993Y-109818907D02*
G01*
X152277994Y-109824495D01*
X153442205Y-110843179D01*
X153456213Y-110858284D01*
X153505735Y-110924314D01*
X153525000Y-110950000D01*
X153925000Y-110950000D01*
X153925000Y-112025000D01*
X153975000Y-112025000D01*
X153975000Y-112044500D01*
X153714420Y-112044500D01*
X153714418Y-112044500D01*
X153701112Y-112044931D01*
X153688317Y-112045761D01*
X153613415Y-112065227D01*
X153613409Y-112065229D01*
X153558145Y-112091497D01*
X153558144Y-112091498D01*
X153505113Y-112127840D01*
X153505110Y-112127843D01*
X152758218Y-112834725D01*
X152427313Y-113147903D01*
X152372053Y-113174170D01*
X152359262Y-113175000D01*
X151124500Y-113175000D01*
X151066309Y-113156093D01*
X151030345Y-113106593D01*
X151025500Y-113076000D01*
X151025500Y-112873999D01*
X151044407Y-112815808D01*
X151093907Y-112779844D01*
X151124500Y-112774999D01*
X151374999Y-112774999D01*
X151375000Y-112774998D01*
X151375000Y-112425001D01*
X151875000Y-112425001D01*
X151875000Y-112774998D01*
X151875001Y-112774999D01*
X152133213Y-112774999D01*
X152133216Y-112774998D01*
X152201250Y-112765087D01*
X152306188Y-112713785D01*
X152388786Y-112631187D01*
X152440087Y-112526248D01*
X152450000Y-112458215D01*
X152450000Y-112425001D01*
X152449999Y-112425000D01*
X151875001Y-112425000D01*
X151875000Y-112425001D01*
X151375000Y-112425001D01*
X151375000Y-111575001D01*
X151875000Y-111575001D01*
X151875000Y-111924999D01*
X151875001Y-111925000D01*
X152449998Y-111925000D01*
X152449999Y-111924999D01*
X152449999Y-111891786D01*
X152449998Y-111891783D01*
X152440087Y-111823749D01*
X152388785Y-111718811D01*
X152306187Y-111636213D01*
X152201248Y-111584912D01*
X152133216Y-111575000D01*
X151875001Y-111575000D01*
X151875000Y-111575001D01*
X151375000Y-111575001D01*
X151374999Y-111575000D01*
X151124500Y-111575000D01*
X151066309Y-111556093D01*
X151030345Y-111506593D01*
X151025500Y-111476000D01*
X151025500Y-111448999D01*
X151044407Y-111390808D01*
X151093907Y-111354844D01*
X151124500Y-111349999D01*
X151374999Y-111349999D01*
X151375000Y-111349998D01*
X151375000Y-111000001D01*
X151875000Y-111000001D01*
X151875000Y-111349998D01*
X151875001Y-111349999D01*
X152133213Y-111349999D01*
X152133216Y-111349998D01*
X152201250Y-111340087D01*
X152306188Y-111288785D01*
X152388786Y-111206187D01*
X152440087Y-111101248D01*
X152450000Y-111033215D01*
X152450000Y-111000001D01*
X152449999Y-111000000D01*
X151875001Y-111000000D01*
X151875000Y-111000001D01*
X151375000Y-111000001D01*
X151375000Y-110150001D01*
X151875000Y-110150001D01*
X151875000Y-110499999D01*
X151875001Y-110500000D01*
X152449998Y-110500000D01*
X152449999Y-110499999D01*
X152449999Y-110466786D01*
X152449998Y-110466783D01*
X152440087Y-110398749D01*
X152388785Y-110293811D01*
X152306187Y-110211213D01*
X152201248Y-110159912D01*
X152133216Y-110150000D01*
X151875001Y-110150000D01*
X151875000Y-110150001D01*
X151375000Y-110150001D01*
X151374999Y-110150000D01*
X151124500Y-110150000D01*
X151066309Y-110131093D01*
X151030345Y-110081593D01*
X151025500Y-110051000D01*
X151025500Y-109899000D01*
X151044407Y-109840809D01*
X151093907Y-109804845D01*
X151124500Y-109800000D01*
X152212802Y-109800000D01*
X152270993Y-109818907D01*
G37*
%TD.AperFunction*%
%TD*%
%TA.AperFunction,Conductor*%
%TO.N,BATT_POS*%
G36*
X153703177Y-115919685D02*
G01*
X153723819Y-115936319D01*
X153725000Y-115937500D01*
X155538135Y-115937500D01*
X155570515Y-115919818D01*
X155598151Y-115916991D01*
X156252280Y-115923734D01*
X156319111Y-115944108D01*
X156364319Y-115997381D01*
X156375000Y-116047727D01*
X156375000Y-116748376D01*
X156355315Y-116815415D01*
X156312010Y-116856329D01*
X156295968Y-116865394D01*
X156295962Y-116865399D01*
X156246359Y-116928783D01*
X156231437Y-116963858D01*
X156231434Y-116963867D01*
X156219033Y-117023249D01*
X156219032Y-117023250D01*
X156212164Y-117744500D01*
X156211134Y-117852646D01*
X156205499Y-118444389D01*
X156204441Y-118555500D01*
X156195944Y-119447564D01*
X156195943Y-119447745D01*
X156195937Y-119448570D01*
X156195935Y-119449044D01*
X156207771Y-119509207D01*
X156222355Y-119544417D01*
X156222362Y-119544431D01*
X156242651Y-119579574D01*
X156242653Y-119579576D01*
X156306513Y-119628577D01*
X156312996Y-119632320D01*
X156361214Y-119682885D01*
X156375000Y-119739709D01*
X156375000Y-119876000D01*
X156355315Y-119943039D01*
X156302511Y-119988794D01*
X156251000Y-120000000D01*
X154252006Y-120000000D01*
X154184967Y-119980315D01*
X154139212Y-119927511D01*
X154128603Y-119863846D01*
X154142277Y-119724999D01*
X154123211Y-119531413D01*
X154066744Y-119345270D01*
X154002840Y-119225713D01*
X154002839Y-119225713D01*
X153653374Y-119575177D01*
X153639222Y-119522358D01*
X153570104Y-119402643D01*
X153472357Y-119304896D01*
X153352642Y-119235778D01*
X153299821Y-119221624D01*
X153649285Y-118872159D01*
X153529726Y-118808254D01*
X153529723Y-118808253D01*
X153343586Y-118751788D01*
X153150000Y-118732722D01*
X152956413Y-118751788D01*
X152770276Y-118808253D01*
X152770272Y-118808254D01*
X152650713Y-118872159D01*
X153000178Y-119221624D01*
X152947358Y-119235778D01*
X152827643Y-119304896D01*
X152729896Y-119402643D01*
X152660778Y-119522358D01*
X152646624Y-119575177D01*
X152297160Y-119225713D01*
X152297159Y-119225713D01*
X152233254Y-119345272D01*
X152233253Y-119345276D01*
X152176788Y-119531413D01*
X152157722Y-119724999D01*
X152171397Y-119863846D01*
X152158378Y-119932492D01*
X152110313Y-119983202D01*
X152047994Y-120000000D01*
X151149500Y-120000000D01*
X151082461Y-119980315D01*
X151036706Y-119927511D01*
X151025500Y-119876000D01*
X151025500Y-116504196D01*
X153725001Y-116504196D01*
X153727851Y-116534606D01*
X153772653Y-116662645D01*
X153853207Y-116771792D01*
X153962354Y-116852346D01*
X154090397Y-116897149D01*
X154120792Y-116899999D01*
X154374999Y-116899999D01*
X154875000Y-116899999D01*
X155129196Y-116899999D01*
X155159606Y-116897148D01*
X155287645Y-116852346D01*
X155396792Y-116771792D01*
X155477346Y-116662645D01*
X155522149Y-116534604D01*
X155522149Y-116534600D01*
X155525000Y-116504206D01*
X155525000Y-116437500D01*
X154875000Y-116437500D01*
X154875000Y-116899999D01*
X154374999Y-116899999D01*
X154375000Y-116899998D01*
X154375000Y-116437500D01*
X153725001Y-116437500D01*
X153725001Y-116504196D01*
X151025500Y-116504196D01*
X151025500Y-116024000D01*
X151045185Y-115956961D01*
X151097989Y-115911206D01*
X151149500Y-115900000D01*
X153636138Y-115900000D01*
X153703177Y-115919685D01*
G37*
%TD.AperFunction*%
%TD*%
M02*
